<svg xmlns="http://www.w3.org/2000/svg" id="prefix__Component_490_4" width="20.037" height="19.955" data-name="Component 490 – 4" viewBox="0 0 20.037 19.955">
    <defs>
        <style>
            .prefix__cls-1{fill:#fff}
        </style>
    </defs>
    <path id="prefix__Path_2161" d="M6618.118-3807.781a10.017 10.017 0 0 0-7.968-9.013 10.1 10.1 0 0 0-2.032-.206 9.989 9.989 0 0 0-7 2.853 9.932 9.932 0 0 0-3.01 7.125v2.769a1.643 1.643 0 0 0 1.663 1.659 1.643 1.643 0 0 0 1.662-1.659v-2.769a6.689 6.689 0 0 1 6.694-6.669 6.689 6.689 0 0 1 6.693 6.669v2.769a1.643 1.643 0 0 0 1.662 1.659 1.644 1.644 0 0 0 1.663-1.659v-2.769c.002-.256-.008-.509-.027-.759z" class="prefix__cls-1" data-name="Path 2161" transform="translate(-6598.11 3817)"/>
    <path id="prefix__Path_2162" d="M6617.2-3700.034a3.888 3.888 0 0 1-3.788-3.035 3.906 3.906 0 0 1-.1-.854v-2.769a4.45 4.45 0 0 0-4.448-4.429 4.45 4.45 0 0 0-4.448 4.429v2.769a3.883 3.883 0 0 1-3.876 3.889 1.636 1.636 0 0 0-1.653 1.66 1.636 1.636 0 0 0 1.652 1.66 7.212 7.212 0 0 0 7.2-7.208v-2.769a1.111 1.111 0 0 1 1.123-1.121 1.111 1.111 0 0 1 1.123 1.121v2.769a7.16 7.16 0 0 0 1.545 4.447 7.211 7.211 0 0 0 5.673 2.762 1.648 1.648 0 0 0 1.666-1.66 1.644 1.644 0 0 0-1.669-1.661z" class="prefix__cls-1" data-name="Path 2162" transform="translate(-6598.851 3716.67)"/>
</svg>
