<svg xmlns="http://www.w3.org/2000/svg" width="24.243" height="23.96" viewBox="0 0 24.243 23.96">
    <g id="Component_1031_2" data-name="Component 1031 – 2" transform="translate(.1 .1)">
        <path id="Union_24" fill="#fff" stroke="#fff" stroke-width="0.2px" d="M3135.192 14035.085a2.137 2.137 0 0 0-.209-.384h1.223a2.16 2.16 0 0 0 0-4.32h-3.76a2.159 2.159 0 0 0-1.781-3.381h-11.5a2.16 2.16 0 0 0 0 4.32h3.76a2.154 2.154 0 0 0 0 2.441h-1.225a25.869 25.869 0 0 1-2.16 5.541 2.156 2.156 0 0 1 0 3.381 2.156 2.156 0 0 1 0 3.381 2.162 2.162 0 0 0 2.16 2.16h5.534a7.981 7.981 0 1 0 7.962-13.14zm1.014-3.765a1.221 1.221 0 1 1 0 2.441h-11.5a1.221 1.221 0 1 1 0-2.441zm-17.046-.939a1.221 1.221 0 1 1 0-2.441h11.5a1.221 1.221 0 1 1 0 2.441zm2.536 4.32h11.5a1.214 1.214 0 0 1 .533.123q-.333-.029-.674-.029a7.959 7.959 0 0 0-5.649 2.348h-5.706a1.221 1.221 0 1 1 0-2.441zm0 3.381h4.913a7.956 7.956 0 0 0-1.207 2.441h-3.702a1.221 1.221 0 1 1 0-2.441zm0 3.381h3.49a8 8 0 0 0-.029 2.442h-3.457a1.221 1.221 0 0 1 0-2.442zm0 5.823a1.221 1.221 0 0 1 0-2.442h3.653a7.954 7.954 0 0 0 1.127 2.442zm11.364 2.535a7.043 7.043 0 1 1 7.044-7.043 7.051 7.051 0 0 1-7.044 7.043z" data-name="Union 24" transform="translate(-3117 -14027)"/>
    </g>
</svg>
