<svg xmlns="http://www.w3.org/2000/svg" id="lock" width="16.6" height="22.133" viewBox="0 0 16.6 22.133">
    <path id="lock-2" fill="#fff" d="M18.525 8.991V6.225a6.225 6.225 0 0 0-12.45 0v2.766A2.075 2.075 0 0 0 4 11.066v4.842a6.224 6.224 0 0 0 6.225 6.225h4.15a6.224 6.224 0 0 0 6.225-6.225v-4.842a2.075 2.075 0 0 0-2.075-2.075zM7.458 6.225a4.842 4.842 0 0 1 9.683 0v2.766h-1.383V6.226a3.458 3.458 0 0 0-6.917 0v2.765H7.458zm7.608 0v2.766H9.533V6.225a2.767 2.767 0 0 1 5.533 0zm4.15 6.917v2.767a4.848 4.848 0 0 1-4.842 4.842h-4.15a4.848 4.848 0 0 1-4.842-4.842v-4.843a.692.692 0 0 1 .692-.692h12.45a.692.692 0 0 1 .692.692zm-6.917 0a1.383 1.383 0 0 1 1.383 1.383 6.878 6.878 0 0 1-.461 1.855c-.189.51-.382.91-.923.91-.5 0-.734-.4-.922-.917a6.949 6.949 0 0 1-.461-1.848 1.383 1.383 0 0 1 1.385-1.384z" data-name="lock" transform="translate(-4)"/>
</svg>
