<svg xmlns="http://www.w3.org/2000/svg" id="pen" width="20.599" height="20.599" viewBox="0 0 20.599 20.599">
    <path id="pen-2" fill="#fff" d="M18.922 1.661A5.5 5.5 0 0 0 15.095 0a4.212 4.212 0 0 0-3.006 1.208L8.956 4.365c-.01.009-.021.015-.03.024s-.008.012-.014.017l-6.649 6.7a2.59 2.59 0 0 0-.652 1.1L.1 17.683a4.515 4.515 0 0 0-.1.664A2.255 2.255 0 0 0 2.256 20.6 4.568 4.568 0 0 0 3 20.478l5.458-1.435a2.588 2.588 0 0 0 1.1-.654l9.825-9.9c1.785-1.789 1.583-4.789-.461-6.828zm-8.613 13.657a5.243 5.243 0 0 0-.463-1.691l6.086-6.086a3.14 3.14 0 0 1-.635 3.221c-.005.005-.012.008-.016.014l.009.008-4.974 5.016c0-.162.007-.319-.007-.482zm-.786-2.278a5.836 5.836 0 0 0-.851-1.113 5.751 5.751 0 0 0-1.316-.96l6.136-6.137a4.451 4.451 0 0 1 2.175 2.07zM6.75 10.661a5.135 5.135 0 0 0-1.85-.385l4.959-5a3.09 3.09 0 0 1 2.956-.676L6.75 10.661zM2.682 19.23a3.231 3.231 0 0 1-.436.082.969.969 0 0 1-.959-.966 3.155 3.155 0 0 1 .066-.362l.678-2.455a2.943 2.943 0 0 1 2.15.89 2.941 2.941 0 0 1 .9 2.183l-2.4.628zm3.03-.8a3.593 3.593 0 0 0-1.076-2.471 3.671 3.671 0 0 0-2.424-1.089l.641-2.322a1.261 1.261 0 0 1 .252-.44 3.683 3.683 0 0 1 4.657.729 3.614 3.614 0 0 1 .561 4.872 1.268 1.268 0 0 1-.231.1zM18.469 7.578L17.385 8.67c0-.145.017-.285 0-.434a5.54 5.54 0 0 0-1.637-3.392 5.494 5.494 0 0 0-3.812-1.654L13 2.115a2.932 2.932 0 0 1 2.093-.827 4.215 4.215 0 0 1 2.918 1.284A4.245 4.245 0 0 1 19.3 5.255a2.949 2.949 0 0 1-.835 2.323z" data-name="pen"/>
</svg>
