<svg xmlns="http://www.w3.org/2000/svg" id="picture" width="18.6" height="16.275" viewBox="0 0 18.6 16.275">
    <path id="picture-2" fill="#fff" d="M5.812 11.881zm-.581-3.487A1.744 1.744 0 1 0 3.487 6.65a1.744 1.744 0 0 0 1.744 1.744zM18.018 2H.581A.581.581 0 0 0 0 2.581v15.112a.581.581 0 0 0 .581.581h17.437a.581.581 0 0 0 .581-.581V2.581A.581.581 0 0 0 18.018 2zm-.581 14.531a.581.581 0 0 1-.581.581H1.744a.581.581 0 0 1-.581-.581V3.744a.581.581 0 0 1 .581-.581h15.112a.581.581 0 0 1 .581.581z" data-name="picture" transform="translate(0 -2)"/>
</svg>
