<svg xmlns="http://www.w3.org/2000/svg" id="trash" width="18.091" height="21.654" viewBox="0 0 18.091 21.654">
    <path id="trash-2" fill="#fff" d="M20.078 4.615a1.973 1.973 0 0 0-1.925-1.906h-1.939v-.678A1.986 1.986 0 0 0 14.276 0H7.815a1.986 1.986 0 0 0-1.938 2.03v.677H3.938a1.972 1.972 0 0 0-1.926 1.907H2v1.477a1.324 1.324 0 0 0 1.292 1.354v11.5a2.648 2.648 0 0 0 2.584 2.707h10.338a2.648 2.648 0 0 0 2.586-2.703V7.445a1.324 1.324 0 0 0 1.292-1.353V4.615h-.013zM7.169 2.032a.661.661 0 0 1 .646-.677h6.461a.661.661 0 0 1 .646.677v.677H7.169v-.677zm10.337 16.917a1.326 1.326 0 0 1-1.292 1.351H5.877a1.326 1.326 0 0 1-1.292-1.353V7.445h12.921zM18.8 5.415v.677H3.292V4.739a.661.661 0 0 1 .646-.677h14.214a.661.661 0 0 1 .646.677zM6.523 18.952h1.292a.661.661 0 0 0 .646-.677v-8.8a.661.661 0 0 0-.646-.675H6.523a.661.661 0 0 0-.646.677v8.8a.661.661 0 0 0 .646.675zm0-9.474h1.292v8.8H6.523zm3.877 9.474h1.292a.661.661 0 0 0 .646-.677v-8.8a.661.661 0 0 0-.646-.677H10.4a.661.661 0 0 0-.646.677v8.8a.661.661 0 0 0 .646.677zm0-9.474h1.292v8.8H10.4zm3.877 9.474h1.292a.661.661 0 0 0 .646-.677v-8.8a.661.661 0 0 0-.646-.677h-1.293a.661.661 0 0 0-.646.677v8.8a.661.661 0 0 0 .646.677zm0-9.474h1.292v8.8h-1.293z" data-name="trash" transform="translate(-2 -.001)"/>
</svg>
