<svg xmlns="http://www.w3.org/2000/svg" id="wallet" width="21.677" height="21" viewBox="0 0 21.677 21">
    <path id="wallet-2" fill="#fff" d="M10.839 13.871a1.355 1.355 0 1 1 1.355 1.355 1.354 1.354 0 0 1-1.355-1.355zm8.807-4.742v-6.1A2.033 2.033 0 0 0 17.613 1H3.726A3.73 3.73 0 0 0 0 4.726v13.548A3.73 3.73 0 0 0 3.726 22h12.193a3.731 3.731 0 0 0 3.726-3.726v-1.016a5.082 5.082 0 0 0 .001-8.129zM3.726 2.355h13.887a.678.678 0 0 1 .677.677v4.189a2.009 2.009 0 0 0-.677-.125V3.71a.677.677 0 0 0-.677-.677H2.709a.677.677 0 0 0-.677.677v2.671a2.368 2.368 0 0 1 1.694-4.026zm13.209 2.032H2.709V3.71h14.226zm0 .677v.677H2.709v-.676zm0 1.355V7.1H3.726a2.344 2.344 0 0 1-1.016-.24v-.44zm1.355 11.855a2.371 2.371 0 0 1-2.371 2.371H3.726a2.371 2.371 0 0 1-2.371-2.371V7.6a3.707 3.707 0 0 0 2.371.854h13.887a.678.678 0 0 1 .677.677v1.355h-6.1a3.387 3.387 0 0 0 0 6.774h6.1zm.865-2.371h-6.961a2.032 2.032 0 0 1 0-4.065h6.1a1.4 1.4 0 0 0 1.085-.545 1.364 1.364 0 0 0 .169-.312c.006-.015.017-.026.022-.042a3.734 3.734 0 0 1-.412 4.963z" data-name="wallet" transform="translate(0 -1)"/>
</svg>
