<svg width="100%" height="100%" viewBox="0 0 180 180" fill="none" xmlns="http://www.w3.org/2000/svg">
<circle cx="90" cy="90" r="90" fill="black"/>
<path d="M114.712 115.417H97.8081V132.321C97.8081 134.221 99.4085 135.822 101.309 135.822H114.712C116.612 135.822 118.213 134.221 118.213 132.321V118.918C118.113 117.017 116.612 115.417 114.712 115.417Z" fill="url(#paint0_linear_195_94)"/>
<path d="M118.113 83.109C118.013 81.2085 116.512 79.7082 114.612 79.7082H82.4047V64.4047V47.5008C82.4047 45.6004 80.8043 44 78.9039 44H65.5008C63.6004 44 62 45.6004 62 47.5008V64.4047V79.7082V100.113V115.416V132.32C62 134.221 63.6004 135.821 65.5008 135.821H78.9039C80.8043 135.821 82.4047 134.221 82.4047 132.32V115.416V100.113H114.612C116.012 100.113 117.213 99.3127 117.713 98.1124C117.713 98.0124 117.813 98.0124 117.813 97.9124C118.013 97.5123 118.113 97.0121 118.113 96.512V83.109C118.213 83.109 118.213 83.109 118.113 83.109Z" fill="url(#paint1_linear_195_94)"/>
<path d="M118.113 61.0037C118.113 60.9037 118.113 60.9037 118.113 60.8037V47.5007C118.113 47.3006 118.113 47.1006 118.113 47.0005C118.113 46.8005 118.013 46.7005 118.013 46.5004C118.013 46.4004 117.913 46.3004 117.913 46.2004C117.813 46.0003 117.713 45.9003 117.713 45.7002C117.613 45.6002 117.513 45.4002 117.413 45.3002C117.313 45.2001 117.213 45.1001 117.213 45.1001C116.612 44.5 115.712 44.0999 114.712 44.0999H101.309C99.4085 44.0999 97.8081 45.7003 97.8081 47.6007V64.5046H114.712C116.512 64.4045 118.113 62.9042 118.113 61.0037Z" fill="url(#paint2_linear_195_94)"/>
<defs>
<linearGradient id="paint0_linear_195_94" x1="61.075" y1="125.625" x2="117.123" y2="125.625" gradientUnits="userSpaceOnUse">
<stop stop-color="#FF82FF"/>
<stop offset="1" stop-color="#5D37C0"/>
</linearGradient>
<linearGradient id="paint1_linear_195_94" x1="61.0751" y1="89.8933" x2="117.124" y2="89.8933" gradientUnits="userSpaceOnUse">
<stop stop-color="#FF82FF"/>
<stop offset="1" stop-color="#5D37C0"/>
</linearGradient>
<linearGradient id="paint2_linear_195_94" x1="61.075" y1="54.1618" x2="117.123" y2="54.1618" gradientUnits="userSpaceOnUse">
<stop stop-color="#FF82FF"/>
<stop offset="1" stop-color="#5D37C0"/>
</linearGradient>
</defs>
</svg>
