<svg width="100%" height="100%" viewBox="0 0 800 800" fill="none" xmlns="http://www.w3.org/2000/svg">
<circle cx="400" cy="400" r="400" fill="#141414"/>
<path fill-rule="evenodd" clip-rule="evenodd" d="M265.766 402.397C265.766 381.214 282.938 364.041 304.122 364.041L505.492 364.041C526.675 364.041 543.848 381.214 543.848 402.397C543.848 423.581 526.675 440.753 505.492 440.753L304.122 440.753C282.938 440.753 265.766 423.581 265.766 402.397Z" fill="url(#paint0_linear_181_175)"/>
<path fill-rule="evenodd" clip-rule="evenodd" d="M412 301.712C357.717 301.712 313.712 345.717 313.712 400C313.712 454.283 357.717 498.288 412 498.288H505.493C526.677 498.288 543.849 515.46 543.849 536.644C543.849 557.827 526.677 575 505.493 575H412C315.35 575 237 496.65 237 400C237 303.35 315.35 225 412 225H505.493C526.677 225 543.849 242.173 543.849 263.356C543.849 284.54 526.677 301.712 505.493 301.712H412Z" fill="url(#paint1_linear_181_175)"/>
<defs>
<linearGradient id="paint0_linear_181_175" x1="301.724" y1="404.794" x2="505.492" y2="404.794" gradientUnits="userSpaceOnUse">
<stop stop-color="#B04200"/>
<stop offset="1" stop-color="#F6921A"/>
</linearGradient>
<linearGradient id="paint1_linear_181_175" x1="390.425" y1="263.356" x2="390.425" y2="536.644" gradientUnits="userSpaceOnUse">
<stop stop-color="#FFEEDC"/>
<stop offset="1" stop-color="#FFC382"/>
</linearGradient>
</defs>
</svg>
