<?xml version="1.0" encoding="utf-8"?>
<!-- Generator: Adobe Illustrator 18.1.0, SVG Export Plug-In . SVG Version: 6.00 Build 0)  -->
<svg version="1.1" id="Layer_1" xmlns="http://www.w3.org/2000/svg" xmlns:xlink="http://www.w3.org/1999/xlink" x="0px" y="0px"
	 viewBox="0 0 642 522" enable-background="new 0 0 642 522" xml:space="preserve">
<g id="HamBu_Menu" transform="translate(2 2)">
	<g id="Path">
		<path d="M574.9,119.1H61.1c-30.6,0-55.6-25-55.6-55.6S30.5,8,61.1,8h513.9c30.6,0,55.6,25,55.6,55.6S605.5,119.1,574.9,119.1z"/>
	</g>
	<g id="Path-2">
		<path d="M574.9,313.6H241.6c-30.6,0-55.6-25-55.6-55.6s25-55.6,55.6-55.6h333.3c30.6,0,55.6,25,55.6,55.6S605.5,313.6,574.9,313.6
			z"/>
	</g>
	<g id="Path-3">
		<path d="M74.9,313.6h-2.8c-30.6,0-55.6-25-55.6-55.6s25-55.6,55.6-55.6h2.8c30.6,0,55.6,25,55.6,55.6S105.5,313.6,74.9,313.6z"/>
	</g>
	<g id="Path-4">
		<path d="M574.9,508H61.1c-30.6,0-55.6-25-55.6-55.6s25-55.6,55.6-55.6h513.9c30.6,0,55.6,25,55.6,55.6S605.5,508,574.9,508z"/>
	</g>
</g>
</svg>
