<?xml version="1.0" standalone="no"?>
<!DOCTYPE svg PUBLIC "-//W3C//DTD SVG 20010904//EN"
 "http://www.w3.org/TR/2001/REC-SVG-20010904/DTD/svg10.dtd">
<svg version="1.0" xmlns="http://www.w3.org/2000/svg"
 width="200.000000pt" height="200.000000pt" viewBox="0 0 200.000000 200.000000"
 preserveAspectRatio="xMidYMid meet">

<g transform="translate(0.000000,200.000000) scale(0.100000,-0.100000)"
fill="#000000" stroke="none">
<path d="M1518 1824 c-54 -16 -113 -70 -134 -120 -21 -51 -18 -136 8 -188 l21
-45 -131 -139 -132 -139 -47 23 c-62 32 -134 32 -195 1 l-45 -23 -129 121
c-93 86 -128 126 -126 140 13 99 -7 154 -68 186 -99 53 -213 -15 -213 -128 0
-100 115 -173 203 -128 l29 15 130 -121 c72 -67 131 -125 131 -129 0 -4 -7
-24 -15 -43 -21 -51 -19 -120 6 -177 l21 -50 -146 -154 -147 -154 -46 20 c-37
16 -59 19 -106 15 -80 -7 -133 -43 -169 -116 -45 -89 -34 -174 34 -247 86 -93
219 -95 309 -5 71 70 87 151 48 242 -25 58 -39 36 136 222 92 97 134 135 145
131 8 -4 35 -14 60 -22 25 -8 47 -16 49 -18 2 -2 12 -76 22 -166 18 -155 18
-164 1 -173 -9 -5 -35 -28 -58 -50 -30 -29 -43 -51 -48 -81 -21 -125 88 -231
208 -204 109 24 166 138 122 243 -17 41 -69 86 -108 94 -38 8 -44 24 -58 158
-6 61 -13 129 -16 152 -5 37 -4 42 18 48 12 4 37 18 54 31 l31 23 135 -97 135
-97 -5 -49 c-15 -160 197 -219 271 -76 60 117 -78 253 -195 192 l-37 -20 -133
96 c-73 52 -134 96 -136 98 -2 1 2 13 9 26 18 33 15 128 -4 167 -20 40 -27 30
134 200 l115 121 39 -16 c59 -24 159 -16 208 18 52 35 84 81 96 137 35 165
-120 306 -281 255z"/>
</g>
</svg>
