<svg xmlns="http://www.w3.org/2000/svg" id="prefix__Medium_Elastos_Logo" width="135.479" height="133.214" data-name="Medium Elastos Logo" viewBox="0 0 135.479 133.214">
    <defs>
        <style>
            .prefix__cls-1{fill:#37477d}
        </style>
    </defs>
    <path id="prefix__Path_638" d="M2907.658 1477.759a63.794 63.794 0 0 1-24.34-23.869 69.831 69.831 0 0 1 0-68.117 63.833 63.833 0 0 1 24.34-23.869 73.024 73.024 0 0 1 69.06 0 63.872 63.872 0 0 1 24.341 23.869 69.831 69.831 0 0 1 0 68.117 63.833 63.833 0 0 1-24.341 23.869 73.026 73.026 0 0 1-69.06 0zm67.079-3.114a60.325 60.325 0 0 0 23.02-22.642 65.832 65.832 0 0 0 0-64.343 60.323 60.323 0 0 0-23.02-22.642 68.638 68.638 0 0 0-65.1 0 60.279 60.279 0 0 0-23.02 22.642 65.828 65.828 0 0 0 0 64.343 60.281 60.281 0 0 0 23.02 22.642 68.642 68.642 0 0 0 65.1 0z" class="prefix__cls-1" data-name="Path 638" transform="translate(-2874.449 -1353.225)"/>
    <path id="prefix__Path_639" d="M3073.682 1696.208l13.829-7.984 13.829-8.032-13.829-7.984-13.829 7.984-13.829-7.984-13.829 7.984 13.829 8.032z" class="prefix__cls-1" data-name="Path 639" transform="translate(-3004.738 -1604.07)"/>
    <path id="prefix__Path_640" d="M3073.682 1577l13.829-7.984 13.829-8.032-13.829-7.984-13.829 7.984-13.829-7.984-13.829 7.984 13.829 8.032z" class="prefix__cls-1" data-name="Path 640" transform="translate(-3004.738 -1506.534)"/>
</svg>
