<svg width="19" height="19" viewBox="0 0 19 19" fill="none" xmlns="http://www.w3.org/2000/svg">
<path d="M19 14.8438C19.0008 15.3899 18.8939 15.9307 18.6853 16.4353C18.4767 16.9399 18.1706 17.3984 17.7845 17.7845C17.3984 18.1706 16.9399 18.4768 16.4353 18.6853C15.9306 18.8939 15.3898 19.0008 14.8437 19H8.08819L6.58508 18.9815L4.97061 18.9351L3.48597 18.8517L2.08525 18.6934L1.02019 18.4722L0.250694 18.1661L0 17.7571C0.0246296 16.6685 0.704935 15.7067 2.04092 14.8718C3.59807 13.9626 5.3314 13.3964 7.125 13.2109V12.5987C6.48928 12.3195 5.9201 11.9084 5.45511 11.3928C4.97501 10.8571 4.59769 10.2375 4.34203 9.56514C4.06291 8.84056 3.86347 8.08776 3.74722 7.32003C3.61983 6.46947 3.55808 5.61037 3.5625 4.75034C3.54709 4.01554 3.70608 3.28756 4.02642 2.62608C4.32092 2.03099 4.76142 1.52022 5.3068 1.14148C5.87796 0.75165 6.51191 0.462975 7.18094 0.288086C7.93785 0.0901241 8.71766 -0.00659619 9.5 0.000453796C10.2834 -0.00750387 11.0644 0.089229 11.8222 0.288086C12.4911 0.463439 13.125 0.752079 13.6964 1.14148C14.2419 1.52008 14.6824 2.03088 14.9767 2.62608C15.2963 3.28771 15.4543 4.01576 15.4375 4.75034C15.4375 7.39726 14.9977 9.40118 14.1181 10.7621C14.3567 10.717 14.5988 10.6922 14.8416 10.6877C15.3879 10.6866 15.9289 10.7933 16.4338 11.0018C16.9387 11.2102 17.3974 11.5163 17.7838 11.9024C18.1701 12.2885 18.4764 12.7471 18.6851 13.2519C18.8938 13.7566 19.0008 14.2976 19 14.8438ZM17.8125 14.8438C17.8167 14.238 17.6282 13.6466 17.2742 13.155L13.1575 17.2716C13.6016 17.5806 14.1219 17.7622 14.6619 17.7967C15.2018 17.8312 15.741 17.7172 16.2208 17.467C16.7006 17.2169 17.1027 16.8402 17.3837 16.3778C17.6647 15.9154 17.8137 15.3849 17.8146 14.8438H17.8125ZM14.25 5.067C14.2838 4.51267 14.1804 3.95856 13.949 3.45373C13.7176 2.94889 13.3652 2.50891 12.9232 2.17273C11.9196 1.48095 10.7178 1.13521 9.5 1.18793C8.28232 1.13421 7.08039 1.47943 6.07683 2.17115C5.63454 2.50748 5.28205 2.94772 5.05061 3.45285C4.81916 3.95799 4.71591 4.51241 4.75 5.067C4.7446 5.84497 4.80676 6.62194 4.93578 7.38916C5.05218 8.06961 5.25158 8.73321 5.52953 9.36512C5.78262 9.95143 6.16281 10.4742 6.64261 10.8956C7.12321 11.3092 7.69577 11.6018 8.3125 11.749V14.3097C7.57675 14.3829 6.8478 14.5131 6.13225 14.6992C5.50681 14.8552 4.89547 15.0629 4.30455 15.3204C3.84133 15.5261 3.39195 15.7616 2.95925 16.0255C2.64615 16.2093 2.3512 16.4224 2.07839 16.662C1.881 16.8474 1.78195 16.9834 1.78125 17.07C1.78125 17.2431 2.01629 17.3854 2.48636 17.4969C3.18343 17.634 3.89136 17.7086 4.60169 17.7196C5.54184 17.7548 6.32418 17.7796 6.94872 17.7941C7.57326 17.8085 8.42368 17.8146 9.5 17.8125C10.5513 17.8125 11.3606 17.8064 11.9278 17.7941C11.5282 17.4147 11.2115 16.9568 10.9976 16.449C10.7837 15.9413 10.6772 15.3947 10.6849 14.8438C10.6849 14.7696 10.7025 14.5965 10.7376 14.3245C10.733 14.3191 10.7274 14.3147 10.721 14.3115C10.7147 14.3084 10.7078 14.3065 10.7007 14.3061H10.6875V11.7453C13.0625 11.2383 14.25 9.01222 14.25 5.067ZM11.875 14.8438C11.8708 15.4496 12.0593 16.0411 12.4133 16.5327L16.5326 12.4135C16.0885 12.1044 15.5683 11.9228 15.0283 11.8883C14.4883 11.8539 13.9492 11.9679 13.4694 12.218C12.9896 12.4681 12.5874 12.8448 12.3064 13.3072C12.0255 13.7696 11.8764 14.3001 11.8755 14.8412L11.875 14.8438Z" fill="#E4E4E4"/>
</svg>
