<svg width="7" height="9" viewBox="0 0 7 9" fill="none" xmlns="http://www.w3.org/2000/svg">
<path d="M3.14041 8.8185C0.492592 5.11575 0 4.73575 0 3.375C0 2.47989 0.368749 1.62145 1.02513 0.988515C1.6815 0.355579 2.57174 0 3.5 0C4.42826 0 5.3185 0.355579 5.97487 0.988515C6.63125 1.62145 7 2.47989 7 3.375C7 4.73575 6.50741 5.11575 3.85959 8.8185C3.81928 8.8745 3.7655 8.92026 3.70286 8.95187C3.64022 8.98347 3.57057 8.99997 3.49987 8.99997C3.42917 8.99997 3.35952 8.98347 3.29688 8.95187C3.23424 8.92026 3.18046 8.8745 3.14015 8.8185H3.14041ZM3.5 4.78125C3.78843 4.78125 4.07038 4.69877 4.31021 4.54425C4.55003 4.38973 4.73695 4.17011 4.84732 3.91315C4.9577 3.65619 4.98658 3.37344 4.93031 3.10065C4.87404 2.82787 4.73515 2.5773 4.5312 2.38063C4.32725 2.18396 4.0674 2.05003 3.78451 1.99577C3.50162 1.94151 3.2084 1.96936 2.94192 2.07579C2.67544 2.18223 2.44768 2.36247 2.28744 2.59373C2.1272 2.82499 2.04167 3.09687 2.04167 3.375C2.04163 3.55968 2.07933 3.74256 2.15261 3.91319C2.22588 4.08382 2.3333 4.23885 2.46873 4.36944C2.60415 4.50003 2.76493 4.60361 2.94188 4.67427C3.11883 4.74493 3.30848 4.78128 3.5 4.78125Z" fill="#ACACAC"/>
</svg>
