<svg width="23" height="18" viewBox="0 0 23 18" fill="none" xmlns="http://www.w3.org/2000/svg">
<path d="M18.9226 17.9922C19.4175 18.0474 19.7828 17.8063 20.054 17.3915C20.375 16.9032 20.5046 16.3567 20.6116 15.8031C21.4156 11.6577 22.1645 7.50314 22.7664 3.32713C22.8864 2.49254 23.0917 1.65795 22.9544 0.803949C22.8853 0.37695 22.6713 0.156299 22.2293 0.0490388C21.7214 -0.0745662 21.2427 0.0582326 20.7683 0.196139C19.2954 0.62416 17.8798 1.2003 16.4544 1.74682C12.5241 3.2546 8.64028 4.86657 4.74673 6.45607C3.42295 6.99646 2.10457 7.54808 0.795913 8.11912C0.417689 8.28461 -0.0178089 8.49708 0.000561999 8.96801C0.0189329 9.44915 0.481447 9.59727 0.878042 9.73211C2.09809 10.1469 3.3365 10.5044 4.59977 10.7904C5.6307 11.0233 6.5687 10.8752 7.4559 10.3542C7.75416 10.1785 8.05025 9.99975 8.34203 9.81383C11.035 8.09664 13.729 6.38047 16.4566 4.71334C16.6089 4.62038 16.7645 4.5264 16.9537 4.51618C17.2638 4.50086 17.4313 4.72458 17.3005 4.98915C17.2551 5.08109 17.1892 5.16996 17.1136 5.24147C16.3172 5.99536 15.5315 6.75946 14.7146 7.49394C13.2838 8.78107 11.8033 10.0171 10.4331 11.3635C9.76955 12.0152 9.82034 12.6118 10.5865 13.1675C11.0188 13.4811 11.4759 13.7631 11.9265 14.0522C13.7117 15.1973 15.4959 16.3434 17.2886 17.4784C17.7663 17.7828 18.2818 18.0136 18.9226 17.9922Z" fill="black"/>
</svg>
