<svg xmlns="http://www.w3.org/2000/svg" id="NameIcon" width="13.352" height="16.004" viewBox="0 0 13.352 16.004">
    <defs>
        <style>
            .cls-1{fill:#121212;}
        </style>
    </defs>
    <path id="Path_22135" d="M90.886 7.709a3.73 3.73 0 0 0 2.725-1.129 3.73 3.73 0 0 0 1.129-2.725 3.73 3.73 0 0 0-1.129-2.725 3.854 3.854 0 0 0-5.451 0 3.73 3.73 0 0 0-1.129 2.725 3.73 3.73 0 0 0 1.13 2.725 3.73 3.73 0 0 0 2.725 1.129zm0 0" class="cls-1" transform="translate(-84.311)"/>
    <path id="Path_22136" d="M13.32 251.892a9.521 9.521 0 0 0-.13-1.011 7.968 7.968 0 0 0-.249-1.017 5.022 5.022 0 0 0-.418-.948 3.578 3.578 0 0 0-.63-.821 2.779 2.779 0 0 0-.905-.569 3.129 3.129 0 0 0-1.156-.209 1.173 1.173 0 0 0-.626.266c-.188.122-.407.264-.653.421a3.739 3.739 0 0 1-.844.372 3.279 3.279 0 0 1-2.066 0A3.73 3.73 0 0 1 4.8 248c-.243-.155-.463-.3-.653-.421a1.172 1.172 0 0 0-.626-.266 3.125 3.125 0 0 0-1.156.209 2.776 2.776 0 0 0-.905.569 3.579 3.579 0 0 0-.63.821 5.032 5.032 0 0 0-.418.948 7.987 7.987 0 0 0-.249 1.017 9.488 9.488 0 0 0-.13 1.012c-.021.306-.032.624-.032.945a2.658 2.658 0 0 0 .789 2.011 2.841 2.841 0 0 0 2.034.742h7.706a2.841 2.841 0 0 0 2.034-.742 2.656 2.656 0 0 0 .789-2.011c-.001-.319-.012-.634-.033-.942zm0 0" class="cls-1" transform="translate(0 -239.586)"/>
</svg>
