<svg xmlns="http://www.w3.org/2000/svg" id="InstagramIcon" width="17.264" height="17.267" viewBox="0 0 17.264 17.267">
    <defs>
        <style>
            .cls-1{fill:#121212;}
        </style>
    </defs>
    <path id="Path_22261" d="M17.669 5.077a6.309 6.309 0 0 0-.4-2.095A4.423 4.423 0 0 0 14.741.455a6.326 6.326 0 0 0-2.095-.4C11.722.01 11.429 0 9.085 0S6.447.01 5.526.051a6.311 6.311 0 0 0-2.095.4 4.213 4.213 0 0 0-1.532 1 4.251 4.251 0 0 0-1 1.528A6.326 6.326 0 0 0 .5 5.073C.459 6 .449 6.291.449 8.635s.01 2.638.051 3.559a6.309 6.309 0 0 0 .4 2.095 4.423 4.423 0 0 0 2.526 2.526 6.327 6.327 0 0 0 2.095.4c.921.041 1.214.051 3.559.051s2.638-.01 3.559-.051a6.308 6.308 0 0 0 2.095-.4 4.417 4.417 0 0 0 2.527-2.526 6.331 6.331 0 0 0 .4-2.095c.04-.921.051-1.214.051-3.559S17.71 6 17.669 5.077zm-1.555 7.05a4.733 4.733 0 0 1-.3 1.6 2.864 2.864 0 0 1-1.639 1.639 4.75 4.75 0 0 1-1.6.3c-.911.041-1.184.051-3.488.051s-2.58-.01-3.488-.051a4.73 4.73 0 0 1-1.6-.3 2.657 2.657 0 0 1-.992-.644 2.685 2.685 0 0 1-.644-.992 4.75 4.75 0 0 1-.3-1.6c-.041-.911-.051-1.184-.051-3.488s.01-2.58.051-3.488a4.73 4.73 0 0 1 .3-1.6 2.625 2.625 0 0 1 .647-.994A2.68 2.68 0 0 1 4 1.916a4.753 4.753 0 0 1 1.6-.3c.911-.04 1.184-.051 3.488-.051s2.58.01 3.488.051a4.733 4.733 0 0 1 1.6.3 2.655 2.655 0 0 1 .992.644 2.684 2.684 0 0 1 .644.992 4.752 4.752 0 0 1 .3 1.6c.04.911.051 1.184.051 3.488s-.008 2.576-.049 3.487zm0 0" class="cls-1" transform="translate(-.449)"/>
    <path id="Path_22262" d="M129.385 124.5a4.436 4.436 0 1 0 4.436 4.436 4.437 4.437 0 0 0-4.436-4.436zm0 7.313a2.877 2.877 0 1 1 2.877-2.877 2.878 2.878 0 0 1-2.877 2.877zm0 0" class="cls-1" transform="translate(-120.75 -120.301)"/>
    <path id="Path_22263" d="M364.52 89.637a1.036 1.036 0 1 1-1.036-1.036 1.036 1.036 0 0 1 1.036 1.036zm0 0" class="cls-1" transform="translate(-350.238 -85.613)"/>
</svg>
