<svg xmlns="http://www.w3.org/2000/svg" width="11.274" height="13.237" viewBox="0 0 11.274 13.237">
    <path fill="#dfdfee" d="M6428.27 15334.4a.857.857 0 0 1-.187-.021 1.226 1.226 0 0 1-.131-.03 8.357 8.357 0 0 1-3.128-1.855 6.679 6.679 0 0 1-1.6-2.485 14.408 14.408 0 0 1-.578-5.2v-.062c.011-.124.011-.271.011-.412a1.4 1.4 0 0 1 1.32-1.37 5.5 5.5 0 0 0 3.714-1.566l.007-.008a.841.841 0 0 1 .574-.225.852.852 0 0 1 .577.225l.008.008a5.408 5.408 0 0 0 3.706 1.566 1.409 1.409 0 0 1 1.32 1.37c0 .08 0 .156.006.226s.005.125.005.187v.073a14.276 14.276 0 0 1-.579 5.184 6.665 6.665 0 0 1-1.6 2.493 8.366 8.366 0 0 1-3.125 1.855c-.04.012-.083.021-.127.03a.856.856 0 0 1-.193.017zm-1.848-7.083a.184.184 0 0 0-.129.055l-.588.589a.174.174 0 0 0 0 .254l1.762 1.767a.182.182 0 0 0 .258 0l3.306-3.306a.129.129 0 0 0 .085-.1.181.181 0 0 0-.047-.162l-.588-.589a.179.179 0 0 0-.258 0l-1.212 1.212-1.4 1.4-1.062-1.066a.182.182 0 0 0-.127-.053z" transform="translate(-6422.629 -15321.164)"/>
</svg>
