<svg xmlns="http://www.w3.org/2000/svg" width="11.273" height="13.236" viewBox="0 0 11.273 13.236">
    <g>
        <path fill="#03d898" d="M-3452.059 7283.59v-.012c0-.125-.011-.263-.011-.411a1.4 1.4 0 0 0-1.32-1.373 5.405 5.405 0 0 1-3.7-1.562l-.009-.009a.847.847 0 0 0-1.15 0l-.008.009a5.473 5.473 0 0 1-3.711 1.563 1.4 1.4 0 0 0-1.32 1.373c0 .143 0 .289-.011.411v.025a14.381 14.381 0 0 0 .576 5.238 6.652 6.652 0 0 0 1.6 2.488 8.379 8.379 0 0 0 3.129 1.853 1.275 1.275 0 0 0 .129.033.955.955 0 0 0 .372 0 1.3 1.3 0 0 0 .128-.033 8.388 8.388 0 0 0 3.127-1.854 6.678 6.678 0 0 0 1.6-2.493 14.42 14.42 0 0 0 .579-5.246z" transform="translate(3463.318 -7279.998)"/>
    </g>
    <path fill="#fff" d="M175.342 301.179l-.588-.588a.178.178 0 0 0-.257 0l-1.212 1.212-1.4 1.4-1.065-1.065a.178.178 0 0 0-.257 0l-.588.588a.178.178 0 0 0 0 .257l1.763 1.764a.178.178 0 0 0 .257 0l3.307-3.307a.155.155 0 0 0 .04-.261z" transform="translate(-166.902 -295.927)"/>
</svg>
