<svg width="17" height="17" viewBox="0 0 17 17" fill="none" xmlns="http://www.w3.org/2000/svg">
<path d="M1.11035 2.3015C1.1105 1.93668 1.26109 1.58684 1.52902 1.32887C1.79696 1.07091 2.16032 0.92592 2.53924 0.925781H6.75787C6.92028 0.925781 7.07605 0.987899 7.19089 1.09847C7.30573 1.20904 7.37025 1.359 7.37025 1.51537C7.37025 1.67174 7.30573 1.82171 7.19089 1.93228C7.07605 2.04285 6.92028 2.10497 6.75787 2.10497H2.53924C2.4851 2.10497 2.43318 2.12567 2.3949 2.16253C2.35662 2.19939 2.33511 2.24937 2.33511 2.3015V14.4864C2.33511 14.5385 2.35662 14.5885 2.3949 14.6254C2.43318 14.6622 2.4851 14.6829 2.53924 14.6829H15.1951C15.2493 14.6829 15.3012 14.6622 15.3395 14.6254C15.3777 14.5885 15.3993 14.5385 15.3993 14.4864V10.4248C15.3993 10.2684 15.4638 10.1184 15.5786 10.0079C15.6935 9.89729 15.8492 9.83518 16.0116 9.83518C16.174 9.83518 16.3298 9.89729 16.4447 10.0079C16.5595 10.1184 16.624 10.2684 16.624 10.4248V14.4864C16.624 14.8513 16.4735 15.2012 16.2055 15.4592C15.9375 15.7172 15.5741 15.8621 15.1951 15.8621H2.53924C2.16028 15.8621 1.79683 15.7172 1.52886 15.4592C1.26089 15.2012 1.11035 14.8513 1.11035 14.4864V2.3015Z" fill="#C9C9C9" stroke="#9D9D9D" stroke-width="0.5"/>
</svg>
