<svg width="19" height="18" viewBox="0 0 19 18" fill="none" xmlns="http://www.w3.org/2000/svg">
<path d="M12.395 1.23932C12.261 1.36833 12.185 1.54412 12.185 1.72826C12.185 1.91241 12.261 2.0882 12.395 2.21721C12.5289 2.34609 12.7097 2.41786 12.8974 2.41786H15.6623L10.7635 7.13433C10.694 7.19701 10.638 7.27265 10.599 7.35694C10.5597 7.44178 10.5385 7.53352 10.5368 7.62666C10.5351 7.71981 10.5529 7.81223 10.5891 7.8984C10.6252 7.98455 10.6789 8.06254 10.7467 8.12784C10.8145 8.19313 10.8951 8.2444 10.9835 8.27878C11.0719 8.31316 11.1665 8.33 11.2616 8.32838C11.3567 8.32677 11.4506 8.30672 11.5378 8.26935C11.6243 8.23221 11.7025 8.17867 11.7677 8.11169L16.6758 3.38624V6.05194C16.6758 6.23608 16.7518 6.41188 16.8858 6.54089C17.0197 6.66977 17.2005 6.74153 17.3882 6.74153C17.5759 6.74153 17.7567 6.66977 17.8906 6.54089C18.0246 6.41188 18.1006 6.23608 18.1006 6.05194V1.72826C18.1006 1.54412 18.0246 1.36833 17.8906 1.23932C17.7567 1.11044 17.5759 1.03867 17.3882 1.03867H12.8974C12.7097 1.03867 12.5289 1.11044 12.395 1.23932Z" fill="#C9C9C9" stroke="#9D9D9D" stroke-width="0.2"/>
<path d="M1.11035 3.3015C1.1105 2.93668 1.26109 2.58684 1.52902 2.32887C1.79696 2.07091 2.16032 1.92592 2.53924 1.92578H6.75787C6.92028 1.92578 7.07605 1.9879 7.19089 2.09847C7.30573 2.20904 7.37025 2.359 7.37025 2.51537C7.37025 2.67174 7.30573 2.82171 7.19089 2.93228C7.07605 3.04285 6.92028 3.10497 6.75787 3.10497H2.53924C2.4851 3.10497 2.43318 3.12567 2.3949 3.16253C2.35662 3.19939 2.33511 3.24937 2.33511 3.3015V15.4864C2.33511 15.5385 2.35662 15.5885 2.3949 15.6254C2.43318 15.6622 2.4851 15.6829 2.53924 15.6829H15.1951C15.2493 15.6829 15.3012 15.6622 15.3395 15.6254C15.3777 15.5885 15.3993 15.5385 15.3993 15.4864V11.4248C15.3993 11.2684 15.4638 11.1184 15.5786 11.0079C15.6935 10.8973 15.8492 10.8352 16.0116 10.8352C16.174 10.8352 16.3298 10.8973 16.4447 11.0079C16.5595 11.1184 16.624 11.2684 16.624 11.4248V15.4864C16.624 15.8513 16.4735 16.2012 16.2055 16.4592C15.9375 16.7172 15.5741 16.8621 15.1951 16.8621H2.53924C2.16028 16.8621 1.79683 16.7172 1.52886 16.4592C1.26089 16.2012 1.11035 15.8513 1.11035 15.4864V3.3015Z" fill="#C9C9C9" stroke="#9D9D9D" stroke-width="0.5"/>
</svg>