<svg xmlns="http://www.w3.org/2000/svg" width="105.371" height="104.874" data-name="Component 1068 – 1" viewBox="0 0 105.371 104.874">
    <path d="M16.524 36.738a15.176 15.176 0 0 0 14.92-7.858c5.291-2.66 19.002-.82 23.615 1.157a21.657 21.657 0 0 0 2.06 7.282c-1.37 1.546-9.992 11.207-15.794 12.218a15.053 15.053 0 0 0-6.15-2.043 15.181 15.181 0 0 0-16.677 13.51 15.181 15.181 0 0 0 10.75 16.142 15.013 15.013 0 0 0 2.74.55 15.175 15.175 0 0 0 16.677-13.508 15.102 15.102 0 0 0-.654-6.257c1.358-4.52 11.504-11.775 14.693-13.39a21.703 21.703 0 0 0 6.986 3.957c.476 4.63-.471 19.186-3.923 22.874a15.184 15.184 0 0 0-10.523 12.886 15.182 15.182 0 0 0 13.493 16.697 15.176 15.176 0 0 0 16.67-13.514 15.183 15.183 0 0 0-7.778-14.9c-2.12-3.735.089-20.98 1.543-22.995a21.854 21.854 0 0 0 19.302-19.43A21.856 21.856 0 0 0 83.38 6.992a32.74 32.74 0 0 1-3.487 10.929A32.74 32.74 0 0 0 83.38 6.992a21.911 21.911 0 0 0-4.317-.9A21.841 21.841 0 0 0 56.033 21c-4.1 1.065-17.41-.406-23.177-2.897A15.171 15.171 0 0 0 19.7 6.533 15.173 15.173 0 0 0 3.026 20.04a15.177 15.177 0 0 0 13.498 16.698zM77.53 22.122q-.763 1.27-1.572 2.51.812-1.238 1.573-2.51zm-1.744 2.76c-7.855 11.91-18.56 21.798-28.453 31.579 9.893-9.78 20.6-19.668 28.45-31.58z" data-name="Path 2154"/>
</svg>
