<svg xmlns="http://www.w3.org/2000/svg" width="115.917" height="95.377" data-name="Component 1071 – 1" viewBox="0 0 115.917 95.377">
    <path d="M114.519 28.911a21.34 21.34 0 0 0-39.846-15.293 21.04 21.04 0 0 0-1.347 9.27l-36.67 16.317a21.35 21.35 0 1 0 5.749 12.936L79.07 35.823a14.042 14.042 0 0 0 1.621 1.538l-5.964 15.541a21.273 21.273 0 1 0 19.49 28.913 21.212 21.212 0 0 0-5.833-23.672l5.965-15.54a21.208 21.208 0 0 0 20.17-13.692zm-26.677-10.24a7.084 7.084 0 1 1 4.075 9.151 7.091 7.091 0 0 1-4.075-9.151zM27.859 56.347a7.083 7.083 0 1 1-4.074-9.151 7.09 7.09 0 0 1 4.074 9.15zm52.9 20.3a7.083 7.083 0 1 1-4.075-9.151 7.091 7.091 0 0 1 4.079 9.155z" data-name="Path 21970"/>
</svg>
