<svg xmlns="http://www.w3.org/2000/svg" id="Component_1064_2" width="61.371" height="41.582" data-name="Component 1064 – 2" viewBox="0 0 61.371 41.582">
    <defs>
        <style>
            .cls-1{fill:#8324ff}
        </style>
    </defs>
    <path id="Path_2152" d="M6654.777-2466.41h12.444a3.462 3.462 0 0 1 .832.022v-6.827a4.736 4.736 0 0 0-4.593-4.83h-52.07a4.831 4.831 0 0 0-4.708 4.83v31.871a4.878 4.878 0 0 0 4.708 4.881h52.07c3.537 0 4.593-3.428 4.593-4.881v-7.1a3.483 3.483 0 0 1-.832.073h-12.444a3.9 3.9 0 0 1-3.881-3.94v-10.208a3.855 3.855 0 0 1 3.881-3.891z" class="cls-1" data-name="Path 2152" transform="translate(-6606.682 2478.045)"/>
    <path id="Path_2153" d="M6856.793-2379.355a4.738 4.738 0 0 0 4.73 4.745 4.724 4.724 0 0 0 4.335-2.852 4.724 4.724 0 0 0 .4-1.893 4.741 4.741 0 0 0-1.269-3.227 4.706 4.706 0 0 0-3.464-1.521 4.739 4.739 0 0 0-4.732 4.748z" class="cls-1" data-name="Path 2153" transform="translate(-6806.303 2400.12)"/>
</svg>
