<svg width="232" height="102" viewBox="0 0 232 102" fill="none" xmlns="http://www.w3.org/2000/svg">
<path d="M129.491 11.2168H120.214V1.92445C120.214 0.87975 121.093 0 122.136 0H129.491C130.04 0 130.479 0.219937 130.864 0.549844C130.918 0.604828 130.973 0.659812 130.973 0.659812C131.028 0.714797 131.083 0.824766 131.138 0.87975C131.193 0.989719 131.248 1.0447 131.248 1.15467C131.248 1.20966 131.303 1.26464 131.303 1.31962C131.303 1.42959 131.358 1.48458 131.358 1.59455C131.358 1.70452 131.358 1.81448 131.358 1.86947V9.34734C131.358 10.392 130.534 11.2168 129.491 11.2168Z" fill="white"/>
<path d="M129.491 30.8464H120.214V19.6296H129.491C130.534 19.6296 131.358 20.4544 131.412 21.4441V21.4991V28.922C131.412 30.0217 130.589 30.8464 129.491 30.8464Z" fill="white"/>
<path d="M129.491 50.5309H122.136C121.093 50.5309 120.214 49.6511 120.214 48.6064V39.3141H129.491C130.534 39.3141 131.412 40.1938 131.412 41.2385V48.6064C131.412 49.6511 130.589 50.5309 129.491 50.5309Z" fill="white"/>
<path d="M111.816 1.92445V48.6062C111.816 49.6509 110.938 50.5306 109.895 50.5306H102.539C101.496 50.5306 100.618 49.6509 100.618 48.6062V1.92445C100.618 0.87975 101.496 0 102.539 0H109.895C110.938 0 111.816 0.87975 111.816 1.92445Z" fill="white"/>
<path d="M129.491 50.5309H122.136C121.093 50.5309 120.214 49.6511 120.214 48.6064V39.3141H129.491C130.534 39.3141 131.412 40.1938 131.412 41.2385V48.6064C131.412 49.6511 130.589 50.5309 129.491 50.5309Z" fill="white"/>
<path d="M111.816 39.2588V48.5511C111.816 49.5958 110.938 50.4756 109.895 50.4756H102.539C101.496 50.4756 100.618 49.5958 100.618 48.5511V39.2588H111.816Z" fill="white"/>
<path d="M131.468 21.5541V28.922C131.468 29.9667 130.59 30.8464 129.547 30.8464H100.618V19.6296H129.547C130.59 19.6296 131.413 20.4544 131.468 21.4441V21.4991C131.468 21.5541 131.468 21.5541 131.468 21.5541Z" fill="white"/>
<path d="M129.491 11.2168H120.214V1.92445C120.214 0.87975 121.093 0 122.136 0H129.491C130.04 0 130.479 0.219937 130.864 0.549844C130.918 0.604828 130.973 0.659812 130.973 0.659812C131.028 0.714797 131.083 0.824766 131.138 0.87975C131.193 0.989719 131.248 1.0447 131.248 1.15467C131.248 1.20966 131.303 1.26464 131.303 1.31962C131.303 1.42959 131.358 1.48458 131.358 1.59455C131.358 1.70452 131.358 1.81448 131.358 1.86947V9.23737C131.358 9.29236 131.358 9.29236 131.358 9.34734C131.358 10.392 130.534 11.2168 129.491 11.2168Z" fill="white"/>
<path d="M111.816 1.92445V11.2168H100.618V1.92445C100.618 0.87975 101.496 0 102.539 0H109.895C110.938 0 111.816 0.87975 111.816 1.92445Z" fill="white"/>
<path d="M0 100.778V77.4095H14.2172V80.4337H3.23867V87.6366H13.1743V90.6608H3.23867V97.8087H14.2172V100.833H0V100.778Z" fill="white"/>
<path d="M36.0643 83.733C35.7898 82.0285 34.3626 79.7192 31.1239 79.7192C28.4891 79.7192 26.6227 81.4237 26.6227 83.6231C26.6227 85.3276 27.6657 86.5922 29.6418 87.0321L33.155 87.8019C37.0524 88.6816 39.1932 91.1009 39.1932 94.345C39.1932 97.974 36.1192 101.273 31.1239 101.273C25.47 101.273 22.8351 97.6441 22.396 94.29L25.47 93.3003C25.6896 95.8846 27.5559 98.3039 31.0691 98.3039C34.3077 98.3039 35.8996 96.5994 35.8996 94.565C35.8996 92.8604 34.7469 91.4308 32.3865 90.936L29.038 90.2212C25.6896 89.5064 23.3292 87.307 23.3292 83.843C23.3292 80.159 26.7325 76.86 31.0142 76.86C36.2839 76.86 38.3698 80.1041 38.9187 82.6883L36.0643 83.733Z" fill="white"/>
<path d="M60.5467 83.733C60.2723 82.0285 58.845 79.7192 55.6064 79.7192C52.9715 79.7192 51.1052 81.4237 51.1052 83.6231C51.1052 85.3276 52.1481 86.5922 54.1243 87.0321L57.6374 87.8019C61.5348 88.6816 63.6756 91.1009 63.6756 94.345C63.6756 97.974 60.6016 101.273 55.6064 101.273C49.9524 101.273 47.3176 97.6441 46.8784 94.29L49.9524 93.3003C50.172 95.8846 52.0383 98.3039 55.5515 98.3039C58.7902 98.3039 60.382 96.5994 60.382 94.565C60.382 92.8604 59.2293 91.4308 56.8689 90.936L53.5204 90.2212C50.172 89.5064 47.8116 87.307 47.8116 83.843C47.8116 80.159 51.215 76.86 55.4966 76.86C60.7663 76.86 62.8522 80.1041 63.4011 82.6883L60.5467 83.733Z" fill="white"/>
<path d="M73.0073 100.778V77.4095H87.2245V80.4337H76.246V87.6366H86.1816V90.6608H76.246V97.8087H87.2245V100.833H73.0073V100.778Z" fill="white"/>
<path d="M112.914 100.778L100.288 81.6983V100.778H97.0498V77.4095H101.386L113.078 95.3344V77.4095H116.317V100.778H112.914Z" fill="white"/>
<path d="M135.53 80.379V100.778H132.291V80.379H124.497V77.3549H143.325V80.379H135.53Z" fill="white"/>
<path d="M151.614 100.778V77.4095H154.907V100.778H151.614Z" fill="white"/>
<path d="M179.389 94.2348H169.07L166.599 100.778H163.141L172.418 77.4095H176.151L185.428 100.778H181.914L179.389 94.2348ZM170.222 91.2656H178.237L174.175 80.7636L170.222 91.2656Z" fill="white"/>
<path d="M193.662 100.778V77.4095H196.9V97.7538H207.934V100.778H193.662Z" fill="white"/>
<path d="M228.628 83.733C228.354 82.0285 226.927 79.7192 223.688 79.7192C221.053 79.7192 219.187 81.4237 219.187 83.6231C219.187 85.3276 220.23 86.5922 222.206 87.0321L225.719 87.8019C229.616 88.6816 231.757 91.1009 231.757 94.345C231.757 97.974 228.683 101.273 223.688 101.273C218.034 101.273 215.399 97.6441 214.96 94.29L218.034 93.3003C218.254 95.8846 220.12 98.3039 223.633 98.3039C226.872 98.3039 228.464 96.5994 228.464 94.565C228.464 92.8604 227.311 91.4308 224.95 90.936L221.602 90.2212C218.254 89.5064 215.893 87.307 215.893 83.843C215.893 80.159 219.296 76.86 223.578 76.86C228.848 76.86 230.934 80.1041 231.483 82.6883L228.628 83.733Z" fill="white"/>
</svg>
