<svg xmlns="http://www.w3.org/2000/svg" xmlns:xlink="http://www.w3.org/1999/xlink" width="236" height="236" viewBox="0 0 236 236"><defs><style>.a,.b{fill:none;}.a{stroke:#4e4e4e;stroke-dasharray:7;}.c{fill:#193645;}.d{fill-rule:evenodd;fill:url(#a);}</style><linearGradient id="a" x1="0.5" x2="0.5" y2="1" gradientUnits="objectBoundingBox"><stop offset="0" stop-color="#65bdec"/><stop offset="1" stop-color="#53b5fd"/></linearGradient></defs><g transform="translate(-83 -196)"><line class="a" y1="75" x2="70" transform="translate(206.5 235.5)"/><line class="a" x2="52" transform="translate(224.5 310.5)"/><line class="a" x1="9" y1="53" transform="translate(190.5 248.5)"/><line class="a" x1="65.979" y1="43" transform="translate(113.521 267.5)"/><line class="a" x2="35" y2="85" transform="translate(206.5 310.5)"/><line class="a" x1="69" y2="55" transform="translate(121.5 322.5)"/><rect class="b" width="236" height="236" transform="translate(83 196)"/><g transform="translate(53.153 51.429)"><rect class="c" width="79" height="77" rx="24" transform="translate(108.847 224.571)"/><g transform="translate(128.142 244.993)"><path class="d" d="M14.3,5.056a19.993,19.993,0,0,1,27.49,18.538,2.221,2.221,0,1,1-4.443,0A15.55,15.55,0,0,0,15.962,9.172,2.221,2.221,0,1,1,14.3,5.056Zm-4.36,5.118a2.221,2.221,0,0,1,.195,3.135A15.483,15.483,0,0,0,6.243,23.593a2.221,2.221,0,0,1-4.443,0,19.926,19.926,0,0,1,5-13.224,2.221,2.221,0,0,1,3.137-.195Z" transform="translate(-1.8 -3.597)"/><path class="d" d="M9.374,21.907a11.107,11.107,0,0,1,22.214,0,2.221,2.221,0,0,1-4.443,0,6.664,6.664,0,0,0-13.328,0,26.6,26.6,0,0,1-2.15,10.5,2.221,2.221,0,1,1-4.083-1.752,22.134,22.134,0,0,0,1.79-8.752Zm19.817,4.47a2.221,2.221,0,0,1,1.846,2.544,44.117,44.117,0,0,1-1.211,5.412,2.221,2.221,0,1,1-4.265-1.239,39.906,39.906,0,0,0,1.088-4.87,2.221,2.221,0,0,1,2.541-1.844Z" transform="translate(-0.488 -1.91)"/><path class="d" d="M18.931,18a2.221,2.221,0,0,1,2.221,2.221,35.462,35.462,0,0,1-2.866,14A2.221,2.221,0,1,1,14.2,32.473,30.994,30.994,0,0,0,16.71,20.221,2.221,2.221,0,0,1,18.931,18Z" transform="translate(1.062 -0.225)"/></g></g><g transform="translate(148.61 -12.839)"><path class="c" d="M12.924,0H29.618A12.924,12.924,0,0,1,42.543,12.924V28.541A12.924,12.924,0,0,1,29.618,41.466H12.924A12.924,12.924,0,0,1,0,28.541V12.924A12.924,12.924,0,0,1,12.924,0Z" transform="translate(108.847 224.571)"/><g transform="translate(119.238 235.569)"><path class="d" d="M8.529,4.382a10.766,10.766,0,0,1,14.8,9.983,1.2,1.2,0,1,1-2.393,0A8.374,8.374,0,0,0,9.426,6.6a1.2,1.2,0,1,1-.9-2.216ZM6.181,7.139a1.2,1.2,0,0,1,.105,1.688,8.338,8.338,0,0,0-2.093,5.539,1.2,1.2,0,1,1-2.393,0A10.731,10.731,0,0,1,4.492,7.244a1.2,1.2,0,0,1,1.689-.105Z" transform="translate(-1.8 -3.597)"/><path class="d" d="M8.465,16.781a5.981,5.981,0,0,1,11.963,0,1.2,1.2,0,1,1-2.393,0,3.589,3.589,0,0,0-7.178,0A14.325,14.325,0,0,1,9.7,22.438a1.2,1.2,0,1,1-2.2-.944,11.92,11.92,0,0,0,.964-4.713Zm10.672,2.407a1.2,1.2,0,0,1,.994,1.37,23.758,23.758,0,0,1-.652,2.914,1.2,1.2,0,1,1-2.3-.667,21.49,21.49,0,0,0,.586-2.622,1.2,1.2,0,0,1,1.368-.993Z" transform="translate(-3.679 -6.013)"/><path class="d" d="M16.666,18a1.2,1.2,0,0,1,1.2,1.2,19.1,19.1,0,0,1-1.543,7.541,1.2,1.2,0,1,1-2.2-.944,16.691,16.691,0,0,0,1.349-6.6A1.2,1.2,0,0,1,16.666,18Z" transform="translate(-5.9 -8.428)"/></g></g><g transform="translate(110.881 150.429)"><path class="c" d="M12.924,0H29.618A12.924,12.924,0,0,1,42.543,12.924V28.541A12.924,12.924,0,0,1,29.618,41.466H12.924A12.924,12.924,0,0,1,0,28.541V12.924A12.924,12.924,0,0,1,12.924,0Z" transform="translate(108.847 224.571)"/><g transform="translate(119.238 235.569)"><path class="d" d="M8.529,4.382a10.766,10.766,0,0,1,14.8,9.983,1.2,1.2,0,1,1-2.393,0A8.374,8.374,0,0,0,9.426,6.6a1.2,1.2,0,1,1-.9-2.216ZM6.181,7.139a1.2,1.2,0,0,1,.105,1.688,8.338,8.338,0,0,0-2.093,5.539,1.2,1.2,0,1,1-2.393,0A10.731,10.731,0,0,1,4.492,7.244a1.2,1.2,0,0,1,1.689-.105Z" transform="translate(-1.8 -3.597)"/><path class="d" d="M8.465,16.781a5.981,5.981,0,0,1,11.963,0,1.2,1.2,0,1,1-2.393,0,3.589,3.589,0,0,0-7.178,0A14.325,14.325,0,0,1,9.7,22.438a1.2,1.2,0,1,1-2.2-.944,11.92,11.92,0,0,0,.964-4.713Zm10.672,2.407a1.2,1.2,0,0,1,.994,1.37,23.758,23.758,0,0,1-.652,2.914,1.2,1.2,0,1,1-2.3-.667,21.49,21.49,0,0,0,.586-2.622,1.2,1.2,0,0,1,1.368-.993Z" transform="translate(-3.679 -6.013)"/><path class="d" d="M16.666,18a1.2,1.2,0,0,1,1.2,1.2,19.1,19.1,0,0,1-1.543,7.541,1.2,1.2,0,1,1-2.2-.944,16.691,16.691,0,0,0,1.349-6.6A1.2,1.2,0,0,1,16.666,18Z" transform="translate(-5.9 -8.428)"/></g></g><g transform="translate(-16.369 22.429)"><path class="c" d="M12.924,0H29.618A12.924,12.924,0,0,1,42.543,12.924V28.541A12.924,12.924,0,0,1,29.618,41.466H12.924A12.924,12.924,0,0,1,0,28.541V12.924A12.924,12.924,0,0,1,12.924,0Z" transform="translate(108.847 224.571)"/><g transform="translate(119.238 235.569)"><path class="d" d="M8.529,4.382a10.766,10.766,0,0,1,14.8,9.983,1.2,1.2,0,1,1-2.393,0A8.374,8.374,0,0,0,9.426,6.6a1.2,1.2,0,1,1-.9-2.216ZM6.181,7.139a1.2,1.2,0,0,1,.105,1.688,8.338,8.338,0,0,0-2.093,5.539,1.2,1.2,0,1,1-2.393,0A10.731,10.731,0,0,1,4.492,7.244a1.2,1.2,0,0,1,1.689-.105Z" transform="translate(-1.8 -3.597)"/><path class="d" d="M8.465,16.781a5.981,5.981,0,0,1,11.963,0,1.2,1.2,0,1,1-2.393,0,3.589,3.589,0,0,0-7.178,0A14.325,14.325,0,0,1,9.7,22.438a1.2,1.2,0,1,1-2.2-.944,11.92,11.92,0,0,0,.964-4.713Zm10.672,2.407a1.2,1.2,0,0,1,.994,1.37,23.758,23.758,0,0,1-.652,2.914,1.2,1.2,0,1,1-2.3-.667,21.49,21.49,0,0,0,.586-2.622,1.2,1.2,0,0,1,1.368-.993Z" transform="translate(-3.679 -6.013)"/><path class="d" d="M16.666,18a1.2,1.2,0,0,1,1.2,1.2,19.1,19.1,0,0,1-1.543,7.541,1.2,1.2,0,1,1-2.2-.944,16.691,16.691,0,0,0,1.349-6.6A1.2,1.2,0,0,1,16.666,18Z" transform="translate(-5.9 -8.428)"/></g></g><g transform="translate(68.61 2.571)"><path class="c" d="M8.122,0h10.49a8.122,8.122,0,0,1,8.122,8.122v9.814a8.122,8.122,0,0,1-8.122,8.122H8.122A8.122,8.122,0,0,1,0,17.935V8.122A8.122,8.122,0,0,1,8.122,0Z" transform="translate(108.847 224.571)"/><g transform="translate(115.377 231.482)"><path class="d" d="M6.028,4.09a6.765,6.765,0,0,1,9.3,6.273.752.752,0,1,1-1.5,0,5.262,5.262,0,0,0-7.235-4.88A.752.752,0,1,1,6.028,4.09ZM4.553,5.822a.752.752,0,0,1,.066,1.061A5.24,5.24,0,0,0,3.3,10.364a.752.752,0,1,1-1.5,0A6.743,6.743,0,0,1,3.491,5.889a.752.752,0,0,1,1.062-.066Z" transform="translate(-1.8 -3.597)"/><path class="d" d="M8.07,14.559a3.759,3.759,0,0,1,7.517,0,.752.752,0,1,1-1.5,0,2.255,2.255,0,0,0-4.51,0,9,9,0,0,1-.727,3.555.752.752,0,1,1-1.382-.593,7.49,7.49,0,0,0,.606-2.962Zm6.706,1.513a.752.752,0,0,1,.625.861,14.929,14.929,0,0,1-.41,1.831.752.752,0,1,1-1.443-.419,13.5,13.5,0,0,0,.368-1.648.752.752,0,0,1,.86-.624Z" transform="translate(-5.063 -7.792)"/><path class="d" d="M15.684,18a.752.752,0,0,1,.752.752,12,12,0,0,1-.97,4.739.752.752,0,1,1-1.382-.593,10.488,10.488,0,0,0,.848-4.146A.752.752,0,0,1,15.684,18Z" transform="translate(-8.919 -11.985)"/></g></g><g transform="translate(162.148 73.571)"><path class="c" d="M8.122,0h10.49a8.122,8.122,0,0,1,8.122,8.122v9.814a8.122,8.122,0,0,1-8.122,8.122H8.122A8.122,8.122,0,0,1,0,17.935V8.122A8.122,8.122,0,0,1,8.122,0Z" transform="translate(108.847 224.571)"/><g transform="translate(115.377 231.482)"><path class="d" d="M6.028,4.09a6.765,6.765,0,0,1,9.3,6.273.752.752,0,1,1-1.5,0,5.262,5.262,0,0,0-7.235-4.88A.752.752,0,1,1,6.028,4.09ZM4.553,5.822a.752.752,0,0,1,.066,1.061A5.24,5.24,0,0,0,3.3,10.364a.752.752,0,1,1-1.5,0A6.743,6.743,0,0,1,3.491,5.889a.752.752,0,0,1,1.062-.066Z" transform="translate(-1.8 -3.597)"/><path class="d" d="M8.07,14.559a3.759,3.759,0,0,1,7.517,0,.752.752,0,1,1-1.5,0,2.255,2.255,0,0,0-4.51,0,9,9,0,0,1-.727,3.555.752.752,0,1,1-1.382-.593,7.49,7.49,0,0,0,.606-2.962Zm6.706,1.513a.752.752,0,0,1,.625.861,14.929,14.929,0,0,1-.41,1.831.752.752,0,1,1-1.443-.419,13.5,13.5,0,0,0,.368-1.648.752.752,0,0,1,.86-.624Z" transform="translate(-5.063 -7.792)"/><path class="d" d="M15.684,18a.752.752,0,0,1,.752.752,12,12,0,0,1-.97,4.739.752.752,0,1,1-1.382-.593,10.488,10.488,0,0,0,.848-4.146A.752.752,0,0,1,15.684,18Z" transform="translate(-8.919 -11.985)"/></g></g><g transform="translate(-0.581 142.571)"><path class="c" d="M8.122,0h10.49a8.122,8.122,0,0,1,8.122,8.122v9.814a8.122,8.122,0,0,1-8.122,8.122H8.122A8.122,8.122,0,0,1,0,17.935V8.122A8.122,8.122,0,0,1,8.122,0Z" transform="translate(108.847 224.571)"/><g transform="translate(115.377 231.482)"><path class="d" d="M6.028,4.09a6.765,6.765,0,0,1,9.3,6.273.752.752,0,1,1-1.5,0,5.262,5.262,0,0,0-7.235-4.88A.752.752,0,1,1,6.028,4.09ZM4.553,5.822a.752.752,0,0,1,.066,1.061A5.24,5.24,0,0,0,3.3,10.364a.752.752,0,1,1-1.5,0A6.743,6.743,0,0,1,3.491,5.889a.752.752,0,0,1,1.062-.066Z" transform="translate(-1.8 -3.597)"/><path class="d" d="M8.07,14.559a3.759,3.759,0,0,1,7.517,0,.752.752,0,1,1-1.5,0,2.255,2.255,0,0,0-4.51,0,9,9,0,0,1-.727,3.555.752.752,0,1,1-1.382-.593,7.49,7.49,0,0,0,.606-2.962Zm6.706,1.513a.752.752,0,0,1,.625.861,14.929,14.929,0,0,1-.41,1.831.752.752,0,1,1-1.443-.419,13.5,13.5,0,0,0,.368-1.648.752.752,0,0,1,.86-.624Z" transform="translate(-5.063 -7.792)"/><path class="d" d="M15.684,18a.752.752,0,0,1,.752.752,12,12,0,0,1-.97,4.739.752.752,0,1,1-1.382-.593,10.488,10.488,0,0,0,.848-4.146A.752.752,0,0,1,15.684,18Z" transform="translate(-8.919 -11.985)"/></g></g></g></svg>