<svg xmlns="http://www.w3.org/2000/svg" id="prefix__Component_228_4" width="500" height="500" data-name="Component 228 – 4" viewBox="0 0 500 500">
    <defs>
        <style>
            .prefix__cls-2{fill:#fff;stroke:#fff;stroke-width:5px}
        </style>
    </defs>
    <rect id="prefix__Rectangle_406" width="500" height="500" data-name="Rectangle 406" rx="250" style="fill:#f06666"/>
    <g id="prefix__Component_313_2" data-name="Component 313 – 2" transform="translate(152.8 133.856)">
        <path id="prefix__Path_2228" d="M377.41 10352.839l69.491 39.237a38.3 38.3 0 0 0 18.209 4.325h.656a37.9 37.9 0 0 0 17.645-4.365l69.452-39.2a15.325 15.325 0 0 0 8.993-12.987l.006-.1-.006-.089a15.384 15.384 0 0 0-8.8-12.888l-.087-.04a4.6 4.6 0 1 0-4.8 7.842 2.035 2.035 0 0 0 .226.118c2.678 1.541 4.276 3.427 4.276 5.047 0 1.649-1.6 3.546-4.269 5.047L479 10384a31.5 31.5 0 0 1-27.592.05l-69.524-39.247c-2.673-1.541-4.269-3.427-4.269-5.047 0-1.64 1.593-3.535 4.22-5.017a4.6 4.6 0 1 0-4.24-8.158.678.678 0 0 0-.2.119 15.3 15.3 0 0 0-8.971 12.967l-.006.1.006.089a15.321 15.321 0 0 0 8.986 12.983z" class="prefix__cls-2" data-name="Path 2228" transform="translate(-368.417 -10233.136)"/>
        <path id="prefix__Path_2229" d="M552.837 10370.676a4.3 4.3 0 0 0-.809-.355l-1.155-.246a5.023 5.023 0 0 0-1.381.129 4.522 4.522 0 0 0-2.847 2.063 4.617 4.617 0 0 0 1.515 6.342l.237.1c2.678 1.551 4.276 3.438 4.276 5.066 0 1.65-1.6 3.535-4.269 5.037L479 10428.025a31.4 31.4 0 0 1-27.591.039l-69.524-39.236c-2.674-1.521-4.27-3.406-4.27-5.037 0-1.648 1.592-3.535 4.22-5.006a4.608 4.608 0 0 0-4.229-8.187c-.07.039-.141.078-.211.127a15.336 15.336 0 0 0-8.964 12.979l-.006.088.006.08a15.337 15.337 0 0 0 8.988 12.986l69.489 39.217a37.6 37.6 0 0 0 18.21 4.336h.657a37.74 37.74 0 0 0 17.644-4.355l69.453-39.2a15.36 15.36 0 0 0 8.993-12.986l.007-.08-.007-.088a15.352 15.352 0 0 0-9.028-13.026z" class="prefix__cls-2" data-name="Path 2229" transform="translate(-368.417 -10224.77)"/>
        <path id="prefix__Path_2230" d="M377.417 10304.02l69.492 39.246a37.86 37.86 0 0 0 17.48 4.316c.244 0 .488-.02.731-.02a38.092 38.092 0 0 0 18.3-4.316l69.451-39.2a15.365 15.365 0 0 0 8.995-12.986l.006-.08-.006-.119a15.352 15.352 0 0 0-8.968-12.947l-69.565-39.266a41.845 41.845 0 0 0-36.467.049l-69.454 39.2a15.334 15.334 0 0 0-8.987 12.967l-.006.1.006.078a15.316 15.316 0 0 0 8.992 12.978z" class="prefix__cls-2" data-name="Path 2230" transform="translate(-368.417 -10234.493)"/>
    </g>
</svg>
