<svg xmlns="http://www.w3.org/2000/svg" id="prefix__Component_227_14" width="500" height="500" data-name="Component 227 – 14" viewBox="0 0 500 500">
    <defs>
        <style>
            .prefix__cls-2{fill:#fff}
        </style>
    </defs>
    <rect id="prefix__Rectangle_406" width="500" height="500" data-name="Rectangle 406" rx="250" style="fill:#92e28b"/>
    <g id="prefix__Component_281_8" data-name="Component 281 – 8" transform="translate(119.951 122.959)">
        <path id="prefix__Path_2208" d="M1223.152-750.095a60.57 60.57 0 0 1 61.28-59.833 60.554 60.554 0 0 1 59.8 60.557h68.908l.343-28.729-30.242-3.135a103.2 103.2 0 0 0-5.493-13.706l19.715-23.181-42.308-43.332-23.608 19.171a102.627 102.627 0 0 0-13.575-5.823l-2.447-30.33-60.552-.713-3.14 30.248a102.606 102.606 0 0 0-13.709 5.487l-23.175-19.71-43.325 42.305 19.171 23.605a103.6 103.6 0 0 0-5.842 13.6l-30.306 2.415-.381 31.824h68.912c.001-.24-.028-.472-.026-.72z" class="prefix__cls-2" data-name="Path 2208" transform="translate(-1154.267 879.149)"/>
        <circle id="prefix__Ellipse_318" cx="25.973" cy="25.973" r="25.973" class="prefix__cls-2" data-name="Ellipse 318" transform="translate(103.95 103.805)"/>
        <circle id="prefix__Ellipse_319" cx="15.724" cy="15.724" r="15.724" class="prefix__cls-2" data-name="Ellipse 319" transform="translate(114.199 178.054)"/>
        <circle id="prefix__Ellipse_320" cx="10.119" cy="10.119" r="10.119" class="prefix__cls-2" data-name="Ellipse 320" transform="translate(119.804 234.658)"/>
    </g>
</svg>
