<svg xmlns="http://www.w3.org/2000/svg" width="215.099" height="214.568" viewBox="0 0 215.099 214.568">
    <g>
        <g>
            <g>
                <path fill="#565bdb" d="M176.438 294.163a79.66 79.66 0 1 0-20.285 18.946l23.357 13.34a5.42 5.42 0 0 0 7.686-6.794z" transform="rotate(63 224.188 172.867)"/>
            </g>
        </g>
        <g>
            <path fill="#fff" d="M97.822 51.516s-21.487 0-29.541 19.1a87.658 87.658 0 0 0 29.541 5.454 87.658 87.658 0 0 0 29.541-5.455c-8.057-19.099-29.541-19.099-29.541-19.099zm0-2.722c8.057 0 13.427-8.185 13.427-21.829S97.822 13.322 97.822 13.322s-13.427 0-13.427 13.642 5.37 21.83 13.427 21.83z" transform="translate(80.363 75.938) translate(-68.28 -13.322)"/>
        </g>
    </g>
</svg>
