<svg xmlns="http://www.w3.org/2000/svg" id="Component_1390_7" width="36.703" height="32.86" viewBox="0 0 36.703 32.86">
    <defs>
        <style>
            .cls-1{fill:#fff}
        </style>
    </defs>
    <path id="Path_22212" d="M-6629.186-3900.341a2.849 2.849 0 0 1 3.664-1.593 2.848 2.848 0 0 1 .913 3.888l-8.926 18.084a2.847 2.847 0 0 1-3.662 1.593 2.848 2.848 0 0 1-.914-3.889z" class="cls-1" transform="translate(6651.631 3910.997)"/>
    <path id="Path_22213" d="M-6560.8-3917.478a2.848 2.848 0 0 1 3.663-1.594 2.847 2.847 0 0 1 .913 3.889l-8.924 18.085a2.849 2.849 0 0 1-3.664 1.593 2.848 2.848 0 0 1-.913-3.889z" class="cls-1" transform="translate(6592.543 3925.804)"/>
    <path id="Path_22214" d="M-6725.841-3948.171a2.848 2.848 0 0 1 3.662-1.594 2.847 2.847 0 0 1 .914 3.889l-8.925 18.085a2.848 2.848 0 0 1-3.663 1.593 2.849 2.849 0 0 1-.913-3.889z" class="cls-1" transform="translate(6735.147 3952.325)"/>
    <path id="Path_22215" d="M-6657.455-3965.309a2.848 2.848 0 0 1 3.664-1.593 2.848 2.848 0 0 1 .912 3.889l-8.924 18.084a2.849 2.849 0 0 1-3.663 1.594 2.849 2.849 0 0 1-.914-3.889z" class="cls-1" transform="translate(6676.059 3967.133)"/>
</svg>
