<svg xmlns="http://www.w3.org/2000/svg" id="Component_1285_3" width="24.747" height="24.845" viewBox="0 0 24.747 24.845">
    <defs>
        <style>
            .cls-1{fill:#fff}
        </style>
    </defs>
    <path id="Path_2161" d="M6622.82-3805.558a12.412 12.412 0 0 0-9.84-11.187 12.409 12.409 0 0 0-2.511-.256 12.3 12.3 0 0 0-8.641 3.541 12.356 12.356 0 0 0-3.719 8.845v3.437a2.036 2.036 0 0 0 2.055 2.061 2.035 2.035 0 0 0 2.053-2.061v-3.437a8.281 8.281 0 0 1 8.266-8.279 8.281 8.281 0 0 1 8.266 8.279v3.437a2.035 2.035 0 0 0 2.053 2.061 2.036 2.036 0 0 0 2.054-2.061v-3.437q.001-.476-.036-.943z" class="cls-1" transform="translate(-6598.11 3817)"/>
    <path id="Path_2162" d="M6621.521-3697a4.842 4.842 0 0 1-4.685-3.866 5.058 5.058 0 0 1-.119-1.089v-3.526a5.585 5.585 0 0 0-5.5-5.64 5.588 5.588 0 0 0-5.5 5.64v3.526a4.873 4.873 0 0 1-4.789 4.955 2.055 2.055 0 0 0-2.045 2.114 2.055 2.055 0 0 0 2.042 2.113 9.054 9.054 0 0 0 8.9-9.182v-3.526a1.391 1.391 0 0 1 1.388-1.425 1.392 1.392 0 0 1 1.387 1.425v3.526a9.3 9.3 0 0 0 1.91 5.665 8.824 8.824 0 0 0 7.013 3.518 2.067 2.067 0 0 0 2.058-2.113 2.062 2.062 0 0 0-2.06-2.115z" class="cls-1" transform="translate(-6598.845 3717.618)"/>
</svg>
