<svg xmlns="http://www.w3.org/2000/svg" width="22.4" height="19.2" viewBox="0 0 22.4 19.2">
    <path fill="#372153" d="M23.04 14.4h-9.28c-.883 0-.96.715-.96 1.6s.077 1.6.96 1.6h9.28c.883 0 .96-.715.96-1.6s-.077-1.6-.96-1.6zm3.2 8H13.76c-.883 0-.96.715-.96 1.6s.077 1.6.96 1.6h12.48c.883 0 .96-.715.96-1.6s-.077-1.6-.96-1.6zM13.76 9.6h12.48c.883 0 .96-.715.96-1.6s-.077-1.6-.96-1.6H13.76c-.883 0-.96.715-.96 1.6s.077 1.6.96 1.6zm-5.12 4.8H5.76c-.883 0-.96.715-.96 1.6s.077 1.6.96 1.6h2.88c.883 0 .96-.715.96-1.6s-.077-1.6-.96-1.6zm0 8H5.76c-.883 0-.96.715-.96 1.6s.077 1.6.96 1.6h2.88c.883 0 .96-.715.96-1.6s-.077-1.6-.96-1.6zm0-16H5.76c-.883 0-.96.715-.96 1.6s.077 1.6.96 1.6h2.88c.883 0 .96-.715.96-1.6s-.077-1.6-.96-1.6z" transform="translate(-4.8 -6.4)"/>
</svg>
