<svg xmlns="http://www.w3.org/2000/svg" width="52.996" height="43.037" viewBox="0 0 52.996 43.037">
    <path fill="#fff" d="M45.479 20.213A17.3 17.3 0 0 0 28.5 4a17 17 0 0 0-16.33 12.62A15.629 15.629 0 0 0 2 31.387a15.42 15.42 0 0 0 15.142 15.65h24.605A13.492 13.492 0 0 0 55 33.344a13.581 13.581 0 0 0-9.521-13.131zm-7.662 6.055a1.9 1.9 0 0 1-1.749 1.207h-3.785V35.3a3.787 3.787 0 1 1-7.571 0v-7.825h-3.785a1.9 1.9 0 0 1-1.749-1.207 2 2 0 0 1 .411-2.132l7.571-7.825a1.849 1.849 0 0 1 2.676 0l7.571 7.825a2 2 0 0 1 .411 2.132z" transform="translate(-2 -4)"/>
</svg>
