<svg width="100%" height="100%" viewBox="0 0 43 34" fill="none" xmlns="http://www.w3.org/2000/svg">
<path d="M21.5 26L21.5 12.5M21.5 12.5L27.5 18.5M21.5 12.5L15.5 18.5M11 32C6.02944 32 2 27.9706 2 23C2 19.0141 4.5911 15.6334 8.1808 14.4504C8.06209 13.8184 8 13.1665 8 12.5C8 6.70101 12.701 2 18.5 2C23.3625 2 27.4529 5.3052 28.6473 9.79149C29.2308 9.60226 29.8535 9.5 30.5 9.5C33.8137 9.5 36.5 12.1863 36.5 15.5C36.5 16.1963 36.3814 16.8649 36.1633 17.4866C38.9907 18.5609 41 21.2958 41 24.5C41 28.6421 37.6421 32 33.5 32H11Z" stroke="currentColor" stroke-width="3" stroke-linecap="round" stroke-linejoin="round"/>
</svg>
