<svg xmlns="http://www.w3.org/2000/svg" id="Component_1214_202" width="21" height="21" viewBox="0 0 21 21">
    <defs>
        <style>
            .cls-1{fill:#372153}
        </style>
    </defs>
    <path id="Subtraction_1" d="M7.5 10h-5A2.5 2.5 0 0 1 0 7.5v-5A2.5 2.5 0 0 1 2.5 0h5A2.5 2.5 0 0 1 10 2.5v5A2.5 2.5 0 0 1 7.5 10zM3.6 2.205a1.4 1.4 0 0 0-1.4 1.4V6.4a1.4 1.4 0 0 0 1.4 1.4h2.8a1.4 1.4 0 0 0 1.4-1.4V3.6a1.4 1.4 0 0 0-1.4-1.4z" class="cls-1"/>
    <path id="Subtraction_2" d="M7.5 10h-5A2.5 2.5 0 0 1 0 7.5v-5A2.5 2.5 0 0 1 2.5 0h5A2.5 2.5 0 0 1 10 2.5v5A2.5 2.5 0 0 1 7.5 10zM3.6 2.205a1.4 1.4 0 0 0-1.4 1.4V6.4a1.4 1.4 0 0 0 1.4 1.4h2.8a1.4 1.4 0 0 0 1.4-1.4V3.6a1.4 1.4 0 0 0-1.4-1.4z" class="cls-1" transform="translate(11)"/>
    <path id="Path_2370" d="M7.971 20H5.324A1.328 1.328 0 0 0 4 21.324v2.648A1.328 1.328 0 0 0 5.324 25.3h2.647A1.328 1.328 0 0 0 9.3 23.971v-2.647A1.328 1.328 0 0 0 7.971 20z" class="cls-1" transform="translate(9.537 -6.229)"/>
    <path id="Subtraction_4" d="M7.5 10h-5A2.5 2.5 0 0 1 0 7.5v-5A2.5 2.5 0 0 1 2.5 0h5A2.5 2.5 0 0 1 10 2.5v5A2.5 2.5 0 0 1 7.5 10zM3.6 2.205a1.4 1.4 0 0 0-1.4 1.4V6.4a1.4 1.4 0 0 0 1.4 1.4h2.8a1.4 1.4 0 0 0 1.4-1.4V3.6a1.4 1.4 0 0 0-1.4-1.4z" class="cls-1" transform="translate(0 11)"/>
</svg>
