<svg width="100%" height="100%" viewBox="0 0 40 43" fill="none" xmlns="http://www.w3.org/2000/svg">
<path d="M10.4344 19.3142C9.6659 17.9338 8.192 17 6.5 17C4.01472 17 2 19.0147 2 21.5C2 23.9853 4.01472 26 6.5 26C8.192 26 9.6659 25.0662 10.4344 23.6858M10.4344 19.3142C10.7947 19.9614 11 20.7067 11 21.5C11 22.2933 10.7947 23.0386 10.4344 23.6858M10.4344 19.3142L29.5656 8.68579M10.4344 23.6858L29.5656 34.3142M29.5656 34.3142C29.2053 34.9614 29 35.7067 29 36.5C29 38.9853 31.0147 41 33.5 41C35.9853 41 38 38.9853 38 36.5C38 34.0147 35.9853 32 33.5 32C31.808 32 30.3341 32.9338 29.5656 34.3142ZM29.5656 8.68579C30.3341 10.0662 31.808 11 33.5 11C35.9853 11 38 8.98528 38 6.5C38 4.01472 35.9853 2 33.5 2C31.0147 2 29 4.01472 29 6.5C29 7.29328 29.2053 8.03861 29.5656 8.68579Z" stroke="currentColor" stroke-width="3" stroke-linecap="round" stroke-linejoin="round"/>
</svg>
