<svg xmlns="http://www.w3.org/2000/svg" width="43.067" height="48.444" viewBox="0 0 43.067 48.444">
    <path fill="#fff" d="M39.889 36.986a6.879 6.879 0 0 0-4.7 1.873L18.14 28.753a6.839 6.839 0 0 0 0-3.405l16.868-10.006a7.064 7.064 0 0 0 4.881 1.97 7.245 7.245 0 0 0 7.178-7.3 7.178 7.178 0 1 0-14.14 1.7L16.059 21.723a7.072 7.072 0 0 0-4.881-1.97 7.3 7.3 0 0 0 0 14.591 7.064 7.064 0 0 0 4.881-1.97l17.049 10.108a6.956 6.956 0 0 0-.192 1.594 6.974 6.974 0 1 0 6.973-7.088z" transform="translate(-4 -2.72)"/>
</svg>
