<svg xmlns="http://www.w3.org/2000/svg" width="20.247" height="22.732" viewBox="0 0 20.247 22.732">
    <path fill="#03d898" d="M6163.839 18563.17a1.779 1.779 0 0 1-.333-.031l-.052-.012c-.07-.018-.129-.033-.181-.049a15.121 15.121 0 0 1-5.618-3.178 11.393 11.393 0 0 1-2.884-4.275c-1.16-3.023-1.09-6.336-1.034-9v-.043c.019-.209.019-.463.019-.707a2.462 2.462 0 0 1 2.371-2.357 10.116 10.116 0 0 0 6.667-2.684l.014-.02a1.589 1.589 0 0 1 2.064 0l.014.02a9.956 9.956 0 0 0 6.658 2.684 2.469 2.469 0 0 1 2.371 2.357c0 .129 0 .248.01.381v.018c0 .107.008.209.008.309v.02c.056 2.668.126 5.988-1.029 9.01a11.551 11.551 0 0 1-2.879 4.281 15.3 15.3 0 0 1-5.618 3.182c-.066.021-.131.037-.2.055l-.032.006a1.831 1.831 0 0 1-.336.033zm-3.694-12.254a.366.366 0 0 0-.255.105l-1.178 1.127a.331.331 0 0 0 0 .49l3.526 3.371a.379.379 0 0 0 .261.1.372.372 0 0 0 .256-.1l6.611-6.32a.244.244 0 0 0 .171-.184.337.337 0 0 0-.1-.311l-1.174-1.123a.37.37 0 0 0-.517 0l-2.422 2.32-2.8 2.67-2.129-2.041a.378.378 0 0 0-.249-.104z" transform="translate(-6153.711 -18540.438)"/>
</svg>
