<svg xmlns="http://www.w3.org/2000/svg" width="21.578" height="25.335" viewBox="0 0 21.578 25.335">
    <g>
        <path fill="#fff" d="M-3441.767 7286.874v-.022c0-.24-.021-.5-.021-.787a2.682 2.682 0 0 0-2.526-2.627 10.354 10.354 0 0 1-7.092-2.993l-.016-.017a1.626 1.626 0 0 0-2.2 0l-.016.017a10.481 10.481 0 0 1-7.1 2.993 2.676 2.676 0 0 0-2.527 2.627c0 .274 0 .554-.021.787v.047c-.059 2.974-.128 6.672 1.1 10.028a12.731 12.731 0 0 0 3.073 4.763 16.009 16.009 0 0 0 5.99 3.546 2.026 2.026 0 0 0 .247.063 1.822 1.822 0 0 0 .712 0 1.988 1.988 0 0 0 .246-.063 16.065 16.065 0 0 0 5.986-3.549 12.79 12.79 0 0 0 3.071-4.771c1.228-3.362 1.153-7.056 1.094-10.042z" transform="translate(3463.318 -7279.999)"/>
    </g>
    <path fill="#03d898" d="M181.472 301.907l-1.253-1.253a.378.378 0 0 0-.548 0l-2.584 2.584-2.975 2.975-2.271-2.271a.379.379 0 0 0-.548 0l-1.253 1.258a.378.378 0 0 0 0 .548l3.76 3.752a.379.379 0 0 0 .548 0l7.047-7.047a.331.331 0 0 0 .077-.546z" transform="translate(-164.709 -292.146)"/>
</svg>
