<svg xmlns="http://www.w3.org/2000/svg" width="14.309" height="16.801" viewBox="0 0 14.309 16.801">
    <g>
        <path fill="#03d898" d="M-3449.027 7284.557v-.015c0-.159-.014-.333-.014-.522a1.78 1.78 0 0 0-1.676-1.742 6.867 6.867 0 0 1-4.7-1.984l-.011-.011a1.077 1.077 0 0 0-1.459 0l-.01.011a6.952 6.952 0 0 1-4.711 1.984 1.774 1.774 0 0 0-1.675 1.742c0 .181 0 .367-.014.522v.032a18.257 18.257 0 0 0 .731 6.649 8.437 8.437 0 0 0 2.037 3.159 10.631 10.631 0 0 0 3.972 2.351 1.336 1.336 0 0 0 .164.042 1.185 1.185 0 0 0 .473 0 1.321 1.321 0 0 0 .163-.042 10.643 10.643 0 0 0 3.969-2.353 8.477 8.477 0 0 0 2.037-3.164 18.3 18.3 0 0 0 .724-6.659z" transform="translate(3463.318 -7279.998)"/>
    </g>
    <path fill="#2a2a4d" d="M176.8 301.353l-.746-.746a.225.225 0 0 0-.326 0l-1.539 1.539-1.772 1.772-1.352-1.352a.225.225 0 0 0-.326 0l-.746.746a.225.225 0 0 0 0 .326l2.238 2.238a.226.226 0 0 0 .326 0l4.2-4.2a.2.2 0 0 0 .043-.323z" transform="translate(-166.089 -294.686)"/>
</svg>
