<svg width="23" height="22" viewBox="0 0 23 22" fill="none" xmlns="http://www.w3.org/2000/svg">
<path d="M11.5 0C9.32441 0 7.19767 0.645139 5.38873 1.85383C3.57979 3.06253 2.16989 4.78049 1.33733 6.79048C0.504766 8.80047 0.286929 11.0122 0.711367 13.146C1.1358 15.2798 2.18345 17.2398 3.72183 18.7782C5.26021 20.3166 7.22022 21.3642 9.35401 21.7886C11.4878 22.2131 13.6995 21.9952 15.7095 21.1627C17.7195 20.3301 19.4375 18.9202 20.6462 17.1113C21.8549 15.3023 22.5 13.1756 22.5 11C22.4966 8.08366 21.3366 5.28773 19.2744 3.22556C17.2123 1.1634 14.4163 0.00338404 11.5 0ZM15.7308 11.8462H7.26924C7.04482 11.8462 6.8296 11.757 6.67092 11.5983C6.51223 11.4396 6.42308 11.2244 6.42308 11C6.42308 10.7756 6.51223 10.5604 6.67092 10.4017C6.8296 10.243 7.04482 10.1538 7.26924 10.1538H15.7308C15.9552 10.1538 16.1704 10.243 16.3291 10.4017C16.4878 10.5604 16.5769 10.7756 16.5769 11C16.5769 11.2244 16.4878 11.4396 16.3291 11.5983C16.1704 11.757 15.9552 11.8462 15.7308 11.8462Z" fill="#949494"/>
</svg>
