<svg width="23" height="22" viewBox="0 0 23 22" fill="none" xmlns="http://www.w3.org/2000/svg">
<path d="M11.5 0C12.5098 0 13.4837 0.132487 14.4219 0.397461C15.36 0.655273 16.2337 1.02409 17.043 1.50391C17.8594 1.98372 18.6006 2.56022 19.2666 3.2334C19.9398 3.89941 20.5163 4.64062 20.9961 5.45703C21.4759 6.26628 21.8447 7.13997 22.1025 8.07812C22.3675 9.01628 22.5 9.99023 22.5 11C22.5 12.0098 22.3675 12.9837 22.1025 13.9219C21.8447 14.86 21.4759 15.7373 20.9961 16.5537C20.5163 17.363 19.9398 18.1042 19.2666 18.7773C18.6006 19.4434 17.8594 20.0163 17.043 20.4961C16.2337 20.9759 15.36 21.3483 14.4219 21.6133C13.4837 21.8711 12.5098 22 11.5 22C10.4902 22 9.51628 21.8711 8.57812 21.6133C7.63997 21.3483 6.7627 20.9759 5.94629 20.4961C5.13704 20.0163 4.39583 19.4434 3.72266 18.7773C3.05664 18.1042 2.48372 17.363 2.00391 16.5537C1.52409 15.7373 1.15169 14.86 0.886719 13.9219C0.628906 12.9837 0.5 12.0098 0.5 11C0.5 9.99023 0.628906 9.01628 0.886719 8.07812C1.15169 7.13997 1.52409 6.26628 2.00391 5.45703C2.48372 4.64062 3.05664 3.89941 3.72266 3.2334C4.39583 2.56022 5.13704 1.98372 5.94629 1.50391C6.7627 1.02409 7.63997 0.655273 8.57812 0.397461C9.51628 0.132487 10.4902 0 11.5 0ZM10.2432 14.4697C10.4007 14.4697 10.5511 14.4411 10.6943 14.3838C10.8376 14.3193 10.9629 14.2334 11.0703 14.126L15.6787 9.51758C15.7861 9.41016 15.8685 9.28483 15.9258 9.1416C15.9831 8.99837 16.0117 8.85156 16.0117 8.70117C16.0117 8.54362 15.9795 8.39323 15.915 8.25C15.8577 8.10677 15.7754 7.98503 15.668 7.88477C15.5677 7.77734 15.446 7.69499 15.3027 7.6377C15.1595 7.57324 15.0091 7.54102 14.8516 7.54102C14.7012 7.54102 14.5508 7.56966 14.4004 7.62695C14.2572 7.68424 14.1318 7.7666 14.0244 7.87402L10.2432 11.6553L8.97559 10.3877C8.74642 10.1585 8.4707 10.0439 8.14844 10.0439C7.99089 10.0439 7.84049 10.0762 7.69727 10.1406C7.55404 10.1979 7.42871 10.2803 7.32129 10.3877C7.21387 10.4951 7.12793 10.6204 7.06348 10.7637C7.00619 10.8997 6.97754 11.0465 6.97754 11.2041C6.97754 11.3545 7.00619 11.5049 7.06348 11.6553C7.12793 11.7985 7.21387 11.9238 7.32129 12.0312L9.41602 14.126C9.52344 14.2334 9.64876 14.3193 9.79199 14.3838C9.94238 14.4411 10.0928 14.4697 10.2432 14.4697Z" fill="#48C6A8"/>
</svg>
