<svg width="4" height="16" viewBox="0 0 4 16" fill="none" xmlns="http://www.w3.org/2000/svg">
<path d="M0.5 2C0.5 1.70333 0.587974 1.41332 0.752796 1.16665C0.917618 0.919972 1.15189 0.727713 1.42598 0.614181C1.70006 0.50065 2.00166 0.470945 2.29264 0.528823C2.58361 0.586701 2.85088 0.729562 3.06066 0.93934C3.27044 1.14912 3.4133 1.41639 3.47118 1.70737C3.52906 1.99834 3.49935 2.29994 3.38582 2.57403C3.27229 2.84812 3.08003 3.08238 2.83336 3.24721C2.58668 3.41203 2.29667 3.5 2 3.5C1.60218 3.5 1.22064 3.34197 0.93934 3.06066C0.658036 2.77936 0.5 2.39783 0.5 2ZM2 9.5C2.29667 9.5 2.58668 9.41203 2.83336 9.24721C3.08003 9.08238 3.27229 8.84812 3.38582 8.57403C3.49935 8.29994 3.52906 7.99834 3.47118 7.70737C3.4133 7.41639 3.27044 7.14912 3.06066 6.93934C2.85088 6.72956 2.58361 6.5867 2.29264 6.52882C2.00166 6.47095 1.70006 6.50065 1.42598 6.61418C1.15189 6.72771 0.917618 6.91997 0.752796 7.16665C0.587974 7.41332 0.5 7.70333 0.5 8C0.5 8.39783 0.658036 8.77936 0.93934 9.06066C1.22064 9.34197 1.60218 9.5 2 9.5ZM2 15.5C2.29667 15.5 2.58668 15.412 2.83336 15.2472C3.08003 15.0824 3.27229 14.8481 3.38582 14.574C3.49935 14.2999 3.52906 13.9983 3.47118 13.7074C3.4133 13.4164 3.27044 13.1491 3.06066 12.9393C2.85088 12.7296 2.58361 12.5867 2.29264 12.5288C2.00166 12.4709 1.70006 12.5007 1.42598 12.6142C1.15189 12.7277 0.917618 12.92 0.752796 13.1666C0.587974 13.4133 0.5 13.7033 0.5 14C0.5 14.3978 0.658036 14.7794 0.93934 15.0607C1.22064 15.342 1.60218 15.5 2 15.5Z" fill="#C9C9C9"/>
</svg>
