<svg width="23" height="22" viewBox="0 0 23 22" fill="none" xmlns="http://www.w3.org/2000/svg">
<path d="M11.5 0C9.32441 0 7.19767 0.645139 5.38873 1.85383C3.57979 3.06253 2.16989 4.78049 1.33733 6.79048C0.504766 8.80047 0.286929 11.0122 0.711367 13.146C1.1358 15.2798 2.18345 17.2398 3.72183 18.7782C5.26021 20.3165 7.22022 21.3642 9.35401 21.7886C11.4878 22.2131 13.6995 21.9952 15.7095 21.1627C17.7195 20.3301 19.4375 18.9202 20.6462 17.1113C21.8549 15.3023 22.5 13.1756 22.5 11C22.5 9.55546 22.2155 8.12506 21.6627 6.79048C21.1099 5.4559 20.2996 4.24327 19.2782 3.22182C18.2567 2.20038 17.0441 1.39013 15.7095 0.837325C14.3749 0.284523 12.9445 0 11.5 0ZM14.481 12.419C14.5836 12.5216 14.6649 12.6433 14.7204 12.7773C14.7759 12.9113 14.8045 13.055 14.8045 13.2C14.8045 13.345 14.7759 13.4887 14.7204 13.6227C14.6649 13.7567 14.5836 13.8784 14.481 13.981C14.3784 14.0836 14.2567 14.1649 14.1227 14.2204C13.9887 14.2759 13.845 14.3045 13.7 14.3045C13.555 14.3045 13.4113 14.2759 13.2773 14.2204C13.1433 14.1649 13.0216 14.0836 12.919 13.981L11.5 12.551L10.081 13.981C9.97844 14.0836 9.85668 14.1649 9.72268 14.2204C9.58867 14.2759 9.44505 14.3045 9.3 14.3045C9.15496 14.3045 9.01133 14.2759 8.87733 14.2204C8.74333 14.1649 8.62157 14.0836 8.519 13.981C8.41644 13.8784 8.33508 13.7567 8.27958 13.6227C8.22407 13.4887 8.1955 13.345 8.1955 13.2C8.1955 13.055 8.22407 12.9113 8.27958 12.7773C8.33508 12.6433 8.41644 12.5216 8.519 12.419L9.949 11L8.519 9.581C8.41644 9.47844 8.33508 9.35668 8.27958 9.22267C8.22407 9.08867 8.1955 8.94504 8.1955 8.8C8.1955 8.65495 8.22407 8.51133 8.27958 8.37732C8.33508 8.24332 8.41644 8.12156 8.519 8.019C8.62157 7.91644 8.74333 7.83508 8.87733 7.77957C9.01133 7.72407 9.15496 7.6955 9.3 7.6955C9.44505 7.6955 9.58867 7.72407 9.72268 7.77957C9.85668 7.83508 9.97844 7.91644 10.081 8.019L11.5 9.449L12.919 8.019C13.1261 7.81186 13.4071 7.6955 13.7 7.6955C13.9929 7.6955 14.2739 7.81186 14.481 8.019C14.6881 8.22613 14.8045 8.50707 14.8045 8.8C14.8045 9.09293 14.6881 9.37386 14.481 9.581L13.051 11L14.481 12.419Z" fill="#EA8F8F"/>
</svg>
