<svg xmlns="http://www.w3.org/2000/svg" id="prefix__Component_307_33" width="84" height="84" data-name="Component 307 – 33" viewBox="0 0 84 84">
    <g id="prefix__Path_2220" data-name="Path 2220" style="fill:none">
        <path d="M42 83.5c-5.603 0-11.038-1.097-16.154-3.261-4.941-2.09-9.38-5.083-13.19-8.894-3.812-3.812-6.805-8.25-8.895-13.191C1.597 53.038.5 47.603.5 42s1.097-11.038 3.261-16.154c2.09-4.941 5.083-9.38 8.894-13.19 3.812-3.812 8.25-6.805 13.191-8.895C30.962 1.597 36.397.5 42 .5s11.038 1.097 16.154 3.261c4.941 2.09 9.38 5.083 13.19 8.894 3.812 3.812 6.805 8.25 8.895 13.191C82.403 30.962 83.5 36.397 83.5 42s-1.097 11.038-3.261 16.154c-2.09 4.941-5.083 9.38-8.894 13.19-3.812 3.812-8.25 6.805-13.191 8.895C53.038 82.403 47.603 83.5 42 83.5z" style="stroke:none"/>
        <path d="M42 1c-5.535 0-10.905 1.084-15.959 3.222-4.882 2.065-9.267 5.02-13.032 8.787-3.766 3.765-6.722 8.15-8.787 13.032C2.084 31.095 1 36.465 1 42s1.084 10.905 3.222 15.959c2.065 4.882 5.02 9.267 8.787 13.032 3.765 3.766 8.15 6.722 13.032 8.787C31.095 81.916 36.465 83 42 83s10.905-1.084 15.959-3.222c4.882-2.065 9.267-5.02 13.032-8.787 3.766-3.765 6.722-8.15 8.787-13.032C81.916 52.905 83 47.535 83 42s-1.084-10.905-3.222-15.959c-2.065-4.882-5.02-9.267-8.787-13.032-3.765-3.766-8.15-6.722-13.032-8.787C52.905 2.084 47.535 1 42 1m0-1c23.196 0 42 18.804 42 42S65.196 84 42 84 0 65.196 0 42 18.804 0 42 0z" style="stroke:none;fill:none"/>
    </g>
    <g id="prefix__users" transform="translate(24.667 22.207)">
        <path id="prefix__users-2" d="M85.822 35.69s-12.759 0-17.541 11.185a52.675 52.675 0 0 0 17.541 3.195 52.675 52.675 0 0 0 17.541-3.195C98.579 35.69 85.822 35.69 85.822 35.69zm0-1.594c4.784 0 7.973-4.793 7.973-12.784s-7.973-7.989-7.973-7.989-7.973 0-7.973 7.989S81.038 34.1 85.822 34.1z" data-name="users" transform="translate(-68.28 -13.322)" style="fill:#6d74ef"/>
    </g>
</svg>
