<svg width="100%" height="100%" viewBox="0 0 25 25" fill="none" xmlns="http://www.w3.org/2000/svg">
<path opacity="0.7" d="M4.54505 4.54505C6.65483 2.43526 9.51631 1.25 12.5 1.25C14.725 1.25 16.9001 1.9098 18.7502 3.14597C20.6002 4.38213 22.0422 6.13914 22.8936 8.19481C23.7451 10.2505 23.9679 12.5125 23.5338 14.6948C23.0997 16.8771 22.0283 18.8816 20.4549 20.4549C18.8816 22.0283 16.8771 23.0997 14.6948 23.5338C12.5125 23.9679 10.2505 23.7451 8.19481 22.8936C6.13914 22.0422 4.38213 20.6002 3.14597 18.7502C1.9098 16.9001 1.25 14.725 1.25 12.5C1.25 9.51631 2.43526 6.65483 4.54505 4.54505Z" stroke="currentColor" stroke-width="1.5"/>
<path d="M7.3335 10.5H17.3335L14.4764 7.5" stroke="currentColor" stroke-width="1.5" stroke-linecap="round" stroke-linejoin="round"/>
<path d="M17.3335 14.5H7.3335L10.1906 18.5" stroke="currentColor" stroke-width="1.5" stroke-linecap="round" stroke-linejoin="round"/>
</svg>
