<svg width="100%" height="100%" viewBox="0 0 25 25" fill="none" xmlns="http://www.w3.org/2000/svg">
<g clip-path="url(#clip0_5268_16864)">
<path fill-rule="evenodd" clip-rule="evenodd" d="M18.1932 3.18374C13.9886 0.618992 8.42576 1.15041 4.78974 4.78391C2.65739 6.91495 1.59091 9.70661 1.59091 12.4999C1.59091 13.1559 1.63045 13.7977 1.74273 14.4248C1.79582 14.7213 1.59848 15.0047 1.30195 15.0578C1.00542 15.1109 0.721994 14.9135 0.668901 14.617C0.541908 13.9078 0.5 13.198 0.5 12.4999C0.5 9.42874 1.67349 6.35598 4.01859 4.01233C8.04827 -0.0145721 14.2259 -0.576374 18.8615 2.31429C19.9206 1.40004 21.5218 1.44502 22.5275 2.44923C23.5809 3.50099 23.5809 5.20726 22.5275 6.25901C21.4746 7.31031 19.7691 7.31031 18.7162 6.25901C17.8833 5.42742 17.709 4.18664 18.1932 3.18374ZM19.3136 3.42568C18.867 4.05137 18.9248 4.9258 19.487 5.48708C20.1141 6.11315 21.1297 6.11315 21.7567 5.48708C22.3833 4.86146 22.3833 3.84678 21.7567 3.22117C21.1297 2.59509 20.1141 2.59509 19.487 3.22117C19.4647 3.24341 19.4432 3.26615 19.4225 3.28934C19.4152 3.3023 19.4073 3.31507 19.3988 3.32761C19.3738 3.36436 19.3451 3.39711 19.3136 3.42568ZM12.1143 8.2963C12.3273 8.0833 12.6726 8.0833 12.8857 8.2963L16.7041 12.1146C16.8064 12.2169 16.8639 12.3556 16.8639 12.5003C16.8639 12.6449 16.8064 12.7836 16.7041 12.8859L12.8857 16.7042C12.7834 16.8065 12.6446 16.864 12.5 16.864C12.3553 16.864 12.2166 16.8065 12.1143 16.7042L8.29581 12.8859C8.0828 12.6729 8.0828 12.3276 8.29581 12.1146L12.1143 8.2963ZM9.45289 12.5003L12.5 15.5472L15.547 12.5003L12.5 9.45333L9.45289 12.5003ZM23.698 9.94223C23.9946 9.88914 24.278 10.0865 24.3311 10.383C24.4581 11.0922 24.5 11.802 24.5 12.5001C24.5 15.5712 23.3265 18.6439 20.9828 20.9876C16.9517 25.0146 10.7746 25.5765 6.13894 22.6852C5.07983 23.5999 3.47831 23.5551 2.47235 22.5507C1.41895 21.499 1.41895 19.7927 2.47235 18.7409C3.5253 17.6896 5.23075 17.6896 6.28369 18.7409C7.11642 19.5724 7.29086 20.8128 6.80703 21.8156C11.0115 24.381 16.5738 23.85 20.2114 20.2162C22.3426 18.0851 23.4091 15.2934 23.4091 12.5001C23.4091 11.8441 23.3695 11.2023 23.2573 10.5752C23.2042 10.2787 23.4015 9.99532 23.698 9.94223ZM5.6836 21.5781C6.13309 20.9521 6.07618 20.0753 5.51289 19.5129C4.88584 18.8868 3.87021 18.8868 3.24315 19.5129C2.61656 20.1385 2.61656 21.1532 3.24315 21.7788C3.87021 22.4049 4.88584 22.4049 5.51289 21.7788C5.5366 21.7551 5.55942 21.7309 5.58134 21.7061C5.58795 21.6947 5.59499 21.6835 5.60252 21.6724C5.62641 21.6372 5.65368 21.6058 5.6836 21.5781Z" fill="currentColor"/>
<line x1="20.0103" y1="6.0496" x2="6.01034" y2="19.0496" stroke="currentColor" stroke-width="1.5"/>
</g>
<defs>
<clipPath id="clip0_5268_16864">
<rect width="24" height="24" fill="currentColor" transform="translate(0.5 0.5)"/>
</clipPath>
</defs>
</svg>
