<svg width="100%" height="100%" viewBox="0 0 25 23" fill="none" xmlns="http://www.w3.org/2000/svg">
<path d="M8.5 11.9453V9.94531H16.5V11.9453H8.5Z" fill="currentColor"/>
<path fill-rule="evenodd" clip-rule="evenodd" d="M13.1665 1.89923L14.7613 1.11945C15.4971 0.759802 16.3869 1.04796 16.7707 1.77275L17.6033 3.34112C17.8232 3.75466 18.2214 4.04392 18.6833 4.12531L20.4321 4.43216C21.2393 4.57404 21.7882 5.32963 21.6738 6.14131L21.4252 7.89885C21.3592 8.36298 21.5121 8.83151 21.8377 9.16807L23.0717 10.4439C23.6414 11.0323 23.6414 11.9672 23.0717 12.5567L21.8377 13.8325C21.5121 14.169 21.3592 14.6376 21.4252 15.1017L21.6738 16.8592C21.7882 17.6709 21.2393 18.4265 20.4321 18.5684L18.6833 18.8752C18.2214 18.9566 17.8232 19.2459 17.6033 19.6594L16.7707 21.2278C16.3869 21.9515 15.4982 22.2407 14.7613 21.8811L13.1665 21.1013C12.7453 20.8956 12.2537 20.8956 11.8324 21.1013L10.2377 21.8811C9.50187 22.2407 8.6121 21.9526 8.22826 21.2278L7.39568 19.6583C7.17571 19.2448 6.77757 18.9555 6.31564 18.8741L4.5669 18.5673C3.75962 18.4254 3.2108 17.6698 3.32518 16.8581L3.57374 15.1006C3.63974 14.6365 3.48686 14.1679 3.16131 13.8314L1.92729 12.5556C1.35757 11.9672 1.35757 11.0323 1.92729 10.4428L3.16131 9.16697C3.48686 8.83041 3.63974 8.36188 3.57374 7.89775L3.32628 6.14021C3.2108 5.32963 3.76072 4.57294 4.568 4.43216L6.31674 4.12531C6.77757 4.04392 7.17571 3.75466 7.39568 3.34112L8.22826 1.77275C8.6121 1.04906 9.50077 0.759802 10.2377 1.11945L11.8324 1.89923C12.2526 2.1049 12.7453 2.1049 13.1665 1.89923Z" stroke="currentColor" stroke-width="1.5" stroke-linecap="round" stroke-linejoin="round"/>
</svg>
