<svg xmlns="http://www.w3.org/2000/svg" width="23.424" height="23.454" viewBox="0 0 23.424 23.454">
    <g id="prefix__App_Manger_Icon" data-name="App Manger Icon" transform="translate(.141 .177)">
        <path id="prefix__App_Manger_Icon-2" d="M20.507.972A.361.361 0 0 0 20.4.39a4.329 4.329 0 0 0-4.917.861 4.724 4.724 0 0 0-1.084 4.8l-8.34 8.339a4.275 4.275 0 0 0-1.444-.243 4.673 4.673 0 0 0-3.3 1.353 4.395 4.395 0 0 0-.926 4.877.362.362 0 0 0 .588.111L3.5 17.951a.418.418 0 0 1 .574-.049l1.09 1.14a.4.4 0 0 1-.016.575l-2.515 2.53a.361.361 0 0 0 .1.581 4.366 4.366 0 0 0 1.874.425 4.274 4.274 0 0 0 3.043-1.287 4.72 4.72 0 0 0 1.083-4.8l8.345-8.342a4.282 4.282 0 0 0 1.444.243 4.673 4.673 0 0 0 3.3-1.353 4.395 4.395 0 0 0 .926-4.877.36.36 0 0 0-.265-.211.367.367 0 0 0-.323.1l-2.521 2.54a.411.411 0 0 1-.579-.007l-1.085-1.084a.4.4 0 0 1 0-.574L20.507.972zm-3.044 3.614l1.085 1.084a1.153 1.153 0 0 0 1.6.007l2.119-2.128a3.679 3.679 0 0 1-.958 3.561 3.943 3.943 0 0 1-2.784 1.14 3.537 3.537 0 0 1-1.391-.275.361.361 0 0 0-.4.077l-8.672 8.673a.36.36 0 0 0-.077.4 4.023 4.023 0 0 1-.841 4.237 3.585 3.585 0 0 1-3.605.909l2.127-2.14a1.117 1.117 0 0 0 .021-1.589L4.6 17.4a1.156 1.156 0 0 0-1.6.045L.874 19.571a3.679 3.679 0 0 1 .958-3.561 3.943 3.943 0 0 1 2.784-1.14 3.537 3.537 0 0 1 1.391.275.36.36 0 0 0 .4-.077l8.679-8.674A.36.36 0 0 0 15.16 6 4.024 4.024 0 0 1 16 1.761a3.586 3.586 0 0 1 3.6-.909l-2.141 2.14a1.117 1.117 0 0 0 0 1.594zm3.662 17.56a.43.43 0 0 1-.6 0l-7.254-7.229a.362.362 0 0 0-.511.513l7.253 7.227a1.138 1.138 0 0 0 .811.338 1.14 1.14 0 0 0 .816-.343l1.034-1.079a1.119 1.119 0 0 0 0-1.595l-7.232-7.229a.361.361 0 0 0-.511.511l7.232 7.228a.4.4 0 0 1-.005.58l-1.034 1.079zM4.234 2.267L2.064.1a.362.362 0 0 0-.511 0L.107 1.545a.362.362 0 0 0 0 .511l2.17 2.169a.358.358 0 0 0 .255.106.363.363 0 0 0 .256-.106l.467-.468 5.53 5.527a.361.361 0 1 0 .512-.51L3.766 3.246l.467-.467a.362.362 0 0 0 0-.512zm-1.7 1.191L.873 1.8l.935-.934 1.659 1.657-.935.935z" data-name="App Manger Icon" transform="translate(-.001 .024)" style="fill:#37477d;stroke:#37477d;stroke-width:.2px"/>
    </g>
</svg>
