<svg xmlns="http://www.w3.org/2000/svg" id="prefix__Component_317_1" width="26" height="26" data-name="Component 317 – 1" viewBox="0 0 26 26">
    <defs>
        <style>
            .prefix__cls-2{fill:#37477d}
        </style>
    </defs>
    <g id="prefix__Ellipse_266" data-name="Ellipse 266" style="stroke:#37477d;fill:none">
        <circle cx="13" cy="13" r="13" style="stroke:none"/>
        <circle cx="13" cy="13" r="12.5" style="fill:none"/>
    </g>
    <g id="prefix__Component_316_1" data-name="Component 316 – 1" transform="translate(6.583 8.019)">
        <g id="prefix__Group_1172" data-name="Group 1172">
            <path id="prefix__Path_2232" d="M193.449 65.36l-.449-.124a.2.2 0 0 0-.171.018.236.236 0 0 0-.113.142L190 74.781a.218.218 0 0 0 .018.178.236.236 0 0 0 .142.113l.451.124a.2.2 0 0 0 .171-.018.237.237 0 0 0 .113-.142l2.711-9.384a.218.218 0 0 0-.018-.178.236.236 0 0 0-.139-.114z" class="prefix__cls-2" data-name="Path 2232" transform="translate(-185.155 -65.225)"/>
            <path id="prefix__Path_2233" d="M4.231 119.368a.23.23 0 0 0-.073-.167l-.363-.363a.229.229 0 0 0-.334 0l-3.388 3.387a.229.229 0 0 0 0 .334l3.387 3.387a.229.229 0 0 0 .334 0l.363-.363a.229.229 0 0 0 0-.334L1.3 122.392l2.857-2.857a.23.23 0 0 0 .074-.167z" class="prefix__cls-2" data-name="Path 2233" transform="translate(0 -117.402)"/>
            <path id="prefix__Path_2234" d="M360.47 122.222l-3.387-3.387a.228.228 0 0 0-.334 0l-.363.363a.229.229 0 0 0 0 .334l2.857 2.857-2.857 2.857a.229.229 0 0 0 0 .334l.363.363a.229.229 0 0 0 .334 0l3.387-3.387a.229.229 0 0 0 0-.334z" class="prefix__cls-2" data-name="Path 2234" transform="translate(-347.24 -117.399)"/>
        </g>
    </g>
</svg>
