<?xml version="1.0" standalone="no"?><!DOCTYPE svg PUBLIC "-//W3C//DTD SVG 1.1//EN" "http://www.w3.org/Graphics/SVG/1.1/DTD/svg11.dtd"><svg t="1589948047970" class="icon" viewBox="0 0 1024 1024" version="1.1" xmlns="http://www.w3.org/2000/svg" p-id="9870" width="26" height="26" xmlns:xlink="http://www.w3.org/1999/xlink"><defs><style type="text/css"></style></defs><path d="M512 1024A512 512 0 1 1 512 0a512 512 0 0 1 0 1024z m0-68.214a443.786 443.786 0 1 0 0-887.572 443.786 443.786 0 0 0 0 887.572z m13.233-694.036c46.632 0 84.52 12.288 113.585 38.597 29.145 25.443 43.717 60.416 43.717 104.133 0 35.604-9.452 65.457-27.648 88.773-6.537 8.034-27.017 26.939-61.203 56.793a123.116 123.116 0 0 0-30.563 37.809 97.989 97.989 0 0 0-11.736 48.128v12.367h-77.982v-12.367c0-26.94 4.332-50.255 14.494-69.16 9.452-20.322 37.179-50.254 82.313-90.27l12.367-13.784c13.155-16.856 20.323-34.186 20.323-53.169 0-25.521-7.326-45.135-21.19-59.628-14.493-14.573-35.603-21.82-61.912-21.82-32.768 0-56.792 10.162-71.286 31.272-13.154 17.487-19.692 42.3-19.692 74.28h-76.406c0-53.17 15.28-94.602 45.764-125.244 30.878-31.429 73.177-46.71 126.976-46.71z m-12.997 425.905c15.282 0 28.357 4.333 38.597 14.494 10.24 9.452 15.36 21.819 15.36 37.179a51.594 51.594 0 0 1-15.99 37.81 54.508 54.508 0 0 1-37.81 14.493 52.303 52.303 0 0 1-53.168-52.46c0-15.282 5.12-27.57 15.28-37.1a51.2 51.2 0 0 1 37.731-14.416z" p-id="9871" fill="#565BDB"></path></svg>