<svg xmlns="http://www.w3.org/2000/svg" id="prefix__Language_Icon" width="24" height="24" data-name="Language Icon" viewBox="0 0 24 24">
    <path id="prefix__Path_2066" d="M-40.517 64.517A11.911 11.911 0 0 0-49 61a11.911 11.911 0 0 0-8.483 3.517A11.94 11.94 0 0 0-61 73a11.911 11.911 0 0 0 3.517 8.483A11.94 11.94 0 0 0-49 85a11.911 11.911 0 0 0 8.483-3.517A11.94 11.94 0 0 0-37 73a11.911 11.911 0 0 0-3.517-8.483zm2.429 7.944h-4.652a20.836 20.836 0 0 0-.759-5.216 11.9 11.9 0 0 0 2.473-1.7 10.9 10.9 0 0 1 2.939 6.916zm-10.374 1.078h4.648a19.7 19.7 0 0 1-.681 4.8 12.115 12.115 0 0 0-3.967-.862zm6.661-8.748a10.912 10.912 0 0 1-2.038 1.416 12.511 12.511 0 0 0-.632-1.469 8.633 8.633 0 0 0-1.577-2.253 10.878 10.878 0 0 1 4.248 2.306zm-6.661-2.547c1.122.25 2.18 1.283 3.032 2.968a12.241 12.241 0 0 1 .617 1.455 10.992 10.992 0 0 1-3.649.818zm3.972 5.456a19.7 19.7 0 0 1 .671 4.766h-4.643v-3.9a12.121 12.121 0 0 0 3.972-.867zm-5.05 4.761h-4.648a19.7 19.7 0 0 1 .671-4.766 11.9 11.9 0 0 0 3.972.862v3.9zm0-10.217v5.241a10.964 10.964 0 0 1-3.649-.818 12.242 12.242 0 0 1 .617-1.455c.859-1.685 1.916-2.718 3.038-2.968zm-2.415.24a8.717 8.717 0 0 0-1.577 2.253 14.409 14.409 0 0 0-.632 1.469 11.075 11.075 0 0 1-2.036-1.415 10.878 10.878 0 0 1 4.247-2.307zm-5.02 3.056a12.092 12.092 0 0 0 2.473 1.7 20.646 20.646 0 0 0-.759 5.216h-4.653a10.9 10.9 0 0 1 2.945-6.916zm-2.939 8h4.653a20.809 20.809 0 0 0 .769 5.246 11.792 11.792 0 0 0-2.464 1.695 10.881 10.881 0 0 1-2.952-6.942zm3.732 7.69a10.953 10.953 0 0 1 2.028-1.406 13.273 13.273 0 0 0 .622 1.44 8.748 8.748 0 0 0 1.577 2.258 10.932 10.932 0 0 1-4.227-2.292zm6.642 2.527c-1.122-.25-2.18-1.283-3.032-2.968a12.589 12.589 0 0 1-.607-1.425 10.811 10.811 0 0 1 3.639-.813v5.207zm-3.96-5.423a19.7 19.7 0 0 1-.681-4.8h4.648v3.933a11.869 11.869 0 0 0-3.967.862zm5.045 5.422v-5.207a10.931 10.931 0 0 1 3.639.813 12.589 12.589 0 0 1-.607 1.425c-.852 1.685-1.91 2.718-3.032 2.968zm2.415-.24a8.665 8.665 0 0 0 1.577-2.258 13.272 13.272 0 0 0 .622-1.44 10.953 10.953 0 0 1 2.028 1.406 10.806 10.806 0 0 1-4.227 2.292zm5.006-3.037a11.981 11.981 0 0 0-2.466-1.695 20.843 20.843 0 0 0 .769-5.246h4.653a10.932 10.932 0 0 1-2.958 6.94z" data-name="Path 2066" transform="translate(61 -61)" style="fill:#37477d"/>
</svg>
