<svg xmlns="http://www.w3.org/2000/svg" id="prefix__Component_420_1" width="20.346" height="17.803" data-name="Component 420 – 1" viewBox="0 0 20.346 17.803">
    <path id="prefix__Path_1336" d="M310.075 550h-17.8a1.368 1.368 0 0 0-1.275 1.272v11.445a1.368 1.368 0 0 0 1.272 1.272h6.358s-3.815 1.272-3.815 2.543a1.368 1.368 0 0 0 1.272 1.272h10.173a1.368 1.368 0 0 0 1.272-1.272c0-1.272-3.815-2.543-3.815-2.543h6.358a1.368 1.368 0 0 0 1.272-1.272v-11.445a1.368 1.368 0 0 0-1.272-1.272zm0 12.716h-17.8v-11.444h17.8zm-1.275-10.173h-3.815c-7.63 1.272-10.745 5.977-11.445 7.63v1.272h15.26z" data-name="Path 1336" transform="translate(-291 -550)" style="fill:#565bdb"/>
</svg>
