<?xml version="1.0" standalone="no"?><!DOCTYPE svg PUBLIC "-//W3C//DTD SVG 1.1//EN" "http://www.w3.org/Graphics/SVG/1.1/DTD/svg11.dtd"><svg class="icon" width="19px" height="19.00px" viewBox="0 0 1024 1024" version="1.1" xmlns="http://www.w3.org/2000/svg"><path d="M884.310982 434.397915a124.11369 124.11369 0 0 1 124.11369 124.11369v26.653415a311.37022 311.37022 0 0 0-66.493909-49.707533A62.056845 62.056845 0 0 0 884.310982 496.45476H139.628842a62.056845 62.056845 0 0 0-62.056845 62.056845v341.312648a62.056845 62.056845 0 0 0 62.056845 62.056845h382.828677c13.093994 22.650748 28.980547 43.501848 47.163202 62.056845H139.628842a124.11369 124.11369 0 0 1-124.11369-124.11369V558.511605a124.11369 124.11369 0 0 1 124.11369-124.11369v-62.056845C139.628842 166.715714 306.344556 0 511.969912 0s372.34107 166.715714 372.34107 372.34107v62.056845zM201.685687 434.397915h620.56845v-62.056845c0-171.369978-138.914248-310.284225-310.284225-310.284225S201.685687 200.971093 201.685687 372.34107v62.056845z m623.485122 155.142113c16.32095 0 29.632144 15.172899 29.632143 31.431792v17.934428a6.143628 6.143628 0 0 0 10.549664 4.343979l12.659596-12.659596a29.570087 29.570087 0 0 1 20.975214-8.65693c7.570935 0 15.203927 2.885643 20.944185 8.65693l48.00097 47.938913a29.663172 29.663172 0 0 1 0 41.857342l-12.690625 12.659596a6.143628 6.143628 0 0 0 4.343979 10.487607h17.965457c16.289922 0 30.87328 13.342222 30.87328 29.601115v67.797103c0 16.289922-14.583359 29.601115-30.87328 29.601115h-17.934428a6.143628 6.143628 0 0 0-4.34398 10.518635l12.659597 12.659597a29.663172 29.663172 0 0 1 0 41.857342l-48.00097 47.938913a29.601115 29.601115 0 0 1-20.944185 8.625901 29.601115 29.601115 0 0 1-20.975214-8.625901l-12.690625-12.659597a6.174656 6.174656 0 0 0-10.518635 4.343979v17.9034c0 16.289922-13.342222 30.842252-29.632143 30.842252h-67.890189c-16.32095 0-29.632144-14.583359-29.632143-30.842252v-17.9034a6.143628 6.143628 0 0 0-10.549664-4.343979l-12.659596 12.659597a29.570087 29.570087 0 0 1-20.975214 8.625901 29.570087 29.570087 0 0 1-20.944185-8.625901l-48.00097-47.938913a29.663172 29.663172 0 0 1 0-41.857342l12.690625-12.659597a6.143628 6.143628 0 0 0-4.343979-10.518635h-17.965457c-16.289922 0-30.87328-13.311193-30.87328-29.601115v-67.797103c0-16.258893 14.583359-29.601115 30.87328-29.601115h17.934428a6.143628 6.143628 0 0 0 4.34398-10.487607l-12.659597-12.659596a29.663172 29.663172 0 0 1 0-41.888371l48.00097-47.907884a29.570087 29.570087 0 0 1 20.944185-8.625902c7.601964 0 15.203927 2.854615 20.975214 8.625902l12.690625 12.659596a6.143628 6.143628 0 0 0 10.518635-4.343979v-17.934428c0-16.258893 13.342222-31.431792 29.632143-31.431792h67.890189z m-5.740258 61.343191h-56.409673v16.445064a29.601115 29.601115 0 0 1-29.725228 29.663172 29.570087 29.570087 0 0 1-21.037271-8.687958l-10.549663-10.549664-39.871523 39.840495 10.549663 10.549663a29.632144 29.632144 0 1 1-21.03727 50.700443h-15.948609v56.316587h15.948609a29.632144 29.632144 0 0 1 21.006242 50.700442l-10.549664 10.549664 39.902552 39.809466 10.549663-10.549664a29.570087 29.570087 0 0 1 32.393673-6.422883c11.170232 4.623235 18.368826 15.390098 18.368826 27.429125v15.917581h56.409673v-15.917581a29.601115 29.601115 0 0 1 29.725228-29.6942c7.974305 0 15.421126 3.102842 21.037271 8.687958l10.549663 10.549664 39.871523-39.840495-10.549663-10.549663a29.632144 29.632144 0 1 1 21.03727-50.700443h15.948609v-56.285558h-15.948609a29.632144 29.632144 0 0 1-21.006242-50.700443l10.549664-10.549663-39.902552-39.809466-10.549663 10.518635a29.570087 29.570087 0 0 1-32.393673 6.422883 29.601115 29.601115 0 0 1-18.368826-27.429125v-16.414036zM791.225715 868.795831a62.056845 62.056845 0 1 1 0-124.113691 62.056845 62.056845 0 0 1 0 124.113691z" fill="#565BDB" /></svg>