<svg xmlns="http://www.w3.org/2000/svg" id="prefix__Wallet_Icon" width="27.174" height="18.414" data-name="Wallet Icon" viewBox="0 0 27.174 18.414">
    <defs>
        <style>
            .prefix__cls-1{fill:#565BDB}
        </style>
    </defs>
    <path id="prefix__Path_2152" d="M6627.977-2472.893h5.509a1.56 1.56 0 0 1 .37.01v-3.024a2.1 2.1 0 0 0-2.035-2.138h-23.055a2.139 2.139 0 0 0-2.083 2.138v14.114a2.16 2.16 0 0 0 2.083 2.161h23.055a2.124 2.124 0 0 0 2.035-2.161v-3.145a1.584 1.584 0 0 1-.37.032h-5.509a1.728 1.728 0 0 1-1.72-1.745v-4.52a1.708 1.708 0 0 1 1.72-1.722z" class="prefix__cls-1" data-name="Path 2152" transform="translate(-6606.682 2478.045)"/>
    <path id="prefix__Path_2153" d="M6856.794-2382a2.1 2.1 0 0 0 2.095 2.1 2.094 2.094 0 0 0 1.92-1.263 2.1 2.1 0 0 0 .175-.839 2.1 2.1 0 0 0-.561-1.428 2.083 2.083 0 0 0-1.534-.674 2.1 2.1 0 0 0-2.095 2.104z" class="prefix__cls-1" data-name="Path 2153" transform="translate(-6834.439 2391.198)"/>
</svg>
