<svg width="23" height="23" viewBox="0 0 23 23" fill="none" xmlns="http://www.w3.org/2000/svg">
<path d="M11.4998 1.5C12.9281 1.5 14.3245 1.92355 15.512 2.71706C16.6996 3.51057 17.6258 4.63842 18.1724 5.95798C18.7189 7.27754 18.8611 8.72951 18.5825 10.1303C18.3038 11.5312 17.6167 12.818 16.6068 13.8279C15.5968 14.8378 14.31 15.5257 12.9092 15.8043C11.5084 16.0829 10.056 15.9399 8.73644 15.3934C7.41688 14.8468 6.28916 13.9211 5.49565 12.7336C4.70214 11.546 4.27832 10.1498 4.27832 8.72152C4.27832 6.80625 5.0397 4.96943 6.394 3.61514C7.7483 2.26084 9.58457 1.5 11.4998 1.5" stroke="black" stroke-width="1.5" stroke-linecap="round" stroke-linejoin="round"/>
<path d="M5.94482 15.9414H17.0549" stroke="black" stroke-width="1.5" stroke-linecap="round" stroke-linejoin="round"/>
<path d="M18.167 11.5H19.278C19.8673 11.5 20.4334 11.7341 20.8501 12.1508C21.2668 12.5675 21.5 13.1327 21.5 13.722V19.277C21.5 19.8663 21.2668 20.4315 20.8501 20.8482C20.4334 21.2649 19.8673 21.499 19.278 21.499H3.72396C3.13465 21.499 2.56964 21.2649 2.15293 20.8482C1.73622 20.4315 1.50195 19.8663 1.50195 19.277V13.722C1.50195 13.1327 1.73622 12.5675 2.15293 12.1508C2.56964 11.7341 3.13465 11.5 3.72396 11.5H4.83496" stroke="black" stroke-width="1.5" stroke-linecap="round" stroke-linejoin="round"/>
<path d="M13.7217 8.16406L11.4997 5.94206L9.27767 8.16406" stroke="black" stroke-width="1.5" stroke-linecap="round" stroke-linejoin="round"/>
<path d="M11.5 11.5L11.5 5.94499" stroke="black" stroke-width="1.5" stroke-linecap="round" stroke-linejoin="round"/>
</svg>
