<svg width="25" height="25" viewBox="0 0 25 25" fill="none" xmlns="http://www.w3.org/2000/svg">
<g clip-path="url(#clip0_5268_16879)">
<path fill-rule="evenodd" clip-rule="evenodd" d="M9.44777 9.19698H7.9278C7.58795 9.19698 7.31299 9.47194 7.31299 9.81179V14.6313C7.31299 14.9711 7.58795 15.2461 7.9278 15.2461H9.44777C9.78762 15.2461 10.0626 14.9711 10.0626 14.5851V9.7656C10.0626 9.47304 9.78762 9.19698 9.44777 9.19698Z" stroke="#121212" stroke-linecap="round" stroke-linejoin="round"/>
<path d="M10.0626 10.5018L11.2526 9.51521C11.499 9.31064 11.8103 9.19846 12.1303 9.19846H16.071C16.5649 9.19846 16.9993 9.52621 17.1357 10.0013L17.9408 12.8191C18.0628 13.2448 17.9914 13.7034 17.7461 14.0718C17.4689 14.4887 17.0037 14.7383 16.5055 14.7383H15.8236H14.6742L14.6797 16.6103C14.6841 18.0016 12.8573 18.5185 12.1314 17.3318L10.0615 13.9432" stroke="#121212" stroke-linecap="round" stroke-linejoin="round"/>
<path fill-rule="evenodd" clip-rule="evenodd" d="M13.1675 2.89923L14.7623 2.11945C15.4981 1.7598 16.3878 2.04796 16.7717 2.77275L17.6043 4.34112C17.8242 4.75466 18.2224 5.04392 18.6843 5.12531L20.433 5.43216C21.2403 5.57404 21.7891 6.32963 21.6748 7.14131L21.4262 8.89885C21.3602 9.36298 21.5131 9.83151 21.8386 10.1681L23.0727 11.4439C23.6424 12.0323 23.6424 12.9672 23.0727 13.5567L21.8386 14.8325C21.5131 15.169 21.3602 15.6376 21.4262 16.1017L21.6748 17.8592C21.7891 18.6709 21.2403 19.4265 20.433 19.5684L18.6843 19.8752C18.2224 19.9566 17.8242 20.2459 17.6043 20.6594L16.7717 22.2278C16.3878 22.9515 15.4992 23.2407 14.7623 22.8811L13.1675 22.1013C12.7463 21.8956 12.2546 21.8956 11.8334 22.1013L10.2386 22.8811C9.50285 23.2407 8.61308 22.9526 8.22924 22.2278L7.39666 20.6583C7.17669 20.2448 6.77855 19.9555 6.31662 19.8741L4.56788 19.5673C3.76059 19.4254 3.21177 18.6698 3.32616 17.8581L3.57472 16.1006C3.64071 15.6365 3.48783 15.1679 3.16228 14.8314L1.92826 13.5556C1.35855 12.9672 1.35855 12.0323 1.92826 11.4428L3.16228 10.167C3.48783 9.83041 3.64071 9.36188 3.57472 8.89775L3.32726 7.14021C3.21177 6.32963 3.76169 5.57294 4.56898 5.43216L6.31772 5.12531C6.77855 5.04392 7.17669 4.75466 7.39666 4.34112L8.22924 2.77275C8.61308 2.04906 9.50175 1.7598 10.2386 2.11945L11.8334 2.89923C12.2535 3.1049 12.7463 3.1049 13.1675 2.89923Z" stroke="#121212" stroke-width="1.5" stroke-linecap="round" stroke-linejoin="round"/>
</g>
<defs>
<clipPath id="clip0_5268_16879">
<rect width="24" height="24" fill="white" transform="translate(0.5 0.5)"/>
</clipPath>
</defs>
</svg>
