<svg width="40" height="40" viewBox="0 0 40 40" fill="none" xmlns="http://www.w3.org/2000/svg">
<rect width="40" height="40" rx="10" fill="none"/>
<g clip-path="url(#clip0)">
<path d="M29.648 12.3809C29.2212 11.9432 28.7142 11.5959 28.1559 11.359C27.5975 11.122 26.9989 11 26.3944 11C25.7898 11 25.1912 11.122 24.6329 11.359C24.0746 11.5959 23.5675 11.9432 23.1408 12.3809L24.2295 13.4937C24.5132 13.1963 24.8518 12.9594 25.2258 12.7968C25.5997 12.6342 26.0015 12.5491 26.4079 12.5465C26.8143 12.5438 27.2171 12.6237 27.5931 12.7814C27.969 12.9391 28.3106 13.1716 28.5979 13.4653C28.8853 13.759 29.1127 14.1081 29.2671 14.4924C29.4214 14.8766 29.4995 15.2884 29.4969 15.7037C29.4943 16.1191 29.4111 16.5298 29.252 16.912C29.0929 17.2942 28.8611 17.6403 28.5701 17.9303L22.446 24.1897C22.1616 24.481 21.8238 24.7122 21.4519 24.87C21.08 25.0279 20.6813 25.1094 20.2786 25.1097C19.8759 25.1101 19.4771 25.0295 19.105 24.8723C18.7328 24.7152 18.3945 24.4846 18.1095 24.1939C17.8245 23.9031 17.5983 23.5578 17.4439 23.1777C17.2894 22.7976 17.2097 22.3901 17.2094 21.9785C17.2086 21.1473 17.5309 20.3498 18.1054 19.7615L19.1846 18.6487L18.1054 17.5359L17.0167 18.6487C16.1664 19.5348 15.6935 20.7286 15.7013 21.9698C15.709 23.2109 16.1967 24.3985 17.0579 25.2734C17.9192 26.1484 19.084 26.6396 20.2983 26.64C21.5126 26.6404 22.6778 26.1498 23.5395 25.2753L29.6636 19.0159C30.5218 18.1337 31.0022 16.9393 30.9994 15.6953C30.9966 14.4512 30.5108 13.2592 29.6486 12.3809H29.648Z" fill="#909090"/>
<path d="M10.4644 26.5107C10.1786 26.2199 9.95173 25.8743 9.79694 25.4936C9.64215 25.1129 9.56247 24.7047 9.56247 24.2925C9.56247 23.8802 9.64215 23.472 9.79694 23.0914C9.95173 22.7107 10.1786 22.365 10.4644 22.0742L16.5885 15.8148C16.873 15.5226 17.2112 15.2907 17.5837 15.1325C17.9561 14.9743 18.3555 14.8929 18.7588 14.8929C19.1622 14.8929 19.5615 14.9743 19.934 15.1325C20.3064 15.2907 20.6446 15.5226 20.9291 15.8148C21.2132 16.108 21.4367 16.4565 21.5866 16.8396C21.7364 17.2227 21.8095 17.6327 21.8015 18.0452C21.8038 18.4589 21.7259 18.869 21.5722 19.2517C21.4185 19.6345 21.192 19.9823 20.906 20.275L19.2831 21.9574L20.3718 23.0702L21.9947 21.4114C22.8488 20.5263 23.3258 19.3319 23.3217 18.0888C23.3175 16.8456 22.8325 15.6546 21.9724 14.7756C21.1124 13.8965 19.9471 13.4008 18.7308 13.3965C17.5146 13.3922 16.346 13.8798 15.4801 14.7528L9.35599 21.0122C8.70514 21.6643 8.26043 22.5007 8.07927 23.4136C7.8981 24.3266 7.98879 25.274 8.33963 26.1338C8.69047 26.9935 9.28535 27.726 10.0475 28.2368C10.8097 28.7475 11.7041 29.0131 12.6154 28.9992C13.8425 29.0004 15.0204 28.5053 15.8917 27.6221L14.803 26.5094C14.5185 26.8015 14.1803 27.0334 13.8078 27.1916C13.4354 27.3498 13.036 27.4313 12.6327 27.4313C12.2294 27.4313 11.83 27.3498 11.4576 27.1916C11.0851 27.0334 10.7469 26.8015 10.4624 26.5094L10.4644 26.5107Z" fill="#909090"/>
</g>
<defs>
<clipPath id="clip0">
<rect width="23" height="18" fill="white" transform="translate(8 11)"/>
</clipPath>
</defs>
</svg>
