<svg width="40" height="40" viewBox="0 0 40 40" fill="none" xmlns="http://www.w3.org/2000/svg">
<rect width="40" height="40" rx="10" fill="#F1F4FF"/>
<path d="M25.9189 21.82C25.6599 22.071 25.5409 22.434 25.5999 22.79L26.4889 27.71C26.5639 28.127 26.3879 28.549 26.0389 28.79C25.6969 29.04 25.2419 29.07 24.8689 28.87L20.4399 26.56C20.2859 26.478 20.1149 26.434 19.9399 26.429H19.6689C19.5749 26.443 19.4829 26.473 19.3989 26.519L14.9689 28.84C14.7499 28.95 14.5019 28.989 14.2589 28.95C13.6669 28.838 13.2719 28.274 13.3689 27.679L14.2589 22.759C14.3179 22.4 14.1989 22.035 13.9399 21.78L10.3289 18.28C10.0269 17.987 9.92188 17.547 10.0599 17.15C10.1939 16.754 10.5359 16.465 10.9489 16.4L15.9189 15.679C16.2969 15.64 16.6289 15.41 16.7989 15.07L18.9889 10.58C19.0409 10.48 19.1079 10.388 19.1889 10.31L19.2789 10.24C19.3259 10.188 19.3799 10.145 19.4399 10.11L19.5489 10.07L19.7189 10H20.1399C20.5159 10.039 20.8469 10.264 21.0199 10.6L23.2389 15.07C23.3989 15.397 23.7099 15.624 24.0689 15.679L29.0389 16.4C29.4589 16.46 29.8099 16.75 29.9489 17.15C30.0799 17.551 29.9669 17.991 29.6589 18.28L25.9189 21.82Z" fill="#2C2C2C"/>
</svg>
