<svg width="20" height="18" viewBox="0 0 20 18" fill="none" xmlns="http://www.w3.org/2000/svg">
<g clip-path="url(#clip0)">
<path d="M14.2861 9.80078H15.7147V11.2008H14.2861V9.80078Z" fill="#909090"/>
<path d="M18.5714 3.5H1.42857V1.4H17.1429V0H1.42857C1.04969 0 0.686328 0.1475 0.418419 0.410051C0.15051 0.672602 0 1.0287 0 1.4V16.1C0 16.4713 0.15051 16.8274 0.418419 17.09C0.686328 17.3525 1.04969 17.5 1.42857 17.5H18.5714C18.9503 17.5 19.3137 17.3525 19.5816 17.09C19.8495 16.8274 20 16.4713 20 16.1V4.9C20 4.5287 19.8495 4.1726 19.5816 3.91005C19.3137 3.6475 18.9503 3.5 18.5714 3.5ZM1.42857 16.1V4.9H18.5714V7H12.8571C12.4783 7 12.1149 7.1475 11.847 7.41005C11.5791 7.6726 11.4286 8.0287 11.4286 8.4V12.6C11.4286 12.9713 11.5791 13.3274 11.847 13.5899C12.1149 13.8525 12.4783 14 12.8571 14H18.5714V16.1H1.42857ZM18.5714 8.4V12.6H12.8571V8.4H18.5714Z" fill="#909090"/>
</g>
<defs>
<clipPath id="clip0">
<rect width="20" height="17.5" fill="white"/>
</clipPath>
</defs>
</svg>
