<svg width="40" height="40" viewBox="0 0 40 40" fill="none" xmlns="http://www.w3.org/2000/svg">
<rect width="40" height="40" rx="10" fill="#F1F4FF"/>
<path d="M28 19C27.7348 19 27.4804 19.1054 27.2929 19.2929C27.1054 19.4804 27 19.7348 27 20V26C27 26.2652 26.8946 26.5196 26.7071 26.7071C26.5196 26.8946 26.2652 27 26 27H14C13.7348 27 13.4804 26.8946 13.2929 26.7071C13.1054 26.5196 13 26.2652 13 26V14C13 13.7348 13.1054 13.4804 13.2929 13.2929C13.4804 13.1054 13.7348 13 14 13H20C20.2652 13 20.5196 12.8946 20.7071 12.7071C20.8946 12.5196 21 12.2652 21 12C21 11.7348 20.8946 11.4804 20.7071 11.2929C20.5196 11.1054 20.2652 11 20 11H14C13.2044 11 12.4413 11.3161 11.8787 11.8787C11.3161 12.4413 11 13.2044 11 14V26C11 26.7956 11.3161 27.5587 11.8787 28.1213C12.4413 28.6839 13.2044 29 14 29H26C26.7956 29 27.5587 28.6839 28.1213 28.1213C28.6839 27.5587 29 26.7956 29 26V20C29 19.7348 28.8946 19.4804 28.7071 19.2929C28.5196 19.1054 28.2652 19 28 19Z" fill="#919191"/>
<path d="M24.0002 13H25.5802L19.2902 19.28C19.1969 19.3732 19.123 19.4839 19.0725 19.6058C19.0221 19.7276 18.9961 19.8581 18.9961 19.99C18.9961 20.1219 19.0221 20.2524 19.0725 20.3743C19.123 20.4961 19.1969 20.6068 19.2902 20.7C19.3834 20.7932 19.4941 20.8672 19.6159 20.9177C19.7378 20.9681 19.8683 20.9941 20.0002 20.9941C20.132 20.9941 20.2626 20.9681 20.3844 20.9177C20.5063 20.8672 20.6169 20.7932 20.7102 20.7L27.0002 14.42V16C27.0002 16.2652 27.1055 16.5196 27.2931 16.7071C27.4806 16.8946 27.735 17 28.0002 17C28.2654 17 28.5198 16.8946 28.7073 16.7071C28.8948 16.5196 29.0002 16.2652 29.0002 16V12C29.0002 11.7348 28.8948 11.4804 28.7073 11.2929C28.5198 11.1054 28.2654 11 28.0002 11H24.0002C23.735 11 23.4806 11.1054 23.2931 11.2929C23.1055 11.4804 23.0002 11.7348 23.0002 12C23.0002 12.2652 23.1055 12.5196 23.2931 12.7071C23.4806 12.8946 23.735 13 24.0002 13Z" fill="#919191"/>
</svg>
