<svg width="40" height="40" viewBox="0 0 40 40" fill="none" xmlns="http://www.w3.org/2000/svg">
<rect width="40" height="40" rx="10" fill="#F1F4FF"/>
<g clip-path="url(#clip0)">
<path d="M17.2918 31.963C17.1886 31.9363 17.0922 31.8885 17.0084 31.8226C16.9247 31.7567 16.8555 31.6743 16.8051 31.5804L16.7938 31.5608L16.7309 31.3891C16.6806 31.2968 16.6513 31.1947 16.6449 31.0898C16.6386 30.985 16.6553 30.8801 16.694 30.7824C16.7677 30.5901 16.9148 30.435 17.1028 30.351L18.1694 29.8062C16.8572 29.5709 15.6076 29.0677 14.4985 28.3279C13.1229 27.4181 11.9921 26.184 11.2056 24.7343C10.4898 23.4209 10.0811 21.9623 10.0101 20.4682C9.93924 18.9741 10.208 17.4833 10.7962 16.108C11.7957 13.7039 13.7064 11.7932 16.1105 10.7937C17.8263 10.0552 19.7179 9.82426 21.5609 10.1282C23.8693 10.4727 25.9775 11.6337 27.5027 13.4004C29.1336 15.2044 30.0246 17.5568 29.9982 19.9886C30.0036 21.5382 29.6464 23.0676 28.9551 24.4545C28.2639 25.8415 27.2578 27.0475 26.0172 27.9761H26.0137C25.8494 28.0993 25.6498 28.166 25.4445 28.1663C25.3937 28.166 25.3431 28.162 25.2929 28.1544C25.046 28.1212 24.8217 27.9934 24.6673 27.7979L24.6572 27.7848C24.56 27.6487 24.4987 27.4903 24.4789 27.3243C24.4588 27.1603 24.4792 26.9938 24.5383 26.8395C24.599 26.6758 24.7075 26.5342 24.8497 26.433C26.4247 25.248 27.512 23.5279 27.9067 21.5968C28.3015 19.6657 27.9765 17.6569 26.9929 15.9488C26.2836 14.7207 25.2621 13.702 24.032 12.9962C22.8018 12.2903 21.4069 11.9224 19.9887 11.9298L19.9858 11.6327V11.9298C17.8536 11.9357 15.8099 12.7825 14.2983 14.2863C13.5676 15.0318 12.9832 15.9077 12.5752 16.8686C12.1486 17.8533 11.9293 18.9154 11.9311 19.9886C11.9257 21.3451 12.2693 22.6802 12.9287 23.8656C13.5803 25.0506 14.5204 26.052 15.6619 26.7771C16.6326 27.4013 17.7274 27.8068 18.8705 27.9654L18.0541 26.6737C17.9925 26.59 17.9483 26.4948 17.9239 26.3938C17.8995 26.2928 17.8955 26.188 17.9121 26.0854C17.9255 25.981 17.9616 25.8808 18.0179 25.7918C18.0741 25.7028 18.1491 25.6272 18.2377 25.5703L18.391 25.461L18.4052 25.4526C18.4985 25.3991 18.6019 25.3657 18.7088 25.3544C18.8157 25.3432 18.9238 25.3544 19.0262 25.3873C19.2185 25.4449 19.3832 25.5706 19.4896 25.7408L21.4783 28.8395L21.609 29.0575C21.7122 29.2336 21.7453 29.4422 21.7017 29.6416L21.6988 29.6576L21.6934 29.6731C21.6734 29.7327 21.6471 29.7901 21.615 29.8442C21.5819 29.8997 21.5419 29.9507 21.4962 29.9963C21.4502 30.0407 21.4001 30.0805 21.3464 30.1151L21.331 30.1253L21.2484 30.1663V30.1746L17.8948 31.8846C17.7122 31.988 17.4964 32.0157 17.2935 31.9619L17.2918 31.963Z" fill="#909090"/>
</g>
<defs>
<clipPath id="clip0">
<rect width="20" height="21.9911" fill="white" transform="translate(10 10)"/>
</clipPath>
</defs>
</svg>
