<svg width="40" height="40" viewBox="0 0 40 40" fill="none" xmlns="http://www.w3.org/2000/svg">
<rect width="40" height="40" rx="10" fill="#F1F4FF"/>
<g clip-path="url(#clip0)">
<path d="M17.6925 15.3848H26.9232C27.5353 15.3848 28.1222 15.6279 28.555 16.0607C28.9878 16.4934 29.2309 17.0804 29.2309 17.6925V26.9232C29.2309 27.5353 28.9878 28.1222 28.555 28.555C28.1222 28.9878 27.5353 29.2309 26.9232 29.2309H17.6925C17.0804 29.2309 16.4934 28.9878 16.0607 28.555C15.6279 28.1222 15.3848 27.5353 15.3848 26.9232V17.6925C15.3848 17.0804 15.6279 16.4934 16.0607 16.0607C16.4934 15.6279 17.0804 15.3848 17.6925 15.3848V15.3848Z" stroke="#909090" stroke-width="2" stroke-linecap="round" stroke-linejoin="round"/>
<path d="M24.6157 15.3849V13.0772C24.6157 12.4652 24.3726 11.8782 23.9398 11.4454C23.507 11.0127 22.92 10.7695 22.308 10.7695H13.0772C12.4652 10.7695 11.8782 11.0127 11.4454 11.4454C11.0127 11.8782 10.7695 12.4652 10.7695 13.0772V22.308C10.7695 22.92 11.0127 23.507 11.4454 23.9398C11.8782 24.3726 12.4652 24.6157 13.0772 24.6157H15.3849" stroke="#909090" stroke-width="2" stroke-linecap="round" stroke-linejoin="round"/>
</g>
<defs>
<clipPath id="clip0">
<rect width="20" height="20" fill="white" transform="translate(10 10)"/>
</clipPath>
</defs>
</svg>
