<svg width="15" height="15" viewBox="0 0 15 15" fill="none" xmlns="http://www.w3.org/2000/svg">
<path d="M14.1667 6.66667C13.9457 6.66667 13.7337 6.75446 13.5774 6.91075C13.4211 7.06703 13.3333 7.27899 13.3333 7.5V12.5C13.3333 12.721 13.2455 12.933 13.0893 13.0893C12.933 13.2455 12.721 13.3333 12.5 13.3333H2.5C2.27899 13.3333 2.06702 13.2455 1.91074 13.0893C1.75446 12.933 1.66667 12.721 1.66667 12.5V2.5C1.66667 2.27899 1.75446 2.06702 1.91074 1.91074C2.06702 1.75446 2.27899 1.66667 2.5 1.66667H7.5C7.72101 1.66667 7.93298 1.57887 8.08926 1.42259C8.24554 1.26631 8.33333 1.05435 8.33333 0.833333C8.33333 0.61232 8.24554 0.400358 8.08926 0.244078C7.93298 0.0877973 7.72101 0 7.5 0H2.5C1.83696 0 1.20107 0.263392 0.732233 0.732233C0.263392 1.20107 0 1.83696 0 2.5V12.5C0 13.163 0.263392 13.7989 0.732233 14.2678C1.20107 14.7366 1.83696 15 2.5 15H12.5C13.163 15 13.7989 14.7366 14.2678 14.2678C14.7366 13.7989 15 13.163 15 12.5V7.5C15 7.27899 14.9122 7.06703 14.7559 6.91075C14.5996 6.75446 14.3877 6.66667 14.1667 6.66667Z" fill="black"/>
<path d="M10.8332 1.66667H12.1498L6.90816 6.9C6.83046 6.9777 6.76883 7.06994 6.72678 7.17146C6.68473 7.27298 6.66309 7.38178 6.66309 7.49167C6.66309 7.60155 6.68473 7.71036 6.72678 7.81188C6.76883 7.91339 6.83046 8.00563 6.90816 8.08333C6.98586 8.16103 7.0781 8.22267 7.17962 8.26472C7.28114 8.30677 7.38995 8.32841 7.49983 8.32841C7.60971 8.32841 7.71852 8.30677 7.82004 8.26472C7.92156 8.22267 8.0138 8.16103 8.0915 8.08333L13.3332 2.85V4.16667C13.3332 4.38768 13.421 4.59964 13.5772 4.75592C13.7335 4.9122 13.9455 5 14.1665 5C14.3875 5 14.5995 4.9122 14.7558 4.75592C14.912 4.59964 14.9998 4.38768 14.9998 4.16667V0.833333C14.9998 0.61232 14.912 0.400358 14.7558 0.244078C14.5995 0.0877973 14.3875 0 14.1665 0H10.8332C10.6121 0 10.4002 0.0877973 10.2439 0.244078C10.0876 0.400358 9.99983 0.61232 9.99983 0.833333C9.99983 1.05435 10.0876 1.26631 10.2439 1.42259C10.4002 1.57887 10.6121 1.66667 10.8332 1.66667Z" fill="black"/>
</svg>
