<svg width="40" height="40" viewBox="0 0 40 40" fill="none" xmlns="http://www.w3.org/2000/svg">
<rect width="40" height="40" rx="10" fill="#F1F4FF"/>
<path fill-rule="evenodd" clip-rule="evenodd" d="M19.7499 12.5C19.6589 12.5 19.4349 12.525 19.3159 12.763L17.4899 16.414C17.2009 16.991 16.6439 17.392 15.9999 17.484L11.9119 18.073C11.6419 18.112 11.5499 18.312 11.5219 18.396C11.4969 18.477 11.4569 18.683 11.6429 18.861L14.5989 21.701C15.0699 22.154 15.2839 22.807 15.1719 23.446L14.4759 27.456C14.4329 27.707 14.5899 27.853 14.6599 27.903C14.7339 27.959 14.9319 28.07 15.1769 27.942L18.8319 26.047C19.4079 25.75 20.0939 25.75 20.6679 26.047L24.3219 27.941C24.5679 28.068 24.7659 27.957 24.8409 27.903C24.9109 27.853 25.0679 27.707 25.0249 27.456L24.3269 23.446C24.2149 22.807 24.4289 22.154 24.8999 21.701L27.8559 18.861C28.0429 18.683 28.0029 18.476 27.9769 18.396C27.9499 18.312 27.8579 18.112 27.5879 18.073L23.4999 17.484C22.8569 17.392 22.2999 16.991 22.0109 16.413L20.1829 12.763C20.0649 12.525 19.8409 12.5 19.7499 12.5ZM14.9469 29.5C14.5339 29.5 14.1239 29.37 13.7729 29.114C13.1669 28.67 12.8699 27.937 12.9989 27.199L13.6949 23.189C13.7209 23.04 13.6699 22.889 13.5599 22.783L10.6039 19.943C10.0599 19.422 9.86492 18.652 10.0949 17.937C10.3269 17.214 10.9409 16.697 11.6979 16.589L15.7859 16C15.9439 15.978 16.0799 15.881 16.1479 15.743L17.9749 12.091C18.3119 11.418 18.9919 11 19.7499 11C20.5079 11 21.1879 11.418 21.5249 12.091L23.3529 15.742C23.4219 15.881 23.5569 15.978 23.7139 16L27.8019 16.589C28.5589 16.697 29.1729 17.214 29.4049 17.937C29.6349 18.652 29.4389 19.422 28.8949 19.943L25.9389 22.783C25.8289 22.889 25.7789 23.04 25.8049 23.188L26.5019 27.199C26.6299 27.938 26.3329 28.671 25.7259 29.114C25.1109 29.565 24.3099 29.626 23.6309 29.272L19.9779 27.379C19.8349 27.305 19.6639 27.305 19.5209 27.379L15.8679 29.273C15.5759 29.425 15.2609 29.5 14.9469 29.5Z" fill="#909090"/>
</svg>
