<svg width="18" height="18" viewBox="0 0 18 18" fill="none" xmlns="http://www.w3.org/2000/svg">
<path fill-rule="evenodd" clip-rule="evenodd" d="M6.42857 2.57143C6.71559 2.57143 6.96784 2.7617 7.04669 3.03768L7.74372 5.47727C8.04881 6.54508 8.88349 7.37976 9.9513 7.68485L12.3909 8.38188C12.6669 8.46073 12.8571 8.71298 12.8571 9C12.8571 9.28702 12.6669 9.53927 12.3909 9.61812L9.9513 10.3151C8.88349 10.6202 8.04881 11.4549 7.74372 12.5227L7.04669 14.9623C6.96784 15.2383 6.71559 15.4286 6.42857 15.4286C6.14155 15.4286 5.8893 15.2383 5.81045 14.9623L5.11342 12.5227C4.80833 11.4549 3.97365 10.6202 2.90584 10.3151L0.466251 9.61812C0.190271 9.53927 0 9.28702 0 9C0 8.71298 0.190271 8.46073 0.466251 8.38188L2.90584 7.68485C3.97365 7.37976 4.80833 6.54508 5.11342 5.47727L5.81045 3.03768C5.8893 2.7617 6.14155 2.57143 6.42857 2.57143Z" fill="white"/>
<path fill-rule="evenodd" clip-rule="evenodd" d="M14.1429 0C14.4378 0 14.695 0.200763 14.7665 0.486941L14.9884 1.37448C15.1899 2.18062 15.8194 2.81006 16.6255 3.0116L17.5131 3.23348C17.7992 3.30502 18 3.56216 18 3.85714C18 4.15213 17.7992 4.40926 17.5131 4.48081L16.6255 4.70269C15.8194 4.90423 15.1899 5.53366 14.9884 6.33981L14.7665 7.22734C14.695 7.51352 14.4378 7.71429 14.1429 7.71429C13.8479 7.71429 13.5907 7.51352 13.5192 7.22734L13.2973 6.33981C13.0958 5.53366 12.4663 4.90423 11.6602 4.70269L10.7727 4.48081C10.4865 4.40926 10.2857 4.15213 10.2857 3.85714C10.2857 3.56216 10.4865 3.30502 10.7727 3.23348L11.6602 3.0116C12.4663 2.81006 13.0958 2.18062 13.2973 1.37448L13.5192 0.486941C13.5907 0.200763 13.8479 0 14.1429 0Z" fill="white"/>
<path fill-rule="evenodd" clip-rule="evenodd" d="M12.8571 11.5714C13.1338 11.5714 13.3795 11.7485 13.467 12.011L13.8049 13.0248C13.9329 13.4087 14.2342 13.7099 14.6181 13.8379L15.6319 14.1758C15.8944 14.2633 16.0714 14.509 16.0714 14.7857C16.0714 15.0624 15.8944 15.3081 15.6319 15.3956L14.6181 15.7335C14.2342 15.8615 13.9329 16.1627 13.8049 16.5467L13.467 17.5604C13.3795 17.8229 13.1338 18 12.8571 18C12.5804 18 12.3348 17.8229 12.2473 17.5604L11.9094 16.5467C11.7814 16.1627 11.4801 15.8615 11.0962 15.7335L10.0824 15.3956C9.81992 15.3081 9.64286 15.0624 9.64286 14.7857C9.64286 14.509 9.81992 14.2633 10.0824 14.1758L11.0962 13.8379C11.4801 13.7099 11.7814 13.4087 11.9094 13.0248L12.2473 12.011C12.3348 11.7485 12.5804 11.5714 12.8571 11.5714Z" fill="white"/>
</svg>
