<svg width="20" height="17" viewBox="0 0 20 17" fill="none" xmlns="http://www.w3.org/2000/svg">
<path d="M7.96967 16.5303C8.26256 16.8232 8.73744 16.8232 9.03033 16.5303C9.32322 16.2374 9.32322 15.7626 9.03033 15.4697L7.96967 16.5303ZM1 8.5L0.46967 7.96967C0.176777 8.26256 0.176777 8.73744 0.46967 9.03033L1 8.5ZM9.03033 1.53033C9.32322 1.23744 9.32322 0.762563 9.03033 0.46967C8.73744 0.176777 8.26256 0.176777 7.96967 0.46967L9.03033 1.53033ZM19 9.25C19.4142 9.25 19.75 8.91421 19.75 8.5C19.75 8.08579 19.4142 7.75 19 7.75V9.25ZM9.03033 15.4697L1.53033 7.96967L0.46967 9.03033L7.96967 16.5303L9.03033 15.4697ZM1.53033 9.03033L9.03033 1.53033L7.96967 0.46967L0.46967 7.96967L1.53033 9.03033ZM19 7.75H1V9.25H19V7.75Z" fill="white"/>
</svg>
