<svg width="1559" height="351" viewBox="0 0 1559 351" fill="none" xmlns="http://www.w3.org/2000/svg">
<path fill-rule="evenodd" clip-rule="evenodd" d="M1487.25 308.595L1487.2 306.264H1482.18C1475.81 306.264 1469.8 311.608 1471.31 318.587C1473.08 326.779 1477.29 334.123 1484.72 339.382C1492.12 344.617 1502.5 347.633 1516.37 347.633C1530.62 347.633 1541.17 344.847 1548.18 339.218C1555.29 333.504 1558.37 325.192 1558.37 315.12C1558.37 306.564 1555.87 299.893 1550.74 295.014C1545.68 290.211 1538.36 287.419 1529.25 285.952L1504.23 282.184L1504.22 282.183C1498.86 281.335 1495.7 279.525 1493.84 277.343C1491.99 275.159 1491.17 272.275 1491.17 268.71C1491.17 263.709 1492.83 259.741 1496.27 256.961C1499.8 254.116 1505.51 252.252 1514.11 252.252C1523.15 252.252 1529.31 254.458 1533.34 257.961C1537.36 261.452 1539.58 266.507 1540.22 272.865L1540.43 275.005H1544.59C1548.02 275.005 1551.19 273.527 1553.25 271.149C1555.34 268.734 1556.28 265.369 1555.1 261.879C1552.61 254.511 1547.96 248.412 1541.05 244.184C1534.16 239.975 1525.18 237.704 1514.11 237.704C1500.78 237.704 1490.68 240.997 1483.88 246.675C1477.03 252.39 1473.76 260.321 1473.76 269.012C1473.76 276.975 1475.88 283.544 1480.58 288.454C1485.23 293.324 1492.14 296.256 1501.09 297.581L1501.1 297.582L1524.73 301.194C1530.85 302.215 1534.84 303.943 1537.31 306.35C1539.7 308.68 1540.96 311.943 1540.96 316.777C1540.96 322.134 1539.52 325.972 1536.14 328.59C1532.6 331.326 1526.51 333.085 1516.37 333.085C1505.12 333.085 1498.02 330.346 1493.68 326.161C1489.36 321.984 1487.39 315.983 1487.25 308.595ZM1488.79 268.71C1488.79 276.546 1492.41 282.724 1503.86 284.532L1528.87 288.299C1546.65 291.162 1555.99 298.997 1555.99 315.12C1555.99 331.864 1547.11 342.379 1526.11 344.746C1547.11 342.379 1555.99 331.864 1555.99 315.12C1555.99 298.997 1546.65 291.162 1528.87 288.299L1503.86 284.532C1492.41 282.724 1488.79 276.546 1488.79 268.711C1488.79 258.946 1494.57 251.839 1507.94 250.224C1494.57 251.84 1488.79 258.946 1488.79 268.71ZM1545.57 272.578C1550.62 272.055 1554.51 267.55 1552.85 262.64C1548.21 248.911 1535.62 240.081 1514.11 240.081C1511.97 240.081 1509.94 240.168 1507.99 240.336C1509.94 240.168 1511.97 240.081 1514.1 240.081C1535.62 240.081 1548.21 248.911 1552.85 262.64C1554.51 267.55 1550.62 272.054 1545.57 272.578ZM1523.4 335.14C1521.27 335.353 1518.93 335.462 1516.37 335.462C1493.16 335.462 1485.17 324.161 1484.87 308.641H1482.18C1481.85 308.641 1481.52 308.657 1481.2 308.69C1481.52 308.658 1481.85 308.641 1482.17 308.641H1484.87C1485.17 324.161 1493.16 335.462 1516.36 335.462C1518.92 335.462 1521.27 335.353 1523.4 335.14Z" fill="white"/>
<path fill-rule="evenodd" clip-rule="evenodd" d="M1371.23 252.307V345.378H1429.04C1435.61 345.378 1440.93 340.057 1440.93 333.493V330.529H1388.49V240.422H1383.12C1376.55 240.422 1371.23 245.743 1371.23 252.307ZM1386.11 332.906V332.906H1438.55V332.906H1386.11ZM1373.61 343.001H1373.61V252.307C1373.61 247.056 1377.86 242.799 1383.12 242.799H1386.11V242.799H1383.12C1377.86 242.799 1373.61 247.056 1373.61 252.307V343.001Z" fill="white"/>
<path d="M1341.11 331.302C1343.26 336.954 1339.08 343.001 1333.04 343.001C1332.86 343.001 1332.7 342.891 1332.63 342.723L1322.95 317.386H1273.37L1263.68 342.727C1263.62 342.892 1263.46 343.001 1263.28 343.001C1257.32 343.001 1253.19 337.024 1255.32 331.445L1289.04 242.799H1301.01C1304.96 242.799 1308.5 245.243 1309.9 248.938L1341.11 331.302ZM1277.14 307.29H1319.18L1298.23 251.84L1277.14 307.29Z" fill="white"/>
<path fill-rule="evenodd" clip-rule="evenodd" d="M1287.41 240.422H1301.01C1305.95 240.422 1310.38 243.477 1312.13 248.096L1343.34 330.46C1346.07 337.667 1340.75 345.378 1333.04 345.378C1331.87 345.378 1330.83 344.66 1330.42 343.573L1321.31 319.763H1275.01L1265.91 343.576C1265.49 344.661 1264.45 345.378 1263.29 345.378C1255.65 345.378 1250.38 337.735 1253.1 330.6L1287.41 240.422ZM1273.37 317.386H1322.95L1332.64 342.724C1332.7 342.891 1332.86 343.001 1333.04 343.001C1339.08 343.001 1343.26 336.954 1341.12 331.303L1309.9 248.938C1308.5 245.243 1304.96 242.799 1301.01 242.799H1289.04L1255.32 331.445C1253.2 337.025 1257.32 343.001 1263.29 343.001C1263.46 343.001 1263.62 342.892 1263.68 342.727L1273.37 317.386ZM1319.18 307.29L1298.24 251.84L1277.14 307.29H1319.18ZM1280.59 304.913H1315.74L1298.23 258.546L1280.59 304.913Z" fill="white"/>
<path fill-rule="evenodd" clip-rule="evenodd" d="M1173.79 330.529H1143.03V333.493C1143.03 340.057 1148.35 345.378 1154.92 345.378H1209.91C1216.48 345.378 1221.8 340.057 1221.8 333.493V330.529H1191.05V255.272H1221.8V252.307C1221.8 245.743 1216.48 240.422 1209.91 240.422H1154.92C1148.35 240.422 1143.03 245.743 1143.03 252.307V255.272H1173.79V330.529ZM1188.67 332.906V332.906H1219.42V332.906H1188.67ZM1147.09 338.898C1146.03 337.363 1145.41 335.501 1145.41 333.493V332.906H1176.16V252.895H1176.16V332.906H1145.41V333.493C1145.41 334.105 1145.47 334.703 1145.58 335.283C1145.83 336.605 1146.35 337.831 1147.09 338.898ZM1209.91 242.799C1212.23 242.799 1214.36 243.63 1216.01 245.01C1214.36 243.63 1212.23 242.799 1209.91 242.799H1154.92C1149.67 242.799 1145.41 247.056 1145.41 252.307V252.894H1145.41V252.307C1145.41 251.695 1145.47 251.097 1145.58 250.517C1146.41 246.122 1150.28 242.799 1154.92 242.799H1209.91Z" fill="white"/>
<path fill-rule="evenodd" clip-rule="evenodd" d="M1060.35 255.272V345.529H1065.57C1072.14 345.529 1077.46 340.208 1077.46 333.644V255.272H1113.32V252.307C1113.32 245.743 1108 240.422 1101.43 240.422H1036.07C1029.5 240.422 1024.18 245.743 1024.18 252.307V255.272H1060.35ZM1062.72 343.152V252.895H1062.72V343.152H1062.72ZM1026.56 252.894H1026.56V252.307C1026.56 251.695 1026.62 251.097 1026.73 250.517C1027.57 246.122 1031.43 242.799 1036.07 242.799H1101.43C1103.17 242.799 1104.8 243.266 1106.21 244.082C1104.8 243.266 1103.17 242.799 1101.43 242.799H1036.07C1030.82 242.799 1026.56 247.056 1026.56 252.307V252.894Z" fill="white"/>
<path fill-rule="evenodd" clip-rule="evenodd" d="M980.63 334.412C980.63 334.412 980.63 334.413 980.63 334.413V242.799H983.478C986.103 242.799 988.48 243.863 990.201 245.584C988.48 243.863 986.103 242.799 983.478 242.799H980.63V334.412ZM926.536 264.346C923.975 259.525 921.715 255.155 920.208 251.237V251.237C920.868 252.954 921.673 254.758 922.585 256.648C923.753 259.072 925.097 261.638 926.536 264.346L926.536 264.346ZM928.797 242.799H917.21C911.958 242.799 907.701 247.056 907.701 252.307V333.493C907.701 335.462 908.3 337.292 909.325 338.809C908.3 337.292 907.701 335.462 907.701 333.493V252.307C907.701 247.056 911.958 242.799 917.21 242.799H928.796L928.797 242.799ZM924.437 265.461C923.803 264.268 923.183 263.094 922.585 261.941V345.378H917.21C910.645 345.378 905.324 340.057 905.324 333.493V252.307C905.324 245.743 910.645 240.422 917.21 240.422H930.169L976.371 320.435C976.975 321.504 977.608 322.713 978.253 323.998V240.422H983.478C990.042 240.422 995.363 245.743 995.363 252.307V333.493C995.363 340.057 990.042 345.378 983.478 345.378H970.671L924.457 265.499L924.437 265.461Z" fill="white"/>
<path fill-rule="evenodd" clip-rule="evenodd" d="M872.942 332.906H810.862V332.906H872.942V332.906ZM801.14 340.216C799.42 338.496 798.356 336.119 798.356 333.493V252.307C798.356 247.056 802.613 242.799 807.864 242.799H862.982C864.829 242.799 866.553 243.326 868.012 244.237C866.553 243.326 864.829 242.799 862.982 242.799H807.864C802.613 242.799 798.356 247.056 798.356 252.307V333.493C798.356 336.119 799.42 338.496 801.14 340.216ZM867.97 286.496V286.496H810.862V286.496H867.97ZM875.319 330.529H813.239V298.818H858.461C865.025 298.818 870.347 293.497 870.347 286.933V284.119H813.239V255.272H874.867V252.307C874.867 245.743 869.546 240.422 862.982 240.422H807.864C801.3 240.422 795.979 245.743 795.979 252.307V333.493C795.979 340.057 801.3 345.378 807.864 345.378H863.434C869.998 345.378 875.319 340.057 875.319 333.493V330.529Z" fill="white"/>
<path fill-rule="evenodd" clip-rule="evenodd" d="M698.056 308.595L698.011 306.264H692.983C686.614 306.264 680.603 311.608 682.112 318.587C683.883 326.779 688.092 334.123 695.528 339.382C702.929 344.617 713.309 347.633 727.172 347.633C741.429 347.633 751.974 344.847 758.984 339.218C766.1 333.504 769.178 325.192 769.178 315.12C769.178 306.564 766.678 299.893 761.545 295.014C756.491 290.211 749.167 287.419 740.056 285.952L715.036 282.184L715.028 282.183C709.669 281.335 706.503 279.525 704.649 277.343C702.795 275.159 701.975 272.275 701.975 268.71C701.975 263.709 703.637 259.741 707.08 256.961C710.604 254.116 716.317 252.252 724.912 252.252C733.959 252.252 740.115 254.458 744.146 257.961C748.164 261.452 750.389 266.507 751.025 272.865L751.239 275.005H755.395C758.825 275.005 761.993 273.527 764.053 271.149C766.144 268.734 767.089 265.369 765.909 261.879C763.419 254.511 758.767 248.412 751.854 244.184C744.97 239.975 735.984 237.704 724.912 237.704C711.586 237.704 701.491 240.997 694.684 246.675C687.835 252.39 684.563 260.321 684.563 269.012C684.563 276.975 686.685 283.544 691.382 288.454C696.041 293.324 702.944 296.256 711.901 297.581L711.907 297.582L735.536 301.194C741.654 302.215 745.646 303.943 748.115 306.35C750.505 308.68 751.766 311.943 751.766 316.777C751.766 322.134 750.328 325.972 746.944 328.59C743.409 331.326 737.316 333.085 727.172 333.085C715.924 333.085 708.822 330.346 704.488 326.161C700.162 321.984 698.2 315.983 698.056 308.595ZM699.598 268.71C699.598 276.546 703.214 282.724 714.665 284.532L739.678 288.299C757.458 291.162 766.801 298.997 766.801 315.12C766.801 331.864 757.918 342.379 736.921 344.746C757.916 342.379 766.799 331.864 766.799 315.12C766.799 298.997 757.457 291.162 739.677 288.299L714.664 284.532C703.212 282.724 699.596 276.546 699.596 268.711C699.596 258.945 705.374 251.838 718.753 250.223C705.375 251.839 699.598 258.946 699.598 268.71ZM756.416 272.573C761.448 272.031 765.312 267.537 763.657 262.64C759.017 248.911 746.429 240.081 724.912 240.081C722.773 240.081 720.729 240.168 718.778 240.337C720.728 240.168 722.772 240.081 724.91 240.081C746.428 240.081 759.015 248.911 763.656 262.64C765.311 267.537 761.448 272.03 756.416 272.573ZM734.258 335.135C732.109 335.351 729.752 335.462 727.172 335.462C703.967 335.462 695.981 324.161 695.68 308.641H692.983C692.642 308.641 692.304 308.659 691.971 308.694C692.303 308.659 692.641 308.641 692.981 308.641H695.678C695.98 324.161 703.966 335.462 727.17 335.462C729.751 335.462 732.109 335.351 734.258 335.135Z" fill="white"/>
<path fill-rule="evenodd" clip-rule="evenodd" d="M583.959 308.595L583.914 306.264H578.885C572.517 306.264 566.505 311.608 568.014 318.587C569.785 326.779 573.994 334.123 581.43 339.382C588.832 344.617 599.211 347.633 613.074 347.633C627.331 347.633 637.876 344.847 644.887 339.218C652.002 333.504 655.08 325.192 655.08 315.12C655.08 306.564 652.58 299.893 647.447 295.014C642.393 290.211 635.069 287.419 625.959 285.952L600.939 282.184L600.931 282.183C595.571 281.335 592.405 279.525 590.551 277.343C588.697 275.159 587.877 272.275 587.877 268.71C587.877 263.709 589.539 259.741 592.983 256.961C596.506 254.116 602.219 252.252 610.814 252.252C619.861 252.252 626.017 254.458 630.049 257.961C634.067 261.452 636.291 266.507 636.927 272.865L637.141 275.005H641.297C644.727 275.005 647.896 273.527 649.955 271.149C652.046 268.734 652.991 265.369 651.812 261.879C649.321 254.511 644.67 248.412 637.756 244.184C630.873 239.975 621.886 237.704 610.814 237.704C597.488 237.704 587.393 240.997 580.587 246.675C573.737 252.39 570.466 260.321 570.466 269.012C570.466 276.975 572.587 283.544 577.284 288.454C581.943 293.324 588.847 296.256 597.803 297.581L597.809 297.582L621.438 301.194C627.556 302.215 631.548 303.943 634.017 306.35C636.407 308.68 637.669 311.943 637.669 316.777C637.669 322.134 636.23 325.972 632.847 328.59C629.311 331.326 623.219 333.085 613.074 333.085C601.826 333.085 594.724 330.346 590.391 326.161C586.065 321.984 584.102 315.983 583.959 308.595ZM585.5 268.71C585.5 276.546 589.116 282.724 600.568 284.532L625.581 288.299C643.361 291.162 652.703 298.997 652.703 315.12C652.703 331.864 643.82 342.379 622.824 344.746C643.819 342.379 652.701 331.864 652.701 315.12C652.701 298.997 643.359 291.162 625.579 288.299L600.566 284.532C589.114 282.724 585.498 276.546 585.498 268.711C585.498 258.945 591.277 251.838 604.657 250.223C591.278 251.838 585.5 258.945 585.5 268.71ZM642.318 272.573C647.351 272.031 651.215 267.537 649.56 262.64C644.919 248.911 632.332 240.081 610.814 240.081C608.675 240.081 606.631 240.168 604.68 240.337C606.631 240.168 608.674 240.081 610.812 240.081C632.33 240.081 644.918 248.911 649.558 262.64C651.213 267.537 647.35 272.03 642.318 272.573ZM620.11 335.14C617.974 335.353 615.634 335.462 613.074 335.462C589.87 335.462 581.884 324.161 581.582 308.641H578.885C578.557 308.641 578.232 308.657 577.912 308.69C578.232 308.658 578.556 308.641 578.884 308.641H581.581C581.882 324.161 589.868 335.462 613.073 335.462C615.633 335.462 617.974 335.353 620.11 335.14Z" fill="white"/>
<path fill-rule="evenodd" clip-rule="evenodd" d="M534.526 332.906H472.446V332.906H534.526V332.906ZM462.724 340.216C461.004 338.496 459.94 336.119 459.94 333.493V252.307C459.94 247.056 464.197 242.799 469.448 242.799H524.566C526.478 242.799 528.258 243.363 529.749 244.335C528.258 243.363 526.478 242.799 524.566 242.799H469.448C464.197 242.799 459.94 247.056 459.94 252.307V333.493C459.94 336.119 461.004 338.496 462.724 340.216ZM529.554 286.496V286.496H472.446V286.496H529.554ZM536.903 330.529H474.823V298.818H520.045C526.609 298.818 531.931 293.497 531.931 286.933V284.119H474.823V255.272H536.451V252.307C536.451 245.743 531.13 240.422 524.566 240.422H469.448C462.884 240.422 457.562 245.743 457.562 252.307V333.493C457.562 340.057 462.884 345.378 469.448 345.378H525.018C531.582 345.378 536.903 340.057 536.903 333.493V330.529Z" fill="white"/>
<path fill-rule="evenodd" clip-rule="evenodd" d="M1489.29 0C1470.41 0 1456.24 4.66472 1446.76 12.5794C1437.23 20.5303 1432.66 31.5605 1432.66 43.7065C1432.66 54.8988 1435.64 64.0026 1442.12 70.777C1448.57 77.5114 1458.18 81.6381 1470.85 83.5119L1470.86 83.5128L1504.62 88.6748C1513.46 90.1482 1519.4 92.6677 1523.14 96.3171C1526.81 99.8899 1528.67 104.848 1528.67 111.943C1528.67 119.786 1526.55 125.626 1521.39 129.625C1516.07 133.74 1507.08 136.258 1492.52 136.258C1476.29 136.258 1465.85 132.308 1459.4 126.081C1452.96 119.862 1450.11 110.987 1449.9 100.273L1449.86 97.9421H1439.6C1433.15 97.9421 1427.41 103.271 1428.39 110.138C1430.18 122.584 1435.62 133.892 1446.08 142.056C1456.52 150.195 1471.67 155.004 1492.52 155.004C1512.78 155.004 1527.57 151.039 1537.32 143.206C1547.18 135.289 1551.5 123.748 1551.5 109.575C1551.5 97.5649 1548 88.3262 1540.92 81.5908C1533.91 74.9311 1523.68 70.9929 1510.76 68.9125L1475.02 63.53L1475.01 63.5287C1467.2 62.2936 1462.42 59.6281 1459.56 56.2671C1456.71 52.9053 1455.5 48.5194 1455.5 43.276C1455.5 35.8848 1457.97 29.8991 1463.17 25.6985C1468.46 21.4331 1476.88 18.7459 1489.29 18.7459C1502.37 18.7459 1511.43 21.936 1517.43 27.1502C1523.42 32.3524 1526.68 39.8458 1527.6 49.1092L1527.82 51.2498H1537.21C1543.95 51.2498 1549.92 45.3799 1548.17 38.2338C1545.34 26.7201 1539.1 17.0923 1529.21 10.3758C1519.36 3.68122 1506.06 0 1489.29 0Z" fill="white"/>
<path fill-rule="evenodd" clip-rule="evenodd" d="M1316.71 0C1291.3 0 1272.72 8.3858 1260.53 22.5117C1248.4 36.5802 1242.87 56.0349 1242.87 77.7172C1242.87 99.7152 1248.4 119.177 1260.54 133.17C1272.73 147.22 1291.31 155.434 1316.71 155.434C1342.12 155.434 1360.65 147.162 1372.79 133.084C1384.87 119.063 1390.34 99.6047 1390.34 77.7172C1390.34 56.1455 1384.87 36.6933 1372.79 22.5983C1360.66 8.44343 1342.14 0 1316.71 0ZM1266.35 77.7172C1266.35 57.8406 1270.35 43.3905 1278.43 33.9216C1286.44 24.5315 1298.85 19.6069 1316.71 19.6069C1334.58 19.6069 1346.93 24.5311 1354.88 33.916C1362.91 43.3836 1366.86 57.8342 1366.86 77.7172C1366.86 97.6001 1362.91 112.051 1354.88 121.518C1346.93 130.903 1334.58 135.827 1316.71 135.827C1298.85 135.827 1286.44 130.903 1278.43 121.513C1270.35 112.044 1266.35 97.5938 1266.35 77.7172Z" fill="white"/>
<path fill-rule="evenodd" clip-rule="evenodd" d="M1088.36 3.87695C1081.8 3.87695 1076.48 9.19822 1076.48 15.7623V23.0533H1128.14V151.993H1138.66C1145.22 151.993 1150.54 146.671 1150.54 140.107V23.0533H1201.77V15.7623C1201.77 9.19823 1196.45 3.87695 1189.89 3.87695H1088.36Z" fill="white"/>
<path fill-rule="evenodd" clip-rule="evenodd" d="M975.841 0C956.962 0 942.798 4.66472 933.312 12.5794C923.782 20.5303 919.22 31.5605 919.22 43.7065C919.22 54.8988 922.196 64.0026 928.678 70.777C935.12 77.5114 944.736 81.6381 957.406 83.5119L957.412 83.5128L991.18 88.6748C1000.01 90.1482 1005.96 92.6677 1009.7 96.3171C1013.37 99.8899 1015.22 104.848 1015.22 111.943C1015.22 119.786 1013.11 125.626 1007.94 129.625C1002.62 133.74 993.638 136.258 979.07 136.258C962.85 136.258 952.406 132.308 945.957 126.081C939.517 119.862 936.666 110.987 936.458 100.273L936.413 97.9421H926.154C919.705 97.9421 913.961 103.271 914.947 110.138C916.732 122.584 922.177 133.892 932.638 142.056C943.07 150.195 958.227 155.004 979.07 155.004C999.333 155.004 1014.12 151.039 1023.88 143.206C1033.74 135.289 1038.06 123.748 1038.06 109.575C1038.06 97.5649 1034.56 88.3262 1027.47 81.5908C1020.47 74.9311 1010.23 70.9929 997.314 68.9125L961.575 63.53L961.566 63.5287C953.753 62.2936 948.973 59.6281 946.118 56.2671C943.263 52.9053 942.055 48.5194 942.055 43.276C942.055 35.8848 944.525 29.8991 949.728 25.6985C955.011 21.4331 963.436 18.7459 975.841 18.7459C988.924 18.7459 997.986 21.936 1003.99 27.1502C1009.98 32.3524 1013.23 39.8458 1014.16 49.1092L1014.37 51.2498H1023.76C1030.5 51.2498 1036.48 45.3799 1034.72 38.2338C1031.89 26.7202 1025.65 17.0923 1015.77 10.3758C1005.91 3.68122 992.616 0 975.841 0Z" fill="white"/>
<path fill-rule="evenodd" clip-rule="evenodd" d="M816.161 3.87695H794.61L744.471 135.666C741.512 143.444 747.257 151.777 755.58 151.777H761.507L775.499 115.183H843.046L857.038 151.777H863.199C871.515 151.777 877.26 143.456 874.313 135.68L827.275 11.5507C825.525 6.93184 821.1 3.87695 816.161 3.87695ZM835.862 96.0071H782.692L809.372 25.8756L835.862 96.0071Z" fill="white"/>
<path fill-rule="evenodd" clip-rule="evenodd" d="M617.692 3.87695C611.128 3.87695 605.807 9.19821 605.807 15.7623V151.777H691.451C698.015 151.777 703.336 146.456 703.336 139.892V132.601H628.427V3.87695H617.692Z" fill="white"/>
<path fill-rule="evenodd" clip-rule="evenodd" d="M467.94 3.87695C461.376 3.87695 456.055 9.19821 456.055 15.7623V139.892C456.055 146.456 461.376 151.777 467.94 151.777H555.476C562.04 151.777 567.361 146.456 567.361 139.892V132.601H478.675V85.2627H548.372C554.936 85.2627 560.257 79.9415 560.257 73.3773V66.3016H478.675V23.0533H566.715V15.7623C566.715 9.19822 561.394 3.87695 554.83 3.87695H467.94Z" fill="white"/>
<path fill-rule="evenodd" clip-rule="evenodd" d="M0 178.743C1.84821e-06 157.602 17.1383 140.464 38.2794 140.464L267.955 140.464C289.096 140.464 306.235 157.602 306.235 178.743C306.235 199.884 289.096 217.023 267.955 217.023L38.2794 217.023C17.1382 217.023 -1.84822e-06 199.884 0 178.743Z" fill="url(#paint0_linear_181_84)"/>
<path fill-rule="evenodd" clip-rule="evenodd" d="M174.65 78.2591C120.476 78.2591 76.5587 122.176 76.5587 176.35C76.5587 230.524 120.476 274.441 174.65 274.441H267.956C289.097 274.441 306.235 291.579 306.235 312.721C306.235 333.862 289.097 351 267.956 351H174.65C78.1933 351 0 272.807 0 176.35C0 79.8936 78.1933 1.7002 174.65 1.7002H267.956C289.097 1.7002 306.235 18.8385 306.235 39.9796C306.235 61.1208 289.097 78.2591 267.956 78.2591H174.65Z" fill="url(#paint1_linear_181_84)"/>
<defs>
<linearGradient id="paint0_linear_181_84" x1="64.596" y1="181.136" x2="267.955" y2="181.136" gradientUnits="userSpaceOnUse">
<stop stop-color="#B04200"/>
<stop offset="1" stop-color="#F6921A"/>
</linearGradient>
<linearGradient id="paint1_linear_181_84" x1="153.117" y1="39.9796" x2="153.117" y2="312.721" gradientUnits="userSpaceOnUse">
<stop stop-color="#FFEEDC"/>
<stop offset="1" stop-color="#FFC382"/>
</linearGradient>
</defs>
</svg>
