<svg width="139" height="25" viewBox="0 0 139 25" fill="none" xmlns="http://www.w3.org/2000/svg">
<path d="M13.9648 5.38342H9.51245V0.923626C9.51245 0.422229 9.93398 0 10.4345 0H13.9648C14.2283 0 14.439 0.105557 14.6235 0.263893C14.6498 0.290282 14.6761 0.316672 14.6761 0.316672C14.7025 0.343061 14.7288 0.39584 14.7552 0.422229C14.7815 0.475008 14.8079 0.501397 14.8079 0.554176C14.8079 0.580565 14.8342 0.606954 14.8342 0.633344C14.8342 0.686122 14.8606 0.712512 14.8606 0.76529C14.8606 0.818069 14.8606 0.870847 14.8606 0.897237V4.48618C14.8606 4.98758 14.4654 5.38342 13.9648 5.38342Z" fill="white"/>
<path d="M13.9648 14.8048H9.51245V9.42139H13.9648C14.4654 9.42139 14.8606 9.81723 14.8869 10.2922V10.3186V13.8812C14.8869 14.409 14.4917 14.8048 13.9648 14.8048Z" fill="white"/>
<path d="M13.9648 24.2516H10.4345C9.93398 24.2516 9.51245 23.8294 9.51245 23.328V18.8682H13.9648C14.4654 18.8682 14.8869 19.2904 14.8869 19.7918V23.328C14.8869 23.8294 14.4917 24.2516 13.9648 24.2516Z" fill="white"/>
<path d="M5.48187 0.923626V23.3282C5.48187 23.8296 5.06035 24.2518 4.55979 24.2518H1.02951C0.528948 24.2518 0.107422 23.8296 0.107422 23.3282V0.923626C0.107422 0.422229 0.528948 0 1.02951 0H4.55979C5.06035 0 5.48187 0.422229 5.48187 0.923626Z" fill="white"/>
<path d="M13.9648 24.2516H10.4345C9.93398 24.2516 9.51245 23.8294 9.51245 23.328V18.8682H13.9648C14.4654 18.8682 14.8869 19.2904 14.8869 19.7918V23.328C14.8869 23.8294 14.4917 24.2516 13.9648 24.2516Z" fill="white"/>
<path d="M5.48187 18.8419V23.3017C5.48187 23.8031 5.06035 24.2253 4.55979 24.2253H1.02951C0.528948 24.2253 0.107422 23.8031 0.107422 23.3017V18.8419H5.48187Z" fill="white"/>
<path d="M14.9135 10.345V13.8812C14.9135 14.3826 14.492 14.8048 13.9914 14.8048H0.107422V9.42139H13.9914C14.492 9.42139 14.8872 9.81723 14.9135 10.2922V10.3186C14.9135 10.345 14.9135 10.345 14.9135 10.345Z" fill="white"/>
<path d="M13.9648 5.38342H9.51245V0.923626C9.51245 0.422229 9.93398 0 10.4345 0H13.9648C14.2283 0 14.439 0.105557 14.6235 0.263893C14.6498 0.290282 14.6761 0.316672 14.6761 0.316672C14.7025 0.343061 14.7288 0.39584 14.7552 0.422229C14.7815 0.475008 14.8079 0.501397 14.8079 0.554176C14.8079 0.580565 14.8342 0.606954 14.8342 0.633344C14.8342 0.686122 14.8606 0.712512 14.8606 0.76529C14.8606 0.818069 14.8606 0.870847 14.8606 0.897237V4.4334C14.8606 4.45979 14.8606 4.45979 14.8606 4.48618C14.8606 4.98758 14.4654 5.38342 13.9648 5.38342Z" fill="white"/>
<path d="M5.48187 0.923626V5.38342H0.107422V0.923626C0.107422 0.422229 0.528948 0 1.02951 0H4.55979C5.06035 0 5.48187 0.422229 5.48187 0.923626Z" fill="white"/>
<path d="M27.77 17.7362V6.52075H34.5935V7.97216H29.3244V11.4292H34.0929V12.8806H29.3244V16.3112H34.5935V17.7626H27.77V17.7362Z" fill="white"/>
<path d="M45.079 9.55526C44.9473 8.73719 44.2623 7.62884 42.708 7.62884C41.4434 7.62884 40.5476 8.44691 40.5476 9.50248C40.5476 10.3205 41.0482 10.9275 41.9966 11.1386L43.6827 11.5081C45.5533 11.9303 46.5807 13.0914 46.5807 14.6484C46.5807 16.3901 45.1054 17.9734 42.708 17.9734C39.9944 17.9734 38.7298 16.2318 38.519 14.622L39.9944 14.147C40.0998 15.3873 40.9955 16.5484 42.6816 16.5484C44.236 16.5484 45 15.7304 45 14.754C45 13.9359 44.4467 13.2498 43.3139 13.0123L41.7068 12.6692C40.0998 12.3261 38.9669 11.2706 38.9669 9.60804C38.9669 7.83995 40.6003 6.25659 42.6553 6.25659C45.1844 6.25659 46.1855 7.81356 46.449 9.05386L45.079 9.55526Z" fill="white"/>
<path d="M56.8288 9.55526C56.6971 8.73719 56.0121 7.62884 54.4577 7.62884C53.1931 7.62884 52.2974 8.44691 52.2974 9.50248C52.2974 10.3205 52.798 10.9275 53.7464 11.1386L55.4325 11.5081C57.303 11.9303 58.3305 13.0914 58.3305 14.6484C58.3305 16.3901 56.8551 17.9734 54.4577 17.9734C51.7441 17.9734 50.4796 16.2318 50.2688 14.622L51.7441 14.147C51.8495 15.3873 52.7453 16.5484 54.4314 16.5484C55.9857 16.5484 56.7498 15.7304 56.7498 14.754C56.7498 13.9359 56.1965 13.2498 55.0637 13.0123L53.4566 12.6692C51.8495 12.3261 50.7167 11.2706 50.7167 9.60804C50.7167 7.83995 52.3501 6.25659 54.405 6.25659C56.9342 6.25659 57.9353 7.81356 58.1988 9.05386L56.8288 9.55526Z" fill="white"/>
<path d="M62.8093 17.7362V6.52075H69.6328V7.97216H64.3637V11.4292H69.1322V12.8806H64.3637V16.3112H69.6328V17.7626H62.8093V17.7362Z" fill="white"/>
<path d="M81.9622 17.7362L75.9028 8.57912V17.7362H74.3484V6.52075H76.4297L82.0412 15.1237V6.52075H83.5956V17.7362H81.9622Z" fill="white"/>
<path d="M92.8164 7.9458V17.7362H91.262V7.9458H87.521V6.49438H96.5575V7.9458H92.8164Z" fill="white"/>
<path d="M100.536 17.7362V6.52075H102.116V17.7362H100.536Z" fill="white"/>
<path d="M113.867 14.5959H108.914L107.728 17.7362H106.069L110.521 6.52075H112.312L116.765 17.7362H115.079L113.867 14.5959ZM109.467 13.1709H113.314L111.364 8.1305L109.467 13.1709Z" fill="white"/>
<path d="M120.717 17.7362V6.52075H122.271V16.2848H127.567V17.7362H120.717Z" fill="white"/>
<path d="M137.498 9.55526C137.366 8.73719 136.682 7.62884 135.127 7.62884C133.863 7.62884 132.967 8.44691 132.967 9.50248C132.967 10.3205 133.467 10.9275 134.416 11.1386L136.102 11.5081C137.972 11.9303 139 13.0914 139 14.6484C139 16.3901 137.525 17.9734 135.127 17.9734C132.414 17.9734 131.149 16.2318 130.938 14.622L132.414 14.147C132.519 15.3873 133.415 16.5484 135.101 16.5484C136.655 16.5484 137.419 15.7304 137.419 14.754C137.419 13.9359 136.866 13.2498 135.733 13.0123L134.126 12.6692C132.519 12.3261 131.386 11.2706 131.386 9.60804C131.386 7.83995 133.02 6.25659 135.074 6.25659C137.604 6.25659 138.605 7.81356 138.868 9.05386L137.498 9.55526Z" fill="white"/>
</svg>
