<svg width="20" height="19" viewBox="0 0 20 19" fill="none" xmlns="http://www.w3.org/2000/svg">
<path d="M7.34753 1.00085H2.40245C2.03077 1.0013 1.67444 1.14901 1.41162 1.41183C1.1488 1.67465 1.00093 2.03108 1.00049 2.40277V4.96132C1.00049 5.14579 1.07377 5.32267 1.20421 5.4531C1.33464 5.58354 1.51155 5.65695 1.69601 5.65695C1.88047 5.65695 2.05738 5.58354 2.18781 5.4531C2.31825 5.32267 2.39153 5.14579 2.39153 4.96132V2.40277L2.3921 2.39826L2.39438 2.39416L2.39802 2.39128L2.40245 2.39005H7.34753C7.53177 2.39005 7.70846 2.31689 7.83874 2.18662C7.96902 2.05634 8.0422 1.8799 8.0422 1.69566C8.0422 1.51142 7.96902 1.33457 7.83874 1.20429C7.70846 1.07401 7.53177 1.00085 7.34753 1.00085Z" fill="white" stroke="white" stroke-width="0.2"/>
<path d="M13.4396 18.6691L18.3847 18.6691C18.7563 18.6687 19.1127 18.5208 19.3755 18.258C19.6383 17.9952 19.7862 17.6389 19.7866 17.2672V14.7085C19.7866 14.5241 19.7133 14.3472 19.5829 14.2167C19.4525 14.0863 19.2756 14.013 19.0911 14.013C18.9066 14.013 18.7297 14.0863 18.5993 14.2167C18.4689 14.3472 18.3956 14.5241 18.3956 14.7085V17.2672C18.3956 17.2702 18.3945 17.273 18.3924 17.2752C18.3904 17.2774 18.3876 17.2787 18.3847 17.2789H13.4396C13.3463 17.2757 13.2533 17.2913 13.1661 17.3247C13.0789 17.3582 12.9994 17.4089 12.9322 17.4738C12.8651 17.5386 12.8117 17.6163 12.7752 17.7023C12.7387 17.7882 12.7199 17.8807 12.7199 17.974C12.7199 18.0674 12.7387 18.1598 12.7752 18.2458C12.8117 18.3317 12.8651 18.4094 12.9322 18.4743C12.9994 18.5392 13.0789 18.5899 13.1661 18.6233C13.2533 18.6568 13.3463 18.6724 13.4396 18.6691Z" fill="white" stroke="white" stroke-width="0.2"/>
<path fill-rule="evenodd" clip-rule="evenodd" d="M4.35986 10.24C4.35986 9.77611 4.73594 9.40002 5.19986 9.40002H16.1199C16.5838 9.40002 16.9599 9.77611 16.9599 10.24C16.9599 10.7039 16.5838 11.08 16.1199 11.08H5.19986C4.73594 11.08 4.35986 10.7039 4.35986 10.24Z" fill="white"/>
<path d="M18.3857 1H13.4389C13.2545 1 13.0775 1.07341 12.9471 1.20385C12.8167 1.33428 12.7434 1.51116 12.7434 1.69563C12.7434 1.88009 12.8167 2.05697 12.9471 2.1874C13.0775 2.31784 13.2545 2.39084 13.4389 2.39084H18.3857C18.3885 2.39104 18.3912 2.39252 18.3932 2.39453C18.3952 2.39654 18.3964 2.39908 18.3966 2.40191V4.96129C18.3966 5.05263 18.4146 5.1431 18.4496 5.22748C18.4845 5.31186 18.5357 5.38848 18.6003 5.45307C18.6649 5.51765 18.7415 5.56905 18.8259 5.604C18.9103 5.63896 19.0008 5.65691 19.0921 5.65691C19.1835 5.65691 19.2739 5.63896 19.3583 5.604C19.4426 5.56905 19.5194 5.51765 19.5839 5.45307C19.6485 5.38848 19.6997 5.31186 19.7347 5.22748C19.7696 5.1431 19.7876 5.05263 19.7876 4.96129V2.40191C19.787 2.0303 19.639 1.67416 19.3763 1.41139C19.1135 1.14861 18.7573 1.00067 18.3857 1Z" fill="white" stroke="white" stroke-width="0.2"/>
<path d="M2.40191 18.6707L7.34867 18.6707C7.44199 18.674 7.535 18.6584 7.62217 18.6249C7.70933 18.5914 7.78887 18.5408 7.85603 18.4759C7.92319 18.411 7.9766 18.3333 8.01308 18.2474C8.04956 18.1614 8.06836 18.069 8.06836 17.9756C8.06836 17.8823 8.04956 17.7898 8.01308 17.7039C7.9766 17.6179 7.92319 17.5402 7.85603 17.4753C7.78887 17.4105 7.70933 17.3598 7.62217 17.3263C7.535 17.2929 7.44199 17.2773 7.34867 17.2805H2.40191C2.39901 17.2801 2.39633 17.2788 2.39434 17.2766C2.39234 17.2745 2.39116 17.2717 2.39099 17.2688L2.39099 14.7084C2.39099 14.524 2.31771 14.3471 2.18728 14.2166C2.05684 14.0862 1.87994 14.0129 1.69547 14.0129C1.51101 14.0129 1.3341 14.0862 1.20367 14.2166C1.07323 14.3471 0.999952 14.524 0.999952 14.7084L0.999952 17.2688C1.00062 17.6404 1.14854 17.9966 1.41131 18.2594C1.67409 18.5221 2.03029 18.6701 2.40191 18.6707Z" fill="white" stroke="white" stroke-width="0.2"/>
</svg>
