<svg xmlns="http://www.w3.org/2000/svg" width="23.366" height="22.038" viewBox="0 0 23.366 22.038">
    <defs>
        <style>
            .cls-1{fill:#fff;stroke:#fff;stroke-width:2}
        </style>
    </defs>
    <g id="Component_818_4" transform="translate(.5 .5)">
        <path id="Path_23" d="M395.443 8063.5h-5.887a1.671 1.671 0 0 0-1.669 1.669v5.046a.828.828 0 0 0 1.656 0v-5.046a.014.014 0 0 1 .013-.015h5.887a.827.827 0 1 0 0-1.654z" class="cls-1" transform="translate(-387.886 -8063.498)"/>
        <path id="Path_21747" d="M7.556 0H1.669A1.671 1.671 0 0 0 0 1.669v5.046a.828.828 0 0 0 1.656 0V1.669a.014.014 0 0 1 .013-.014h5.887a.828.828 0 1 0 0-1.655z" class="cls-1" transform="rotate(180 11.182 10.518)"/>
        <path id="Path_25" d="M524.276 8063.5h-5.889a.828.828 0 1 0 0 1.656h5.889a.014.014 0 0 1 .013.013v5.047a.828.828 0 1 0 1.656 0v-5.047a1.672 1.672 0 0 0-1.669-1.669z" class="cls-1" transform="translate(-503.579 -8063.499)"/>
        <path id="Path_21748" d="M6.717 0H.828a.828.828 0 1 0 0 1.655h5.889a.015.015 0 0 1 .013.014v5.048a.828.828 0 0 0 1.656 0V1.669A1.672 1.672 0 0 0 6.717 0z" class="cls-1" transform="rotate(180 4.193 10.519)"/>
    </g>
</svg>
