<svg width="20" height="19" viewBox="0 0 20 19" fill="none" xmlns="http://www.w3.org/2000/svg">
<path d="M7.34765 1.00098H2.40258C2.03089 1.00142 1.67456 1.14913 1.41174 1.41195C1.14892 1.67478 1.00105 2.0312 1.00061 2.40289V4.96145C1.00061 5.14591 1.07389 5.32279 1.20433 5.45322C1.33477 5.58366 1.51167 5.65707 1.69613 5.65707C1.8806 5.65707 2.0575 5.58366 2.18794 5.45322C2.31837 5.32279 2.39166 5.14591 2.39166 4.96145V2.40289L2.39222 2.39838L2.3945 2.39428L2.39814 2.39141L2.40258 2.39018H7.34765C7.53189 2.39018 7.70859 2.31702 7.83886 2.18674C7.96914 2.05646 8.04233 1.88002 8.04233 1.69578C8.04233 1.51154 7.96914 1.33469 7.83886 1.20441C7.70859 1.07414 7.53189 1.00098 7.34765 1.00098Z" fill="white" stroke="white" stroke-width="0.2"/>
<path d="M13.4396 18.669H18.3847C18.7563 18.6686 19.1127 18.5207 19.3755 18.2579C19.6383 17.9951 19.7862 17.6387 19.7866 17.2671V14.7084C19.7866 14.5239 19.7133 14.347 19.5829 14.2166C19.4525 14.0862 19.2756 14.0129 19.0911 14.0129C18.9066 14.0129 18.7297 14.0862 18.5993 14.2166C18.4689 14.347 18.3956 14.5239 18.3956 14.7084V17.2671C18.3956 17.27 18.3945 17.2729 18.3924 17.2751C18.3904 17.2773 18.3876 17.2786 18.3847 17.2788H13.4396C13.3463 17.2756 13.2533 17.2911 13.1661 17.3246C13.0789 17.3581 12.9994 17.4088 12.9322 17.4736C12.8651 17.5385 12.8117 17.6162 12.7752 17.7022C12.7387 17.7881 12.7199 17.8805 12.7199 17.9739C12.7199 18.0673 12.7387 18.1597 12.7752 18.2457C12.8117 18.3316 12.8651 18.4093 12.9322 18.4742C12.9994 18.5391 13.0789 18.5897 13.1661 18.6232C13.2533 18.6567 13.3463 18.6723 13.4396 18.669Z" fill="white" stroke="white" stroke-width="0.2"/>
<path fill-rule="evenodd" clip-rule="evenodd" d="M4.35974 10.2399C4.35974 9.77598 4.73582 9.3999 5.19974 9.3999H16.1197C16.5837 9.3999 16.9597 9.77598 16.9597 10.2399C16.9597 10.7038 16.5837 11.0799 16.1197 11.0799H5.19974C4.73582 11.0799 4.35974 10.7038 4.35974 10.2399Z" fill="white"/>
<path d="M18.3857 1H13.4389C13.2545 1 13.0775 1.07341 12.9471 1.20385C12.8167 1.33428 12.7434 1.51116 12.7434 1.69563C12.7434 1.88009 12.8167 2.05697 12.9471 2.1874C13.0775 2.31784 13.2545 2.39084 13.4389 2.39084H18.3857C18.3885 2.39104 18.3911 2.39252 18.3932 2.39453C18.3952 2.39654 18.3964 2.39908 18.3966 2.40191V4.96129C18.3966 5.05263 18.4146 5.1431 18.4496 5.22748C18.4845 5.31186 18.5357 5.38848 18.6003 5.45307C18.6649 5.51765 18.7415 5.56905 18.8259 5.604C18.9103 5.63896 19.0008 5.65691 19.0921 5.65691C19.1835 5.65691 19.2739 5.63896 19.3583 5.604C19.4426 5.56905 19.5194 5.51765 19.5839 5.45307C19.6485 5.38848 19.6997 5.31186 19.7347 5.22748C19.7696 5.1431 19.7876 5.05263 19.7876 4.96129V2.40191C19.787 2.0303 19.639 1.67416 19.3763 1.41139C19.1135 1.14861 18.7573 1.00067 18.3857 1Z" fill="white" stroke="white" stroke-width="0.2"/>
<path d="M2.40191 18.671H7.34867C7.44199 18.6742 7.535 18.6586 7.62217 18.6252C7.70933 18.5917 7.78887 18.541 7.85603 18.4761C7.92319 18.4113 7.9766 18.3336 8.01308 18.2476C8.04956 18.1617 8.06836 18.0692 8.06836 17.9759C8.06836 17.8825 8.04956 17.7901 8.01308 17.7041C7.9766 17.6182 7.92319 17.5405 7.85603 17.4756C7.78887 17.4107 7.70933 17.36 7.62217 17.3266C7.535 17.2931 7.44199 17.2775 7.34867 17.2808H2.40191C2.39901 17.2804 2.39633 17.279 2.39434 17.2768C2.39234 17.2747 2.39116 17.2719 2.39099 17.269L2.39099 14.7087C2.39099 14.5242 2.31771 14.3473 2.18728 14.2169C2.05684 14.0864 1.87994 14.0132 1.69547 14.0132C1.51101 14.0132 1.3341 14.0864 1.20367 14.2169C1.07323 14.3473 0.999952 14.5242 0.999952 14.7087L0.999952 17.269C1.00062 17.6406 1.14854 17.9968 1.41131 18.2596C1.67409 18.5224 2.03029 18.6703 2.40191 18.671Z" fill="white" stroke="white" stroke-width="0.2"/>
</svg>
