<svg xmlns="http://www.w3.org/2000/svg" width="25.624" height="25.679" viewBox="0 0 25.624 25.679">
    <path fill="#fff" d="M567.7 822.057a4.628 4.628 0 1 0 0 9.255 4.628 4.628 0 0 0 0-9.255zm9.177 7.259l-.818 2 1.635 3.266-2.09 2.087-3.362-1.543-2 .817-1 3.085-.091.454h-2.908l-1.272-3.539-2-.817-3.271 1.633-2.09-2.087 1.545-3.357-.818-2-3.544-1.18v-2.9l3.544-1.27.818-2-1.454-2.9-.182-.363 2.09-2.087 3.362 1.543 2-.817 1-3.085.091-.454h2.908l1.272 3.539 2 .817 3.271-1.633 2.09 2.087-1.545 3.357.818 2 3.544 1.18v2.9l-3.544 1.27z" transform="translate(-554.8 -813.8)"/>
</svg>
