<svg width="19" height="20" viewBox="0 0 19 20" fill="none" xmlns="http://www.w3.org/2000/svg">
<path d="M7.18703 1.94005C7.27744 1.39759 7.74678 1 8.29673 1H10.8907C11.4406 1 11.91 1.39759 12.0004 1.94005L12.2139 3.2211C12.2762 3.59514 12.5262 3.90671 12.858 4.09036C12.9321 4.13142 13.0055 4.17383 13.0779 4.21757C13.4029 4.41384 13.7983 4.47486 14.1538 4.34166L15.3707 3.88578C15.8857 3.69284 16.4647 3.90051 16.7397 4.37677L18.0366 6.62321C18.3116 7.09948 18.202 7.70473 17.7774 8.05426L16.773 8.88108C16.4805 9.12188 16.3355 9.49372 16.3425 9.87253C16.3433 9.91492 16.3437 9.95742 16.3437 10C16.3437 10.0426 16.3433 10.0851 16.3425 10.1275C16.3355 10.5063 16.4805 10.8781 16.773 11.1189L17.7774 11.9457C18.202 12.2953 18.3116 12.9005 18.0366 13.3768L16.7397 15.6232C16.4647 16.0995 15.8857 16.3071 15.3707 16.1142L14.1538 15.6583C13.7983 15.5251 13.4029 15.5862 13.0779 15.7824C13.0055 15.8262 12.9322 15.8686 12.858 15.9096C12.5262 16.0933 12.2762 16.4049 12.2139 16.7789L12.0004 18.0599C11.91 18.6024 11.4406 19 10.8907 19H8.29673C7.74678 19 7.27744 18.6024 7.18703 18.0599L6.97353 16.7789C6.91118 16.4049 6.66121 16.0933 6.32944 15.9096C6.25527 15.8686 6.18195 15.8262 6.10952 15.7824C5.78448 15.5862 5.38915 15.5251 5.03359 15.6583L3.81672 16.1142C3.30173 16.3072 2.72274 16.0995 2.44777 15.6232L1.15078 13.3768C0.875812 12.9005 0.985466 12.2953 1.41005 11.9457L2.4144 11.1189C2.70691 10.8781 2.8519 10.5063 2.84489 10.1275C2.8441 10.0851 2.84371 10.0426 2.84371 10C2.84371 9.95742 2.8441 9.91493 2.84489 9.87254C2.8519 9.49373 2.7069 9.12189 2.4144 8.88109L1.41005 8.05427C0.985465 7.70475 0.875812 7.09949 1.15078 6.62323L2.44777 4.37679C2.72274 3.90052 3.30173 3.69286 3.81672 3.88579L5.03357 4.34167C5.38914 4.47487 5.78447 4.41385 6.1095 4.21758C6.18194 4.17384 6.25526 4.13142 6.32944 4.09036C6.66121 3.90671 6.91118 3.59514 6.97352 3.2211L7.18703 1.94005Z" stroke="white" stroke-width="1.5" stroke-linecap="round" stroke-linejoin="round"/>
<path d="M12.5935 9.99992C12.5935 11.6568 11.2503 12.9999 9.59348 12.9999C7.93662 12.9999 6.59348 11.6568 6.59348 9.99992C6.59348 8.34307 7.93662 6.99992 9.59348 6.99992C11.2503 6.99992 12.5935 8.34307 12.5935 9.99992Z" stroke="white" stroke-width="1.5" stroke-linecap="round" stroke-linejoin="round"/>
</svg>
