<svg xmlns="http://www.w3.org/2000/svg" id="prefix__Component_591_3" width="225.594" height="257.861" data-name="Component 591 – 3" viewBox="0 0 225.594 257.861">
    <defs>
        <linearGradient id="prefix__linear-gradient" x1=".5" x2=".5" y1=".001" y2="1" gradientUnits="objectBoundingBox">
            <stop offset="0" stop-color="#61f5e8"/>
            <stop offset=".34" stop-color="#96fff6"/>
            <stop offset="1" stop-color="#61f5e8"/>
            <stop offset="1" stop-color="#f6b002"/>
        </linearGradient>
        <linearGradient id="prefix__linear-gradient-2" x1=".5" x2=".5" y1=".001" y2="1" gradientUnits="objectBoundingBox">
            <stop offset="0" stop-color="#6a6fed"/>
            <stop offset=".463" stop-color="#565bdb"/>
            <stop offset="1" stop-color="#4145a7"/>
            <stop offset="1" stop-color="#f6b002"/>
        </linearGradient>
        <linearGradient id="prefix__linear-gradient-3" x1=".5" x2=".5" y2="1" gradientUnits="objectBoundingBox">
            <stop offset="0" stop-color="#6469f0"/>
            <stop offset=".38" stop-color="#6267e8"/>
            <stop offset=".6" stop-color="#565bdb"/>
            <stop offset=".77" stop-color="#565bdb"/>
            <stop offset=".92" stop-color="#565bdb"/>
            <stop offset="1" stop-color="#555ad6"/>
        </linearGradient>
        <linearGradient id="prefix__linear-gradient-4" x1=".498" x2=".498" y2="1" gradientUnits="objectBoundingBox">
            <stop offset="0" stop-color="#6d71ea"/>
            <stop offset=".38" stop-color="#555ada"/>
            <stop offset=".6" stop-color="#565bdb"/>
            <stop offset=".77" stop-color="#565bdb"/>
            <stop offset=".92" stop-color="#565bdb"/>
            <stop offset="1" stop-color="#555ad6"/>
        </linearGradient>
        <linearGradient id="prefix__linear-gradient-5" x1=".5" x2=".5" y1=".001" y2="1" gradientUnits="objectBoundingBox">
            <stop offset="0" stop-color="#4e52c1"/>
            <stop offset=".14" stop-color="#464ab2"/>
            <stop offset=".27" stop-color="#4346ac"/>
            <stop offset=".39" stop-color="#4145a3"/>
            <stop offset=".52" stop-color="#3c409b"/>
            <stop offset=".64" stop-color="#373a8e"/>
            <stop offset=".76" stop-color="#373a83"/>
            <stop offset=".88" stop-color="#303281"/>
            <stop offset="1" stop-color="#2b2e72"/>
            <stop offset="1" stop-color="#fdad2a" stop-opacity="0"/>
        </linearGradient>
        <filter id="prefix__Union_1" width="147.508" height="171.869" x="32.651" y="46.414" filterUnits="userSpaceOnUse">
            <feOffset dy="3"/>
            <feGaussianBlur result="blur" stdDeviation="10"/>
            <feFlood flood-color="#005e93" flood-opacity=".271"/>
            <feComposite in2="blur" operator="in"/>
            <feComposite in="SourceGraphic"/>
        </filter>
        <style>
            .prefix__cls-3{fill:#565bdb}
        </style>
    </defs>
    <circle id="prefix__Ellipse_86" cx="104" cy="104" r="104" data-name="Ellipse 86" transform="translate(2.135 32.191)" style="opacity:0;fill:#37477d"/>
    <circle id="prefix__Ellipse_317" cx="97.787" cy="97.787" r="97.787" data-name="Ellipse 317" transform="translate(7.972 38.619)" style="fill:#f0f1ff"/>
    <g id="prefix__Group_1132" data-name="Group 1132">
        <circle id="prefix__Ellipse_74" cx="4.626" cy="4.626" r="4.626" class="prefix__cls-3" data-name="Ellipse 74" transform="rotate(150 94.474 98.607)"/>
        <circle id="prefix__Ellipse_75" cx="1.713" cy="1.713" r="1.713" class="prefix__cls-3" data-name="Ellipse 75" transform="rotate(150 82.437 113.216)"/>
        <circle id="prefix__Ellipse_71" cx="10.641" cy="10.641" r="10.641" class="prefix__cls-3" data-name="Ellipse 71" transform="rotate(150 6.433 34.134)"/>
        <circle id="prefix__Ellipse_81" cx="3.356" cy="3.356" r="3.356" class="prefix__cls-3" data-name="Ellipse 81" transform="rotate(150 38.31 15.482)"/>
        <circle id="prefix__Ellipse_82" cx="2.627" cy="2.627" r="2.627" class="prefix__cls-3" data-name="Ellipse 82" transform="rotate(150 12.816 5.873)"/>
        <circle id="prefix__Ellipse_76" cx="3.351" cy="3.351" r="3.351" class="prefix__cls-3" data-name="Ellipse 76" transform="rotate(150 96.482 46.427)"/>
        <circle id="prefix__Ellipse_79" cx="3.351" cy="3.351" r="3.351" class="prefix__cls-3" data-name="Ellipse 79" transform="rotate(150 3.211 137.253)"/>
        <circle id="prefix__Ellipse_77" cx="1.322" cy="1.322" r="1.322" class="prefix__cls-3" data-name="Ellipse 77" transform="rotate(150 27.397 83.24)"/>
        <circle id="prefix__Ellipse_78" cx="20.856" cy="20.856" r="20.856" class="prefix__cls-3" data-name="Ellipse 78" transform="rotate(150 86.747 47.344)"/>
        <circle id="prefix__Ellipse_80" cx="15.006" cy="15.006" r="15.006" class="prefix__cls-3" data-name="Ellipse 80" transform="rotate(150 2.164 113.939)"/>
        <circle id="prefix__Ellipse_73" cx="2.627" cy="2.627" r="2.627" class="prefix__cls-3" data-name="Ellipse 73" transform="rotate(150 35.333 146.087)"/>
    </g>
    <g>
        <path id="prefix__Union_1-2" d="M56.594 111.778l-.051.051H46.414l.09-.09-36.767-.139v.254H7.011a6.905 6.905 0 0 1-6.905-6.905V62.808L0 47.074a1.264 1.264 0 0 1 .106-.44v-.178a6.908 6.908 0 0 1 4.7-6.544v-.958A38.965 38.965 0 0 1 79.65 23.792a38.705 38.705 0 0 1 3.061 15.162v.951a6.908 6.908 0 0 1 4.717 6.551v48l.079 10.383a7.06 7.06 0 0 1-6.985 7h-.468a.7.7 0 0 1-.154.02zm16.267-72.193V38.9a29.094 29.094 0 1 0-58.189 0v.646l15.442.012h10.13l-.009.009z" data-name="Union 1" transform="translate(62.65 73.41)"/>
    </g>
    <path id="prefix__Shape" d="M72.995 55.83H4.936A4.941 4.941 0 0 1 0 50.9V38.955a38.965 38.965 0 0 1 74.848-15.163 38.71 38.71 0 0 1 3.061 15.163V50.9a4.944 4.944 0 0 1-4.914 4.93zM38.965 9.8A29.095 29.095 0 0 0 9.87 38.9v6.985h58.189V38.9A29.094 29.094 0 0 0 38.965 9.8z" transform="translate(67.453 73.414)"/>
    <path id="prefix__Rectangle" d="M13.891 0l58.894-.009c1.432 0 14.4 5.781 14.4 7.217L87.1 64.835c0 1.436-12.4 7.694-13.836 7.694l-59.337-.25C12.5 72.28.153 67.186.153 65.751L-.237 7.53C-.237 6.094 13.891 0 13.891 0z" class="prefix__cls-3" transform="translate(62.888 112.996)"/>
    <path id="prefix__Path" d="M14.543 0h-4.117C4.668 0 0 3.092 0 6.905v58.487C0 69.206 4.668 72.3 10.426 72.3h4.116z" transform="translate(62.757 112.966)"/>
    <path id="prefix__Path-2" d="M0 0h4.107c5.745 0 10.4 3.1 10.4 6.929V65.62c0 3.827-4.657 6.929-10.4 6.929H0z" data-name="Path" transform="translate(135.57 112.966)"/>
    <path id="prefix__Path-3" d="M0 40.139L40.119 0H29.99L0 30.01v10.129z" data-name="Path" transform="translate(62.777 112.966)" style="opacity:.064;fill:#fff"/>
    <path id="prefix__Path-4" d="M10.129 40.995l30.866-30.866V0L0 40.995z" data-name="Path" transform="translate(109.065 144.249)" style="opacity:.089;fill:#fff"/>
    <path id="prefix__Path-5" d="M19.9 0L0 19.9h13.094A6.905 6.905 0 0 0 20 12.995z" data-name="Path" transform="translate(130.159 165.264)" style="opacity:.087;fill:#fff"/>
    <path id="prefix__Path-6" d="M24.559 12.305A12.278 12.278 0 1 0 7.226 23.469v12.955a5.075 5.075 0 0 0 10.149 0V23.469a12.259 12.259 0 0 0 7.184-11.164z" data-name="Path" transform="translate(94.138 127.685)"/>
</svg>
