<svg xmlns="http://www.w3.org/2000/svg" id="prefix__Component_501_1" width="225.594" height="257.861" data-name="Component 501 – 1" viewBox="0 0 225.594 257.861">
    <defs>
        <style>
            .prefix__cls-1{fill:#f0f1ff}.prefix__cls-2{fill:#565bdb}
        </style>
    </defs>
    <g id="prefix__Group_5" data-name="Group 5" transform="translate(13.805 36.648)">
        <path id="prefix__Path" d="M99.423 0a99.423 99.423 0 1 0 99.423 99.423A99.423 99.423 0 0 0 99.423 0z" class="prefix__cls-1"/>
        <path id="prefix__Path-2" d="M49.09 0a49.09 49.09 0 1 0 49.09 49.09A49.09 49.09 0 0 0 49.09 0z" class="prefix__cls-2" data-name="Path" transform="translate(50.333 50.37)"/>
        <path id="prefix__Path-3" d="M61.137 13.321L25.974 48.484a7.566 7.566 0 0 1-10.673 0L1.849 35.033A7.566 7.566 0 0 1 12.522 24.36l8.078 8.078L50.428 2.611A7.566 7.566 0 1 1 61.1 13.284z" class="prefix__cls-1" data-name="Path" transform="translate(67.528 76.892)"/>
    </g>
    <g id="prefix__Group_1132" data-name="Group 1132">
        <circle id="prefix__Ellipse_74" cx="4.626" cy="4.626" r="4.626" class="prefix__cls-2" data-name="Ellipse 74" transform="rotate(150 94.474 98.607)"/>
        <circle id="prefix__Ellipse_75" cx="1.713" cy="1.713" r="1.713" class="prefix__cls-2" data-name="Ellipse 75" transform="rotate(150 82.437 113.216)"/>
        <circle id="prefix__Ellipse_71" cx="10.641" cy="10.641" r="10.641" class="prefix__cls-2" data-name="Ellipse 71" transform="rotate(150 6.433 34.134)"/>
        <circle id="prefix__Ellipse_81" cx="3.356" cy="3.356" r="3.356" class="prefix__cls-2" data-name="Ellipse 81" transform="rotate(150 38.31 15.482)"/>
        <circle id="prefix__Ellipse_82" cx="2.627" cy="2.627" r="2.627" class="prefix__cls-2" data-name="Ellipse 82" transform="rotate(150 12.816 5.873)"/>
        <circle id="prefix__Ellipse_76" cx="3.351" cy="3.351" r="3.351" class="prefix__cls-2" data-name="Ellipse 76" transform="rotate(150 96.482 46.427)"/>
        <circle id="prefix__Ellipse_79" cx="3.351" cy="3.351" r="3.351" class="prefix__cls-2" data-name="Ellipse 79" transform="rotate(150 3.211 137.253)"/>
        <circle id="prefix__Ellipse_78" cx="20.856" cy="20.856" r="20.856" class="prefix__cls-2" data-name="Ellipse 78" transform="rotate(150 86.747 47.344)"/>
        <circle id="prefix__Ellipse_80" cx="15.006" cy="15.006" r="15.006" class="prefix__cls-2" data-name="Ellipse 80" transform="rotate(150 2.164 113.939)"/>
        <circle id="prefix__Ellipse_73" cx="2.627" cy="2.627" r="2.627" class="prefix__cls-2" data-name="Ellipse 73" transform="rotate(150 35.333 146.087)"/>
    </g>
</svg>
