<svg xmlns="http://www.w3.org/2000/svg" id="prefix__Component_590_2" width="225.594" height="257.861" data-name="Component 590 – 2" viewBox="0 0 225.594 257.861">
    <defs>
        <style>
            .prefix__cls-3{fill:#565bdb}.prefix__cls-5{fill:#6065e0}.prefix__cls-8{fill:#fff}
        </style>
    </defs>
    <circle id="prefix__Ellipse_86" cx="104" cy="104" r="104" data-name="Ellipse 86" transform="translate(2.135 32.19)" style="fill:#37477d;opacity:0"/>
    <circle id="prefix__Ellipse_317" cx="97.787" cy="97.787" r="97.787" data-name="Ellipse 317" transform="translate(7.971 38.618)" style="fill:#f0f1ff"/>
    <circle id="prefix__Ellipse_74" cx="4.626" cy="4.626" r="4.626" class="prefix__cls-3" data-name="Ellipse 74" transform="rotate(150 94.474 98.607)"/>
    <circle id="prefix__Ellipse_75" cx="1.713" cy="1.713" r="1.713" class="prefix__cls-3" data-name="Ellipse 75" transform="rotate(150 82.437 113.216)"/>
    <circle id="prefix__Ellipse_71" cx="10.641" cy="10.641" r="10.641" class="prefix__cls-3" data-name="Ellipse 71" transform="rotate(150 6.433 34.134)"/>
    <circle id="prefix__Ellipse_81" cx="3.356" cy="3.356" r="3.356" class="prefix__cls-3" data-name="Ellipse 81" transform="rotate(150 38.31 15.482)"/>
    <circle id="prefix__Ellipse_82" cx="2.627" cy="2.627" r="2.627" class="prefix__cls-3" data-name="Ellipse 82" transform="rotate(150 12.816 5.873)"/>
    <circle id="prefix__Ellipse_76" cx="3.351" cy="3.351" r="3.351" class="prefix__cls-3" data-name="Ellipse 76" transform="rotate(150 96.482 46.427)"/>
    <circle id="prefix__Ellipse_79" cx="3.351" cy="3.351" r="3.351" class="prefix__cls-3" data-name="Ellipse 79" transform="rotate(150 3.211 137.253)"/>
    <circle id="prefix__Ellipse_78" cx="20.856" cy="20.856" r="20.856" class="prefix__cls-3" data-name="Ellipse 78" transform="rotate(150 86.747 47.344)"/>
    <circle id="prefix__Ellipse_80" cx="15.006" cy="15.006" r="15.006" class="prefix__cls-3" data-name="Ellipse 80" transform="rotate(150 2.164 113.939)"/>
    <circle id="prefix__Ellipse_73" cx="2.627" cy="2.627" r="2.627" class="prefix__cls-3" data-name="Ellipse 73" transform="rotate(150 35.333 146.087)"/>
    <path id="prefix__Path" d="M112.563 35.7v-.1c0-1.267-.1-2.6-.125-4.131a13.967 13.967 0 0 0-13.2-13.646c-15.257-.84-26.992-5.77-37.048-15.505l-.09-.08a8.52 8.52 0 0 0-11.512 0l-.083.083C40.452 12.057 28.676 16.986 13.46 17.826A13.967 13.967 0 0 0 .255 31.472c0 1.473 0 2.754-.125 4.131v.234c-.291 15.409-.666 34.577 5.8 51.982a66.111 66.111 0 0 0 15.992 24.786c8.031 7.794 18.558 13.963 31.291 18.369a9.764 9.764 0 0 0 1.276.344 9.54 9.54 0 0 0 3.717 0 9.764 9.764 0 0 0 1.29-.344c12.705-4.406 23.233-10.6 31.264-18.383a66.208 66.208 0 0 0 15.992-24.786c6.477-17.474 6.103-36.669 5.811-52.105z" transform="translate(50.397 72.266)" style="fill:#5aacff"/>
    <path id="prefix__Path-2" d="M104.245 33.26v-.093c0-1.171-.093-2.423-.106-3.807a12.992 12.992 0 0 0-12.233-12.726c-14.1-.785-25-5.324-34.316-14.469l-.08-.08a7.84 7.84 0 0 0-10.649 0l-.08.08c-9.318 9.078-20.22 13.671-34.316 14.469A12.992 12.992 0 0 0 .231 29.36c0 1.331 0 2.662-.106 3.807v.226c-.28 14.376-.612 32.253 5.324 48.493A61.724 61.724 0 0 0 20.3 104.941c7.441 7.268 17.2 13.032 28.979 17.145a8.957 8.957 0 0 0 1.185.319 8.772 8.772 0 0 0 3.448 0 8.97 8.97 0 0 0 1.2-.319c11.767-4.113 21.511-9.89 28.952-17.158A61.817 61.817 0 0 0 98.921 81.86c5.963-16.28 5.617-34.16 5.324-48.6z" class="prefix__cls-3" data-name="Path" transform="translate(54.545 76.719)"/>
    <path id="prefix__Path-3" d="M46.874 1.211l-.08.08c-9.318 9.078-20.22 13.671-34.316 14.469A12.992 12.992 0 0 0 .245 28.486c0 1.331 0 2.662-.106 3.807v.226A236.514 236.514 0 0 0 .591 57.3L48.711 0a7.987 7.987 0 0 0-1.837 1.211z" class="prefix__cls-5" data-name="Path" transform="translate(54.532 77.593)"/>
    <path id="prefix__Path-4" d="M70.629 2.25v-.094A19.942 19.942 0 0 0 70.55 0L0 83.981a89.824 89.824 0 0 0 15.6 7.095 8.962 8.962 0 0 0 1.185.319 8.773 8.773 0 0 0 3.448 0l.293-.08 48.945-58.3C71.015 22.216 70.829 11.5 70.629 2.25z" class="prefix__cls-5" data-name="Path" transform="translate(88.161 107.729)"/>
    <path id="prefix__Path-5" d="M0 42.5a71.308 71.308 0 0 0 18.822-12.936A61.817 61.817 0 0 0 33.691 6.5q1.178-3.215 2.05-6.5z" data-name="Path" transform="translate(119.776 152.083)" style="fill:#5d62e2"/>
    <path id="prefix__Path-6" d="M85.147 27.146v-.08c0-.958-.067-1.983-.093-3.115a10.649 10.649 0 0 0-10.01-10.409C63.516 12.9 54.6 9.136 46.984 1.709a6.416 6.416 0 0 0-8.719 0C30.651 9.136 21.732 12.89 10.2 13.542A10.649 10.649 0 0 0 .195 23.952c0 1.131 0 2.143-.093 3.115v.186C-.125 39.007-.4 53.636 4.494 66.92a50.489 50.489 0 0 0 12.113 18.862A63.362 63.362 0 0 0 40.315 99.8a7.336 7.336 0 0 0 .972.266 7.175 7.175 0 0 0 2.822 0 7.336 7.336 0 0 0 .972-.266 63.4 63.4 0 0 0 23.547-14.084A50.582 50.582 0 0 0 80.741 66.84c4.912-13.284 4.632-27.94 4.406-39.694z" data-name="Path" transform="translate(64.18 87.958)" style="fill:none;stroke:#fff;stroke-miterlimit:10;stroke-width:2px"/>
    <path id="prefix__Path_79" d="M454.642 175.547v6.06a3.042 3.042 0 1 1-6.084 0v-6.06a15.187 15.187 0 1 0-30.373 0v6.06a3.042 3.042 0 1 1-6.084 0v-6.06a21.271 21.271 0 0 1 42.542 0z" class="prefix__cls-8" data-name="Path 79" transform="translate(-326.885 -38.53)"/>
    <path id="prefix__Path_80" d="M454.642 231.507a3.013 3.013 0 0 1-3.042 3.042 15.191 15.191 0 0 1-15.187-15.187V213.3a3.042 3.042 0 1 0-6.084 0v6.06a15.191 15.191 0 0 1-15.187 15.187 3.042 3.042 0 1 1 0-6.084 9.088 9.088 0 0 0 9.1-9.1V213.3a9.1 9.1 0 0 1 18.2 0v6.06a9.088 9.088 0 0 0 9.1 9.1 3.039 3.039 0 0 1 3.1 3.047z" class="prefix__cls-8" data-name="Path 80" transform="translate(-326.885 -76.286)"/>
    <path id="prefix__Path_81" d="M520.771 231.507a3.013 3.013 0 0 1-3.042 3.042 15.191 15.191 0 0 1-15.187-15.187V213.3a3.013 3.013 0 0 0-3.042-3.042V204.2a9.088 9.088 0 0 1 9.1 9.1v6.06a9.088 9.088 0 0 0 9.1 9.1 3.033 3.033 0 0 1 3.071 3.047z" class="prefix__cls-8" data-name="Path 81" transform="translate(-393.014 -76.286)"/>
    <path id="prefix__Path_82" d="M520.771 175.547v6.06a3.042 3.042 0 1 1-6.084 0v-6.06A15.191 15.191 0 0 0 499.5 160.36v-6.06a21.256 21.256 0 0 1 21.271 21.247z" class="prefix__cls-8" data-name="Path 82" transform="translate(-393.014 -38.53)"/>
</svg>
