<svg width="24" height="28" viewBox="10 10 24 28" fill="none" xmlns="http://www.w3.org/2000/svg">
<path d="M22.5 27L22.5 33C22.5 33.1326 22.4473 33.2598 22.3536 33.3536C22.2598 33.4473 22.1326 33.5 22 33.5L16 33.5C15.8674 33.5 15.7402 33.4473 15.6464 33.3536C15.5527 33.2598 15.5 33.1326 15.5 33L15.5 27C15.5 26.8674 15.5527 26.7402 15.6464 26.6464C15.7402 26.5527 15.8674 26.5 16 26.5L22 26.5C22.1326 26.5 22.2598 26.5527 22.3536 26.6464C22.4473 26.7402 22.5 26.8674 22.5 27ZM22.5 15L22.5 21C22.5 21.1326 22.4473 21.2598 22.3536 21.3536C22.2598 21.4473 22.1326 21.5 22 21.5L16 21.5C15.8674 21.5 15.7402 21.4473 15.6464 21.3536C15.5527 21.2598 15.5 21.1326 15.5 21L15.5 15C15.5 14.8674 15.5527 14.7402 15.6464 14.6464C15.7402 14.5527 15.8674 14.5 16 14.5L22 14.5C22.1326 14.5 22.2598 14.5527 22.3536 14.6464C22.4473 14.7402 22.5 14.8674 22.5 15ZM33.5 21L33.5 27C33.5 27.1326 33.4473 27.2598 33.3536 27.3536C33.2598 27.4473 33.1326 27.5 33 27.5L27 27.5C26.8674 27.5 26.7402 27.4473 26.6464 27.3536C26.5527 27.2598 26.5 27.1326 26.5 27L26.5 21C26.5 20.8674 26.5527 20.7402 26.6464 20.6464C26.7402 20.5527 26.8674 20.5 27 20.5L33 20.5C33.1326 20.5 33.2598 20.5527 33.3536 20.6464C33.4473 20.7402 33.5 20.8674 33.5 21Z" stroke="url(#paint0_linear)" stroke-width="2" stroke-linecap="round" stroke-linejoin="round"/>
<defs>
<linearGradient id="paint0_linear" x1="32.1563" y1="13.5" x2="9.31229" y2="59.3024" gradientUnits="userSpaceOnUse">
<stop stop-color="#00C6FB"/>
<stop offset="1" stop-color="#005BEA"/>
</linearGradient>
</defs>
</svg>
