<svg xmlns="http://www.w3.org/2000/svg" xmlns:xlink="http://www.w3.org/1999/xlink" width="27.863" height="29.794" viewBox="0 0 27.863 29.794"><defs><style>.a{fill:url(#a);}.b,.c{opacity:0.567;}.c,.e{fill:#fff;}.d{fill:url(#e);}.f{filter:url(#f);}.g{filter:url(#b);}</style><linearGradient id="a" x1="0.5" x2="0.5" y2="1" gradientUnits="objectBoundingBox"><stop offset="0" stop-color="#ce5c52"/><stop offset="1" stop-color="#551616"/></linearGradient><filter id="b" x="0.027" y="0" width="25.941" height="29.794" filterUnits="userSpaceOnUse"><feOffset input="SourceAlpha"/><feGaussianBlur stdDeviation="0.5" result="c"/><feFlood flood-color="#fff" flood-opacity="0.322" result="d"/><feComposite operator="out" in="SourceGraphic" in2="c"/><feComposite operator="in" in="d"/><feComposite operator="in" in2="SourceGraphic"/></filter><linearGradient id="e" x1="0.5" x2="0.5" y2="1" gradientUnits="objectBoundingBox"><stop offset="0" stop-color="#eb9f67"/><stop offset="1" stop-color="#ff7352"/></linearGradient><filter id="f" x="5.891" y="7.392" width="21.972" height="20.767" filterUnits="userSpaceOnUse"><feOffset input="SourceAlpha"/><feGaussianBlur stdDeviation="1" result="g"/><feFlood flood-color="#fff" flood-opacity="0.322" result="h"/><feComposite operator="out" in="SourceGraphic" in2="g"/><feComposite operator="in" in="h"/><feComposite operator="in" in2="SourceGraphic"/></filter></defs><g transform="translate(-48.582 -544.754)"><g transform="translate(48.582 549.115)"><path class="a" d="M18.235,17.073s-7.991,0-10.986,6.321A36.1,36.1,0,0,0,18.235,25.2a36.1,36.1,0,0,0,10.986-1.805C26.224,17.073,18.235,17.073,18.235,17.073Zm0-.9c3,0,4.993-2.709,4.993-7.225s-4.993-4.515-4.993-4.515-4.993,0-4.993,4.515S15.238,16.172,18.235,16.172Z" transform="translate(-7.249 -4.432)"/></g><g data-type="innerShadowGroup"><path class="b" d="M12.827,13.569a6.205,6.205,0,0,0-5.579,4.569,13.615,13.615,0,0,0,5.579,1.3,13.615,13.615,0,0,0,5.579-1.3A6.206,6.206,0,0,0,12.827,13.569Zm0-.651c1.522,0,2.536-1.958,2.536-5.222s-2.536-3.264-2.536-3.264-2.536,0-2.536,3.264S11.306,12.918,12.827,12.918Z" transform="translate(48.752 547.714)"/><g class="g" transform="matrix(1, 0, 0, 1, 48.58, 544.75)"><path class="c" d="M12.827,13.569a6.205,6.205,0,0,0-5.579,4.569,13.615,13.615,0,0,0,5.579,1.3,13.615,13.615,0,0,0,5.579-1.3A6.206,6.206,0,0,0,12.827,13.569Zm0-.651c1.522,0,2.536-1.958,2.536-5.222s-2.536-3.264-2.536-3.264-2.536,0-2.536,3.264S11.306,12.918,12.827,12.918Z" transform="translate(0.17 2.96)"/></g></g><g transform="translate(54.473 552.146)"><g data-type="innerShadowGroup"><path class="d" d="M18.235,17.073s-7.991,0-10.986,6.321A36.1,36.1,0,0,0,18.235,25.2a36.1,36.1,0,0,0,10.986-1.805C26.224,17.073,18.235,17.073,18.235,17.073Zm0-.9c3,0,4.993-2.709,4.993-7.225s-4.993-4.515-4.993-4.515-4.993,0-4.993,4.515S15.238,16.172,18.235,16.172Z" transform="translate(-7.249 -4.432)"/><g class="f" transform="matrix(1, 0, 0, 1, -5.89, -7.39)"><path class="e" d="M18.235,17.073s-7.991,0-10.986,6.321A36.1,36.1,0,0,0,18.235,25.2a36.1,36.1,0,0,0,10.986-1.805C26.224,17.073,18.235,17.073,18.235,17.073Zm0-.9c3,0,4.993-2.709,4.993-7.225s-4.993-4.515-4.993-4.515-4.993,0-4.993,4.515S15.238,16.172,18.235,16.172Z" transform="translate(-1.36 2.96)"/></g></g></g></g></svg>