<svg width="100%" height="100%" viewBox="0 0 20 22" fill="none" xmlns="http://www.w3.org/2000/svg">
<rect width="2" height="22" rx="1" fill="url(#paint0_linear_658_3565_custom_id)"/>
<path fill-rule="evenodd" clip-rule="evenodd" d="M2 1.16443V13.2106L3.70199 12.7851C5.61256 12.3075 7.63097 12.529 9.39243 13.4097L9.50015 13.4636C11.5402 14.4836 13.8734 14.7562 16.0936 14.2338L19.2079 13.501C19.5766 13.4142 19.8228 13.0661 19.7817 12.6895C19.5955 10.9855 19.5 9.25405 19.5 7.50001C19.5 5.76046 19.594 4.04314 19.7771 2.35279C19.8033 2.11084 19.7105 1.87122 19.5281 1.71006C19.3458 1.54889 19.0965 1.48622 18.8596 1.54196L15.75 2.27363C13.8714 2.71567 11.8972 2.48508 10.171 1.62196L10.0632 1.5681C7.98152 0.527244 5.59613 0.265394 3.33819 0.82988L2 1.16443Z" fill="currentColor"/>
<defs>
<linearGradient id="paint0_linear_658_3565_custom_id" x1="1" y1="0" x2="1" y2="22" gradientUnits="userSpaceOnUse">
<stop stop-color="currentColor"/>
<stop offset="1" stop-color="currentColor" stop-opacity="0"/>
</linearGradient>
</defs>
</svg>
