<svg xmlns="http://www.w3.org/2000/svg" xmlns:xlink="http://www.w3.org/1999/xlink" width="29" height="28" viewBox="0 0 29 28"><defs><style>.a{fill:url(#a);}</style><linearGradient id="a" x1="0.5" x2="0.5" y2="1" gradientUnits="objectBoundingBox"><stop offset="0" stop-color="#67ebdc"/><stop offset="1" stop-color="#52b6ff"/></linearGradient></defs><path class="a" d="M14.442,28h-.077l-.057,0h0l-.058,0h-.009l-.059,0h0l-.189-.013h0q-.19-.016-.377-.044h0l-.12-.019h-.008l-.054-.009-.012,0-.047-.009-.02,0-.035-.007-.024,0-.038-.008-.035-.007h0a5.988,5.988,0,0,1-4.535-4.4h0a9.5,9.5,0,0,1,0-18.93q-.013.054-.026.108A6,6,0,0,1,13.029.182l.011,0,.03-.007.041-.01.02,0,.043-.01h.007l.057-.012h.005L13.3.12h0a6.009,6.009,0,0,1,.875-.111h0l.061,0h0l.122,0h.267l.122,0h0l.061,0h0A6.012,6.012,0,0,1,15.7.119h0l.055.012.01,0,.05.011.017,0,.032.007A5.989,5.989,0,0,1,20.32,4.535h0a5.99,5.99,0,0,1,.17,1.114,5.965,5.965,0,0,0-.17-1.115,9.5,9.5,0,0,1,0,18.93h0a5.989,5.989,0,0,1-4.454,4.379l-.034.008-.016,0-.05.011-.01,0a6,6,0,0,1-.934.123h0l-.06,0h-.008l-.117,0h-.193ZM17.1,23.5a3,3,0,0,0,0-3H11.9a3,3,0,0,0,0,3Zm3.392-1.128v0Zm0-.045v0Zm-11.983,0v0Zm11.985-.045v0Zm0-.092v0Zm-11.995,0v0Zm0-.041v0Zm12,0v0Zm0-.042v0Zm-12,0v0Zm12-.043s0-.009,0-.014S20.5,22.052,20.5,22.057Zm-12,0s0-.009,0-.014S8.5,22.052,8.5,22.056ZM20.5,22Zm-12,0Zm12-.045s0-.01,0-.015S20.5,21.95,20.5,21.955Zm-12,0v0Zm12-.044v0Zm-12,0v0Zm12-.045v0Zm-12-.007v0Zm12-.05v0Zm0-.045v0Zm0-.045v0Zm0-.049v0Zm0-.055v0Zm0-.043,0-.022Zm0-.044,0-.023Zm0-.038,0-.056C20.475,21.45,20.477,21.468,20.479,21.487Zm-.006-.064,0-.03Zm0-.042a5.95,5.95,0,0,0-.17-.929,6.5,6.5,0,0,0,0-12.9l0-.007,0,.007h0l0,.01-.013.048,0,.011-.012.043,0,.016-.013.045-.006.022-.011.035-.01.034-.005.017a5.973,5.973,0,0,1-1.5,2.437l0,0-.02.019A5.981,5.981,0,0,1,14.629,12h-.259a5.982,5.982,0,0,1-4.115-1.757l-.012-.012-.018-.018A5.973,5.973,0,0,1,8.8,7.894L8.8,7.874l-.012-.038L8.776,7.8,8.77,7.785l-.014-.046,0-.015-.015-.05,0-.01-.014-.051v0L8.7,7.555l0-.007h0l0-.008,0,.008a6.5,6.5,0,0,0,0,12.9l-.021.082.021-.082h0a5.975,5.975,0,0,1,1.737-2.868l.032-.029,0,0A5.978,5.978,0,0,1,14.372,16h.256a5.978,5.978,0,0,1,3.943,1.591l0,0,.03.028A5.976,5.976,0,0,1,20.3,20.452h0A5.977,5.977,0,0,1,20.469,21.381ZM8.664,20.6l0-.014Zm.009-.039.006-.023ZM8.7,7.528a5.993,5.993,0,0,1-.188-1.217A5.958,5.958,0,0,0,8.7,7.528ZM17.1,7.5a3,3,0,0,0,0-3H11.9a3,3,0,0,0,0,3ZM8.507,6.309v0Zm0-.046v0Zm0-.049v0Zm0-.06v0Zm12-.005v0Zm-12-.042v0Zm12,0v0ZM8.5,6.06c0-.005,0-.01,0-.015S8.5,6.055,8.5,6.06Zm12,0s0-.01,0-.014S20.5,6.054,20.5,6.059ZM20.5,6ZM8.5,6Zm12-.043c0-.005,0-.01,0-.015S20.5,5.952,20.5,5.957Zm-12,0v0Zm12-.042v0Zm-12,0v0Zm12-.039v0Zm-12-.009v0Zm12-.033v0Zm0-.041q0-.026,0-.051C20.5,5.755,20.5,5.772,20.5,5.789Zm0-.06v0Zm0-.041,0-.032ZM8.647,4.674l.005-.023ZM8.68,23.465Z"/></svg>