<svg xmlns="http://www.w3.org/2000/svg" width="278.631" height="270.497" viewBox="0 0 278.631 270.497">
    <path fill="#fff" d="M6795.381-4445.891a97.527 97.527 0 0 0-59.017-28.741 54.937 54.937 0 0 0-5.947-12.241 55.169 55.169 0 0 0-45.284-25.357c-.274-.005-.543-.005-.822-.005h-.413c-.479 0-.957 0-1.456.01-.44.012-.887.032-1.327.059l-.467.027c-.291.011-.571.027-.85.048-.736.054-1.418.124-2.085.2-.188.022-.381.039-.526.054-1.2.156-2.278.307-3.3.5a55.318 55.318 0 0 0-42.716 37.248 97.575 97.575 0 0 0-58.388 28.935 97.447 97.447 0 0 0-27.869 68.384 97.369 97.369 0 0 0 28.164 68.69 97.507 97.507 0 0 0 59.017 28.746 55.175 55.175 0 0 0 5.955 12.236 55.158 55.158 0 0 0 45.288 25.362h1.698c.323 0 .655 0 .988-.011.446-.01.887-.042 1.333-.059l.478-.027c.274-.01.538-.032.833-.054.662-.042 1.322-.112 1.994-.193h.049c.2-.022.4-.037.574-.059 1.2-.145 2.283-.306 3.294-.494a55.323 55.323 0 0 0 42.72-37.249 97.615 97.615 0 0 0 58.389-28.934 97.457 97.457 0 0 0 27.858-68.379 97.41 97.41 0 0 0-28.165-68.696zm-109.619 93.273c-.3-.006-.6-.006-.892-.006l-.215.006-.259-.006c-.425 0-.859 0-1.273.012-.445.01-.9.042-1.337.064l-.5.021c-.274.017-.537.027-.8.054-.77.049-1.483.135-2.038.193-.192.022-.386.043-.584.059-1.194.151-2.268.312-3.279.495a55.042 55.042 0 0 0-29.513 15.6 55.38 55.38 0 0 0-12.058 18.46 59.679 59.679 0 0 1-32.79-17.15 59.545 59.545 0 0 1-17.2-41.964 59.564 59.564 0 0 1 17.043-41.8 59.806 59.806 0 0 1 32.512-17.242 55.7 55.7 0 0 0 4.76 9.088 55.165 55.165 0 0 0 45.3 25.374c.317.01.64.01.968.01h.462c.425 0 .854 0 1.269-.016.439-.011.887-.038 1.332-.06l.5-.021c.27-.017.538-.033.8-.054.768-.06 1.477-.134 2.041-.2.193-.015.381-.032.569-.064 1.2-.139 2.277-.306 3.283-.488a55.014 55.014 0 0 0 29.514-15.6 55.357 55.357 0 0 0 12.058-18.466 59.618 59.618 0 0 1 32.79 17.154 59.541 59.541 0 0 1 17.2 41.965 59.536 59.536 0 0 1-17.025 41.8 59.732 59.732 0 0 1-32.522 17.247 54.22 54.22 0 0 0-4.766-9.093 55.18 55.18 0 0 0-45.35-25.371zm-15.749 64.888a17.263 17.263 0 0 1-2.407-13.079 17.3 17.3 0 0 1 7.556-10.957 17.289 17.289 0 0 1 9.408-2.794 17.073 17.073 0 0 1 3.647.388 17.312 17.312 0 0 1 10.939 7.541 17.294 17.294 0 0 1 2.4 13.083 17.268 17.268 0 0 1-7.556 10.953 17.291 17.291 0 0 1-13.05 2.406 17.274 17.274 0 0 1-10.937-7.54zm28.44-178.507a17.259 17.259 0 0 1 2.4 13.079 17.247 17.247 0 0 1-7.555 10.941 17.221 17.221 0 0 1-13.051 2.417 17.268 17.268 0 0 1-10.934-7.546 17.248 17.248 0 0 1-2.407-13.084 17.236 17.236 0 0 1 7.555-10.946 17.288 17.288 0 0 1 13.057-2.406 17.239 17.239 0 0 1 10.935 7.545z" transform="translate(-6544.915 4512.234)"/>
</svg>
