<svg width="28" height="28" viewBox="0 0 28 28" fill="none" xmlns="http://www.w3.org/2000/svg">
<path fill-rule="evenodd" clip-rule="evenodd" d="M10.7627 7.52736V7.52736C10.7627 5.74002 12.2117 4.28986 14.0002 4.28986V4.28986C15.7875 4.28986 17.2377 5.73886 17.2377 7.52736V7.52736C17.2377 9.31469 15.7887 10.7649 14.0002 10.7649V10.7649C12.2117 10.7625 10.7627 9.31352 10.7627 7.52736Z" stroke="url(#paint0_linear_4741_13637)" stroke-width="1.5" stroke-linecap="round" stroke-linejoin="round"/>
<path fill-rule="evenodd" clip-rule="evenodd" d="M2.9165 20.4727V20.4727C2.9165 18.6853 4.3655 17.2352 6.154 17.2352V17.2352C7.94134 17.2352 9.3915 18.6842 9.3915 20.4727V20.4727C9.39034 22.26 7.9425 23.7102 6.154 23.7102V23.7102C4.3655 23.7102 2.9165 22.2612 2.9165 20.4727Z" stroke="url(#paint1_linear_4741_13637)" stroke-width="1.5" stroke-linecap="round" stroke-linejoin="round"/>
<path fill-rule="evenodd" clip-rule="evenodd" d="M18.6094 20.4727V20.4727C18.6094 18.6853 20.0584 17.2352 21.8469 17.2352V17.2352C23.6342 17.2352 25.0844 18.6842 25.0844 20.4727V20.4727C25.0844 22.26 23.6354 23.7102 21.8469 23.7102V23.7102C20.0572 23.7102 18.6094 22.2612 18.6094 20.4727H18.6094Z" stroke="url(#paint2_linear_4741_13637)" stroke-width="1.5" stroke-linecap="round" stroke-linejoin="round"/>
<path d="M9.90506 13.9067L7.56006 17.57" stroke="url(#paint3_linear_4741_13637)" stroke-width="1.5" stroke-linecap="round" stroke-linejoin="round"/>
<path d="M15.75 10.2433L18.095 13.9067" stroke="url(#paint4_linear_4741_13637)" stroke-width="1.5" stroke-linecap="round" stroke-linejoin="round"/>
<path d="M18.6083 20.475H14" stroke="url(#paint5_linear_4741_13637)" stroke-width="1.5" stroke-linecap="round" stroke-linejoin="round"/>
<defs>
<linearGradient id="paint0_linear_4741_13637" x1="10.7627" y1="5.04864" x2="25.1516" y2="11.8834" gradientUnits="userSpaceOnUse">
<stop stop-color="#00FBA1"/>
<stop offset="1" stop-color="#00B2EA"/>
</linearGradient>
<linearGradient id="paint1_linear_4741_13637" x1="2.9165" y1="17.994" x2="17.3054" y2="24.8287" gradientUnits="userSpaceOnUse">
<stop stop-color="#00FBA1"/>
<stop offset="1" stop-color="#00B2EA"/>
</linearGradient>
<linearGradient id="paint2_linear_4741_13637" x1="18.6094" y1="17.994" x2="32.9983" y2="24.8287" gradientUnits="userSpaceOnUse">
<stop stop-color="#00FBA1"/>
<stop offset="1" stop-color="#00B2EA"/>
</linearGradient>
<linearGradient id="paint3_linear_4741_13637" x1="7.56006" y1="14.336" x2="13.4064" y2="16.1136" gradientUnits="userSpaceOnUse">
<stop stop-color="#00FBA1"/>
<stop offset="1" stop-color="#00B2EA"/>
</linearGradient>
<linearGradient id="paint4_linear_4741_13637" x1="15.75" y1="10.6726" x2="21.5964" y2="12.4503" gradientUnits="userSpaceOnUse">
<stop stop-color="#00FBA1"/>
<stop offset="1" stop-color="#00B2EA"/>
</linearGradient>
<linearGradient id="paint5_linear_4741_13637" x1="14" y1="20.0284" x2="16.7766" y2="25.2381" gradientUnits="userSpaceOnUse">
<stop stop-color="#00FBA1"/>
<stop offset="1" stop-color="#00B2EA"/>
</linearGradient>
</defs>
</svg>
