<svg xmlns="http://www.w3.org/2000/svg" xmlns:xlink="http://www.w3.org/1999/xlink" width="23.762" height="21.275" viewBox="0 0 23.762 21.275"><defs><style>.a{fill:url(#a);}.b{fill:#fff;}.c{filter:url(#n);}.d{filter:url(#j);}.e{filter:url(#f);}.f{filter:url(#b);}</style><linearGradient id="a" x1="0.5" x2="0.5" y2="1" gradientUnits="objectBoundingBox"><stop offset="0" stop-color="#ebc767"/><stop offset="1" stop-color="#ffa852"/></linearGradient><filter id="b" x="8.507" y="5.717" width="9.235" height="15.557" filterUnits="userSpaceOnUse"><feOffset input="SourceAlpha"/><feGaussianBlur stdDeviation="0.5" result="c"/><feFlood flood-color="#ebff00" flood-opacity="0.161" result="d"/><feComposite operator="out" in="SourceGraphic" in2="c"/><feComposite operator="in" in="d"/><feComposite operator="in" in2="SourceGraphic"/></filter><filter id="f" x="14.527" y="4.209" width="9.235" height="15.557" filterUnits="userSpaceOnUse"><feOffset input="SourceAlpha"/><feGaussianBlur stdDeviation="0.5" result="g"/><feFlood flood-color="#ebff00" flood-opacity="0.161" result="h"/><feComposite operator="out" in="SourceGraphic" in2="g"/><feComposite operator="in" in="h"/><feComposite operator="in" in2="SourceGraphic"/></filter><filter id="j" x="0" y="1.508" width="9.235" height="15.558" filterUnits="userSpaceOnUse"><feOffset input="SourceAlpha"/><feGaussianBlur stdDeviation="0.5" result="k"/><feFlood flood-color="#ebff00" flood-opacity="0.161" result="l"/><feComposite operator="out" in="SourceGraphic" in2="k"/><feComposite operator="in" in="l"/><feComposite operator="in" in2="SourceGraphic"/></filter><filter id="n" x="6.019" y="0" width="9.235" height="15.557" filterUnits="userSpaceOnUse"><feOffset input="SourceAlpha"/><feGaussianBlur stdDeviation="0.5" result="o"/><feFlood flood-color="#ebff00" flood-opacity="0.161" result="p"/><feComposite operator="out" in="SourceGraphic" in2="o"/><feComposite operator="in" in="p"/><feComposite operator="in" in2="SourceGraphic"/></filter></defs><g transform="translate(0)"><g data-type="innerShadowGroup"><path class="a" d="M-6632.467-3900.985a1.844,1.844,0,0,1,2.372-1.031,1.845,1.845,0,0,1,.591,2.518l-5.778,11.708a1.843,1.843,0,0,1-2.371,1.032,1.845,1.845,0,0,1-.592-2.518Z" transform="translate(6646.999 3907.883)"/><g class="f" transform="matrix(1, 0, 0, 1, 0, 0)"><path class="b" d="M-6632.467-3900.985a1.844,1.844,0,0,1,2.372-1.031,1.845,1.845,0,0,1,.591,2.518l-5.778,11.708a1.843,1.843,0,0,1-2.371,1.032,1.845,1.845,0,0,1-.592-2.518Z" transform="translate(6647 3907.88)"/></g></g><g data-type="innerShadowGroup"><path class="a" d="M-6564.08-3918.122a1.844,1.844,0,0,1,2.372-1.032,1.843,1.843,0,0,1,.591,2.518l-5.778,11.709a1.844,1.844,0,0,1-2.372,1.031,1.844,1.844,0,0,1-.591-2.518Z" transform="translate(6584.632 3923.512)"/><g class="e" transform="matrix(1, 0, 0, 1, 0, 0)"><path class="b" d="M-6564.08-3918.122a1.844,1.844,0,0,1,2.372-1.032,1.843,1.843,0,0,1,.591,2.518l-5.778,11.709a1.844,1.844,0,0,1-2.372,1.031,1.844,1.844,0,0,1-.591-2.518Z" transform="translate(6584.63 3923.51)"/></g></g><g data-type="innerShadowGroup"><path class="a" d="M-6729.123-3948.815a1.844,1.844,0,0,1,2.371-1.032,1.844,1.844,0,0,1,.592,2.518l-5.778,11.709a1.844,1.844,0,0,1-2.371,1.032,1.844,1.844,0,0,1-.591-2.518Z" transform="translate(6735.147 3951.504)"/><g class="d" transform="matrix(1, 0, 0, 1, 0, 0)"><path class="b" d="M-6729.123-3948.815a1.844,1.844,0,0,1,2.371-1.032,1.844,1.844,0,0,1,.592,2.518l-5.778,11.709a1.844,1.844,0,0,1-2.371,1.032,1.844,1.844,0,0,1-.591-2.518Z" transform="translate(6735.15 3951.5)"/></g></g><g data-type="innerShadowGroup"><path class="a" d="M-6660.736-3965.952a1.843,1.843,0,0,1,2.372-1.031,1.844,1.844,0,0,1,.591,2.518l-5.777,11.708a1.844,1.844,0,0,1-2.372,1.032,1.845,1.845,0,0,1-.592-2.518Z" transform="translate(6672.78 3967.133)"/><g class="c" transform="matrix(1, 0, 0, 1, 0, 0)"><path class="b" d="M-6660.736-3965.952a1.843,1.843,0,0,1,2.372-1.031,1.844,1.844,0,0,1,.591,2.518l-5.777,11.708a1.844,1.844,0,0,1-2.372,1.032,1.845,1.845,0,0,1-.592-2.518Z" transform="translate(6672.78 3967.13)"/></g></g></g></svg>