<svg xmlns="http://www.w3.org/2000/svg" xmlns:xlink="http://www.w3.org/1999/xlink" width="48" height="48" viewBox="0 0 48 48"><defs><style>.a{fill:#fff1eb;}.b{fill:url(#a);}</style><linearGradient id="a" x1="0.869" y1="-0.243" x2="0.21" y2="1.238" gradientUnits="objectBoundingBox"><stop offset="0" stop-color="#de6767"/><stop offset="1" stop-color="#8d5a5a"/></linearGradient></defs><rect class="a" width="48" height="48" rx="15"/><path class="b" d="M26.126,12.951l-2.621-.782a9.114,9.114,0,0,0-.743-1.823l1.283-2.4a.477.477,0,0,0-.086-.563L22.089,5.5a.477.477,0,0,0-.563-.086L19.14,6.692a9.09,9.09,0,0,0-1.846-.782l-.782-2.589A.477.477,0,0,0,16.05,3H13.406a.477.477,0,0,0-.454.336L12.17,5.918a9.1,9.1,0,0,0-1.862.782L7.961,5.433a.477.477,0,0,0-.563.086L5.5,7.373a.477.477,0,0,0-.086.563l1.267,2.347A9.1,9.1,0,0,0,5.9,12.137l-2.589.782a.477.477,0,0,0-.336.454v2.644a.477.477,0,0,0,.336.454l2.605.782a9.09,9.09,0,0,0,.782,1.823L5.411,21.533A.477.477,0,0,0,5.5,22.1l1.87,1.87a.477.477,0,0,0,.563.086l2.417-1.291a9.114,9.114,0,0,0,1.8.735l.782,2.636a.477.477,0,0,0,.454.336h2.644a.477.477,0,0,0,.454-.336l.782-2.644a9.1,9.1,0,0,0,1.784-.735l2.433,1.3a.477.477,0,0,0,.563-.086l1.87-1.87A.477.477,0,0,0,24,21.533l-1.3-2.425a9.1,9.1,0,0,0,.743-1.791l2.636-.782a.477.477,0,0,0,.336-.454V13.412a.477.477,0,0,0-.289-.462Zm-11.4,6.086a4.3,4.3,0,1,1,4.3-4.3,4.3,4.3,0,0,1-4.3,4.3Z" transform="translate(9.307 9.633)"/></svg>