<svg xmlns="http://www.w3.org/2000/svg" id="Component_1224_1" width="20.378" height="20.459" viewBox="0 0 20.378 20.459">
    <defs>
        <style>
            .cls-1{fill:#fff}
        </style>
    </defs>
    <path id="Path_2161" d="M6618.457-3807.577a10.221 10.221 0 0 0-8.1-9.212 10.231 10.231 0 0 0-2.067-.211 10.127 10.127 0 0 0-7.115 2.916 10.174 10.174 0 0 0-3.062 7.283v2.83a1.676 1.676 0 0 0 1.692 1.7 1.676 1.676 0 0 0 1.69-1.7v-2.83a6.819 6.819 0 0 1 6.807-6.817 6.819 6.819 0 0 1 6.807 6.817v2.83a1.676 1.676 0 0 0 1.69 1.7 1.677 1.677 0 0 0 1.691-1.7v-2.83q-.003-.392-.033-.776z" class="cls-1" transform="translate(-6598.109 3817)"/>
    <path id="Path_2162" d="M6617.525-3699.492a3.988 3.988 0 0 1-3.857-3.184 4.165 4.165 0 0 1-.1-.9v-2.9a4.6 4.6 0 0 0-4.525-4.645 4.6 4.6 0 0 0-4.528 4.645v2.9a4.013 4.013 0 0 1-3.943 4.08 1.692 1.692 0 0 0-1.684 1.741 1.692 1.692 0 0 0 1.682 1.74 7.455 7.455 0 0 0 7.331-7.561v-2.9a1.146 1.146 0 0 1 1.143-1.174 1.147 1.147 0 0 1 1.143 1.174v2.9a7.656 7.656 0 0 0 1.572 4.665 7.266 7.266 0 0 0 5.774 2.9 1.7 1.7 0 0 0 1.694-1.74 1.7 1.7 0 0 0-1.702-1.741z" class="cls-1" transform="translate(-6598.854 3716.471)"/>
</svg>
