<svg xmlns="http://www.w3.org/2000/svg" xmlns:xlink="http://www.w3.org/1999/xlink" width="23.996" height="24" viewBox="0 0 23.996 24"><defs><style>.a{fill:url(#a);}</style><linearGradient id="a" x1="0.791" x2="0.5" y2="1" gradientUnits="objectBoundingBox"><stop offset="0" stop-color="#aca9a9"/><stop offset="1" stop-color="#6e6b6b"/></linearGradient></defs><g transform="translate(-93.389 -363.5)"><path class="a" d="M15083.5,23571.5a11.984,11.984,0,1,1-4.67.945A11.952,11.952,0,0,1,15083.5,23571.5Zm0,22.242a10.243,10.243,0,1,0-7.242-3A10.176,10.176,0,0,0,15083.5,23593.742Z" transform="translate(-14978.112 -23208)"/><path class="a" d="M7.6,8.526a.886.886,0,0,1,0-1.244L9.618,5.269H.877a.877.877,0,0,1,0-1.755H9.618L7.6,1.5A.88.88,0,1,1,8.846.257l3.51,3.515a.87.87,0,0,1,0,1.24L8.846,8.526a.885.885,0,0,1-1.244,0Z" transform="translate(100.967 371.4)"/></g></svg>