<svg width="28" height="28" viewBox="0 0 28 28" fill="none" xmlns="http://www.w3.org/2000/svg">
<path d="M14.0064 7.10378e-06C17.4774 0.00162476 20.8239 1.29362 23.3968 3.62326C25.9697 5.9529 27.5855 9.15473 27.9306 12.6084C28.2757 16.062 27.3255 19.5195 25.2644 22.3122C23.2034 25.1049 20.1784 27.0336 16.7764 27.722C13.3745 28.4104 9.83796 27.8098 6.85327 26.0381C3.86859 24.2664 1.64901 21.4483 0.624199 18.1322C-0.400613 14.8161 -0.157148 11.2396 1.30757 8.093C2.77229 4.94634 5.35363 2.45524 8.55087 1.10432C10.2769 0.373923 12.1322 -0.00188426 14.0064 7.10378e-06ZM14.0064 25.9834C16.7749 25.9836 19.4575 25.0243 21.5977 23.2682C23.7379 21.5121 25.2033 19.0677 25.7436 16.3525C26.2838 13.6374 25.8655 10.8175 24.5605 8.37592C23.2555 5.93434 21.1447 4.02109 18.587 2.96158C16.0293 1.90207 13.183 1.76328 10.5337 2.56686C7.88437 3.37043 5.59629 5.06787 4.05818 7.36972C2.52006 9.67156 1.82682 12.4361 2.09819 15.1912C2.36955 17.9463 3.5882 20.5212 5.54585 22.4788C6.65432 23.5932 7.97255 24.476 9.42477 25.0775C10.877 25.6791 12.4346 25.9875 14.0064 25.9834V25.9834Z" fill="black"/>
<path d="M15.3527 9.45896C15.0539 9.1721 14.5791 9.18179 14.2923 9.4806C14.0054 9.77941 14.0151 10.2542 14.3139 10.541L15.3527 9.45896ZM19 14L19.5194 14.541C19.6667 14.3996 19.75 14.2042 19.75 14C19.75 13.7958 19.6667 13.6004 19.5194 13.459L19 14ZM14.3139 17.459C14.0151 17.7458 14.0054 18.2206 14.2923 18.5194C14.5791 18.8182 15.0539 18.8279 15.3527 18.541L14.3139 17.459ZM9 13.25C8.58579 13.25 8.25 13.5858 8.25 14C8.25 14.4142 8.58579 14.75 9 14.75L9 13.25ZM14.3139 10.541L18.4806 14.541L19.5194 13.459L15.3527 9.45896L14.3139 10.541ZM18.4806 13.459L14.3139 17.459L15.3527 18.541L19.5194 14.541L18.4806 13.459ZM9 14.75L19 14.75L19 13.25L9 13.25L9 14.75Z" fill="black"/>
</svg>
