<svg xmlns="http://www.w3.org/2000/svg" xmlns:xlink="http://www.w3.org/1999/xlink" width="19.051" height="26.735" viewBox="0 0 19.051 26.735"><defs><style>.a{fill:url(#a);}</style><linearGradient id="a" x1="0.5" x2="0.5" y2="1" gradientUnits="objectBoundingBox"><stop offset="0" stop-color="#67aeeb"/><stop offset="1" stop-color="#8752ff"/></linearGradient></defs><path class="a" d="M11.116,0A8.159,8.159,0,0,0,3.182,8.355H6.353a4.9,4.9,0,0,1,4.763-5.013,4.9,4.9,0,0,1,4.76,5.013v1.671H0v11.7a4.9,4.9,0,0,0,4.763,5.013h9.525a4.9,4.9,0,0,0,4.763-5.013V8.355A8.163,8.163,0,0,0,11.116,0ZM9.525,20.051a1.673,1.673,0,1,1,1.588-1.671A1.632,1.632,0,0,1,9.525,20.051Z"/></svg>