<svg xmlns="http://www.w3.org/2000/svg" width="236.442" height="287.659" viewBox="0 0 236.442 287.659">
  <g id="CR_Proposals" data-name="CR Proposals" transform="translate(2 2)">
    <g id="Group_13692" data-name="Group 13692">
      <g id="Group_13691" data-name="Group 13691">
        <path id="Path_22229" data-name="Path 22229" d="M251.681,0H58.636a19.721,19.721,0,0,0-19.7,19.7V86.673a6.566,6.566,0,0,0,13.132,0V19.7a6.574,6.574,0,0,1,6.566-6.566H251.681a6.574,6.574,0,0,1,6.566,6.566V263.96a6.574,6.574,0,0,1-6.566,6.566H58.636a6.574,6.574,0,0,1-6.566-6.566V142.048a6.566,6.566,0,0,0-13.132,0V263.96a19.721,19.721,0,0,0,19.7,19.7H251.681a19.721,19.721,0,0,0,19.7-19.7V19.7A19.721,19.721,0,0,0,251.681,0Z" transform="translate(-38.937)" fill="#fff" stroke="#fff" stroke-width="4"/>
      </g>
    </g>
    <g id="Group_13694" data-name="Group 13694" transform="translate(0 109.51)">
      <g id="Group_13693" data-name="Group 13693">
        <path id="Path_22230" data-name="Path 22230" d="M50.145,168.7a6.569,6.569,0,1,0,1.925,4.642A6.607,6.607,0,0,0,50.145,168.7Z" transform="translate(-38.937 -166.78)" fill="#fff" stroke="#fff" stroke-width="4"/>
      </g>
    </g>
    <g id="Group_13702" data-name="Group 13702" transform="translate(36.771 48.59)">
      <g id="Group_13701" data-name="Group 13701">
        <path id="Path_22234" data-name="Path 22234" d="M164.538,74H101.5a6.566,6.566,0,0,0-6.566,6.566V143.6a6.566,6.566,0,0,0,6.566,6.566h63.035A6.566,6.566,0,0,0,171.1,143.6V80.566A6.566,6.566,0,0,0,164.538,74Z" transform="translate(-94.937 -74)" fill="#fff" stroke="#fff" stroke-width="4"/>
      </g>
    </g>
    <g id="Group_13704" data-name="Group 13704" transform="translate(39.178 152.646)">
      <g id="Group_13703" data-name="Group 13703">
        <path id="Path_22235" data-name="Path 22235" d="M144.67,234.4a6.568,6.568,0,0,0-9.287,0l-17.455,17.455-8.116-8.116a6.566,6.566,0,1,0-9.287,9.286l12.759,12.759a6.567,6.567,0,0,0,9.287,0l22.1-22.1A6.566,6.566,0,0,0,144.67,234.4Z" transform="translate(-98.603 -232.474)" fill="#fff" stroke="#fff" stroke-width="4"/>
      </g>
    </g>
    <g id="Group_13706" data-name="Group 13706" transform="translate(109.656 163.498)">
      <g id="Group_13705" data-name="Group 13705">
        <path id="Path_22236" data-name="Path 22236" d="M289.109,249H212.5a6.566,6.566,0,1,0,0,13.132h76.605a6.566,6.566,0,0,0,0-13.132Z" transform="translate(-205.937 -249)" fill="#fff" stroke="#fff" stroke-width="4"/>
      </g>
    </g>
    <g id="Group_13708" data-name="Group 13708" transform="translate(136.576 48.59)">
      <g id="Group_13707" data-name="Group 13707">
        <path id="Path_22237" data-name="Path 22237" d="M299.466,74H253.5a6.566,6.566,0,1,0,0,13.132h45.963a6.566,6.566,0,0,0,0-13.132Z" transform="translate(-246.937 -74)" fill="#fff" stroke="#fff" stroke-width="4"/>
      </g>
    </g>
    <g id="Group_13710" data-name="Group 13710" transform="translate(136.576 80.107)">
      <g id="Group_13709" data-name="Group 13709">
        <path id="Path_22238" data-name="Path 22238" d="M299.466,122H253.5a6.566,6.566,0,1,0,0,13.132h45.963a6.566,6.566,0,0,0,0-13.132Z" transform="translate(-246.937 -122)" fill="#fff" stroke="#fff" stroke-width="4"/>
      </g>
    </g>
    <g id="Group_13712" data-name="Group 13712" transform="translate(136.576 111.625)">
      <g id="Group_13711" data-name="Group 13711">
        <path id="Path_22239" data-name="Path 22239" d="M299.466,170H253.5a6.566,6.566,0,1,0,0,13.132h45.963a6.566,6.566,0,0,0,0-13.132Z" transform="translate(-246.937 -170)" fill="#fff" stroke="#fff" stroke-width="4"/>
      </g>
    </g>
    <g id="Group_13714" data-name="Group 13714" transform="translate(39.178 202.789)">
      <g id="Group_13713" data-name="Group 13713">
        <path id="Path_22240" data-name="Path 22240" d="M144.67,310.763a6.568,6.568,0,0,0-9.287,0l-17.455,17.455-8.116-8.116a6.566,6.566,0,0,0-9.287,9.286l12.759,12.759a6.567,6.567,0,0,0,9.287,0l22.1-22.1A6.566,6.566,0,0,0,144.67,310.763Z" transform="translate(-98.603 -308.841)" fill="#fff" stroke="#fff" stroke-width="4"/>
      </g>
    </g>
    <g id="Group_13716" data-name="Group 13716" transform="translate(109.656 213.4)">
      <g id="Group_13715" data-name="Group 13715">
        <path id="Path_22241" data-name="Path 22241" d="M289.109,325H212.5a6.566,6.566,0,1,0,0,13.132h76.605a6.566,6.566,0,0,0,0-13.132Z" transform="translate(-205.937 -325)" fill="#fff" stroke="#fff" stroke-width="4"/>
      </g>
    </g>
  </g>
</svg>
