<svg width="100%" height="100%" viewBox="0 0 26 26" fill="none" xmlns="http://www.w3.org/2000/svg">
<path fill-rule="evenodd" clip-rule="evenodd" d="M26.0007 12.999C26.0007 13.5591 25.5529 14.0132 25.0006 14.0132H23.9558C23.9 14.6409 23.793 15.2536 23.6389 15.8469L24.619 16.2087C25.138 16.4003 25.4056 16.9823 25.2167 17.5086C25.0278 18.035 24.454 18.3064 23.935 18.1148L22.9548 17.753C22.6921 18.3176 22.3842 18.8562 22.0357 19.3641L22.8359 20.0451C23.259 20.4051 23.3142 21.0449 22.9592 21.4739C22.6042 21.903 21.9734 21.959 21.5503 21.5989L20.7494 20.9173C20.315 21.3545 19.8449 21.7553 19.3438 22.1146L19.8665 23.0327C20.1426 23.5178 19.9787 24.138 19.5004 24.4181C19.0221 24.6982 18.4105 24.532 18.1344 24.0469L17.6125 23.1302C17.0608 23.389 16.4843 23.6028 15.8876 23.767L16.0689 24.8095C16.1648 25.3611 15.8016 25.8872 15.2577 25.9844C14.7138 26.0817 14.1951 25.7134 14.0992 25.1617L13.9176 24.117C13.6151 24.1423 13.3092 24.1553 13.0003 24.1553C12.6914 24.1553 12.3854 24.1423 12.0828 24.117L11.9012 25.1617C11.8053 25.7133 11.2866 26.0816 10.7427 25.9844C10.1988 25.8871 9.83564 25.3611 9.93155 24.8094L10.1128 23.7669C9.51622 23.6028 8.93978 23.389 8.38805 23.1302L7.8661 24.0471C7.58995 24.5322 6.97834 24.6984 6.50004 24.4183C6.02173 24.1382 5.85785 23.518 6.134 23.0329L6.6568 22.1145C6.15591 21.7553 5.68593 21.3548 5.2517 20.9177L4.4502 21.5998C4.02711 21.9598 3.39634 21.9039 3.04133 21.4748C2.68632 21.0457 2.7415 20.406 3.16459 20.0459L3.96527 19.3645C3.61659 18.8565 3.30851 18.3176 3.04579 17.7527L2.06549 18.1146C1.5465 18.3062 0.972639 18.0348 0.783742 17.5084C0.594845 16.9821 0.862439 16.4001 1.38143 16.2085L2.36165 15.8467C2.20767 15.2534 2.10066 14.6408 2.0449 14.0132H1.00003C0.447727 14.0132 0 13.5591 0 12.999C0 12.4388 0.447727 11.9848 1.00003 11.9848H2.04491C2.10068 11.3572 2.20771 10.7446 2.36169 10.1514L1.38176 9.78968C0.862769 9.5981 0.595175 9.01611 0.784072 8.48976C0.972969 7.9634 1.54683 7.69202 2.06582 7.88359L3.04589 8.24537C3.30856 7.68062 3.61656 7.14187 3.9651 6.63393L3.16479 5.95287C2.7417 5.59282 2.68652 4.9531 3.04153 4.52402C3.39654 4.09493 4.02731 4.03896 4.4504 4.39901L5.25144 5.0807C5.68561 4.64364 6.15548 4.24311 6.65617 3.88403L6.13408 2.967C5.85791 2.48192 6.02177 1.86164 6.50006 1.58155C6.97835 1.30147 7.58997 1.46765 7.86613 1.95272L8.38741 2.86832C8.93933 2.60944 9.51592 2.39558 10.1125 2.23136L9.93155 1.19055C9.83565 0.638926 10.1988 0.112899 10.7427 0.0156335C11.2866 -0.081632 11.8053 0.286696 11.9012 0.838318L12.0825 1.88103C12.3852 1.85564 12.6913 1.8427 13.0003 1.8427C13.3093 1.8427 13.6154 1.85562 13.9179 1.88096L14.0992 0.838262C14.1951 0.28664 14.7138 -0.0816881 15.2577 0.0155777C15.8016 0.112844 16.1648 0.638871 16.0689 1.19049L15.888 2.23105C16.4848 2.39527 17.0614 2.60917 17.6134 2.86809L18.1343 1.95297C18.4105 1.46788 19.0221 1.30168 19.5004 1.58174C19.9787 1.86181 20.1426 2.48209 19.8664 2.96718L19.3445 3.88391C19.8455 4.24317 20.3155 4.64384 20.7497 5.081L21.5501 4.39985C21.9732 4.0398 22.604 4.09577 22.959 4.52486C23.314 4.95394 23.2588 5.59366 22.8357 5.9537L22.036 6.63428C22.3844 7.14206 22.6922 7.6806 22.9548 8.24507L23.9346 7.88338C24.4536 7.69181 25.0275 7.9632 25.2164 8.48955C25.4053 9.0159 25.1377 9.5979 24.6187 9.78947L23.639 10.1511C23.793 10.7445 23.9 11.3571 23.9558 11.9848H25.0006C25.5529 11.9848 26.0007 12.4388 26.0007 12.999Z" fill="url(#paint0_linear_657_2812_custom_id)"/>
<path fill-rule="evenodd" clip-rule="evenodd" d="M18.5007 18.4997C18.2637 18.7367 17.8822 18.7394 17.6485 18.5057L17.2065 18.0637C16.9173 18.3056 16.6128 18.5196 16.2966 18.7055L16.5582 19.2732C16.6967 19.5738 16.5637 19.9332 16.2611 20.076C15.9585 20.2188 15.6009 20.0908 15.4624 19.7902L15.2007 19.2224C14.8508 19.3502 14.4926 19.4478 14.1303 19.5152L14.1807 20.1419C14.2074 20.4732 13.9601 20.7672 13.6284 20.7985C13.2966 20.8299 13.0061 20.5867 12.9794 20.2553L12.9289 19.6281C12.5602 19.6293 12.1918 19.5999 11.8278 19.54L11.6605 20.1495C11.5721 20.4716 11.2403 20.6647 10.9195 20.5808C10.5986 20.4969 10.4102 20.1679 10.4986 19.8458L10.6656 19.2372C10.3227 19.1133 9.98831 18.9598 9.66644 18.7769L9.30207 19.2946C9.10926 19.5685 8.73306 19.6374 8.4618 19.4485C8.19054 19.2595 8.12693 18.8842 8.31973 18.6103L8.68488 18.0915C8.54621 17.9742 8.41132 17.8503 8.28064 17.7196C8.14992 17.5889 8.02593 17.4539 7.90865 17.3152L7.38984 17.6804C7.11588 17.8732 6.74062 17.8095 6.55166 17.5383C6.36269 17.267 6.43159 16.8908 6.70554 16.698L7.22328 16.3336C7.04034 16.0118 6.88691 15.6775 6.76297 15.3346L6.15424 15.5016C5.83218 15.59 5.50311 15.4016 5.41924 15.0808C5.33537 14.7599 5.52846 14.4282 5.85052 14.3398L6.46023 14.1724C6.40028 13.8085 6.37092 13.4402 6.37211 13.0716L5.74445 13.0211C5.41313 12.9944 5.16994 12.7039 5.20128 12.3721C5.23262 12.0404 5.52662 11.7931 5.85794 11.8198L6.48496 11.8702C6.5524 11.5078 6.65005 11.1494 6.77788 10.7993L6.21004 10.5377C5.90942 10.3991 5.78146 10.0415 5.92422 9.73894C6.06699 9.43634 6.42643 9.30332 6.72705 9.44184L7.29484 9.70347C7.4807 9.38732 7.6946 9.08287 7.93652 8.79376L7.49447 8.3517C7.2608 8.11804 7.26349 7.73651 7.50047 7.49953C7.73744 7.26256 8.11897 7.25987 8.35264 7.49353L8.7947 7.93559C9.08381 7.69368 9.38825 7.4798 9.70437 7.29397L9.44283 6.72635C9.30431 6.42573 9.43732 6.06629 9.73992 5.92352C10.0425 5.78075 10.4001 5.90872 10.5386 6.20934L10.8002 6.77704C11.1503 6.64924 11.5085 6.55161 11.8709 6.48418L11.8204 5.85744C11.7938 5.52612 12.0411 5.23213 12.3728 5.20079C12.7045 5.16945 12.9951 5.41263 13.0217 5.74396L13.0722 6.37126C13.4408 6.37004 13.8091 6.39938 14.1728 6.45929L14.3399 5.85043C14.4283 5.52837 14.76 5.33527 15.0809 5.41912C15.4017 5.50298 15.5902 5.83204 15.5018 6.15411L15.335 6.76201C15.678 6.88599 16.0124 7.03945 16.3343 7.22237L16.6981 6.70547C16.8909 6.43152 17.2671 6.36263 17.5384 6.55159C17.8096 6.74055 17.8732 7.11582 17.6804 7.38977L17.316 7.90761C17.4548 8.02493 17.5898 8.14896 17.7205 8.2797C17.8512 8.41043 17.9752 8.54538 18.0925 8.6841L18.6104 8.31966C18.8843 8.12686 19.2596 8.19046 19.4485 8.46173C19.6375 8.73299 19.5686 9.10919 19.2947 9.30199L18.7779 9.66569C18.9609 9.98766 19.1144 10.3221 19.2383 10.6652L19.8459 10.4984C20.168 10.41 20.497 10.5985 20.5809 10.9193C20.6648 11.2401 20.4717 11.5719 20.1496 11.6603L19.541 11.8274C19.6009 12.1913 19.6303 12.5596 19.629 12.9283L20.2558 12.9788C20.5872 13.0054 20.8303 13.296 20.799 13.6277C20.7677 13.9594 20.4737 14.2067 20.1424 14.1801L19.5161 14.1297C19.4486 14.4919 19.351 14.85 19.2233 15.1999L19.7909 15.4614C20.0915 15.5999 20.2195 15.9575 20.0767 16.2601C19.9339 16.5627 19.5745 16.6957 19.2739 16.5572L18.7064 16.2957C18.5205 16.6119 18.3066 16.9164 18.0646 17.2055L18.5067 17.6476C18.7403 17.8812 18.7377 18.2628 18.5007 18.4997Z" fill="currentColor"/>
<defs>
<linearGradient id="paint0_linear_657_2812_custom_id" x1="0" y1="0" x2="26" y2="26" gradientUnits="userSpaceOnUse">
<stop stop-color="currentColor"/>
<stop offset="1" stop-color="currentColor" stop-opacity="0"/>
</linearGradient>
</defs>
</svg>
