<svg width="24" height="25" viewBox="0 0 24 25" fill="none" xmlns="http://www.w3.org/2000/svg">
<path d="M12 9.10325C11.156 9.09932 10.3292 9.34133 9.62055 9.79969C8.9119 10.2581 8.35211 10.9129 8.0096 11.6843C7.66709 12.4556 7.55669 13.31 7.69189 14.1431C7.82709 14.9762 8.20204 15.7518 8.77091 16.3752C7.45553 16.989 6.34233 17.965 5.56176 19.1888C4.78119 20.4126 4.36558 21.8335 4.36364 23.2851C4.36364 23.5744 4.47857 23.8519 4.68316 24.0565C4.88774 24.261 5.16522 24.376 5.45455 24.376H18.5455C18.8348 24.376 19.1123 24.261 19.3168 24.0565C19.5214 23.8519 19.6364 23.5744 19.6364 23.2851C19.6344 21.8335 19.2188 20.4126 18.4382 19.1888C17.6577 17.965 16.5445 16.989 15.2291 16.3752C15.798 15.7518 16.1729 14.9762 16.3081 14.1431C16.4433 13.31 16.3329 12.4556 15.9904 11.6843C15.6479 10.9129 15.0881 10.2581 14.3794 9.79969C13.6708 9.34133 12.844 9.09932 12 9.10325V9.10325ZM12 11.2851C12.4315 11.2851 12.8534 11.413 13.2122 11.6528C13.571 11.8925 13.8506 12.2333 14.0157 12.6319C14.1809 13.0306 14.2241 13.4693 14.1399 13.8925C14.0557 14.3158 13.8479 14.7045 13.5428 15.0097C13.2376 15.3148 12.8489 15.5226 12.4257 15.6068C12.0024 15.691 11.5637 15.6478 11.1651 15.4826C10.7664 15.3175 10.4256 15.0378 10.1859 14.679C9.94614 14.3202 9.81818 13.8984 9.81818 13.4669C9.81818 12.8882 10.0481 12.3333 10.4572 11.9241C10.8664 11.5149 11.4213 11.2851 12 11.2851V11.2851ZM17.3455 22.1942H6.65455C6.90493 20.9611 7.57389 19.8526 8.54808 19.0563C9.52228 18.26 10.7418 17.8251 12 17.8251C13.2582 17.8251 14.4777 18.26 15.4519 19.0563C16.4261 19.8526 17.0951 20.9611 17.3455 22.1942V22.1942ZM12 6.92143C11.7107 6.92143 11.4332 6.8065 11.2286 6.60191C11.024 6.39733 10.9091 6.11985 10.9091 5.83052V1.46689C10.9091 1.17756 11.024 0.900082 11.2286 0.695496C11.4332 0.490911 11.7107 0.375977 12 0.375977C12.2893 0.375977 12.5668 0.490911 12.7714 0.695496C12.976 0.900082 13.0909 1.17756 13.0909 1.46689V5.83052C13.0909 6.11985 12.976 6.39733 12.7714 6.60191C12.5668 6.8065 12.2893 6.92143 12 6.92143ZM17.0182 8.99416C16.8037 8.99327 16.5943 8.9292 16.4161 8.80995C16.2378 8.6907 16.0987 8.52156 16.0161 8.32368C15.9334 8.1258 15.9109 7.90794 15.9514 7.69735C15.9919 7.48675 16.0935 7.29276 16.2436 7.13961L19.3287 4.05343C19.4294 3.94924 19.5497 3.86613 19.6828 3.80896C19.8159 3.75178 19.9591 3.72169 20.1039 3.72043C20.2488 3.71917 20.3924 3.74677 20.5265 3.80163C20.6606 3.85648 20.7824 3.93748 20.8848 4.03991C20.9872 4.14234 21.0682 4.26414 21.1231 4.39821C21.1779 4.53228 21.2055 4.67593 21.2043 4.82078C21.203 4.96563 21.1729 5.10878 21.1157 5.24187C21.0586 5.37497 20.9755 5.49534 20.8713 5.59598L17.7818 8.67889C17.5784 8.88003 17.3042 8.99324 17.0182 8.99416ZM7.75636 8.67889C7.55179 8.8834 7.27436 8.99829 6.98509 8.99829C6.69582 8.99829 6.41839 8.8834 6.21382 8.67889L3.12873 5.5927C2.93001 5.38696 2.82005 5.11139 2.82254 4.82536C2.82502 4.53932 2.93975 4.26571 3.14202 4.06345C3.34428 3.86118 3.61789 3.74645 3.90393 3.74397C4.18996 3.74148 4.46552 3.85144 4.67127 4.05016L7.75636 7.13961C7.95988 7.34405 8.07413 7.62078 8.07413 7.90925C8.07413 8.19772 7.95988 8.47445 7.75636 8.67889ZM24 13.4669C24 13.7562 23.8851 14.0337 23.6805 14.2383C23.4759 14.4429 23.1984 14.5578 22.9091 14.5578H19.0909C18.8016 14.5578 18.5241 14.4429 18.3195 14.2383C18.1149 14.0337 18 13.7562 18 13.4669C18 13.1776 18.1149 12.9001 18.3195 12.6955C18.5241 12.4909 18.8016 12.376 19.0909 12.376H22.9091C23.1984 12.376 23.4759 12.4909 23.6805 12.6955C23.8851 12.9001 24 13.1776 24 13.4669ZM0 13.4669C0 13.1776 0.114935 12.9001 0.31952 12.6955C0.524105 12.4909 0.801582 12.376 1.09091 12.376H4.90909C5.19842 12.376 5.47589 12.4909 5.68048 12.6955C5.88507 12.9001 6 13.1776 6 13.4669C6 13.7562 5.88507 14.0337 5.68048 14.2383C5.47589 14.4429 5.19842 14.5578 4.90909 14.5578H1.09091C0.801582 14.5578 0.524105 14.4429 0.31952 14.2383C0.114935 14.0337 0 13.7562 0 13.4669Z" fill="url(#paint0_linear_2430_5175)"/>
<defs>
<linearGradient id="paint0_linear_2430_5175" x1="3.5" y1="25.876" x2="26.5" y2="-0.124024" gradientUnits="userSpaceOnUse">
<stop stop-color="#01C95C"/>
<stop offset="1" stop-color="#B1FF0D"/>
</linearGradient>
</defs>
</svg>
