<svg width="100%" height="100%" viewBox="0 0 19 26" fill="none" xmlns="http://www.w3.org/2000/svg">
<path d="M9.04346 0C4.04889 0 0 4.0489 0 9.04346C0 11.8548 1.28413 14.3671 3.29361 16.024C4.87966 17.3317 6.02897 18.7542 6.02897 20.2811V21.2525C6.02897 21.7736 6.38506 22.2271 6.89119 22.3507C7.58213 22.5195 8.30314 22.6087 9.04346 22.6087C9.78378 22.6087 10.5048 22.5195 11.1957 22.3507C11.7019 22.2271 12.0579 21.7736 12.0579 21.2525V20.2811C12.0579 18.7542 13.2073 17.3317 14.7933 16.024C16.8028 14.3671 18.0869 11.8548 18.0869 9.04346C18.0869 4.0489 14.038 0 9.04346 0Z" fill="url(#paint0_linear_658_3444_custom_id)"/>
<path d="M7.32975 23.6102C6.71252 23.5163 6.1361 23.9407 6.04229 24.5579C5.94847 25.1751 6.37279 25.7515 6.99002 25.8454C7.66045 25.9473 8.3464 26 9.04394 26C9.74148 26 10.4274 25.9473 11.0979 25.8454C11.7151 25.7515 12.1394 25.1751 12.0456 24.5579C11.9518 23.9407 11.3754 23.5163 10.7581 23.6102C10.1998 23.695 9.62736 23.7391 9.04394 23.7391C8.46052 23.7391 7.88813 23.695 7.32975 23.6102Z" fill="currentColor"/>
<defs>
<linearGradient id="paint0_linear_658_3444_custom_id" x1="0" y1="0" x2="18.0869" y2="22.6087" gradientUnits="userSpaceOnUse">
<stop stop-color="currentColor"/>
<stop offset="1" stop-color="currentColor" stop-opacity="0"/>
</linearGradient>
</defs>
</svg>
