<svg width="24" height="24" viewBox="0 0 24 24" fill="none" xmlns="http://www.w3.org/2000/svg">
<path d="M12 8.72727C11.156 8.72335 10.3292 8.96535 9.62055 9.42371C8.9119 9.88207 8.35211 10.5369 8.0096 11.3083C7.66709 12.0796 7.55668 12.934 7.69189 13.7671C7.82709 14.6002 8.20203 15.3758 8.77091 15.9993C7.45553 16.6131 6.34233 17.589 5.56176 18.8128C4.78119 20.0366 4.36558 21.4576 4.36364 22.9091C4.36364 23.1984 4.47857 23.4759 4.68316 23.6805C4.88774 23.8851 5.16522 24 5.45455 24H18.5455C18.8348 24 19.1123 23.8851 19.3168 23.6805C19.5214 23.4759 19.6364 23.1984 19.6364 22.9091C19.6344 21.4576 19.2188 20.0366 18.4382 18.8128C17.6577 17.589 16.5445 16.6131 15.2291 15.9993C15.798 15.3758 16.1729 14.6002 16.3081 13.7671C16.4433 12.934 16.3329 12.0796 15.9904 11.3083C15.6479 10.5369 15.0881 9.88207 14.3794 9.42371C13.6708 8.96535 12.844 8.72335 12 8.72727ZM12 10.9091C12.4315 10.9091 12.8534 11.0371 13.2122 11.2768C13.571 11.5165 13.8506 11.8573 14.0157 12.256C14.1809 12.6546 14.2241 13.0933 14.1399 13.5166C14.0557 13.9398 13.8479 14.3286 13.5428 14.6337C13.2376 14.9388 12.8489 15.1466 12.4257 15.2308C12.0024 15.315 11.5637 15.2718 11.1651 15.1066C10.7664 14.9415 10.4256 14.6619 10.1859 14.3031C9.94614 13.9443 9.81818 13.5224 9.81818 13.0909C9.81818 12.5123 10.0481 11.9573 10.4572 11.5481C10.8664 11.139 11.4213 10.9091 12 10.9091ZM17.3455 21.8182H6.65455C6.90493 20.5851 7.57389 19.4766 8.54808 18.6803C9.52228 17.8841 10.7418 17.4491 12 17.4491C13.2582 17.4491 14.4777 17.8841 15.4519 18.6803C16.4261 19.4766 17.0951 20.5851 17.3455 21.8182ZM12 6.54545C11.7107 6.54545 11.4332 6.43052 11.2286 6.22593C11.024 6.02135 10.9091 5.74387 10.9091 5.45455V1.09091C10.9091 0.801582 11.024 0.524105 11.2286 0.31952C11.4332 0.114935 11.7107 0 12 0C12.2893 0 12.5668 0.114935 12.7714 0.31952C12.976 0.524105 13.0909 0.801582 13.0909 1.09091V5.45455C13.0909 5.74387 12.976 6.02135 12.7714 6.22593C12.5668 6.43052 12.2893 6.54545 12 6.54545ZM17.0182 8.61818C16.8037 8.61729 16.5943 8.55322 16.4161 8.43397C16.2378 8.31472 16.0987 8.14559 16.0161 7.9477C15.9334 7.74982 15.9109 7.53197 15.9514 7.32137C15.9919 7.11078 16.0935 6.91678 16.2436 6.76364L19.3287 3.67745C19.4294 3.57326 19.5497 3.49015 19.6828 3.43298C19.8159 3.37581 19.9591 3.34571 20.1039 3.34445C20.2488 3.3432 20.3924 3.3708 20.5265 3.42565C20.6606 3.4805 20.7824 3.5615 20.8848 3.66393C20.9872 3.76636 21.0682 3.88816 21.1231 4.02223C21.1779 4.1563 21.2055 4.29995 21.2043 4.4448C21.203 4.58965 21.1729 4.7328 21.1157 4.8659C21.0586 4.99899 20.9755 5.11937 20.8713 5.22L17.7818 8.30291C17.5784 8.50405 17.3042 8.61727 17.0182 8.61818ZM7.75636 8.30291C7.55179 8.50742 7.27436 8.62231 6.98509 8.62231C6.69582 8.62231 6.41839 8.50742 6.21382 8.30291L3.12873 5.21673C2.93001 5.01098 2.82005 4.73541 2.82254 4.44938C2.82502 4.16335 2.93975 3.88973 3.14202 3.68747C3.34428 3.48521 3.61789 3.37048 3.90393 3.36799C4.18996 3.36551 4.46553 3.47546 4.67127 3.67418L7.75636 6.76364C7.95988 6.96808 8.07413 7.2448 8.07413 7.53327C8.07413 7.82174 7.95988 8.09847 7.75636 8.30291ZM24 13.0909C24 13.3802 23.8851 13.6577 23.6805 13.8623C23.4759 14.0669 23.1984 14.1818 22.9091 14.1818H19.0909C18.8016 14.1818 18.5241 14.0669 18.3195 13.8623C18.1149 13.6577 18 13.3802 18 13.0909C18 12.8016 18.1149 12.5241 18.3195 12.3195C18.5241 12.1149 18.8016 12 19.0909 12H22.9091C23.1984 12 23.4759 12.1149 23.6805 12.3195C23.8851 12.5241 24 12.8016 24 13.0909ZM0 13.0909C0 12.8016 0.114935 12.5241 0.31952 12.3195C0.524105 12.1149 0.801582 12 1.09091 12H4.90909C5.19842 12 5.47589 12.1149 5.68048 12.3195C5.88507 12.5241 6 12.8016 6 13.0909C6 13.3802 5.88507 13.6577 5.68048 13.8623C5.47589 14.0669 5.19842 14.1818 4.90909 14.1818H1.09091C0.801582 14.1818 0.524105 14.0669 0.31952 13.8623C0.114935 13.6577 0 13.3802 0 13.0909Z" fill="url(#paint0_linear_2360_8139)"/>
<defs>
<linearGradient id="paint0_linear_2360_8139" x1="3.5" y1="25.5" x2="26.5" y2="-0.5" gradientUnits="userSpaceOnUse">
<stop stop-color="#96FBC4"/>
<stop offset="1" stop-color="#F9F586"/>
</linearGradient>
</defs>
</svg>
