<svg width="100%" height="100%" viewBox="0 0 25 25" fill="none" xmlns="http://www.w3.org/2000/svg">
<g filter="url(#filter0_b_644_260)">
<path fill-rule="evenodd" clip-rule="evenodd" d="M16.2344 12.8906C15.6821 12.8906 15.2344 13.3383 15.2344 13.8906V18.1406C15.2344 18.6929 15.6821 19.1406 16.2344 19.1406H23.2188C23.771 19.1406 24.2188 18.6929 24.2188 18.1406V13.8906C24.2188 13.3383 23.771 12.8906 23.2188 12.8906H16.2344ZM18.3594 17.1875C19.0066 17.1875 19.5312 16.6628 19.5312 16.0156C19.5312 15.3684 19.0066 14.8438 18.3594 14.8438C17.7122 14.8438 17.1875 15.3684 17.1875 16.0156C17.1875 16.6628 17.7122 17.1875 18.3594 17.1875Z" fill="url(#paint0_linear_644_260_custom_id)"/>
</g>
<rect y="8.39844" width="16.7969" height="12.966" rx="2" transform="rotate(-30 0 8.39844)" fill="url(#paint1_linear_644_260_custom_id)"/>
<rect y="8.10645" width="19.5312" height="15.0768" rx="2" transform="rotate(-15 0 8.10645)" fill="url(#paint2_linear_644_260_custom_id)"/>
<g filter="url(#filter1_b_644_260_custom_id)">
<path fill-rule="evenodd" clip-rule="evenodd" d="M2 7.8125C0.89543 7.8125 0 8.70793 0 9.8125V23C0 24.1046 0.89543 25 2 25H20.2656C21.3702 25 22.2656 24.1046 22.2656 23V9.8125C22.2656 8.70793 21.3702 7.8125 20.2656 7.8125H2ZM18.3594 17.1875C19.0066 17.1875 19.5312 16.6628 19.5312 16.0156C19.5312 15.3684 19.0066 14.8438 18.3594 14.8438C17.7122 14.8438 17.1875 15.3684 17.1875 16.0156C17.1875 16.6628 17.7122 17.1875 18.3594 17.1875Z" fill="url(#paint3_linear_644_260_custom_id)"/>
</g>
<defs>
<filter id="filter0_b_644_260" x="0.234375" y="-2.10938" width="38.9844" height="36.25" filterUnits="userSpaceOnUse" color-interpolation-filters="sRGB">
<feFlood flood-opacity="0" result="BackgroundImageFix"/>
<feGaussianBlur in="BackgroundImageFix" stdDeviation="7.5"/>
<feComposite in2="SourceAlpha" operator="in" result="effect1_backgroundBlur_644_260"/>
<feBlend mode="normal" in="SourceGraphic" in2="effect1_backgroundBlur_644_260" result="shape"/>
</filter>
<filter id="filter1_b_644_260_custom_id" x="-15" y="-7.1875" width="52.2656" height="47.1875" filterUnits="userSpaceOnUse" color-interpolation-filters="sRGB">
<feFlood flood-opacity="0" result="BackgroundImageFix"/>
<feGaussianBlur in="BackgroundImageFix" stdDeviation="7.5"/>
<feComposite in2="SourceAlpha" operator="in" result="effect1_backgroundBlur_644_260"/>
<feBlend mode="normal" in="SourceGraphic" in2="effect1_backgroundBlur_644_260" result="shape"/>
</filter>
<linearGradient id="paint0_linear_644_260_custom_id" x1="15.2344" y1="12.8906" x2="25.1241" y2="16.9313" gradientUnits="userSpaceOnUse">
<stop stop-color="currentColor"/>
<stop offset="1" stop-color="currentColor"/>
</linearGradient>
<linearGradient id="paint1_linear_644_260_custom_id" x1="0" y1="8.39844" x2="19.0001" y2="15.3943" gradientUnits="userSpaceOnUse">
<stop stop-color="currentColor" stop-opacity="0.4"/>
<stop offset="1" stop-color="currentColor" stop-opacity="0"/>
</linearGradient>
<linearGradient id="paint2_linear_644_260_custom_id" x1="0" y1="8.10645" x2="22.0931" y2="16.2411" gradientUnits="userSpaceOnUse">
<stop stop-color="currentColor" stop-opacity="0.6"/>
<stop offset="1" stop-color="currentColor" stop-opacity="0"/>
<stop offset="1" stop-color="currentColor" stop-opacity="0"/>
</linearGradient>
<linearGradient id="paint3_linear_644_260_custom_id" x1="0" y1="7.8125" x2="25.1861" y2="17.0861" gradientUnits="userSpaceOnUse">
<stop stop-color="currentColor"/>
<stop offset="1" stop-color="currentColor" stop-opacity="0"/>
</linearGradient>
</defs>
</svg>
