<svg width="25" height="23" viewBox="0 0 25 23" fill="none" xmlns="http://www.w3.org/2000/svg">
<path fill-rule="evenodd" clip-rule="evenodd" d="M13.1675 1.89924L14.7623 1.11945C15.4981 0.759802 16.3878 1.04796 16.7717 1.77275L17.6043 3.34112C17.8242 3.75466 18.2224 4.04392 18.6843 4.12531L20.4331 4.43216C21.2403 4.57404 21.7892 5.32963 21.6748 6.14131L21.4262 7.89886C21.3602 8.36299 21.5131 8.83152 21.8386 9.16807L23.0727 10.4439C23.6424 11.0323 23.6424 11.9672 23.0727 12.5567L21.8386 13.8325C21.5131 14.169 21.3602 14.6376 21.4262 15.1017L21.6748 16.8592C21.7892 17.6709 21.2403 18.4265 20.4331 18.5684L18.6843 18.8752C18.2224 18.9566 17.8242 19.2459 17.6043 19.6594L16.7717 21.2278C16.3878 21.9515 15.4992 22.2408 14.7623 21.8811L13.1675 21.1013C12.7463 20.8956 12.2546 20.8956 11.8334 21.1013L10.2386 21.8811C9.50285 22.2408 8.61308 21.9526 8.22924 21.2278L7.39666 19.6583C7.17669 19.2448 6.77855 18.9555 6.31662 18.8741L4.56788 18.5673C3.7606 18.4254 3.21178 17.6698 3.32616 16.8581L3.57472 15.1006C3.64071 14.6365 3.48784 14.1679 3.16228 13.8314L1.92826 12.5556C1.35855 11.9672 1.35855 11.0323 1.92826 10.4428L3.16228 9.16697C3.48784 8.83042 3.64071 8.36189 3.57472 7.89776L3.32726 6.14021C3.21178 5.32963 3.7617 4.57294 4.56898 4.43216L6.31772 4.12531C6.77855 4.04392 7.17669 3.75466 7.39666 3.34112L8.22924 1.77275C8.61308 1.04906 9.50175 0.759802 10.2386 1.11945L11.8334 1.89924C12.2535 2.10491 12.7463 2.10491 13.1675 1.89924Z" stroke="#E6E2E8" stroke-width="1.5" stroke-linecap="round" stroke-linejoin="round"/>
<path d="M8.5 12.5V10.5H16.5V12.5H8.5Z" fill="#E6E2E8"/>
</svg>
