<svg xmlns="http://www.w3.org/2000/svg" width="215.099" height="214.568" viewBox="0 0 215.099 214.568">
    <defs>
        <style>
            .cls-2{fill:#fff}
        </style>
    </defs>
    <g id="Component_1302_2">
        <g id="Component_1227_6">
            <g id="Component_1115_234">
                <g id="Component_1118_1">
                    <g id="Group_13532" transform="rotate(63 224.188 172.867)">
                        <path id="Path_21996" fill="#565bdb" d="M176.438 294.163a79.66 79.66 0 1 0-20.285 18.946l23.357 13.34a5.42 5.42 0 0 0 7.686-6.794z"/>
                    </g>
                </g>
            </g>
        </g>
        <g id="Component_1301_1" transform="translate(71.474 79.711)">
            <path id="Path_22264" d="M71.113 54.635L36.972 42.589a2.124 2.124 0 0 0-1.414 0L1.418 54.635a2.125 2.125 0 0 0 0 4.006l34.14 12.137a2.123 2.123 0 0 0 1.423 0l34.14-12.137a2.125 2.125 0 0 0 0-4.006z" class="cls-2" transform="translate(0 -42.468)"/>
            <path id="Path_22265" d="M437.24 216.269v-18.535l-4.25 1.511v17.024a4.267 4.267 0 0 0 0 7.4v10.443a2.125 2.125 0 1 0 4.25 0V223.67a4.267 4.267 0 0 0 0-7.4z" class="cls-2" transform="translate(-369.814 -175.738)"/>
            <path id="Path_22266" d="M126.772 229.6a6.36 6.36 0 0 1-2.135-.368l-19.193-6.823v9.351c0 2.288 2.387 4.222 7.093 5.75a50.094 50.094 0 0 0 28.469 0c4.707-1.528 7.093-3.462 7.093-5.75v-9.351l-19.193 6.823a6.361 6.361 0 0 1-2.134.368z" class="cls-2" transform="translate(-90.507 -196.915)"/>
        </g>
    </g>
</svg>
