<svg xmlns="http://www.w3.org/2000/svg" width="215.099" height="214.568" viewBox="0 0 215.099 214.568">
    <defs>
        <style>
            .cls-3{fill:#fff}
        </style>
    </defs>
    <g id="Component_1302_1">
        <g id="Component_1227_6">
            <g id="Component_1115_234">
                <g id="Component_1118_1">
                    <g id="Group_13532" transform="rotate(63 224.188 172.867)">
                        <path id="Path_21996" fill="#565bdb" d="M176.438 294.163a79.66 79.66 0 1 0-20.285 18.946l23.357 13.34a5.42 5.42 0 0 0 7.686-6.794z"/>
                    </g>
                </g>
            </g>
            <g id="Component_1172_82" transform="translate(147.577 19.809)">
                <g id="Group_13511">
                    <path id="Ver_Icon" fill="#03d898" d="M-3407.05 7297.948v-.059c0-.623-.056-1.312-.056-2.055a7.009 7.009 0 0 0-6.6-6.859c-7.6-.418-13.5-2.885-18.517-7.812l-.043-.043a4.24 4.24 0 0 0-5.747 0l-.039.043c-5.047 4.891-10.931 7.385-18.548 7.813a6.986 6.986 0 0 0-6.6 6.859c0 .713 0 1.445-.057 2.055v.125c-.153 7.764-.333 17.418 2.88 26.18a33.227 33.227 0 0 0 8.021 12.438 41.823 41.823 0 0 0 15.639 9.254 4.852 4.852 0 0 0 .644.166 4.661 4.661 0 0 0 1.86 0 4.8 4.8 0 0 0 .64-.166 41.885 41.885 0 0 0 15.629-9.262 33.368 33.368 0 0 0 8.02-12.457c3.224-8.776 3.024-18.419 2.874-26.22z" transform="translate(3463.318 -7279.998)"/>
                </g>
                <path id="Path_21987" d="M197 303.749l-2.938-2.938a.888.888 0 0 0-1.285 0l-6.059 6.059-6.977 6.977-5.324-5.325a.887.887 0 0 0-1.285 0l-2.938 2.938a.887.887 0 0 0 0 1.285l8.813 8.813a.888.888 0 0 0 1.285 0l16.524-16.524a.776.776 0 0 0 .184-1.285z" class="cls-3" transform="translate(-154.827 -277.498)"/>
            </g>
        </g>
        <g id="Component_1301_1" transform="translate(71.474 79.711)">
            <path id="Path_22264" d="M71.113 54.635L36.972 42.589a2.124 2.124 0 0 0-1.414 0L1.418 54.635a2.125 2.125 0 0 0 0 4.006l34.14 12.137a2.123 2.123 0 0 0 1.423 0l34.14-12.137a2.125 2.125 0 0 0 0-4.006z" class="cls-3" transform="translate(0 -42.468)"/>
            <path id="Path_22265" d="M437.24 216.269v-18.535l-4.25 1.511v17.024a4.267 4.267 0 0 0 0 7.4v10.443a2.125 2.125 0 1 0 4.25 0V223.67a4.267 4.267 0 0 0 0-7.4z" class="cls-3" transform="translate(-369.814 -175.738)"/>
            <path id="Path_22266" d="M126.772 229.6a6.36 6.36 0 0 1-2.135-.368l-19.193-6.823v9.351c0 2.288 2.387 4.222 7.093 5.75a50.094 50.094 0 0 0 28.469 0c4.707-1.528 7.093-3.462 7.093-5.75v-9.351l-19.193 6.823a6.361 6.361 0 0 1-2.134.368z" class="cls-3" transform="translate(-90.507 -196.915)"/>
        </g>
    </g>
</svg>
