<svg xmlns="http://www.w3.org/2000/svg" width="215.099" height="214.568" viewBox="0 0 215.099 214.568">
    <defs>
        <style>
            .cls-2{fill:#fff}
        </style>
    </defs>
    <g id="Component_1304_2">
        <g id="Component_1228_6">
            <g id="Component_1115_236">
                <g id="Component_1118_1">
                    <g id="Group_13532" transform="rotate(63 224.188 172.867)">
                        <path id="Path_21996" fill="#565bdb" d="M176.438 294.163a79.66 79.66 0 1 0-20.285 18.946l23.357 13.34a5.42 5.42 0 0 0 7.686-6.794z"/>
                    </g>
                </g>
            </g>
        </g>
        <g id="Component_1303_1" transform="translate(71.157 79.314)">
            <g id="Group_13728">
                <path id="Path_22279" d="M37.408 35.049H37.4a2.545 2.545 0 0 0-1.809.75 2.571 2.571 0 0 0-.76 1.833v38.721a2.591 2.591 0 0 0 2.586 2.582c6.011.014 16.081 1.267 23.028 8.537V46.948a2.474 2.474 0 0 0-.355-1.308c-5.7-9.182-16.657-10.577-22.682-10.591z" class="cls-2" transform="translate(-26.369 -35.049)"/>
                <path id="Path_22280" d="M182.364 76.352V37.63a2.571 2.571 0 0 0-.76-1.833 2.546 2.546 0 0 0-1.809-.75h-.006c-6.024.014-16.981 1.41-22.684 10.592a2.474 2.474 0 0 0-.355 1.308v40.524c6.947-7.27 17.017-8.523 23.028-8.537a2.591 2.591 0 0 0 2.586-2.582z" class="cls-2" transform="translate(-118.664 -35.048)"/>
                <path id="Path_22281" d="M199.4 71.8h-1.872v32.374a6.607 6.607 0 0 1-6.585 6.591c-5.1.012-13.5 1.009-19.458 6.644 10.3-2.521 21.152-.882 27.338.528a2.582 2.582 0 0 0 3.16-2.516V74.383A2.585 2.585 0 0 0 199.4 71.8z" class="cls-2" transform="translate(-129.816 -62.871)"/>
                <path id="Path_22282" d="M4.454 104.175V71.8H2.582A2.585 2.585 0 0 0 0 74.383v41.038a2.582 2.582 0 0 0 3.16 2.516c6.186-1.41 17.041-3.049 27.337-.528-5.953-5.635-14.36-6.631-19.458-6.643a6.606 6.606 0 0 1-6.585-6.591z" class="cls-2" transform="translate(0 -62.871)"/>
            </g>
        </g>
    </g>
</svg>
