<svg xmlns="http://www.w3.org/2000/svg" width="215.099" height="214.568" viewBox="0 0 215.099 214.568">
    <g>
        <g>
            <g>
                <g>
                    <path fill="#565bdb" d="M176.438 294.163a79.66 79.66 0 1 0-20.285 18.946l23.357 13.34a5.42 5.42 0 0 0 7.686-6.794z" transform="rotate(63 224.188 172.867)"/>
                </g>
            </g>
            <g>
                <g>
                    <path fill="#fff" d="M92.616 0a21.874 21.874 0 0 0-22.043 21.651c0 14.816 19.727 36.566 20.567 37.485a2.01 2.01 0 0 0 2.954 0c.84-.919 20.567-22.669 20.567-37.485A21.875 21.875 0 0 0 92.616 0zm0 32.544a11.006 11.006 0 0 1-11.09-10.893 11.092 11.092 0 0 1 22.181 0 11.005 11.005 0 0 1-11.091 10.893z" transform="translate(87.123 77.539) translate(-70.573)"/>
                </g>
            </g>
        </g>
    </g>
</svg>
