<svg xmlns="http://www.w3.org/2000/svg" id="Component_1313_2" width="215.099" height="214.568" viewBox="0 0 215.099 214.568">
    <defs>
        <style>
            .cls-2{fill:#fff}
        </style>
    </defs>
    <g id="Component_1228_5">
        <g id="Component_1115_236">
            <g id="Component_1118_1">
                <g id="Group_13532" transform="rotate(63 224.188 172.867)">
                    <path id="Path_21996" fill="#565bdb" d="M176.438 294.163a79.66 79.66 0 1 0-20.285 18.946l23.357 13.34a5.42 5.42 0 0 0 7.686-6.794z"/>
                </g>
            </g>
        </g>
    </g>
    <g id="Component_1312_1" transform="translate(79.982 75.002)">
        <g id="Group_13725">
            <g id="Group_13724">
                <path id="Path_22277" d="M87.429 5.194C84.218 1.558 78.409 0 70.976 0H49.408a3.086 3.086 0 0 0-3.051 2.582l-8.981 56.51a1.842 1.842 0 0 0 1.824 2.122h13.319l3.344-21.044-.1.663A3.074 3.074 0 0 1 58.8 38.25h6.326c12.433 0 22.163-5.009 25.007-19.5.086-.43.219-1.257.219-1.257.812-5.361-.001-8.993-2.923-12.299z" class="cls-2" transform="translate(-37.352)"/>
            </g>
        </g>
        <g id="Group_13727" transform="translate(17.869 20.238)">
            <g id="Group_13726">
                <path id="Path_22278" d="M208.728 150.5c-3.09 14.266-12.949 21.815-28.6 21.815h-5.668l-4.235 26.8h9.2a2.694 2.694 0 0 0 2.668-2.264l.108-.568 2.117-13.3.138-.732a2.693 2.693 0 0 1 2.664-2.264h1.68c10.875 0 19.387-4.381 21.875-17.055 1.001-5.09.519-9.355-1.947-12.432z" class="cls-2" transform="translate(-170.225 -150.496)"/>
            </g>
        </g>
    </g>
</svg>
