<svg xmlns="http://www.w3.org/2000/svg" id="Component_1298_1" width="215.099" height="214.568" viewBox="0 0 215.099 214.568">
    <defs>
        <style>
            .cls-3{fill:#fff}
        </style>
    </defs>
    <g id="Component_1231_3">
        <g id="Component_1115_239">
            <g id="Component_1118_1">
                <g id="Group_13532" transform="rotate(63 224.188 172.867)">
                    <path id="Path_21996" fill="#565bdb" d="M176.438 294.163a79.66 79.66 0 1 0-20.285 18.946l23.357 13.34a5.42 5.42 0 0 0 7.686-6.794z"/>
                </g>
            </g>
        </g>
        <g id="Component_1172_87" transform="translate(147.577 19.809)">
            <g id="Group_13511">
                <path id="Ver_Icon" fill="#03d898" d="M-3407.05 7297.948v-.059c0-.623-.056-1.312-.056-2.055a7.009 7.009 0 0 0-6.6-6.859c-7.6-.418-13.5-2.885-18.517-7.812l-.043-.043a4.24 4.24 0 0 0-5.747 0l-.039.043c-5.047 4.891-10.931 7.385-18.548 7.813a6.986 6.986 0 0 0-6.6 6.859c0 .713 0 1.445-.057 2.055v.125c-.153 7.764-.333 17.418 2.88 26.18a33.227 33.227 0 0 0 8.021 12.438 41.823 41.823 0 0 0 15.639 9.254 4.852 4.852 0 0 0 .644.166 4.661 4.661 0 0 0 1.86 0 4.8 4.8 0 0 0 .64-.166 41.885 41.885 0 0 0 15.629-9.262 33.368 33.368 0 0 0 8.02-12.457c3.224-8.776 3.024-18.419 2.874-26.22z" transform="translate(3463.318 -7279.998)"/>
            </g>
            <path id="Path_21987" d="M197 303.749l-2.938-2.938a.888.888 0 0 0-1.285 0l-6.059 6.059-6.977 6.977-5.324-5.325a.887.887 0 0 0-1.285 0l-2.938 2.938a.887.887 0 0 0 0 1.285l8.813 8.813a.888.888 0 0 0 1.285 0l16.524-16.524a.776.776 0 0 0 .184-1.285z" class="cls-3" transform="translate(-154.827 -277.498)"/>
        </g>
    </g>
    <g id="Component_1297_1" transform="translate(73.1 74.967)">
        <path id="Path_22258" d="M67.9 64.473c-9.259-1.524-13.432-11.008-13.6-11.41a.653.653 0 0 0-.039-.078 2.862 2.862 0 0 1-.325-2.355c.506-1.186 2.446-1.8 3.727-2.208.372-.117.723-.229 1.013-.342a7.838 7.838 0 0 0 2.762-1.649 2.623 2.623 0 0 0 .84-1.887 2.97 2.97 0 0 0-2.225-2.576 4.022 4.022 0 0 0-1.506-.286 3.354 3.354 0 0 0-1.4.286 7.871 7.871 0 0 1-2.887.822 2.651 2.651 0 0 1-.957-.208c.026-.433.052-.879.082-1.338l.013-.2c.3-4.688.667-10.519-.883-13.981A18.808 18.808 0 0 0 48.271 21a17.721 17.721 0 0 0-5.071-3.341 20.028 20.028 0 0 0-7.908-1.671h-.173L33.931 16a20.1 20.1 0 0 0-7.917 1.671 17.623 17.623 0 0 0-5.052 3.337 18.868 18.868 0 0 0-4.22 6.051c-1.55 3.459-1.182 9.289-.887 13.973v.009c.03.5.065 1.026.1 1.537a2.774 2.774 0 0 1-1.134.212 7.51 7.51 0 0 1-3.086-.827 2.773 2.773 0 0 0-1.173-.242 4.147 4.147 0 0 0-2.073.58 2.869 2.869 0 0 0-1.467 1.874A2.586 2.586 0 0 0 8 46.6a8.512 8.512 0 0 0 2.58 1.476c.294.117.645.225 1.013.342 1.281.407 3.225 1.022 3.731 2.208A2.883 2.883 0 0 1 15 52.985a.612.612 0 0 0-.035.078 22.921 22.921 0 0 1-3.489 5.393 19.576 19.576 0 0 1-4.21 3.714 15.483 15.483 0 0 1-5.909 2.3A1.617 1.617 0 0 0 0 66.157a2.051 2.051 0 0 0 .169.706 4.326 4.326 0 0 0 2.346 2 26.792 26.792 0 0 0 6.774 1.762 8.218 8.218 0 0 1 .416 1.489c.113.519.229 1.056.4 1.623a1.775 1.775 0 0 0 1.858 1.363 9.04 9.04 0 0 0 1.593-.221 18.114 18.114 0 0 1 3.632-.411 15.784 15.784 0 0 1 2.6.221c1.7.281 3.16 1.312 4.852 2.506 2.476 1.749 5.281 3.727 9.566 3.727q.175 0 .351-.013c.139.009.316.013.5.013 4.285 0 7.09-1.978 9.566-3.723 1.692-1.19 3.156-2.221 4.852-2.5a15.781 15.781 0 0 1 2.6-.221 18.2 18.2 0 0 1 3.632.385 8.775 8.775 0 0 0 1.593.195h.078a1.753 1.753 0 0 0 1.779-1.329c.164-.558.281-1.078.4-1.61a8.5 8.5 0 0 1 .411-1.48 26.979 26.979 0 0 0 6.774-1.762 4.343 4.343 0 0 0 2.342-2 2.058 2.058 0 0 0 .173-.714 1.611 1.611 0 0 0-1.357-1.69z" class="cls-3" transform="translate(0 -15.988)"/>
    </g>
</svg>
