<svg xmlns="http://www.w3.org/2000/svg" width="215.099" height="214.568" viewBox="0 0 215.099 214.568">
    <g>
        <g>
            <g>
                <g>
                    <path fill="#565bdb" d="M176.438 294.163a79.66 79.66 0 1 0-20.285 18.946l23.357 13.34a5.42 5.42 0 0 0 7.686-6.794z" transform="rotate(63 224.188 172.867)"/>
                </g>
            </g>
            <g>
                <path fill="#fff" d="M57.208 43.131l-8.138-8.2a5.4 5.4 0 0 0-9.01 2.05 5.531 5.531 0 0 1-6.394 3.515C27.852 39.03 20 31.415 18.551 25.263a5.316 5.316 0 0 1 3.488-6.444 5.473 5.473 0 0 0 2.035-9.08l-8.138-8.2a5.772 5.772 0 0 0-7.848 0L2.565 7.1c-5.522 5.858.581 21.382 14.242 35.149S45.873 62.463 51.686 56.6l5.522-5.565a5.883 5.883 0 0 0 0-7.904z" transform="translate(80.291 78.398) translate(-.539)"/>
            </g>
        </g>
    </g>
</svg>
