<svg xmlns="http://www.w3.org/2000/svg" width="215.099" height="214.568" viewBox="0 0 215.099 214.568">
    <g>
        <g>
            <g>
                <g>
                    <g>
                        <path fill="#565bdb" d="M176.438 294.163a79.66 79.66 0 1 0-20.285 18.946l23.357 13.34a5.42 5.42 0 0 0 7.686-6.794z" transform="rotate(63 224.188 172.867)"/>
                    </g>
                </g>
            </g>
        </g>
        <g>
            <path fill="#fff" d="M92.966 17.939A17.659 17.659 0 0 1 82.3 14.373 17.7 17.7 0 0 1 75.582 3.7a17.793 17.793 0 0 1-.34-3.31H63.8v31.269l-.014 17.128a10.374 10.374 0 1 1-7.115-9.829V27.339a22.519 22.519 0 0 0-3.3-.244A21.943 21.943 0 0 0 36.88 34.47a21.5 21.5 0 0 0 .971 29.653 22.325 22.325 0 0 0 2.067 1.806 21.946 21.946 0 0 0 13.451 4.548 22.519 22.519 0 0 0 3.3-.243 21.871 21.871 0 0 0 12.218-6.11 21.424 21.424 0 0 0 6.427-15.247L75.256 23.3a28.909 28.909 0 0 0 6.427 3.748A28.927 28.927 0 0 0 93 29.329V17.936h-.033z" transform="translate(77.52 71.99) translate(-31.423 -.39)"/>
        </g>
    </g>
</svg>
