<svg xmlns="http://www.w3.org/2000/svg" width="215.099" height="214.568" viewBox="0 0 215.099 214.568">
    <defs>
        <style>
            .cls-3{fill:#fff}
        </style>
    </defs>
    <g id="Component_1300_1">
        <g id="Component_1226_6">
            <g id="Component_1115_49">
                <g id="Component_1118_1">
                    <g id="Group_13532" transform="rotate(63 224.188 172.867)">
                        <path id="Path_21996" fill="#565bdb" d="M176.438 294.163a79.66 79.66 0 1 0-20.285 18.946l23.357 13.34a5.42 5.42 0 0 0 7.686-6.794z"/>
                    </g>
                </g>
            </g>
            <g id="Component_1172_28" transform="translate(147.577 19.809)">
                <g id="Group_13511">
                    <path id="Ver_Icon" fill="#03d898" d="M-3407.05 7297.948v-.059c0-.623-.056-1.312-.056-2.055a7.009 7.009 0 0 0-6.6-6.859c-7.6-.418-13.5-2.885-18.517-7.812l-.043-.043a4.24 4.24 0 0 0-5.747 0l-.039.043c-5.047 4.891-10.931 7.385-18.548 7.813a6.986 6.986 0 0 0-6.6 6.859c0 .713 0 1.445-.057 2.055v.125c-.153 7.764-.333 17.418 2.88 26.18a33.227 33.227 0 0 0 8.021 12.438 41.823 41.823 0 0 0 15.639 9.254 4.852 4.852 0 0 0 .644.166 4.661 4.661 0 0 0 1.86 0 4.8 4.8 0 0 0 .64-.166 41.885 41.885 0 0 0 15.629-9.262 33.368 33.368 0 0 0 8.02-12.457c3.224-8.776 3.024-18.419 2.874-26.22z" transform="translate(3463.318 -7279.998)"/>
                </g>
                <path id="Path_21987" d="M197 303.749l-2.938-2.938a.888.888 0 0 0-1.285 0l-6.059 6.059-6.977 6.977-5.324-5.325a.887.887 0 0 0-1.285 0l-2.938 2.938a.887.887 0 0 0 0 1.285l8.813 8.813a.888.888 0 0 0 1.285 0l16.524-16.524a.776.776 0 0 0 .184-1.285z" class="cls-3" transform="translate(-154.827 -277.498)"/>
            </g>
        </g>
        <g id="Component_1299_1" transform="translate(76.1 79.293)">
            <path id="Path_22257" d="M96.787 154.743c26.143 0 40.442-21.659 40.442-40.442 0-.615 0-1.228-.042-1.837a28.92 28.92 0 0 0 7.091-7.357 28.37 28.37 0 0 1-8.164 2.236 14.263 14.263 0 0 0 6.249-7.862 28.483 28.483 0 0 1-9.026 3.45 14.227 14.227 0 0 0-24.222 12.963 40.353 40.353 0 0 1-29.294-14.85 14.224 14.224 0 0 0 4.4 18.974 14.108 14.108 0 0 1-6.451-1.779v.18a14.219 14.219 0 0 0 11.4 13.933 14.19 14.19 0 0 1-6.418.244 14.23 14.23 0 0 0 13.279 9.871 28.521 28.521 0 0 1-17.652 6.1 28.937 28.937 0 0 1-3.379-.209 40.239 40.239 0 0 0 21.787 6.374" class="cls-3" transform="translate(-75 -98.45)"/>
        </g>
    </g>
</svg>
