<svg xmlns="http://www.w3.org/2000/svg" width="215.099" height="214.568" viewBox="0 0 215.099 214.568">
    <defs>
        <style>
            .cls-2{fill:#fff}
        </style>
    </defs>
    <g id="Component_1231_1">
        <g id="Component_1115_239">
            <g id="Component_1118_1">
                <g id="Group_13532" transform="rotate(63 224.188 172.867)">
                    <path id="Path_21996" fill="#565bdb" d="M176.438 294.163a79.66 79.66 0 1 0-20.285 18.946l23.357 13.34a5.42 5.42 0 0 0 7.686-6.794z"/>
                </g>
            </g>
            <g id="Component_1213_2" transform="translate(77.534 74.998)">
                <g id="Component_1212_1">
                    <path id="Path_22179" d="M177.127 272h-24.243a.614.614 0 0 0-.614.628c.073 2.842.266 5.557.559 8.124a.613.613 0 0 0 .759.527 46.58 46.58 0 0 1 22.836 0 .613.613 0 0 0 .759-.527c.293-2.567.485-5.282.559-8.124a.614.614 0 0 0-.615-.628z" class="cls-2" transform="translate(-133.681 -238.604)"/>
                    <path id="Path_22180" d="M177.182 164.816a.613.613 0 0 0-.759-.527 46.579 46.579 0 0 1-22.836 0 .613.613 0 0 0-.759.527c-.293 2.567-.485 5.282-.559 8.124a.614.614 0 0 0 .614.628h24.243a.614.614 0 0 0 .614-.628c-.072-2.84-.265-5.557-.558-8.124z" class="cls-2" transform="translate(-133.681 -144.102)"/>
                    <path id="Path_22181" d="M185.768 15.534A49.064 49.064 0 0 0 181.036.928a.612.612 0 0 0-.415-.3 31.811 31.811 0 0 0-12.543 0 .612.612 0 0 0-.415.3 49.063 49.063 0 0 0-4.732 14.607.612.612 0 0 0 .441.7 42.152 42.152 0 0 0 10.977 1.447 42.147 42.147 0 0 0 10.977-1.447.612.612 0 0 0 .442-.701z" class="cls-2" transform="translate(-143.026)"/>
                    <path id="Path_22182" d="M356.218 22.625a.614.614 0 0 0-.824.784l.011.027a61.241 61.241 0 0 1 2.895 10.449.615.615 0 0 0 .838.451 42.17 42.17 0 0 0 6.89-3.6.615.615 0 0 0 .118-.935q-.374-.4-.764-.793a31.421 31.421 0 0 0-9.164-6.383z" class="cls-2" transform="translate(-311.827 -19.799)"/>
                    <path id="Path_22183" d="M387.263 128.692h13.43a.615.615 0 0 0 .612-.667 31.125 31.125 0 0 0-5.048-14.635.617.617 0 0 0-.856-.174 46.011 46.011 0 0 1-7.447 3.99q-.8.34-1.618.649a.614.614 0 0 0-.394.651c.387 3.082.626 6.3.708 9.587a.614.614 0 0 0 .613.599z" class="cls-2" transform="translate(-338.658 -99.227)"/>
                    <path id="Path_22184" d="M162.932 370.146a49.068 49.068 0 0 0 4.732 14.607.612.612 0 0 0 .415.3 31.81 31.81 0 0 0 12.543 0 .61.61 0 0 0 .415-.3 49.06 49.06 0 0 0 4.732-14.606.612.612 0 0 0-.441-.7 42.359 42.359 0 0 0-21.954 0 .612.612 0 0 0-.442.699z" class="cls-2" transform="translate(-143.026 -322.816)"/>
                    <path id="Path_22185" d="M14.234 283.488q.8-.34 1.618-.649a.614.614 0 0 0 .393-.651c-.387-3.082-.626-6.3-.708-9.587a.614.614 0 0 0-.613-.6H1.5a.615.615 0 0 0-.612.667A31.127 31.127 0 0 0 5.93 287.3a.617.617 0 0 0 .856.174 45.985 45.985 0 0 1 7.448-3.986z" class="cls-2" transform="translate(-.881 -238.602)"/>
                    <path id="Path_22186" d="M366.025 396.861a42.17 42.17 0 0 0-6.89-3.6.614.614 0 0 0-.837.451 61.2 61.2 0 0 1-2.892 10.448l-.01.027a.614.614 0 0 0 .824.784 31.426 31.426 0 0 0 9.16-6.378q.39-.391.764-.793a.616.616 0 0 0-.119-.939z" class="cls-2" transform="translate(-311.828 -344.928)"/>
                    <path id="Path_22187" d="M386.65 272.6c-.082 3.291-.321 6.506-.708 9.587a.614.614 0 0 0 .394.651q.814.308 1.618.648a46.037 46.037 0 0 1 7.447 3.99.617.617 0 0 0 .856-.174 31.126 31.126 0 0 0 5.048-14.635.615.615 0 0 0-.612-.667h-13.43a.614.614 0 0 0-.613.6z" class="cls-2" transform="translate(-338.658 -238.6)"/>
                    <path id="Path_22188" d="M67.7 30.731a42.165 42.165 0 0 0 6.89 3.6.614.614 0 0 0 .837-.451 61.2 61.2 0 0 1 2.892-10.449l.01-.027a.614.614 0 0 0-.824-.784A31.429 31.429 0 0 0 68.349 29q-.39.39-.764.793a.616.616 0 0 0 .118.935z" class="cls-2" transform="translate(-59.25 -19.795)"/>
                    <path id="Path_22189" d="M15.525 128.692a96.919 96.919 0 0 1 .721-10.187.614.614 0 0 0-.393-.651q-.814-.308-1.618-.648a46.027 46.027 0 0 1-7.447-3.99.617.617 0 0 0-.856.174 31.126 31.126 0 0 0-5.049 14.635.615.615 0 0 0 .612.667z" class="cls-2" transform="translate(-.881 -99.225)"/>
                    <path id="Path_22190" d="M77.51 404.967a.614.614 0 0 0 .824-.784l-.01-.027a61.223 61.223 0 0 1-2.892-10.449.614.614 0 0 0-.838-.451 42.174 42.174 0 0 0-6.89 3.6.615.615 0 0 0-.118.935q.374.4.764.793a31.42 31.42 0 0 0 9.16 6.383z" class="cls-2" transform="translate(-59.251 -344.93)"/>
                </g>
            </g>
        </g>
        <g id="Component_1172_87" transform="translate(147.577 19.809)">
            <g id="Group_13511">
                <path id="Ver_Icon" fill="#03d898" d="M-3407.05 7297.948v-.059c0-.623-.056-1.312-.056-2.055a7.009 7.009 0 0 0-6.6-6.859c-7.6-.418-13.5-2.885-18.517-7.812l-.043-.043a4.24 4.24 0 0 0-5.747 0l-.039.043c-5.047 4.891-10.931 7.385-18.548 7.813a6.986 6.986 0 0 0-6.6 6.859c0 .713 0 1.445-.057 2.055v.125c-.153 7.764-.333 17.418 2.88 26.18a33.227 33.227 0 0 0 8.021 12.438 41.823 41.823 0 0 0 15.639 9.254 4.852 4.852 0 0 0 .644.166 4.661 4.661 0 0 0 1.86 0 4.8 4.8 0 0 0 .64-.166 41.885 41.885 0 0 0 15.629-9.262 33.368 33.368 0 0 0 8.02-12.457c3.224-8.776 3.024-18.419 2.874-26.22z" transform="translate(3463.318 -7279.998)"/>
            </g>
            <path id="Path_21987" d="M197 303.749l-2.938-2.938a.888.888 0 0 0-1.285 0l-6.059 6.059-6.977 6.977-5.324-5.325a.887.887 0 0 0-1.285 0l-2.938 2.938a.887.887 0 0 0 0 1.285l8.813 8.813a.888.888 0 0 0 1.285 0l16.524-16.524a.776.776 0 0 0 .184-1.285z" class="cls-2" transform="translate(-154.827 -277.498)"/>
        </g>
    </g>
</svg>
