<svg xmlns="http://www.w3.org/2000/svg" width="215.099" height="214.568" viewBox="0 0 215.099 214.568">
    <g>
        <g>
            <g>
                <g>
                    <path fill="#565bdb" d="M176.438 294.163a79.66 79.66 0 1 0-20.285 18.946l23.357 13.34a5.42 5.42 0 0 0 7.686-6.794z" transform="rotate(63 224.188 172.867)"/>
                </g>
            </g>
        </g>
    </g>
    <g>
        <path fill="#fff" d="M66.965-43.038a21.745 21.745 0 0 1 3.138 11.9c0 14.832-12.66 34.093-22.934 47.617H23.707L14.3-39.789l20.55-1.952 5 40.039c4.645-7.576 10.388-19.48 10.388-27.591a22.153 22.153 0 0 0-1.952-9.953z" transform="translate(79.851 77.643) translate(-14.301 43.038)"/>
    </g>
</svg>
