<svg xmlns="http://www.w3.org/2000/svg" id="Component_1293_2" width="215.099" height="214.568" viewBox="0 0 215.099 214.568">
    <defs>
        <style>
            .cls-2{fill:#fff}
        </style>
    </defs>
    <g id="Component_1227_3">
        <g id="Component_1115_234">
            <g id="Component_1118_1">
                <g id="Group_13532" transform="rotate(63 224.188 172.867)">
                    <path id="Path_21996" fill="#565bdb" d="M176.438 294.163a79.66 79.66 0 1 0-20.285 18.946l23.357 13.34a5.42 5.42 0 0 0 7.686-6.794z"/>
                </g>
            </g>
        </g>
    </g>
    <g id="Component_1292_1" transform="translate(73.521 72.74)">
        <g id="Group_13721" transform="translate(0 .001)">
            <g id="Group_13720" transform="translate(0 -.001)">
                <path id="Path_22259" d="M27.164 32C12.16 32 0 42.137 0 54.637c0 7.208 4.066 13.6 10.372 17.739l-3.581 7.162 9.756-4.179A30.839 30.839 0 0 0 23.134 77a18.957 18.957 0 0 1-.5-4.251c0-12.482 12.183-22.637 27.164-22.637a32.855 32.855 0 0 1 4.034.276C51.444 39.918 40.42 32 27.164 32zm-9.055 16.978a3.4 3.4 0 1 1 3.4-3.4 3.4 3.4 0 0 1-3.4 3.4zm18.109 0a3.4 3.4 0 1 1 3.4-3.4 3.4 3.4 0 0 1-3.4 3.4z" class="cls-2" transform="translate(0 -32)"/>
            </g>
        </g>
        <g id="Group_13723" transform="translate(27.164 22.635)">
            <g id="Group_13722">
                <path id="Path_22260" d="M237.273 210.11c0-10-10.137-18.11-22.636-18.11S192 200.109 192 210.11s10.137 18.11 22.636 18.11a27.655 27.655 0 0 0 5.908-.7l12.2 5.229-4.219-8.435c5.289-3.314 8.748-8.414 8.748-14.204zm-29.427-1.132a3.4 3.4 0 1 1 3.4-3.4 3.4 3.4 0 0 1-3.4 3.4zm13.582 0a3.4 3.4 0 1 1 3.4-3.4 3.4 3.4 0 0 1-3.401 3.4z" class="cls-2" transform="translate(-192 -192)"/>
            </g>
        </g>
    </g>
</svg>
