<svg xmlns="http://www.w3.org/2000/svg" id="Component_1315_6" width="215.099" height="214.568" viewBox="0 0 215.099 214.568">
    <defs>
        <style>
            .cls-2{fill:#fff}
        </style>
    </defs>
    <g id="Component_1230_5">
        <g id="Component_1115_238">
            <g id="Component_1118_1">
                <g id="Group_13532" transform="rotate(63 224.188 172.867)">
                    <path id="Path_21996" fill="#565bdb" d="M176.438 294.163a79.66 79.66 0 1 0-20.285 18.946l23.357 13.34a5.42 5.42 0 0 0 7.686-6.794z"/>
                </g>
            </g>
        </g>
        <g id="Component_1344_1" transform="translate(72.62 74.061)">
            <path id="Path_22293" d="M63.076 130.441a19.164 19.164 0 0 0-4.483-2.046c-.349-.117-.6-.2-.741-.262a2.238 2.238 0 0 1-.522-.326.455.455 0 0 1-.2-.544 4.935 4.935 0 0 0 .2-.87q1.957-5.006 0-7.748-2-2.655-6.661-2.656a27.965 27.965 0 0 0-10.708 2.568l-.262.087a4.915 4.915 0 0 1-.587.152 1.858 1.858 0 0 1-.632.022.542.542 0 0 1-.435-.3 1.306 1.306 0 0 1 .044-.871q1.958-6.312-.871-9.1-3.221-3.221-10.73-.3t-14.866 10.267a48.332 48.332 0 0 0-8.6 11.231A22.736 22.736 0 0 0 0 140.41a14.688 14.688 0 0 0 2.829 8.685 22.358 22.358 0 0 0 7.466 6.573 42.519 42.519 0 0 0 10.469 4.049 49.2 49.2 0 0 0 11.971 1.458 50.414 50.414 0 0 0 11.775-1.349 40.647 40.647 0 0 0 9.838-3.613 36.645 36.645 0 0 0 7.335-5.115 21.535 21.535 0 0 0 4.745-5.964 13.166 13.166 0 0 0 1.611-6.072 9.126 9.126 0 0 0-1.48-5.072 11.436 11.436 0 0 0-3.483-3.549zM48.864 150.4q-6.377 5.158-16.085 6.159a33.113 33.113 0 0 1-11.949-.914 21.385 21.385 0 0 1-9.076-4.745 11.352 11.352 0 0 1-3.874-7.4q-.61-6.355 5.768-11.514t16.085-6.16a33.1 33.1 0 0 1 11.948.914 21.384 21.384 0 0 1 9.077 4.745 11.348 11.348 0 0 1 3.874 7.4q.608 6.359-5.768 11.515z" class="cls-2" transform="translate(0 -97.982)"/>
            <path id="Path_22294" d="M129.565 271.71a13.744 13.744 0 0 0-9.163.827 12.905 12.905 0 0 0-6.595 6.051 9.241 9.241 0 0 0-.283 8.161 9.843 9.843 0 0 0 6.421 5.507 13.526 13.526 0 0 0 9.751-.524 12.482 12.482 0 0 0 6.879-6.529 9.034 9.034 0 0 0-.11-8.293 10.288 10.288 0 0 0-6.9-5.2zm-4.658 14.1a5.023 5.023 0 0 1-2.721 2.067 4.226 4.226 0 0 1-3.243-.109 3.254 3.254 0 0 1-1.872-2.2 3.623 3.623 0 0 1 .566-2.981 4.775 4.775 0 0 1 2.612-2 4.428 4.428 0 0 1 3.178.043 3.254 3.254 0 0 1 1.959 2.176 3.619 3.619 0 0 1-.479 3.008zm4.093-5.265a1.709 1.709 0 0 1-.958.806 1.805 1.805 0 0 1-1.262.022q-1.305-.61-.566-1.959a1.715 1.715 0 0 1 .936-.806 1.742 1.742 0 0 1 1.241-.021 1.24 1.24 0 0 1 .762.806 1.313 1.313 0 0 1-.153 1.152z" class="cls-2" transform="translate(-95.523 -237.334)"/>
            <path id="Path_22295" d="M358.049 131.662a2.545 2.545 0 0 0 1.481 1.284 2.5 2.5 0 0 0 1.937-.174 2.538 2.538 0 0 0 1.285-1.48 9.654 9.654 0 0 0 .282-5.115 9.944 9.944 0 0 0-2.371-4.723 9.7 9.7 0 0 0-4.4-2.852 9.973 9.973 0 0 0-5.18-.239 2.419 2.419 0 0 0-1.612 1.11 2.525 2.525 0 0 0-.347 1.937 2.253 2.253 0 0 0 1.087 1.611 2.6 2.6 0 0 0 1.96.349 4.945 4.945 0 0 1 5.7 6.355 2.5 2.5 0 0 0 .178 1.937z" class="cls-2" transform="translate(-295.844 -107.539)"/>
            <path id="Path_22296" d="M359.084 65.174a20.7 20.7 0 0 0-13.954-15.54 20.787 20.787 0 0 0-10.621-.5 2.914 2.914 0 0 0-1.894 1.284 2.835 2.835 0 0 0-.413 2.242 3 3 0 0 0 3.568 2.307 14.926 14.926 0 0 1 7.531.37 14.64 14.64 0 0 1 9.491 18.522 3.035 3.035 0 0 0 1.959 3.744 2.8 2.8 0 0 0 2.263-.174 2.938 2.938 0 0 0 1.481-1.741 19.933 19.933 0 0 0 .589-10.514z" class="cls-2" transform="translate(-281.489 -48.67)"/>
        </g>
    </g>
</svg>
