<svg xmlns="http://www.w3.org/2000/svg" id="Component_1291_2" width="215.099" height="214.568" viewBox="0 0 215.099 214.568">
    <defs>
        <style>
            .cls-2{fill:#fff}
        </style>
    </defs>
    <g id="Component_1226_3">
        <g id="Component_1115_49">
            <g id="Component_1118_1">
                <g id="Group_13532" transform="rotate(63 224.188 172.867)">
                    <path id="Path_21996" fill="#565bdb" d="M176.438 294.163a79.66 79.66 0 1 0-20.285 18.946l23.357 13.34a5.42 5.42 0 0 0 7.686-6.794z"/>
                </g>
            </g>
        </g>
    </g>
    <g id="Component_1290_1" transform="translate(78.789 74.479)">
        <path id="Path_22272" d="M213.629 11.651c-5.786 0-6.728-5.642-3.763-8.527l2.549-2.612a1.7 1.7 0 0 1 2.427 0l2.619 2.68c2.879 2.902 1.913 8.459-3.832 8.459z" class="cls-2" transform="translate(-184.678 -.001)"/>
        <path id="Path_22273" d="M56.2 447H1.7c-.937 0-1.7.52-1.7 1.161v5.03c0 .641.759 1.161 1.7 1.161h54.5c.937 0 1.7-.52 1.7-1.161v-5.03c0-.642-.759-1.161-1.7-1.161z" class="cls-2" transform="translate(0 -396.444)"/>
        <path id="Path_22274" d="M26.991 218.544a4.982 4.982 0 0 0 2.248 1.3 4.135 4.135 0 0 0 2.6-1.3c.232-.232 2.372-2.3 4.814-2.3s4.582 2.07 4.818 2.307a4.611 4.611 0 0 0 2.419 1.313 4.618 4.618 0 0 0 2.424-1.317c.232-.232 2.372-2.3 4.814-2.3s4.582 2.07 4.818 2.307a4.612 4.612 0 0 0 2.419 1.313 4.618 4.618 0 0 0 2.424-1.317c.232-.232 2.372-2.3 4.814-2.3s4.582 2.07 4.818 2.307a4.575 4.575 0 0 0 2.419 1.313 4.57 4.57 0 0 0 2.424-1.317 9.63 9.63 0 0 1 1.987-1.479v-2.972A5.1 5.1 0 0 0 72.158 209H30.089A5.1 5.1 0 0 0 25 214.089v2.972a9.64 9.64 0 0 1 1.991 1.483z" class="cls-2" transform="translate(-22.173 -185.36)"/>
        <path id="Path_22275" d="M219.63 127.559V122.7a1.7 1.7 0 0 0-1.7-1.7h-7.23a1.7 1.7 0 0 0-1.7 1.7v4.864z" class="cls-2" transform="translate(-185.365 -107.313)"/>
        <path id="Path_22276" d="M77.245 315.893v-11.207a10.06 10.06 0 0 1-.936.713 5.533 5.533 0 0 1-6.8.1 9.71 9.71 0 0 1-1.492-1.184A4.611 4.611 0 0 0 65.6 303a4.618 4.618 0 0 0-2.424 1.317c-.232.232-2.372 2.3-4.814 2.3s-4.582-2.07-4.818-2.307a4.611 4.611 0 0 0-2.423-1.31 4.618 4.618 0 0 0-2.424 1.317c-.232.232-2.372 2.3-4.814 2.3s-4.582-2.07-4.818-2.307a4.611 4.611 0 0 0-2.419-1.31 4.618 4.618 0 0 0-2.424 1.317 9.692 9.692 0 0 1-1.509 1.193 5.531 5.531 0 0 1-6.789-.118 10.089 10.089 0 0 1-.927-.706v11.208h52.248z" class="cls-2" transform="translate(-22.171 -268.733)"/>
    </g>
</svg>
