<svg xmlns="http://www.w3.org/2000/svg" width="216.53" height="215.957" viewBox="0 0 216.53 215.957">
    <defs>
        <style>
            .cls-2{fill:#fff}
        </style>
    </defs>
    <g id="Component_1203_35" transform="translate(.759 .672)">
        <g id="Component_1195_1">
            <g id="Component_1115_11">
                <g id="Component_1118_1">
                    <g id="Group_13532" transform="rotate(63 224.188 172.867)">
                        <path id="Path_21996" fill="#565bdb" stroke="rgba(0,0,0,0)" d="M176.438 294.163a79.66 79.66 0 1 0-20.285 18.946l23.357 13.34a5.42 5.42 0 0 0 7.686-6.794z"/>
                    </g>
                </g>
            </g>
            <g id="Component_1194_1" transform="translate(81.725 85.675)">
                <g id="Component_1154_1">
                    <path id="Path_22132" d="M53.285 28.75L31.13 50.9a5.828 5.828 0 0 1-8.233 0L.742 28.75A5.789 5.789 0 0 0 0 31.59v35.6a5.828 5.828 0 0 0 5.821 5.821h42.385a5.828 5.828 0 0 0 5.821-5.821v-35.6a5.789 5.789 0 0 0-.742-2.84zm0 0" class="cls-2" transform="translate(0 -25.768)"/>
                    <path id="Path_22133" d="M54.161 23.4L76.315 1.242A5.786 5.786 0 0 0 73.475.5H31.09a5.786 5.786 0 0 0-2.84.742L50.4 23.4a2.659 2.659 0 0 0 3.761 0zm0 0" class="cls-2" transform="translate(-25.269 -.5)"/>
                </g>
            </g>
        </g>
        <g id="Component_1172_5" transform="translate(145.577 15.81)">
            <g id="Group_13511">
                <path id="Ver_Icon" fill="#03d898" d="M-3407.05 7297.948v-.059c0-.623-.056-1.312-.056-2.055a7.009 7.009 0 0 0-6.6-6.859c-7.6-.418-13.5-2.885-18.517-7.812l-.043-.043a4.24 4.24 0 0 0-5.747 0l-.039.043c-5.047 4.891-10.931 7.385-18.548 7.813a6.986 6.986 0 0 0-6.6 6.859c0 .713 0 1.445-.057 2.055v.125c-.153 7.764-.333 17.418 2.88 26.18a33.227 33.227 0 0 0 8.021 12.438 41.823 41.823 0 0 0 15.639 9.254 4.852 4.852 0 0 0 .644.166 4.661 4.661 0 0 0 1.86 0 4.8 4.8 0 0 0 .64-.166 41.885 41.885 0 0 0 15.629-9.262 33.368 33.368 0 0 0 8.02-12.457c3.224-8.776 3.024-18.419 2.874-26.22z" transform="translate(3463.318 -7279.998)"/>
            </g>
            <path id="Path_21987" d="M197 303.749l-2.938-2.938a.888.888 0 0 0-1.285 0l-6.059 6.059-6.977 6.977-5.324-5.325a.887.887 0 0 0-1.285 0l-2.938 2.938a.887.887 0 0 0 0 1.285l8.813 8.813a.888.888 0 0 0 1.285 0l16.524-16.524a.776.776 0 0 0 .184-1.285z" class="cls-2" transform="translate(-154.827 -277.498)"/>
        </g>
    </g>
</svg>
