<svg xmlns="http://www.w3.org/2000/svg" width="215.099" height="214.568" viewBox="0 0 215.099 214.568">
    <g>
        <g>
            <g>
                <g>
                    <path fill="#565bdb" d="M176.438 294.163a79.66 79.66 0 1 0-20.285 18.946l23.357 13.34a5.42 5.42 0 0 0 7.686-6.794z" transform="rotate(63 224.188 172.867)"/>
                </g>
            </g>
        </g>
    </g>
    <g>
        <path fill="#fff" d="M70.789 35.395a35.395 35.395 0 1 0-35.394 35.394c.207 0 .415 0 .622-.014V43.234h-7.6v-8.862h7.6v-6.526c0-7.563 4.618-11.683 11.365-11.683a61.771 61.771 0 0 1 6.816.346v7.909h-4.645c-3.664 0-4.383 1.742-4.383 4.3v5.641h8.78L52.8 43.22h-7.63v26.2a35.405 35.405 0 0 0 25.619-34.025z" transform="translate(73.344 72.035)"/>
    </g>
</svg>
