<svg xmlns="http://www.w3.org/2000/svg" id="Component_1295_2" width="215.099" height="214.568" viewBox="0 0 215.099 214.568">
    <defs>
        <style>
            .cls-2{fill:#fff}
        </style>
    </defs>
    <g id="Component_1228_3">
        <g id="Component_1115_236">
            <g id="Component_1118_1">
                <g id="Group_13532" transform="rotate(63 224.188 172.867)">
                    <path id="Path_21996" fill="#565bdb" d="M176.438 294.163a79.66 79.66 0 1 0-20.285 18.946l23.357 13.34a5.42 5.42 0 0 0 7.686-6.794z"/>
                </g>
            </g>
        </g>
    </g>
    <g id="Component_1294_1" transform="translate(73.867 73.602)">
        <path id="Path_22261" d="M67.822 19.862a24.686 24.686 0 0 0-1.57-8.2 17.306 17.306 0 0 0-9.885-9.885 24.749 24.749 0 0 0-8.2-1.57C44.555.04 43.407 0 34.234 0s-10.32.04-13.923.2a24.692 24.692 0 0 0-8.2 1.57 16.484 16.484 0 0 0-5.987 3.905 16.633 16.633 0 0 0-3.893 5.979 24.753 24.753 0 0 0-1.57 8.2c-.172 3.611-.212 4.76-.212 13.932s.04 10.32.2 13.923a24.685 24.685 0 0 0 1.571 8.2 17.3 17.3 0 0 0 9.88 9.881 24.752 24.752 0 0 0 8.2 1.57c3.6.159 4.751.2 13.923.2s10.32-.039 13.923-.2a24.679 24.679 0 0 0 8.2-1.57 17.28 17.28 0 0 0 9.885-9.885 24.769 24.769 0 0 0 1.57-8.2c.158-3.6.2-4.751.2-13.923s-.021-10.317-.179-13.92zm-6.084 27.583a18.518 18.518 0 0 1-1.161 6.269 11.207 11.207 0 0 1-6.414 6.414 18.582 18.582 0 0 1-6.269 1.161c-3.563.159-4.632.2-13.646.2s-10.1-.039-13.646-.2a18.507 18.507 0 0 1-6.269-1.161 10.4 10.4 0 0 1-3.88-2.521 10.5 10.5 0 0 1-2.521-3.88 18.586 18.586 0 0 1-1.161-6.269c-.159-3.563-.2-4.633-.2-13.647s.039-10.1.2-13.646A18.508 18.508 0 0 1 7.932 13.9a10.268 10.268 0 0 1 2.534-3.88 10.487 10.487 0 0 1 3.88-2.52 18.6 18.6 0 0 1 6.269-1.161c3.563-.158 4.632-.2 13.646-.2s10.1.04 13.646.2A18.517 18.517 0 0 1 54.176 7.5a10.388 10.388 0 0 1 3.88 2.52 10.5 10.5 0 0 1 2.521 3.88 18.593 18.593 0 0 1 1.161 6.269c.158 3.563.2 4.632.2 13.646s-.038 10.067-.2 13.63zm0 0" class="cls-2" transform="translate(-.449)"/>
        <path id="Path_22262" d="M142.3 124.5a17.355 17.355 0 1 0 17.354 17.355A17.359 17.359 0 0 0 142.3 124.5zm0 28.613a11.258 11.258 0 1 1 11.257-11.258 11.259 11.259 0 0 1-11.257 11.258zm0 0" class="cls-2" transform="translate(-108.519 -108.072)"/>
        <path id="Path_22263" d="M370.553 92.653A4.052 4.052 0 1 1 366.5 88.6a4.052 4.052 0 0 1 4.053 4.053zm0 0" class="cls-2" transform="translate(-314.675 -76.91)"/>
    </g>
</svg>
