<svg xmlns="http://www.w3.org/2000/svg" width="215.099" height="214.568" viewBox="0 0 215.099 214.568">
    <defs>
        <style>
            .cls-2{fill:#fff}
        </style>
    </defs>
    <g id="Component_1230_1">
        <g id="Component_1115_238">
            <g id="Component_1118_1">
                <g id="Group_13532" transform="rotate(63 224.188 172.867)">
                    <path id="Path_21996" fill="#565bdb" d="M176.438 294.163a79.66 79.66 0 1 0-20.285 18.946l23.357 13.34a5.42 5.42 0 0 0 7.686-6.794z"/>
                </g>
            </g>
            <g id="Component_1211_2" transform="translate(81.295 77.781)">
                <g id="Group_13569" transform="translate(10.829)">
                    <path id="Path_22138" d="M129.473 10.829V4.061A4.164 4.164 0 0 0 125.412 0h-13.537a4.164 4.164 0 0 0-4.061 4.061v6.768H102.4v43.315h32.487V10.829zm-5.415 0h-10.829V5.414h10.829z" class="cls-2" transform="translate(-102.4)"/>
                </g>
                <g id="Group_13572" transform="translate(0 10.828)">
                    <g id="Group_13571">
                        <path id="Path_22139" d="M2.707 102.4A2.558 2.558 0 0 0 0 105.107v37.9a2.558 2.558 0 0 0 2.707 2.707h2.708V102.4z" class="cls-2" transform="translate(0 -102.4)"/>
                    </g>
                </g>
                <g id="Group_13573" transform="translate(48.731 10.828)">
                    <path id="Path_22140" d="M463.507 102.4H460.8v43.315h2.707a2.558 2.558 0 0 0 2.707-2.707v-37.9a2.558 2.558 0 0 0-2.707-2.708z" class="cls-2" transform="translate(-460.8 -102.4)"/>
                </g>
            </g>
        </g>
        <g id="Component_1172_86" transform="translate(147.577 19.809)">
            <g id="Group_13511">
                <path id="Ver_Icon" fill="#03d898" d="M-3407.05 7297.948v-.059c0-.623-.056-1.312-.056-2.055a7.009 7.009 0 0 0-6.6-6.859c-7.6-.418-13.5-2.885-18.517-7.812l-.043-.043a4.24 4.24 0 0 0-5.747 0l-.039.043c-5.047 4.891-10.931 7.385-18.548 7.813a6.986 6.986 0 0 0-6.6 6.859c0 .713 0 1.445-.057 2.055v.125c-.153 7.764-.333 17.418 2.88 26.18a33.227 33.227 0 0 0 8.021 12.438 41.823 41.823 0 0 0 15.639 9.254 4.852 4.852 0 0 0 .644.166 4.661 4.661 0 0 0 1.86 0 4.8 4.8 0 0 0 .64-.166 41.885 41.885 0 0 0 15.629-9.262 33.368 33.368 0 0 0 8.02-12.457c3.224-8.776 3.024-18.419 2.874-26.22z" transform="translate(3463.318 -7279.998)"/>
            </g>
            <path id="Path_21987" d="M197 303.749l-2.938-2.938a.888.888 0 0 0-1.285 0l-6.059 6.059-6.977 6.977-5.324-5.325a.887.887 0 0 0-1.285 0l-2.938 2.938a.887.887 0 0 0 0 1.285l8.813 8.813a.888.888 0 0 0 1.285 0l16.524-16.524a.776.776 0 0 0 .184-1.285z" class="cls-2" transform="translate(-154.827 -277.498)"/>
        </g>
    </g>
</svg>
