<svg xmlns="http://www.w3.org/2000/svg" id="Component_1313_1" width="215.099" height="214.568" viewBox="0 0 215.099 214.568">
    <defs>
        <style>
            .cls-3{fill:#fff}
        </style>
    </defs>
    <g id="Component_1228_5">
        <g id="Component_1115_236">
            <g id="Component_1118_1">
                <g id="Group_13532" transform="rotate(63 224.188 172.867)">
                    <path id="Path_21996" fill="#565bdb" d="M176.438 294.163a79.66 79.66 0 1 0-20.285 18.946l23.357 13.34a5.42 5.42 0 0 0 7.686-6.794z"/>
                </g>
            </g>
        </g>
        <g id="Component_1172_84" transform="translate(147.577 19.809)">
            <g id="Group_13511">
                <path id="Ver_Icon" fill="#03d898" d="M-3407.05 7297.948v-.059c0-.623-.056-1.312-.056-2.055a7.009 7.009 0 0 0-6.6-6.859c-7.6-.418-13.5-2.885-18.517-7.812l-.043-.043a4.24 4.24 0 0 0-5.747 0l-.039.043c-5.047 4.891-10.931 7.385-18.548 7.813a6.986 6.986 0 0 0-6.6 6.859c0 .713 0 1.445-.057 2.055v.125c-.153 7.764-.333 17.418 2.88 26.18a33.227 33.227 0 0 0 8.021 12.438 41.823 41.823 0 0 0 15.639 9.254 4.852 4.852 0 0 0 .644.166 4.661 4.661 0 0 0 1.86 0 4.8 4.8 0 0 0 .64-.166 41.885 41.885 0 0 0 15.629-9.262 33.368 33.368 0 0 0 8.02-12.457c3.224-8.776 3.024-18.419 2.874-26.22z" transform="translate(3463.318 -7279.998)"/>
            </g>
            <path id="Path_21987" d="M197 303.749l-2.938-2.938a.888.888 0 0 0-1.285 0l-6.059 6.059-6.977 6.977-5.324-5.325a.887.887 0 0 0-1.285 0l-2.938 2.938a.887.887 0 0 0 0 1.285l8.813 8.813a.888.888 0 0 0 1.285 0l16.524-16.524a.776.776 0 0 0 .184-1.285z" class="cls-3" transform="translate(-154.827 -277.498)"/>
        </g>
    </g>
    <g id="Component_1312_1" transform="translate(79.982 75.002)">
        <g id="Group_13725">
            <g id="Group_13724">
                <path id="Path_22277" d="M87.429 5.194C84.218 1.558 78.409 0 70.976 0H49.408a3.086 3.086 0 0 0-3.051 2.582l-8.981 56.51a1.842 1.842 0 0 0 1.824 2.122h13.319l3.344-21.044-.1.663A3.074 3.074 0 0 1 58.8 38.25h6.326c12.433 0 22.163-5.009 25.007-19.5.086-.43.219-1.257.219-1.257.812-5.361-.001-8.993-2.923-12.299z" class="cls-3" transform="translate(-37.352)"/>
            </g>
        </g>
        <g id="Group_13727" transform="translate(17.869 20.238)">
            <g id="Group_13726">
                <path id="Path_22278" d="M208.728 150.5c-3.09 14.266-12.949 21.815-28.6 21.815h-5.668l-4.235 26.8h9.2a2.694 2.694 0 0 0 2.668-2.264l.108-.568 2.117-13.3.138-.732a2.693 2.693 0 0 1 2.664-2.264h1.68c10.875 0 19.387-4.381 21.875-17.055 1.001-5.09.519-9.355-1.947-12.432z" class="cls-3" transform="translate(-170.225 -150.496)"/>
            </g>
        </g>
    </g>
</svg>
