<svg xmlns="http://www.w3.org/2000/svg" width="215.099" height="214.568" viewBox="0 0 215.099 214.568">
    <g>
        <g>
            <g>
                <g>
                    <g>
                        <path fill="#565bdb" d="M176.438 294.163a79.66 79.66 0 1 0-20.285 18.946l23.357 13.34a5.42 5.42 0 0 0 7.686-6.794z" transform="rotate(63 224.188 172.867)"/>
                    </g>
                </g>
            </g>
        </g>
        <g>
            <path fill="#fff" d="M26.667 39.326l-1.124 15.812a3.931 3.931 0 0 0 3.14-1.521l7.541-7.207L51.85 57.854c2.866 1.6 4.885.756 5.658-2.636L67.764 7.157c.909-4.236-1.532-5.893-4.324-4.854L3.155 25.382c-4.115 1.6-4.052 3.891-.7 4.93l15.413 4.794 35.8-22.4c1.685-1.116 3.217-.5 1.957.617z" transform="translate(66.758 79.111) translate(0 -2)"/>
        </g>
    </g>
</svg>
