<svg xmlns="http://www.w3.org/2000/svg" width="215.099" height="214.568" viewBox="0 0 215.099 214.568">
    <g>
        <g>
            <g>
                <g>
                    <g>
                        <path fill="#565bdb" d="M176.438 294.163a79.66 79.66 0 1 0-20.285 18.946l23.357 13.34a5.42 5.42 0 0 0 7.686-6.794z" transform="rotate(63 224.188 172.867)"/>
                    </g>
                </g>
            </g>
        </g>
        <g>
            <path fill="#fff" d="M96.787 154.743c26.143 0 40.442-21.659 40.442-40.442 0-.615 0-1.228-.042-1.837a28.92 28.92 0 0 0 7.091-7.357 28.37 28.37 0 0 1-8.164 2.236 14.263 14.263 0 0 0 6.249-7.862 28.483 28.483 0 0 1-9.026 3.45 14.227 14.227 0 0 0-24.222 12.963 40.353 40.353 0 0 1-29.294-14.85 14.224 14.224 0 0 0 4.4 18.974 14.108 14.108 0 0 1-6.451-1.779v.18a14.219 14.219 0 0 0 11.4 13.933 14.19 14.19 0 0 1-6.418.244 14.23 14.23 0 0 0 13.279 9.871 28.521 28.521 0 0 1-17.652 6.1 28.937 28.937 0 0 1-3.379-.209 40.239 40.239 0 0 0 21.787 6.374" transform="translate(76.1 79.293) translate(-75 -98.45)"/>
        </g>
    </g>
</svg>
