<svg xmlns="http://www.w3.org/2000/svg" width="87.017" height="86.666" viewBox="0 0 87.017 86.666">
    <path d="M6685-3776.964a43.5 43.5 0 0 0-34.6-39.141 43.817 43.817 0 0 0-8.826-.9 43.38 43.38 0 0 0-30.39 12.388 43.138 43.138 0 0 0-13.071 30.944v12.026a7.138 7.138 0 0 0 7.221 7.208 7.139 7.139 0 0 0 7.22-7.208v-12.026a29.048 29.048 0 0 1 29.068-28.965 29.05 29.05 0 0 1 29.069 28.965v12.026a7.136 7.136 0 0 0 7.217 7.208 7.139 7.139 0 0 0 7.222-7.208v-12.026q-.004-1.658-.13-3.291z" transform="translate(-6598.11 3817)"/>
    <path d="M6678.4-3662.971a16.885 16.885 0 0 1-16.45-13.181 16.917 16.917 0 0 1-.416-3.71v-12.027a19.324 19.324 0 0 0-19.315-19.231 19.326 19.326 0 0 0-19.315 19.231v12.027a16.863 16.863 0 0 1-16.834 16.892 7.108 7.108 0 0 0-7.182 7.207 7.107 7.107 0 0 0 7.178 7.209 31.318 31.318 0 0 0 31.277-31.307v-12.027a4.823 4.823 0 0 1 4.875-4.865 4.821 4.821 0 0 1 4.876 4.865v12.027a31.094 31.094 0 0 0 6.71 19.312 31.318 31.318 0 0 0 24.636 12 7.156 7.156 0 0 0 7.235-7.209 7.139 7.139 0 0 0-7.275-7.213z" transform="translate(-6598.715 3735.221)"/>
</svg>
