<svg xmlns="http://www.w3.org/2000/svg" xmlns:xlink="http://www.w3.org/1999/xlink" width="236" height="236" viewBox="0 0 236 236"><defs><style>.a{fill:rgba(141,120,175,0.06);}.b{fill:none;}.c{fill:url(#a);}.d{fill:#4b2091;}.e{fill:url(#c);}.f{fill:#fff;}.g{filter:url(#e);}</style><linearGradient id="a" x1="0.038" y1="0.823" x2="0.213" y2="0.108" gradientUnits="objectBoundingBox"><stop offset="0" stop-color="#9a67eb"/><stop offset="1" stop-color="#8052ff"/></linearGradient><linearGradient id="c" x1="0.5" y1="0" x2="0.5" y2="1" xlink:href="#a"/><filter id="e" x="149.81" y="104.444" width="19.92" height="19.95" filterUnits="userSpaceOnUse"><feOffset input="SourceAlpha"/><feGaussianBlur stdDeviation="1.25" result="f"/><feFlood flood-color="#0c5298" flood-opacity="0.659" result="g"/><feComposite operator="out" in="SourceGraphic" in2="f"/><feComposite operator="in" in="g"/><feComposite operator="in" in2="SourceGraphic"/></filter></defs><g transform="translate(-90 -180)"><rect class="a" width="185" height="179" rx="51" transform="translate(116 209)"/><rect class="b" width="236" height="236" transform="translate(90 180)"/><g transform="translate(101.587 -180.774)"><g transform="translate(139.565 445.956) rotate(131)"><path class="c" d="M70.208,12.872H88.369a6.847,6.847,0,0,1,1.217.025V5.342C89.586,2.45,86.612,0,82.879,0H6.869C3.138,0,0,2.45,0,5.342V40.6C0,43.5,3.138,46,6.869,46h76.01c5.162,0,6.707-3.794,6.707-5.4V32.746a6.754,6.754,0,0,1-1.217.082H70.208c-3.134,0-5.67-1.935-5.67-4.361V17.176C64.538,14.748,67.074,12.872,70.208,12.872Z" transform="translate(0 0)"/><path class="c" d="M0,7.788A7.764,7.764,0,1,0,13.448,2.5,7.751,7.751,0,0,0,0,7.788Z" transform="translate(71.731 15.19)"/></g><path class="d" d="M70.208,3.877H88.369c.439,0,.788-.015,1.217.007V1.609C89.586.738,86.612,0,82.879,0H6.869C3.138,0,0,.738,0,1.609V12.231c0,.871,3.138,1.626,6.869,1.626h76.01c5.162,0,6.707-1.143,6.707-1.626V9.863c-.429.023-.779.025-1.217.025H70.208c-3.134,0-5.67-.582-5.67-1.313v-3.4C64.538,4.442,67.074,3.877,70.208,3.877Z" transform="matrix(-0.927, 0.375, -0.375, -0.927, 141.418, 452.566)"/><g transform="translate(44.413 476.694) rotate(-20)"><path class="e" d="M84.731,19.094h21.918a6.623,6.623,0,0,1,1.468.037V7.923A8.046,8.046,0,0,0,100.02,0H8.29A8.221,8.221,0,0,0,0,7.923V60.231A8.293,8.293,0,0,0,8.29,68.24h91.73c6.229,0,8.1-5.627,8.1-8.009V48.574a6.709,6.709,0,0,1-1.468.12H84.731a6.644,6.644,0,0,1-6.844-6.467V25.479A6.575,6.575,0,0,1,84.731,19.094Z" transform="translate(0 0)"/><g data-type="innerShadowGroup"><path class="e" d="M0,7.788A7.764,7.764,0,1,0,13.448,2.5,7.751,7.751,0,0,0,0,7.788Z" transform="translate(90.261 26.292)"/><g class="g" transform="matrix(0.94, 0.34, -0.34, 0.94, -12.98, -128.08)"><path class="f" d="M0,7.788A7.764,7.764,0,1,0,13.448,2.5,7.751,7.751,0,0,0,0,7.788Z" transform="translate(149.81 109.75) rotate(-20)"/></g></g></g></g></g></svg>