<svg xmlns="http://www.w3.org/2000/svg" xmlns:xlink="http://www.w3.org/1999/xlink" width="236" height="236" viewBox="0 0 236 236"><defs><style>.a{fill:none;}.b{opacity:0.08;fill:url(#a);}.c{fill-rule:evenodd;fill:url(#b);}</style><linearGradient id="a" x1="0.5" x2="0.5" y2="1" gradientUnits="objectBoundingBox"><stop offset="0" stop-color="#378dba"/><stop offset="1" stop-color="#1c7286"/></linearGradient><linearGradient id="b" x1="0.5" x2="0.5" y2="1" gradientUnits="objectBoundingBox"><stop offset="0" stop-color="#65bdec"/><stop offset="1" stop-color="#53b5fd"/></linearGradient></defs><g transform="translate(-83 -196)"><rect class="a" width="236" height="236" transform="translate(83 196)"/><rect class="b" width="185" height="179" rx="51" transform="translate(109 225)"/><g transform="translate(153.2 269.403)"><path class="c" d="M31.175,7.027A47,47,0,0,1,95.8,50.606a5.222,5.222,0,0,1-10.444,0A36.556,36.556,0,0,0,35.092,16.7a5.222,5.222,0,1,1-3.917-9.676ZM20.925,19.058a5.222,5.222,0,0,1,.458,7.369,36.4,36.4,0,0,0-9.139,24.179,5.222,5.222,0,0,1-10.444,0A46.843,46.843,0,0,1,13.55,19.519a5.222,5.222,0,0,1,7.375-.458Z" transform="translate(0 0)"/><path class="c" d="M12.035,36.911a26.111,26.111,0,0,1,52.222,0,5.222,5.222,0,0,1-10.444,0,15.667,15.667,0,0,0-31.333,0,62.536,62.536,0,0,1-5.054,24.7,5.222,5.222,0,1,1-9.6-4.12,52.034,52.034,0,0,0,4.207-20.576ZM58.623,47.419a5.222,5.222,0,0,1,4.34,5.979,103.711,103.711,0,0,1-2.846,12.722,5.222,5.222,0,1,1-10.027-2.913A93.813,93.813,0,0,0,52.65,51.76a5.222,5.222,0,0,1,5.974-4.334Z" transform="translate(10.654 13.695)"/><path class="c" d="M25.56,18a5.222,5.222,0,0,1,5.222,5.222,83.366,83.366,0,0,1-6.737,32.92,5.222,5.222,0,1,1-9.6-4.12,72.862,72.862,0,0,0,5.89-28.8A5.222,5.222,0,0,1,25.56,18Z" transform="translate(23.24 27.384)"/></g></g></svg>