<svg xmlns="http://www.w3.org/2000/svg" xmlns:xlink="http://www.w3.org/1999/xlink" width="236" height="236" viewBox="0 0 236 236"><defs><style>.a{opacity:0.074;}.a,.b{fill:url(#a);}.c{fill:#fff;}.d{fill:none;}.e{filter:url(#o);}.f{filter:url(#k);}.g{filter:url(#g);}.h{filter:url(#c);}</style><linearGradient id="a" x1="0.5" x2="0.5" y2="1" gradientUnits="objectBoundingBox"><stop offset="0" stop-color="#ebc767"/><stop offset="1" stop-color="#ffa852"/></linearGradient><filter id="c" x="104.652" y="98.617" width="36.534" height="61.544" filterUnits="userSpaceOnUse"><feOffset input="SourceAlpha"/><feGaussianBlur stdDeviation="0.5" result="d"/><feFlood flood-color="#ebff00" flood-opacity="0.161" result="e"/><feComposite operator="out" in="SourceGraphic" in2="d"/><feComposite operator="in" in="e"/><feComposite operator="in" in2="SourceGraphic"/></filter><filter id="g" x="128.468" y="92.652" width="36.533" height="61.544" filterUnits="userSpaceOnUse"><feOffset input="SourceAlpha"/><feGaussianBlur stdDeviation="0.5" result="h"/><feFlood flood-color="#ebff00" flood-opacity="0.161" result="i"/><feComposite operator="out" in="SourceGraphic" in2="h"/><feComposite operator="in" in="i"/><feComposite operator="in" in2="SourceGraphic"/></filter><filter id="k" x="71" y="81.966" width="36.532" height="61.545" filterUnits="userSpaceOnUse"><feOffset input="SourceAlpha"/><feGaussianBlur stdDeviation="0.5" result="l"/><feFlood flood-color="#ebff00" flood-opacity="0.161" result="m"/><feComposite operator="out" in="SourceGraphic" in2="l"/><feComposite operator="in" in="m"/><feComposite operator="in" in2="SourceGraphic"/></filter><filter id="o" x="94.811" y="76" width="36.535" height="61.545" filterUnits="userSpaceOnUse"><feOffset input="SourceAlpha"/><feGaussianBlur stdDeviation="0.5" result="p"/><feFlood flood-color="#ebff00" flood-opacity="0.161" result="q"/><feComposite operator="out" in="SourceGraphic" in2="p"/><feComposite operator="in" in="q"/><feComposite operator="in" in2="SourceGraphic"/></filter></defs><g transform="translate(-89 -187)"><rect class="a" width="185" height="179" rx="51" transform="translate(115 216)"/><g transform="translate(160 263)"><g data-type="innerShadowGroup"><path class="b" d="M-6614.656-3897.493c1.946-3.876,6.146-5.7,9.383-4.08s4.282,6.083,2.338,9.959l-22.858,46.318c-1.943,3.878-6.142,5.7-9.38,4.082s-4.284-6.084-2.343-9.96Z" transform="translate(6672.145 3924.783)"/><g class="h" transform="matrix(1, 0, 0, 1, -71, -76)"><path class="c" d="M-6614.656-3897.493c1.946-3.876,6.146-5.7,9.383-4.08s4.282,6.083,2.338,9.959l-22.858,46.318c-1.943,3.878-6.142,5.7-9.38,4.082s-4.284-6.084-2.343-9.96Z" transform="translate(6743.15 4000.78)"/></g></g><g data-type="innerShadowGroup"><path class="b" d="M-6546.271-3914.628c1.945-3.88,6.147-5.7,9.383-4.082s4.283,6.082,2.338,9.959l-22.857,46.32c-1.945,3.876-6.147,5.7-9.381,4.079s-4.283-6.082-2.339-9.959Z" transform="translate(6627.572 3935.954)"/><g class="g" transform="matrix(1, 0, 0, 1, -71, -76)"><path class="c" d="M-6546.271-3914.628c1.945-3.88,6.147-5.7,9.383-4.082s4.283,6.082,2.338,9.959l-22.857,46.32c-1.945,3.876-6.147,5.7-9.381,4.079s-4.283-6.082-2.339-9.959Z" transform="translate(6698.57 4011.95)"/></g></g><g data-type="innerShadowGroup"><path class="b" d="M-6711.313-3945.323c1.945-3.877,6.147-5.7,9.381-4.082s4.286,6.082,2.339,9.959l-22.859,46.32c-1.942,3.876-6.144,5.7-9.381,4.082s-4.28-6.084-2.338-9.961Z" transform="translate(6735.147 3955.962)"/><g class="f" transform="matrix(1, 0, 0, 1, -71, -76)"><path class="c" d="M-6711.313-3945.323c1.945-3.877,6.147-5.7,9.381-4.082s4.286,6.082,2.339,9.959l-22.859,46.32c-1.942,3.876-6.144,5.7-9.381,4.082s-4.28-6.084-2.338-9.961Z" transform="translate(6806.15 4031.96)"/></g></g><g data-type="innerShadowGroup"><path class="b" d="M-6642.924-3962.461c1.94-3.876,6.143-5.7,9.381-4.08s4.283,6.083,2.337,9.959l-22.856,46.319c-1.945,3.876-6.144,5.7-9.381,4.081s-4.286-6.084-2.342-9.962Z" transform="translate(6690.573 3967.133)"/><g class="e" transform="matrix(1, 0, 0, 1, -71, -76)"><path class="c" d="M-6642.924-3962.461c1.94-3.876,6.143-5.7,9.381-4.08s4.283,6.083,2.337,9.959l-22.856,46.319c-1.945,3.876-6.144,5.7-9.381,4.081s-4.286-6.084-2.342-9.962Z" transform="translate(6761.57 4043.13)"/></g></g></g><rect class="d" width="236" height="236" transform="translate(89 187)"/></g></svg>