<svg xmlns="http://www.w3.org/2000/svg" xmlns:xlink="http://www.w3.org/1999/xlink" width="236" height="236" viewBox="0 0 236 236"><defs><style>.a{fill:none;}.b{fill:url(#a);}.c{fill:#fff;}.d{fill:#34899a;}.e{fill-rule:evenodd;fill:url(#d);}.f{filter:url(#b);}</style><linearGradient id="a" x1="0.5" x2="0.5" y2="1" gradientUnits="objectBoundingBox"><stop offset="0" stop-color="#3b3b3b"/><stop offset="1" stop-color="#1a1a1a"/></linearGradient><filter id="b" x="17" y="23" width="203" height="197" filterUnits="userSpaceOnUse"><feOffset dy="3" input="SourceAlpha"/><feGaussianBlur stdDeviation="3" result="c"/><feFlood flood-opacity="0.161"/><feComposite operator="in" in2="c"/><feComposite in="SourceGraphic"/></filter><linearGradient id="d" x1="0.5" x2="0.5" y2="1" gradientUnits="objectBoundingBox"><stop offset="0" stop-color="#67ebb3"/><stop offset="1" stop-color="#52caff"/></linearGradient></defs><g transform="translate(-83 -196)"><rect class="a" width="236" height="236" transform="translate(83 196)"/><g class="f" transform="matrix(1, 0, 0, 1, 83, 196)"><rect class="b" width="185" height="179" rx="51" transform="translate(26 29)"/></g><g transform="translate(82.099 197.67)"><g transform="translate(65.901 72.33)"><g transform="translate(0 0)"><g data-type="innerShadowGroup"><path class="c" d="M3099.118,1718.282l26.548-15.327,26.548-15.419-26.548-15.328h0l-26.548,15.328-26.546-15.328-26.548,15.328,26.548,15.419Z" transform="translate(-3046.024 -1630.603)"/><path class="c" d="M3099.118,1718.282l26.548-15.327,26.548-15.419-26.548-15.328h0l-26.548,15.328-26.546-15.328-26.548,15.328,26.548,15.419Z" transform="translate(-3046.024 -1630.603)"/></g><g data-type="innerShadowGroup"><path class="c" d="M3099.118,1599.074l26.548-15.328,26.548-15.419L3125.666,1553h0l-26.548,15.327L3072.572,1553l-26.548,15.327,26.548,15.419Z" transform="translate(-3046.024 -1553)"/><path class="c" d="M3099.118,1599.074l26.548-15.328,26.548-15.419L3125.666,1553h0l-26.548,15.327L3072.572,1553l-26.548,15.327,26.548,15.419Z" transform="translate(-3046.024 -1553)"/></g></g></g></g><path class="d" d="M2239.7,10461.5l1.885-11.187v-4.9l-9.5-6.227-5.766,8.98-11.557,5.183-3.365-1.264,1.6,14.464,17.807,5.868Z" transform="translate(-1951 -10211)"/><path class="e" d="M26.764,53.528A26.764,26.764,0,1,0,0,26.764,26.764,26.764,0,0,0,26.764,53.528ZM39.41,21.01a2.51,2.51,0,0,0-3.546-3.546L22.583,30.745l-4.919-4.917a2.51,2.51,0,0,0-3.546,3.546l6.691,6.691a2.51,2.51,0,0,0,3.546,0L39.41,21.01Z" transform="translate(248.34 217.132)"/></g></svg>