<svg xmlns="http://www.w3.org/2000/svg" width="220.362" height="215.37" viewBox="0 0 220.362 215.37">
    <defs>
        <style>
            .cls-2{stroke:#353650;stroke-width:.5px}
        </style>
    </defs>
    <g id="MAIN_LOGO_SPLASH" transform="translate(0 1)">
        <g id="Component_438_1">
            <g id="elastOS_LOGO_WHITE" transform="translate(51.192)">
                <g id="Layer_2">
                    <g id="Group_102">
                        <path id="Path_638" stroke="#000" stroke-miterlimit="10" stroke-width="2px" d="M2903.545 1462.335a55.9 55.9 0 0 1-21.326-20.913 61.184 61.184 0 0 1 0-59.68 55.931 55.931 0 0 1 21.326-20.913 63.979 63.979 0 0 1 60.506 0 55.965 55.965 0 0 1 21.326 20.913 61.184 61.184 0 0 1 0 59.68 55.931 55.931 0 0 1-21.326 20.913 63.981 63.981 0 0 1-60.506 0zm58.771-2.728a52.851 52.851 0 0 0 20.169-19.838 57.679 57.679 0 0 0 0-56.374 52.851 52.851 0 0 0-20.169-19.838 60.136 60.136 0 0 0-57.035 0 52.813 52.813 0 0 0-20.169 19.838 57.675 57.675 0 0 0 0 56.374 52.813 52.813 0 0 0 20.169 19.838 60.138 60.138 0 0 0 57.035 0z" transform="translate(-2874.449 -1353.225)"/>
                    </g>
                </g>
                <g id="Layer_12" transform="translate(36.173 40.711)">
                    <g id="Group_103">
                        <path id="Path_639" d="M3070.256 1693.236l12.116-7 12.116-7.037-12.116-7-12.116 7-12.116-7-12.116 7 12.116 7.037z" transform="translate(-3046.024 -1653.22)"/>
                        <path id="Path_640" d="M3070.256 1574.027l12.116-7 12.116-7.037-12.116-7-12.116 7-12.116-7-12.116 7 12.116 7.037z" transform="translate(-3046.024 -1553)"/>
                    </g>
                </g>
            </g>
            <g id="Component_437_1" transform="translate(0 142.77)">
                <path id="Path_2448" d="M-2329.967-4442.868l-3.04-3.556a11.275 11.275 0 0 1-8.776 3.671 11.51 11.51 0 0 1-7.485-2.437 9.546 9.546 0 0 1-3.527-6.453h24.663a15.859 15.859 0 0 0 .115-1.664 16.866 16.866 0 0 0-1.922-8.145 13.906 13.906 0 0 0-5.334-5.535 15.214 15.214 0 0 0-7.772-1.979 15.523 15.523 0 0 0-7.829 1.979 14.173 14.173 0 0 0-5.449 5.535 16.115 16.115 0 0 0-1.979 7.973 15.863 15.863 0 0 0 2.036 8.03 14.1 14.1 0 0 0 5.764 5.535 17.956 17.956 0 0 0 8.546 1.979 17.865 17.865 0 0 0 6.854-1.262 13.315 13.315 0 0 0 5.135-3.671zm-19.7-19.042a9.516 9.516 0 0 1 6.625-2.409 9.454 9.454 0 0 1 6.625 2.438 9.78 9.78 0 0 1 3.126 6.281h-19.5a9.711 9.711 0 0 1 3.122-6.31z" transform="translate(2358.301 4480.837)"/>
                <path id="Rectangle_733" d="M0 0H5.506V42.559H0z" transform="translate(38.486)"/>
                <path id="Path_2449" d="M-1960.252-4442.294v4.015h5.219v-18.354q0-6.137-3.355-9.234t-9.665-3.1a23.524 23.524 0 0 0-6.94 1 16.645 16.645 0 0 0-5.621 2.9l2.294 4.129a13.61 13.61 0 0 1 4.359-2.38 16.1 16.1 0 0 1 5.277-.889q4.014 0 6.08 1.893a7.02 7.02 0 0 1 2.065 5.449v1.09h-8.718q-6.366 0-9.292 2.438a7.985 7.985 0 0 0-2.925 6.453 7.91 7.91 0 0 0 3.069 6.481 12.66 12.66 0 0 0 8.173 2.466 15 15 0 0 0 6.051-1.118 8.705 8.705 0 0 0 3.929-3.239zm-3.614-1.291a10.224 10.224 0 0 1-5.449 1.4 8.125 8.125 0 0 1-4.933-1.319 4.254 4.254 0 0 1-1.778-3.613q0-4.7 7-4.7h8.489v4.245a8.043 8.043 0 0 1-3.328 3.988z" transform="translate(2034.184 4480.837)"/>
                <path id="Path_2450" d="M-1720.663-4440.373a7.6 7.6 0 0 0 3.527-6.567 6.792 6.792 0 0 0-1.606-4.818 8.871 8.871 0 0 0-3.871-2.437 46.545 46.545 0 0 0-5.936-1.348q-2.753-.516-4.273-.918a6.51 6.51 0 0 1-2.552-1.262 2.9 2.9 0 0 1-1.032-2.352 3.462 3.462 0 0 1 1.835-3.04 10.148 10.148 0 0 1 5.334-1.147 15.81 15.81 0 0 1 8.776 2.409l2.352-4.359a16.391 16.391 0 0 0-4.99-2.007 25.471 25.471 0 0 0-6.08-.746q-5.794 0-9.234 2.5a7.793 7.793 0 0 0-3.441 6.625 7.018 7.018 0 0 0 1.663 4.99 9.226 9.226 0 0 0 3.986 2.524 40.616 40.616 0 0 0 5.994 1.319q2.7.459 4.158.832a6.186 6.186 0 0 1 2.438 1.176 2.677 2.677 0 0 1 .975 2.18q0 4.129-7.227 4.13a20.069 20.069 0 0 1-5.793-.86 16.457 16.457 0 0 1-4.875-2.294l-2.294 4.359a15.728 15.728 0 0 0 5.391 2.552 25.48 25.48 0 0 0 7.17 1q6.077-.003 9.605-2.441z" transform="translate(1828.922 4480.837)"/>
                <path id="Path_2451" d="M-1517.261-4483.163a6.633 6.633 0 0 1-4.3 1.434 4.589 4.589 0 0 1-3.527-1.319 5.338 5.338 0 0 1-1.233-3.786v-16.461h8.718v-4.531h-8.718v-6.653h-5.506v6.653h-5.162v4.531h5.162v16.691q0 4.589 2.524 7.055t7.112 2.466a12.473 12.473 0 0 0 3.671-.544 8.217 8.217 0 0 0 2.983-1.578z" transform="translate(1651.876 4519.985)"/>
                <path id="Path_2452" d="M-1317.315-4537.235a22.327 22.327 0 0 0-10.9-2.667 22.441 22.441 0 0 0-10.955 2.667 19.712 19.712 0 0 0-7.657 7.37 20.226 20.226 0 0 0-2.782 10.5 20.22 20.22 0 0 0 2.782 10.5 19.7 19.7 0 0 0 7.657 7.37 22.441 22.441 0 0 0 10.955 2.667 22.327 22.327 0 0 0 10.9-2.667 19.571 19.571 0 0 0 7.628-7.341 20.348 20.348 0 0 0 2.753-10.525 20.351 20.351 0 0 0-2.753-10.525 19.578 19.578 0 0 0-7.628-7.349zm2.61 25.753a14.729 14.729 0 0 1-5.564 5.535 15.769 15.769 0 0 1-7.944 2.007 16.083 16.083 0 0 1-8-2.007 14.6 14.6 0 0 1-5.621-5.535 15.483 15.483 0 0 1-2.036-7.886 15.486 15.486 0 0 1 2.036-7.887 14.614 14.614 0 0 1 5.621-5.535 16.093 16.093 0 0 1 8-2.007 15.779 15.779 0 0 1 7.944 2.007 14.74 14.74 0 0 1 5.564 5.535 15.5 15.5 0 0 1 2.036 7.887 15.493 15.493 0 0 1-2.037 7.886z" transform="translate(1490.702 4541.852)"/>
                <path id="Path_2453" d="M-975-4516.271a12.264 12.264 0 0 0-4.732-3.327 56.249 56.249 0 0 0-7.284-2.18 53.074 53.074 0 0 1-5.535-1.52 9.541 9.541 0 0 1-3.413-2.007 4.389 4.389 0 0 1-1.377-3.355 5.446 5.446 0 0 1 2.438-4.588q2.437-1.778 7.313-1.778a20.136 20.136 0 0 1 5.621.832 20.8 20.8 0 0 1 5.391 2.438l1.893-4.588a18.624 18.624 0 0 0-5.908-2.639 27.066 27.066 0 0 0-7-.917 20.824 20.824 0 0 0-8.546 1.548 11.621 11.621 0 0 0-5.133 4.13 10.334 10.334 0 0 0-1.692 5.793 8.96 8.96 0 0 0 1.979 6.108 12.078 12.078 0 0 0 4.761 3.355 57.523 57.523 0 0 0 7.313 2.18q3.613.86 5.592 1.548a9.018 9.018 0 0 1 3.327 1.979 4.438 4.438 0 0 1 1.348 3.355 5.215 5.215 0 0 1-2.466 4.5q-2.467 1.693-7.456 1.692a21.6 21.6 0 0 1-7.37-1.291 17.568 17.568 0 0 1-5.879-3.355l-2.122 4.474a17.952 17.952 0 0 0 6.625 3.643 27.47 27.47 0 0 0 8.747 1.4 21.6 21.6 0 0 0 8.6-1.52 11.523 11.523 0 0 0 5.219-4.13 10.25 10.25 0 0 0 1.721-5.764 8.761 8.761 0 0 0-1.975-6.016z" transform="translate(1193.387 4541.852)"/>
            </g>
        </g>
        <g id="Group_13014" transform="translate(418.707 3855.736)">
            <path id="Path_21623" d="M-394.821-3644.122a20.142 20.142 0 0 0-2.39-.72c-.821-.2-1.485-.391-1.974-.562a3.148 3.148 0 0 1-1.2-.73 1.687 1.687 0 0 1-.468-1.242 2.05 2.05 0 0 1 .862-1.7 4.285 4.285 0 0 1 2.608-.665 6.68 6.68 0 0 1 1.856.275 6.558 6.558 0 0 1 1.78.823l.069.046.533-1.257-.046-.032a6.556 6.556 0 0 0-1.924-.88 8.213 8.213 0 0 0-2.267-.318 6.835 6.835 0 0 0-2.783.5 3.754 3.754 0 0 0-1.675 1.355 3.423 3.423 0 0 0-.547 1.884 2.951 2.951 0 0 0 .658 2.016 4.041 4.041 0 0 0 1.567 1.1 20.82 20.82 0 0 0 2.42.739 19.437 19.437 0 0 1 1.963.562 3.244 3.244 0 0 1 1.171.721 1.655 1.655 0 0 1 .467 1.232 1.976 1.976 0 0 1-.871 1.656 4.5 4.5 0 0 1-2.657.647 7.021 7.021 0 0 1-2.463-.445 5.258 5.258 0 0 1-1.908-1.161l-.067-.067-.62 1.219.034.035a5.348 5.348 0 0 0 2.141 1.28 8.711 8.711 0 0 0 2.883.482 7.1 7.1 0 0 0 2.8-.494 3.75 3.75 0 0 0 1.7-1.345 3.381 3.381 0 0 0 .556-1.884 2.913 2.913 0 0 0-.648-1.987 4 4 0 0 0-1.56-1.083z" class="cls-2" transform="translate(0 -4.294)"/>
            <path id="Path_21624" d="M-296.288-3626.718a5.013 5.013 0 0 0-2.415.573 4.013 4.013 0 0 0-1.557 1.469 3.346 3.346 0 0 0-1.36-1.5 4.392 4.392 0 0 0-2.225-.545 4.791 4.791 0 0 0-2.232.505 3.717 3.717 0 0 0-1.391 1.237v-1.665h-1.439v10.2h1.5v-5.349a3.69 3.69 0 0 1 .89-2.621 3.16 3.16 0 0 1 2.408-.944 2.723 2.723 0 0 1 2.1.8 3.366 3.366 0 0 1 .737 2.344v5.77h1.5v-5.349a3.715 3.715 0 0 1 .881-2.622 3.152 3.152 0 0 1 2.417-.944 2.7 2.7 0 0 1 2.082.8 3.367 3.367 0 0 1 .737 2.344v5.77h1.5v-5.9a4.467 4.467 0 0 0-1.1-3.263 4.084 4.084 0 0 0-3.033-1.11z" class="cls-2" transform="translate(-80.853 -25.29)"/>
            <path id="Path_21625" d="M-159.245-3625.714a4.345 4.345 0 0 0-3.07-1 7.255 7.255 0 0 0-2.279.357 5.527 5.527 0 0 0-1.86 1.018l-.045.038.685 1.135.062-.054a4.58 4.58 0 0 1 1.489-.857 5.352 5.352 0 0 1 1.813-.312 2.951 2.951 0 0 1 2.076.66 2.526 2.526 0 0 1 .7 1.929v.543h-3.126a4.625 4.625 0 0 0-3 .8 2.65 2.65 0 0 0-.952 2.119 2.672 2.672 0 0 0 1.02 2.177 4.224 4.224 0 0 0 2.722.819 4.812 4.812 0 0 0 2.145-.447 3.245 3.245 0 0 0 1.249-1.05v1.4h1.439v-6.306a3.89 3.89 0 0 0-1.068-2.969zm-.422 4.606v1.563a3.085 3.085 0 0 1-1.193 1.476 3.53 3.53 0 0 1-1.933.515 3 3 0 0 1-1.833-.493 1.586 1.586 0 0 1-.642-1.332c0-1.164.822-1.729 2.514-1.729z" class="cls-2" transform="translate(-203.367 -25.29)"/>
            <path id="Path_21626" d="M-74.838-3626.193a3.335 3.335 0 0 0-1.323 1.307v-1.756H-77.6v10.2h1.5v-5.2a3.837 3.837 0 0 1 .881-2.689 3.158 3.158 0 0 1 2.432-.954l.4.023v-1.462h-.069a4.929 4.929 0 0 0-2.382.531z" class="cls-2" transform="translate(-280.192 -25.29)"/>
            <path id="Path_21627" d="M-23.57-3631.391a1.964 1.964 0 0 1-.656.37 2.446 2.446 0 0 1-.791.13 1.647 1.647 0 0 1-1.241-.447 1.844 1.844 0 0 1-.43-1.32v-5.938h3.061v-1.286h-3.061v-2.2h-1.5v2.2h-1.8v1.286h1.8v6.014a3 3 0 0 0 .786 2.211 3.029 3.029 0 0 0 2.23.785 3.9 3.9 0 0 0 1.2-.185 2.651 2.651 0 0 0 .972-.54l.039-.035-.541-1.1z" class="cls-2" transform="translate(-321.228 -12.049)"/>
            <path id="Path_21628" d="M44.846-3638.822l-3.891-11.429h-1.419l-3.948 11.372-3.816-11.372h-1.6l4.562 13.53h1.572L40.2-3648l3.857 11.231.016.046h1.591l4.562-13.53h-1.5z" class="cls-2" transform="translate(-373.07 -5.01)"/>
            <path id="Path_21629" d="M186.7-3626.058a4.954 4.954 0 0 0-2.541-.66 5.005 5.005 0 0 0-2.55.66 4.731 4.731 0 0 0-1.786 1.844 5.485 5.485 0 0 0-.649 2.673 5.3 5.3 0 0 0 .679 2.675 4.843 4.843 0 0 0 1.892 1.853 5.677 5.677 0 0 0 2.779.669 5.752 5.752 0 0 0 2.236-.426 4.4 4.4 0 0 0 1.7-1.244l.038-.045-.856-.984-.052.059a3.711 3.711 0 0 1-1.334.967 4.3 4.3 0 0 1-1.695.329 3.951 3.951 0 0 1-2.709-.949 3.528 3.528 0 0 1-1.176-2.414h8.409l.022-.49a5.537 5.537 0 0 0-.64-2.682 4.7 4.7 0 0 0-1.767-1.835zm.96 3.855h-6.983a3.573 3.573 0 0 1 1.09-2.3 3.37 3.37 0 0 1 2.392-.909 3.4 3.4 0 0 1 2.411.909 3.576 3.576 0 0 1 1.092 2.303z" class="cls-2" transform="translate(-501.48 -25.29)"/>
            <path id="Path_21630" d="M279.354-3651.358a5.26 5.26 0 0 0-2.6-.65 4.852 4.852 0 0 0-2.241.515 4.24 4.24 0 0 0-1.516 1.32v-5.89h-1.5v14.333h1.439v-1.822a4.193 4.193 0 0 0 1.515 1.374 4.829 4.829 0 0 0 2.3.544 5.2 5.2 0 0 0 2.6-.66 4.733 4.733 0 0 0 1.825-1.844 5.462 5.462 0 0 0 .659-2.693 5.464 5.464 0 0 0-.659-2.693 4.677 4.677 0 0 0-1.822-1.834zm-2.693.675a3.76 3.76 0 0 1 1.879.479 3.4 3.4 0 0 1 1.322 1.36 4.176 4.176 0 0 1 .479 2.014 4.174 4.174 0 0 1-.479 2.014 3.392 3.392 0 0 1-1.322 1.36 3.759 3.759 0 0 1-1.879.479 3.745 3.745 0 0 1-1.888-.479 3.408 3.408 0 0 1-1.313-1.36 4.172 4.172 0 0 1-.48-2.014 4.176 4.176 0 0 1 .48-2.014 3.414 3.414 0 0 1 1.313-1.36 3.746 3.746 0 0 1 1.888-.48z" class="cls-2" transform="translate(-581.048)"/>
            <path id="Path_21631" d="M415.191-3643.714a3.3 3.3 0 0 0 1.34-1.1 3.271 3.271 0 0 0 .558-1.924 3.042 3.042 0 0 0-1.262-2.6 5.9 5.9 0 0 0-3.513-.912h-5.847v13.53h6.233a6.44 6.44 0 0 0 3.8-.941 3.16 3.16 0 0 0 1.3-2.706 3.366 3.366 0 0 0-.734-2.235 3.543 3.543 0 0 0-1.875-1.112zm-.507-1.119a4.257 4.257 0 0 1-2.466.609h-4.2v-4.721h4.2a4.262 4.262 0 0 1 2.466.609 2.018 2.018 0 0 1 .851 1.751 2.018 2.018 0 0 1-.852 1.752zm-6.663 1.914h4.656c2.4 0 3.566.8 3.566 2.437a2.079 2.079 0 0 1-.888 1.856 4.879 4.879 0 0 1-2.678.6h-4.657z" class="cls-2" transform="translate(-697.358 -5.011)"/>
            <path id="Path_21632" d="M512.908-3626.193a3.335 3.335 0 0 0-1.323 1.307v-1.756h-1.439v10.2h1.5v-5.2a3.837 3.837 0 0 1 .881-2.689 3.158 3.158 0 0 1 2.432-.954l.4.023v-1.462h-.069a4.929 4.929 0 0 0-2.382.531z" class="cls-2" transform="translate(-786.709 -25.29)"/>
            <path id="Path_21633" d="M565.755-3626.059a5.387 5.387 0 0 0-2.654-.659 5.384 5.384 0 0 0-2.655.659 4.838 4.838 0 0 0-1.863 1.843 5.3 5.3 0 0 0-.679 2.675 5.3 5.3 0 0 0 .679 2.675 4.9 4.9 0 0 0 1.863 1.853 5.322 5.322 0 0 0 2.655.669 5.323 5.323 0 0 0 2.655-.669 4.836 4.836 0 0 0 1.853-1.853 5.359 5.359 0 0 0 .669-2.674 5.361 5.361 0 0 0-.669-2.674 4.769 4.769 0 0 0-1.854-1.845zm-2.654 8.371a3.744 3.744 0 0 1-1.888-.479 3.411 3.411 0 0 1-1.313-1.36 4.173 4.173 0 0 1-.48-2.014 4.174 4.174 0 0 1 .48-2.014 3.414 3.414 0 0 1 1.313-1.36 3.745 3.745 0 0 1 1.888-.479 3.747 3.747 0 0 1 1.888.479 3.353 3.353 0 0 1 1.3 1.36 4.244 4.244 0 0 1 .47 2.014 4.244 4.244 0 0 1-.47 2.015 3.349 3.349 0 0 1-1.3 1.36 3.746 3.746 0 0 1-1.889.478z" class="cls-2" transform="translate(-827.867 -25.29)"/>
            <path id="Path_21634" d="M650.693-3617.74l-3.149-8.379-.017-.044h-1.263l-3.185 8.423-3.093-8.378-.017-.045h-1.449l3.84 10.2h1.377l3.128-8.122 3.111 8.078.017.044h1.377l3.859-10.2h-1.389z" class="cls-2" transform="translate(-897.343 -25.768)"/>
            <path id="Path_21635" d="M769.919-3621.664a17.892 17.892 0 0 0-1.941-.461 14.951 14.951 0 0 1-1.523-.333 2.233 2.233 0 0 1-.9-.491 1.114 1.114 0 0 1-.351-.868 1.33 1.33 0 0 1 .63-1.148 3.392 3.392 0 0 1 1.922-.447 5.036 5.036 0 0 1 2.926.849l.063.044.66-1.213-.053-.035a5.462 5.462 0 0 0-1.628-.688 7.7 7.7 0 0 0-1.969-.261 4.812 4.812 0 0 0-2.969.818 2.565 2.565 0 0 0-1.079 2.121 2.337 2.337 0 0 0 .544 1.635 2.974 2.974 0 0 0 1.3.832 17.009 17.009 0 0 0 1.98.471 13.123 13.123 0 0 1 1.465.314 2.361 2.361 0 0 1 .892.464 1.031 1.031 0 0 1 .34.818 1.293 1.293 0 0 1-.629 1.157 3.754 3.754 0 0 1-2 .419 6.269 6.269 0 0 1-1.968-.312 5.115 5.115 0 0 1-1.567-.8l-.063-.05-.68 1.191.044.037a5.122 5.122 0 0 0 1.774.9 7.821 7.821 0 0 0 2.364.357 5.321 5.321 0 0 0 3.091-.787 2.51 2.51 0 0 0 1.129-2.151 2.235 2.235 0 0 0-.535-1.578 2.921 2.921 0 0 0-1.269-.804z" class="cls-2" transform="translate(-1004.897 -25.29)"/>
            <path id="Path_21636" d="M842.836-3626.058a4.955 4.955 0 0 0-2.541-.66 5.005 5.005 0 0 0-2.55.66 4.729 4.729 0 0 0-1.786 1.844 5.486 5.486 0 0 0-.649 2.673 5.3 5.3 0 0 0 .679 2.675 4.845 4.845 0 0 0 1.892 1.853 5.678 5.678 0 0 0 2.779.669 5.752 5.752 0 0 0 2.236-.426 4.392 4.392 0 0 0 1.7-1.244l.038-.045-.856-.984-.052.059a3.709 3.709 0 0 1-1.334.967 4.3 4.3 0 0 1-1.695.329 3.952 3.952 0 0 1-2.709-.949 3.527 3.527 0 0 1-1.176-2.414h8.409l.022-.49a5.535 5.535 0 0 0-.64-2.682 4.7 4.7 0 0 0-1.767-1.835zm.96 3.855h-6.984a3.574 3.574 0 0 1 1.09-2.3 3.37 3.37 0 0 1 2.392-.909 3.4 3.4 0 0 1 2.411.909 3.576 3.576 0 0 1 1.095 2.303z" class="cls-2" transform="translate(-1066.934 -25.29)"/>
            <path id="Path_21637" d="M932.775-3626.718a4.929 4.929 0 0 0-2.376.525 3.333 3.333 0 0 0-1.323 1.307v-1.756h-1.439v10.2h1.5v-5.2a3.836 3.836 0 0 1 .881-2.689 3.158 3.158 0 0 1 2.432-.954l.4.023v-1.462z" class="cls-2" transform="translate(-1146.501 -25.29)"/>
        </g>
    </g>
</svg>
