<svg width="93" height="103" viewBox="0 0 93 103" fill="none" xmlns="http://www.w3.org/2000/svg">
<path d="M0 26.6992H93V90.2679H0V26.6992Z" fill="url(#paint0_linear_3146_5823)"/>
<g filter="url(#filter0_b_3146_5823)">
<rect x="3.98926" y="0.882812" width="85.0214" height="89.3834" rx="3" fill="url(#paint1_linear_3146_5823)" fill-opacity="0.2"/>
<rect x="4.48926" y="1.38281" width="84.0214" height="88.3834" rx="2.5" stroke="url(#paint2_linear_3146_5823)"/>
</g>
<rect x="24.6812" y="35.8828" width="43.6327" height="5.16294" rx="2" fill="black" fill-opacity="0.41"/>
<rect x="14" y="44.7148" width="65" height="11" rx="3" fill="black" fill-opacity="0.41"/>
<path d="M0 78.8828H93V95.116C93 98.982 89.866 102.116 86 102.116H7C3.13401 102.116 0 98.982 0 95.116V78.8828Z" fill="url(#paint3_linear_3146_5823)"/>
<path d="M4.75 79.75H88.25V91C88.25 94.4518 85.4518 97.25 82 97.25H11C7.54822 97.25 4.75 94.4518 4.75 91V79.75Z" stroke="url(#paint4_linear_3146_5823)" stroke-width="1.5"/>
<defs>
<filter id="filter0_b_3146_5823" x="-16.0107" y="-19.1172" width="125.021" height="129.383" filterUnits="userSpaceOnUse" color-interpolation-filters="sRGB">
<feFlood flood-opacity="0" result="BackgroundImageFix"/>
<feGaussianBlur in="BackgroundImage" stdDeviation="10"/>
<feComposite in2="SourceAlpha" operator="in" result="effect1_backgroundBlur_3146_5823"/>
<feBlend mode="normal" in="SourceGraphic" in2="effect1_backgroundBlur_3146_5823" result="shape"/>
</filter>
<linearGradient id="paint0_linear_3146_5823" x1="46.5" y1="26.6992" x2="46.5" y2="90.2679" gradientUnits="userSpaceOnUse">
<stop stop-color="#C4C4C4"/>
<stop offset="0.0001" stop-color="#FC4047"/>
<stop offset="1" stop-color="#BC1F23"/>
</linearGradient>
<linearGradient id="paint1_linear_3146_5823" x1="75.2976" y1="7.82051" x2="-17.361" y2="79.657" gradientUnits="userSpaceOnUse">
<stop stop-color="white"/>
<stop offset="1" stop-color="#DBDBDB"/>
</linearGradient>
<linearGradient id="paint2_linear_3146_5823" x1="89" y1="0.882816" x2="46.5" y2="90.2662" gradientUnits="userSpaceOnUse">
<stop stop-color="white" stop-opacity="0.34"/>
<stop offset="1" stop-color="white" stop-opacity="0"/>
</linearGradient>
<linearGradient id="paint3_linear_3146_5823" x1="46.5" y1="78.8828" x2="46.5" y2="102.116" gradientUnits="userSpaceOnUse">
<stop stop-color="#C4C4C4"/>
<stop offset="0.0001" stop-color="#FC4047"/>
<stop offset="1" stop-color="#BC1F23"/>
</linearGradient>
<linearGradient id="paint4_linear_3146_5823" x1="46.5" y1="79" x2="46.5" y2="98" gradientUnits="userSpaceOnUse">
<stop stop-color="#FFEA78"/>
<stop offset="1" stop-color="#FFEA78" stop-opacity="0.25"/>
</linearGradient>
</defs>
</svg>
