<svg xmlns="http://www.w3.org/2000/svg" width="17.895" height="23.704" viewBox="0 0 17.895 23.704">
    <g id="alarm" transform="translate(.672 .65)">
        <path id="alarm-2" fill="none" stroke="#000" stroke-width="1.3px" d="M21.479 19.2v1.367H4.978V19.2s-.353-.756 1.562-2.569S8.2 10.134 8.2 6.962s4.456-3.24 4.456-3.24h.153v-.516c0-.317-1.064-1.465-1.064-1.465l-.016-.694h3l-.02.721s-1.153 1.147-1.153 1.485v.468h.244s4.456.067 4.456 3.24-.256 7.858 1.662 9.67 1.561 2.569 1.561 2.569zm-6.389 1.747c0 1.038-.82 2.5-1.857 2.5s-1.937-1.467-1.937-2.5c.004.023 3.794-.024 3.794 0z" data-name="alarm" transform="translate(-4.953 -1.047)"/>
    </g>
</svg>
