
<svg width="32" height="32" viewBox="0 0 32 32" fill="none" xmlns="http://www.w3.org/2000/svg">
<path d="M10.0002 9.3335C8.28606 9.3335 6.61045 9.84179 5.18522 10.7941C3.76 11.7464 2.64917 13.0999 1.99321 14.6836C1.33725 16.2672 1.16562 18.0098 1.50003 19.6909C1.83443 21.3721 2.65985 22.9164 3.87191 24.1284C5.08396 25.3405 6.62822 26.1659 8.30938 26.5003C9.99055 26.8347 11.7331 26.6631 13.3168 26.0071C14.9004 25.3512 16.2539 24.2403 17.2062 22.8151C18.1585 21.3899 18.6668 19.7143 18.6668 18.0002C18.6642 15.7024 17.7502 13.4996 16.1255 11.8748C14.5008 10.2501 12.2979 9.33614 10.0002 9.3335ZM10.0002 25.3335C8.54977 25.3335 7.13195 24.9034 5.92598 24.0976C4.72002 23.2918 3.78009 22.1465 3.22505 20.8065C2.67001 19.4665 2.52478 17.992 2.80774 16.5695C3.0907 15.147 3.78913 13.8403 4.81472 12.8147C5.8403 11.7891 7.14698 11.0907 8.5695 10.8077C9.99203 10.5248 11.4665 10.67 12.8065 11.225C14.1465 11.7801 15.2918 12.72 16.0976 13.926C16.9034 15.1319 17.3335 16.5498 17.3335 18.0002C17.3311 19.9443 16.5577 21.8082 15.183 23.183C13.8082 24.5577 11.9444 25.3311 10.0002 25.3335Z" fill="black"/>
<path d="M10.3769 14.1901C10.3343 14.1313 10.2778 14.0834 10.2122 14.0503C10.1467 14.0173 10.0739 14 10.0002 14C9.92638 14 9.85366 14.0173 9.78811 14.0503C9.72256 14.0834 9.66608 14.1313 9.62339 14.1901L7.40104 17.6622C7.36073 17.7253 7.33765 17.7975 7.33401 17.8717C7.33036 17.946 7.34628 18.02 7.38024 18.0865L9.60259 22.4267C9.63949 22.4988 9.69624 22.5594 9.76646 22.6018C9.83668 22.6442 9.91761 22.6667 10.0002 22.6667C10.0827 22.6667 10.1636 22.6442 10.2339 22.6018C10.3041 22.5594 10.3608 22.4988 10.3977 22.4267L12.6201 18.0865C12.654 18.02 12.67 17.946 12.6663 17.8717C12.6627 17.7975 12.6396 17.7253 12.5993 17.6622L10.3769 14.1901ZM10.0002 15.239L11.5637 17.6821L10.0002 18.2928L8.43665 17.6821L10.0002 15.239ZM10.0002 21.2618L8.69827 18.7193L9.83522 19.1634C9.94112 19.2046 10.0592 19.2046 10.1651 19.1634L11.3021 18.7193L10.0002 21.2618Z" fill="black"/>
<path d="M22.0003 5.3335C18.5055 5.3335 14.542 6.10956 13.5629 7.8439C13.5198 7.92015 13.4921 8.00415 13.4815 8.0911C13.4709 8.17804 13.4775 8.26623 13.5009 8.35062C13.5244 8.43501 13.5642 8.51396 13.6182 8.58295C13.6721 8.65195 13.7392 8.70964 13.8154 8.75273C13.8917 8.79582 13.9757 8.82347 14.0626 8.8341C14.1496 8.84473 14.2378 8.83812 14.3221 8.81467C14.4926 8.76731 14.6372 8.65417 14.7243 8.50016C15.2217 7.61863 18.1449 6.66683 22.0003 6.66683C26.7451 6.66683 29.3337 7.98843 29.3337 8.66683C29.3337 9.34523 26.7451 10.6668 22.0003 10.6668C20.7033 10.672 19.4086 10.556 18.1331 10.3202C18.0471 10.3036 17.9587 10.3041 17.8729 10.3217C17.7871 10.3393 17.7056 10.3736 17.633 10.4227C17.5605 10.4718 17.4983 10.5347 17.4501 10.6078C17.4018 10.6809 17.3685 10.7628 17.3519 10.8488C17.3353 10.9348 17.3358 11.0232 17.3534 11.109C17.371 11.1948 17.4053 11.2764 17.4544 11.3489C17.5035 11.4214 17.5664 11.4836 17.6395 11.5318C17.7126 11.5801 17.7945 11.6134 17.8805 11.63C19.2393 11.8815 20.6185 12.0054 22.0003 12.0002C24.8509 12.0002 27.7161 11.496 29.3337 10.5224V11.3335C29.3337 12.0119 26.7451 13.3335 22.0003 13.3335C21.3063 13.3335 20.6019 13.301 19.9053 13.2358C19.73 13.2234 19.5566 13.2792 19.4215 13.3916C19.2864 13.5039 19.1998 13.6641 19.18 13.8387C19.1638 14.0148 19.2183 14.1901 19.3313 14.3261C19.4443 14.4621 19.6068 14.5477 19.7829 14.564C20.5199 14.6317 21.2659 14.6668 22.0003 14.6668C24.8509 14.6668 27.7161 14.1626 29.3337 13.189V14.0002C29.3337 14.6786 26.7451 16.0002 22.0003 16.0002C21.5251 16.0002 21.0603 15.9832 20.6084 15.9559C20.5206 15.9486 20.4322 15.9591 20.3486 15.9869C20.265 16.0147 20.1879 16.0591 20.1219 16.1175C20.0559 16.1759 20.0025 16.2471 19.9648 16.3267C19.9271 16.4064 19.906 16.4928 19.9027 16.5809C19.8973 16.6683 19.9092 16.7559 19.9377 16.8387C19.9662 16.9215 20.0107 16.9979 20.0688 17.0635C20.1268 17.129 20.1972 17.1825 20.276 17.2208C20.3547 17.2592 20.4402 17.2816 20.5277 17.2868C21.0055 17.3168 21.4964 17.3335 22.0003 17.3335C24.8509 17.3335 27.7161 16.8293 29.3337 15.8557V16.6668C29.3337 17.3452 26.7451 18.6668 22.0003 18.6668C21.5277 18.6668 21.0681 18.6499 20.6203 18.6238C20.5326 18.6173 20.4446 18.6285 20.3613 18.6566C20.278 18.6848 20.2012 18.7295 20.1355 18.7879C20.0698 18.8463 20.0165 18.9173 19.9788 18.9967C19.941 19.0761 19.9196 19.1623 19.9159 19.2502C19.9107 19.3376 19.9227 19.4251 19.9514 19.5078C19.9801 19.5906 20.0248 19.6668 20.083 19.7322C20.1411 19.7977 20.2116 19.851 20.2904 19.8891C20.3692 19.9273 20.4548 19.9495 20.5422 19.9546C21.0159 19.9832 21.5017 20.0002 22.0003 20.0002C26.3076 20.0002 30.667 18.8556 30.667 16.6668V8.66683C30.667 6.47803 26.3076 5.3335 22.0003 5.3335Z" fill="black"/>
</svg>
