<svg width="22" height="22" viewBox="0 0 22 22" fill="none" xmlns="http://www.w3.org/2000/svg">
<g clip-path="url(#clip0)">
<path d="M18.8559 15.7143C18.3011 15.717 17.7576 15.8718 17.2846 16.162L14.8571 13.7238C15.4221 12.9269 15.7255 11.9741 15.7255 10.9972C15.7255 10.0203 15.4221 9.06753 14.8571 8.2706L17.2846 5.83803C17.7576 6.12819 18.3011 6.28304 18.8559 6.28572C19.4775 6.28572 20.0851 6.10139 20.6019 5.75605C21.1187 5.41071 21.5215 4.91986 21.7594 4.34558C21.9972 3.7713 22.0595 3.13937 21.9382 2.52972C21.817 1.92006 21.5176 1.36006 21.0781 0.920523C20.6386 0.480986 20.0787 0.181658 19.469 0.0603905C18.8594 -0.0608773 18.2275 0.00136174 17.6533 0.239237C17.0791 0.477113 16.5882 0.87994 16.2429 1.39678C15.8976 1.91362 15.7133 2.52126 15.7133 3.14286C15.716 3.69776 15.8708 4.24129 16.1609 4.71429L13.7229 7.14197C12.9261 6.57696 11.9733 6.27348 10.9965 6.27348C10.0197 6.27348 9.06696 6.57696 8.27008 7.14197L5.83766 4.71429C6.1278 4.24129 6.28264 3.69776 6.28532 3.14286C6.28532 2.52126 6.101 1.91362 5.75568 1.39678C5.41036 0.87994 4.91955 0.477113 4.3453 0.239237C3.77106 0.00136174 3.13917 -0.0608773 2.52956 0.0603905C1.91994 0.181658 1.35997 0.480986 0.920464 0.920523C0.480956 1.36006 0.181647 1.92006 0.0603867 2.52972C-0.0608734 3.13937 0.00136165 3.7713 0.239222 4.34558C0.477082 4.91986 0.879884 5.41071 1.39669 5.75605C1.9135 6.10139 2.5211 6.28572 3.14266 6.28572C3.69752 6.28304 4.24102 6.12819 4.71399 5.83803L7.14152 8.27619C6.57654 9.07312 6.27308 10.0259 6.27308 11.0028C6.27308 11.9797 6.57654 12.9325 7.14152 13.7294L4.71399 16.162C4.24102 15.8718 3.69752 15.717 3.14266 15.7143C2.5211 15.7143 1.9135 15.8986 1.39669 16.244C0.879884 16.5893 0.477082 17.0801 0.239222 17.6544C0.00136165 18.2287 -0.0608734 18.8606 0.0603867 19.4703C0.181647 20.0799 0.480956 20.6399 0.920464 21.0795C1.35997 21.519 1.91994 21.8183 2.52956 21.9396C3.13917 22.0609 3.77106 21.9986 4.3453 21.7608C4.91955 21.5229 5.41036 21.1201 5.75568 20.6032C6.101 20.0864 6.28532 19.4787 6.28532 18.8571C6.28264 18.3022 6.1278 17.7587 5.83766 17.2857L8.27567 14.858C9.07255 15.423 10.0253 15.7265 11.0021 15.7265C11.9789 15.7265 12.9316 15.423 13.7285 14.858L16.1623 17.2857C15.8722 17.7587 15.7174 18.3022 15.7147 18.8571C15.7147 19.4787 15.899 20.0864 16.2443 20.6032C16.5896 21.1201 17.0805 21.5229 17.6547 21.7608C18.2289 21.9986 18.8608 22.0609 19.4704 21.9396C20.0801 21.8183 20.64 21.519 21.0795 21.0795C21.519 20.6399 21.8184 20.0799 21.9396 19.4703C22.0609 18.8606 21.9986 18.2287 21.7608 17.6544C21.5229 17.0801 21.1201 16.5893 20.6033 16.244C20.0865 15.8986 19.4789 15.7143 18.8573 15.7143H18.8559ZM18.8559 1.57143C19.1667 1.57143 19.4705 1.66359 19.7289 1.83626C19.9873 2.00893 20.1887 2.25436 20.3077 2.5415C20.4266 2.82864 20.4577 3.1446 20.3971 3.44943C20.3365 3.75426 20.1868 4.03426 19.967 4.25403C19.7473 4.47379 19.4673 4.62346 19.1625 4.68409C18.8577 4.74473 18.5417 4.71361 18.2546 4.59467C17.9675 4.47573 17.7221 4.27432 17.5494 4.0159C17.3768 3.75748 17.2846 3.45366 17.2846 3.14286C17.2846 2.72609 17.4502 2.32639 17.7448 2.03169C18.0395 1.73699 18.4392 1.57143 18.8559 1.57143ZM1.57133 3.14286C1.57133 2.83206 1.66349 2.52824 1.83615 2.26982C2.00881 2.0114 2.25421 1.80999 2.54134 1.69105C2.82846 1.57211 3.1444 1.54099 3.44921 1.60162C3.75402 1.66226 4.034 1.81192 4.25376 2.03169C4.47351 2.25146 4.62316 2.53146 4.68379 2.83629C4.74442 3.14111 4.71331 3.45708 4.59438 3.74422C4.47545 4.03136 4.27405 4.27678 4.01564 4.44945C3.75724 4.62212 3.45344 4.71429 3.14266 4.71429C2.72592 4.71429 2.32624 4.54873 2.03156 4.25403C1.73688 3.95933 1.57133 3.55963 1.57133 3.14286ZM3.14266 20.4286C2.83188 20.4286 2.52808 20.3364 2.26968 20.1637C2.01127 19.9911 1.80987 19.7456 1.69094 19.4585C1.57201 19.1714 1.54089 18.8554 1.60152 18.5506C1.66215 18.2457 1.81181 17.9657 2.03156 17.746C2.25132 17.5262 2.5313 17.3765 2.83611 17.3159C3.14092 17.2553 3.45686 17.2864 3.74398 17.4053C4.0311 17.5243 4.27651 17.7257 4.44917 17.9841C4.62183 18.2425 4.71399 18.5463 4.71399 18.8571C4.71399 19.2739 4.54844 19.6736 4.25376 19.9683C3.95907 20.263 3.5594 20.4286 3.14266 20.4286ZM10.9993 14.1429C10.3777 14.1429 9.77014 13.9585 9.25334 13.6132C8.73653 13.2678 8.33372 12.777 8.09587 12.2027C7.858 11.6284 7.79577 10.9965 7.91703 10.3869C8.03829 9.7772 8.3376 9.2172 8.77711 8.77767C9.21662 8.33813 9.77658 8.0388 10.3862 7.91753C10.9958 7.79626 11.6277 7.8585 12.2019 8.09638C12.7762 8.33425 13.267 8.73708 13.6123 9.25392C13.9576 9.77076 14.142 10.3784 14.142 11C14.142 11.8335 13.8109 12.6329 13.2215 13.2223C12.6321 13.8117 11.8328 14.1429 10.9993 14.1429ZM18.8559 20.4286C18.5452 20.4286 18.2414 20.3364 17.983 20.1637C17.7246 19.9911 17.5232 19.7456 17.4042 19.4585C17.2853 19.1714 17.2542 18.8554 17.3148 18.5506C17.3754 18.2457 17.5251 17.9657 17.7448 17.746C17.9646 17.5262 18.2446 17.3765 18.5494 17.3159C18.8542 17.2553 19.1701 17.2864 19.4573 17.4053C19.7444 17.5243 19.9898 17.7257 20.1625 17.9841C20.3351 18.2425 20.4273 18.5463 20.4273 18.8571C20.4273 19.2739 20.2617 19.6736 19.967 19.9683C19.6724 20.263 19.2727 20.4286 18.8559 20.4286Z" fill="black"/>
</g>
<defs>
<clipPath id="clip0">
<rect width="22" height="22" fill="black"/>
</clipPath>
</defs>
</svg>
