<svg xmlns="http://www.w3.org/2000/svg" width="24.62" height="24.619" viewBox="0 0 24.62 24.619">
    <path d="M24.169 8.144L16.475.451a1.539 1.539 0 0 0-2.559.632 7.146 7.146 0 0 1-1.843 3 21.1 21.1 0 0 1-4.382 3.049 23.6 23.6 0 0 0-5.016 3.53 10.168 10.168 0 0 0-2.607 4.27 1.541 1.541 0 0 0 .382 1.544l7.693 7.693a1.538 1.538 0 0 0 2.559-.634 7.149 7.149 0 0 1 1.844-3 21 21 0 0 1 4.383-3.043 23.67 23.67 0 0 0 5.015-3.531 10.168 10.168 0 0 0 2.607-4.271 1.542 1.542 0 0 0-.382-1.543zM9.232 23.08l-7.693-7.693C3.725 8.308 13.2 8.618 15.387 1.539l7.695 7.693C20.895 16.309 11.418 16 9.232 23.08zm5.818-11.617a2.057 2.057 0 0 0-.757-.424 2.2 2.2 0 0 0-.76-.081 2.723 2.723 0 0 0-.769.176c-.259.1-.519.21-.78.337-.413-.475-.826-.944-1.239-1.379a.87.87 0 0 1 .541-.26 1.738 1.738 0 0 1 .5.051c.162.041.311.075.448.1a.414.414 0 0 0 .364-.092.511.511 0 0 0 .182-.371.614.614 0 0 0-.18-.44 1 1 0 0 0-.592-.341 1.828 1.828 0 0 0-.715.016 2.416 2.416 0 0 0-.694.276 2.707 2.707 0 0 0-.526.391l-.15-.142a.29.29 0 0 0-.205-.08.269.269 0 0 0-.21.1.295.295 0 0 0 .027.413c.05.042.1.084.15.128a3.541 3.541 0 0 0-.487.777 2.6 2.6 0 0 0-.235.82 1.629 1.629 0 0 0 .081.744 1.414 1.414 0 0 0 .457.61 1.769 1.769 0 0 0 1.283.4 3.855 3.855 0 0 0 1.6-.484c.454.525.909 1.046 1.364 1.529a1.206 1.206 0 0 1-.509.285.8.8 0 0 1-.4-.008 1.275 1.275 0 0 1-.334-.161 2.345 2.345 0 0 0-.3-.18.709.709 0 0 0-.306-.078.526.526 0 0 0-.339.155.5.5 0 0 0-.189.382.668.668 0 0 0 .2.435 1.574 1.574 0 0 0 .506.369 1.9 1.9 0 0 0 .693.176 1.923 1.923 0 0 0 .809-.126 2.344 2.344 0 0 0 .846-.571c.134.131.269.255.4.375a.295.295 0 0 0 .418-.041.3.3 0 0 0 .072-.225.262.262 0 0 0-.1-.188q-.2-.163-.405-.342a4.192 4.192 0 0 0 .552-.875 2.68 2.68 0 0 0 .245-.846 1.512 1.512 0 0 0-.092-.724 1.473 1.473 0 0 0-.459-.592zm-4.3.522a.747.747 0 0 1-.574-.224.564.564 0 0 1-.15-.248.773.773 0 0 1-.03-.322 1.026 1.026 0 0 1 .105-.358 1.464 1.464 0 0 1 .249-.361c.39.388.779.813 1.169 1.253a1.827 1.827 0 0 1-.771.26zm3.629 1.54a1.626 1.626 0 0 1-.242.341c-.432-.435-.862-.914-1.292-1.4.11-.049.225-.1.35-.153a1.715 1.715 0 0 1 .374-.108.988.988 0 0 1 .38.016.781.781 0 0 1 .353.206.709.709 0 0 1 .2.342.934.934 0 0 1 .011.375 1.24 1.24 0 0 1-.136.381zm-3.055 3.539a.385.385 0 0 1 .514.571.391.391 0 0 1-.039.032A12.2 12.2 0 0 0 10.48 18.8a10.441 10.441 0 0 0-1.047 1.216l-.492.673a.362.362 0 0 1-.057.077.386.386 0 0 1-.6-.482l.526-.719a11.242 11.242 0 0 1 1.124-1.307 13.81 13.81 0 0 1 1.385-1.195zm2.815-11.128a10.4 10.4 0 0 0 1.046-1.216l.511-.7a.419.419 0 0 1 .068-.095.387.387 0 0 1 .568.526l-.526.722a11.3 11.3 0 0 1-1.123 1.307A14 14 0 0 1 13.3 7.674a.389.389 0 0 1-.538-.561.367.367 0 0 1 .09-.066 12.768 12.768 0 0 0 1.287-1.111z" data-name="banknote"/>
</svg>
