<svg xmlns="http://www.w3.org/2000/svg" width="24.87" height="24.862" data-name="Component 958 – 1" viewBox="0 0 24.87 24.862">
    <g data-name="Group 13455">
        <path d="M-844.879 26.682a.787.787 0 0 1-.538-.211 10.788 10.788 0 0 0-7.337-2.953 10.788 10.788 0 0 0-7.337 2.953.791.791 0 0 1-1.117-.041.79.79 0 0 1 .041-1.117 12.364 12.364 0 0 1 8.413-3.376 12.364 12.364 0 0 1 8.413 3.376.79.79 0 0 1 .041 1.117.788.788 0 0 1-.579.252z" data-name="Path 21932" transform="rotate(-33 -450.968 -1437.791)"/>
        <path d="M-844.55 30.895a.79.79 0 0 1-.675-.379 9.73 9.73 0 0 0-2.118-2.454.79.79 0 0 1-.108-1.113.79.79 0 0 1 1.113-.108 11.3 11.3 0 0 1 2.463 2.851.79.79 0 0 1-.263 1.087.788.788 0 0 1-.412.116z" data-name="Path 21933" transform="rotate(-33 -450.968 -1437.791)"/>
        <path d="M-860.96 30.894a.787.787 0 0 1-.411-.116.791.791 0 0 1-.263-1.087 10.441 10.441 0 0 1 8.879-5.191 9.846 9.846 0 0 1 3.276.56.79.79 0 0 1 .483 1.008.79.79 0 0 1-1.008.483 8.272 8.272 0 0 0-2.751-.47 8.873 8.873 0 0 0-7.529 4.434.79.79 0 0 1-.676.379z" data-name="Path 21934" transform="rotate(-33 -450.968 -1437.791)"/>
        <path d="M-860.959 34.479a.787.787 0 0 1-.524-.2.791.791 0 0 1-.068-1.116l1.092-1.232a11.769 11.769 0 0 0 .936-1.22 8.234 8.234 0 0 1 6.768-3.728 8 8 0 0 1 5.292 2.042.79.79 0 0 1 .069 1.116.791.791 0 0 1-1.116.069 6.339 6.339 0 0 0-4.244-1.643 6.57 6.57 0 0 0-5.458 3.032 13.314 13.314 0 0 1-1.062 1.383l-1.092 1.232a.788.788 0 0 1-.593.265z" data-name="Path 21935" transform="rotate(-33 -450.968 -1437.791)"/>
        <path d="M-845.145 36.924a.79.79 0 0 1-.79-.791 8.174 8.174 0 0 0-.692-3.325.791.791 0 0 1 .4-1.043.79.79 0 0 1 1.043.4 9.745 9.745 0 0 1 .827 3.964.791.791 0 0 1-.788.795z" data-name="Path 21936" transform="rotate(-33 -450.968 -1437.791)"/>
        <path d="M-860.958 38.147a.79.79 0 0 1-.729-.484.79.79 0 0 1 .422-1.035 5.3 5.3 0 0 0 2.875-3.009 6.533 6.533 0 0 1 2.186-2.938.791.791 0 0 1 1.106.16.791.791 0 0 1-.16 1.106 4.955 4.955 0 0 0-1.654 2.231 6.892 6.892 0 0 1-3.74 3.906.79.79 0 0 1-.306.063z" data-name="Path 21937" transform="rotate(-33 -450.968 -1437.791)"/>
        <path d="M-846.663 36.133a7.039 7.039 0 0 1-.8 3.28.77.77 0 0 1-.683.407h-.032a.778.778 0 0 1-.682-1.147 5.459 5.459 0 0 0 .615-2.54 4.8 4.8 0 0 0-4.5-5.032.8.8 0 0 1-.8-.742.791.791 0 0 1 .789-.839 6.376 6.376 0 0 1 6.093 6.613z" data-name="Path 21938" transform="rotate(-33 -450.968 -1437.791)"/>
        <path d="M-849.23 36.212a3.874 3.874 0 0 1-1.8 3.256c-.136.087-.267.179-.393.273a.781.781 0 0 1-.468.157h-.047a.776.776 0 0 1-.467-1.4q.248-.187.518-.362a2.3 2.3 0 0 0 1.074-1.928 2.011 2.011 0 0 0-1.866-2.127 1.927 1.927 0 0 0-1.787 1.516 8.145 8.145 0 0 1-1.286 2.761 12.231 12.231 0 0 1-1.1 1.306.771.771 0 0 1-.552.23h-.043a.776.776 0 0 1-.551-1.323 10.611 10.611 0 0 0 .971-1.149 6.56 6.56 0 0 0 1.032-2.229 3.506 3.506 0 0 1 3.316-2.694 3.588 3.588 0 0 1 3.449 3.713z" data-name="Path 21939" transform="rotate(-33 -450.968 -1437.791)"/>
        <path d="M-844.434 39.086l-.023.14a.78.78 0 0 1-.769.671h-.029a.775.775 0 0 1-.769-.885l.032-.2a.79.79 0 0 1 .914-.643.79.79 0 0 1 .644.917z" data-name="Path 21940" transform="rotate(-33 -450.968 -1437.791)"/>
        <path d="M-854.267 39.576l-.014.019a.776.776 0 0 1-.615.3h-.036a.776.776 0 0 1-.615-1.25l.027-.036a.79.79 0 0 1 1.109-.145.79.79 0 0 1 .144 1.112z" data-name="Path 21941" transform="rotate(-33 -450.968 -1437.791)"/>
        <path d="M-853.617 38.224a.786.786 0 0 1-.481-.164.791.791 0 0 1-.145-1.109l.94-1.223a.79.79 0 0 1 1.108-.145.79.79 0 0 1 .145 1.109l-.94 1.223a.789.789 0 0 1-.627.309z" data-name="Path 21942" transform="rotate(-33 -450.968 -1437.791)"/>
    </g>
</svg>
