<svg xmlns="http://www.w3.org/2000/svg" width="21.922" height="21.917" viewBox="0 0 21.922 21.917">
    <g id="key" transform="translate(.2 .2)">
        <path id="key-2" stroke="#000" stroke-width="0.4px" d="M9.873 9.883a.337.337 0 0 0 .222-.083L17.7 3.128l-.444-.506-7.605 6.671a.337.337 0 0 0 .222.59zM6.85 21.517a6.427 6.427 0 0 0 6.6-6.388 6.23 6.23 0 0 0-.537-2.55l3.041-1.52a.337.337 0 0 0 .186-.3v-2.69h2.093c.448-.03.582-.173.6-.668V4.707h2.017a1.152 1.152 0 0 1 .187.015.413.413 0 0 0 .363-.082.464.464 0 0 0 .124-.409V.988A.989.989 0 0 0 20.529 0h-2.606a1 1 0 0 0-.652.245L8.4 8.018a9.163 9.163 0 0 0-1.555-.2 6.85 6.85 0 0 0 0 13.7zm0-13.028a8.958 8.958 0 0 1 1.583.221.333.333 0 0 0 .29-.076L17.714.752a.319.319 0 0 1 .209-.079h2.606a.315.315 0 0 1 .315.315v3.046h-2.353a.336.336 0 0 0-.336.336V7.4H15.8a.336.336 0 0 0-.336.336v2.818l-3.176 1.588a.336.336 0 0 0-.122.5 4.883 4.883 0 0 1 .609 2.493 5.762 5.762 0 0 1-5.925 5.709 6.178 6.178 0 1 1 0-12.355zm-1.135 9.666A2.353 2.353 0 1 0 3.362 15.8a2.356 2.356 0 0 0 2.353 2.355zm0-4.034A1.681 1.681 0 1 1 4.034 15.8a1.683 1.683 0 0 1 1.681-1.68z" data-name="key"/>
    </g>
</svg>
