<svg xmlns="http://www.w3.org/2000/svg" width="18.091" height="21.654" viewBox="0 0 18.091 21.654">
    <path d="M18.078 4.614a1.973 1.973 0 0 0-1.925-1.906h-1.939V2.03a1.986 1.986 0 0 0-1.938-2.031H5.815a1.986 1.986 0 0 0-1.938 2.03v.677H1.938A1.972 1.972 0 0 0 .012 4.613H0V6.09a1.324 1.324 0 0 0 1.292 1.354v11.5a2.648 2.648 0 0 0 2.584 2.707h10.338a2.648 2.648 0 0 0 2.586-2.703V7.444a1.324 1.324 0 0 0 1.292-1.353V4.614h-.013zM5.169 2.031a.661.661 0 0 1 .646-.677h6.461a.661.661 0 0 1 .646.677v.677H5.169v-.677zm10.337 16.917a1.326 1.326 0 0 1-1.292 1.351H3.877a1.326 1.326 0 0 1-1.292-1.353V7.444h12.921zM16.8 5.414v.677H1.292V4.738a.661.661 0 0 1 .646-.677h14.214a.661.661 0 0 1 .646.677zM4.523 18.951h1.292a.661.661 0 0 0 .646-.677v-8.8a.661.661 0 0 0-.646-.675H4.523a.661.661 0 0 0-.646.677v8.8a.661.661 0 0 0 .646.675zm0-9.474h1.292v8.8H4.523zM8.4 18.951h1.292a.661.661 0 0 0 .646-.677v-8.8a.661.661 0 0 0-.646-.677H8.4a.661.661 0 0 0-.646.677v8.8a.661.661 0 0 0 .646.677zm0-9.474h1.292v8.8H8.4zm3.877 9.474h1.292a.661.661 0 0 0 .646-.677v-8.8a.661.661 0 0 0-.646-.677h-1.293a.661.661 0 0 0-.646.677v8.8a.661.661 0 0 0 .646.677zm0-9.474h1.292v8.8h-1.293z" data-name="trash"/>
</svg>
