<svg width="139" height="25" viewBox="0 0 139 25" fill="none" xmlns="http://www.w3.org/2000/svg">
<path d="M13.9648 5.38342H9.51248V0.923626C9.51248 0.422229 9.93401 0 10.4346 0H13.9648C14.2283 0 14.4391 0.105557 14.6235 0.263893C14.6498 0.290282 14.6762 0.316672 14.6762 0.316672C14.7025 0.343061 14.7289 0.39584 14.7552 0.422229C14.7816 0.475008 14.8079 0.501397 14.8079 0.554176C14.8079 0.580565 14.8342 0.606954 14.8342 0.633344C14.8342 0.686122 14.8606 0.712512 14.8606 0.76529C14.8606 0.818069 14.8606 0.870847 14.8606 0.897237V4.48618C14.8606 4.98758 14.4654 5.38342 13.9648 5.38342Z" fill="black"/>
<path d="M13.9648 14.8048H9.51248V9.42139H13.9648C14.4654 9.42139 14.8606 9.81723 14.8869 10.2922V10.3186V13.8812C14.8869 14.409 14.4918 14.8048 13.9648 14.8048Z" fill="black"/>
<path d="M13.9648 24.2516H10.4346C9.93401 24.2516 9.51248 23.8294 9.51248 23.328V18.8682H13.9648C14.4654 18.8682 14.8869 19.2904 14.8869 19.7918V23.328C14.8869 23.8294 14.4918 24.2516 13.9648 24.2516Z" fill="black"/>
<path d="M5.48187 0.923626V23.3282C5.48187 23.8296 5.06035 24.2518 4.55979 24.2518H1.02951C0.528948 24.2518 0.107422 23.8296 0.107422 23.3282V0.923626C0.107422 0.422229 0.528948 0 1.02951 0H4.55979C5.06035 0 5.48187 0.422229 5.48187 0.923626Z" fill="black"/>
<path d="M13.9648 24.2516H10.4346C9.93401 24.2516 9.51248 23.8294 9.51248 23.328V18.8682H13.9648C14.4654 18.8682 14.8869 19.2904 14.8869 19.7918V23.328C14.8869 23.8294 14.4918 24.2516 13.9648 24.2516Z" fill="black"/>
<path d="M5.48187 18.8418V23.3016C5.48187 23.803 5.06035 24.2252 4.55979 24.2252H1.02951C0.528948 24.2252 0.107422 23.803 0.107422 23.3016V18.8418H5.48187Z" fill="black"/>
<path d="M14.9135 10.345V13.8812C14.9135 14.3826 14.492 14.8048 13.9914 14.8048H0.107422V9.42139H13.9914C14.492 9.42139 14.8872 9.81723 14.9135 10.2922V10.3186C14.9135 10.345 14.9135 10.345 14.9135 10.345Z" fill="black"/>
<path d="M13.9648 5.38342H9.51248V0.923626C9.51248 0.422229 9.93401 0 10.4346 0H13.9648C14.2283 0 14.4391 0.105557 14.6235 0.263893C14.6498 0.290282 14.6762 0.316672 14.6762 0.316672C14.7025 0.343061 14.7289 0.39584 14.7552 0.422229C14.7816 0.475008 14.8079 0.501397 14.8079 0.554176C14.8079 0.580565 14.8342 0.606954 14.8342 0.633344C14.8342 0.686122 14.8606 0.712512 14.8606 0.76529C14.8606 0.818069 14.8606 0.870847 14.8606 0.897237V4.4334C14.8606 4.45979 14.8606 4.45979 14.8606 4.48618C14.8606 4.98758 14.4654 5.38342 13.9648 5.38342Z" fill="black"/>
<path d="M5.48187 0.923626V5.38342H0.107422V0.923626C0.107422 0.422229 0.528948 0 1.02951 0H4.55979C5.06035 0 5.48187 0.422229 5.48187 0.923626Z" fill="black"/>
<path d="M27.77 17.736V6.52051H34.5934V7.97192H29.3244V11.4289H34.0929V12.8803H29.3244V16.3109H34.5934V17.7624H27.77V17.736Z" fill="black"/>
<path d="M45.0789 9.55501C44.9472 8.73694 44.2622 7.62859 42.7079 7.62859C41.4433 7.62859 40.5475 8.44666 40.5475 9.50223C40.5475 10.3203 41.0481 10.9273 41.9965 11.1384L43.6826 11.5078C45.5532 11.9301 46.5806 13.0912 46.5806 14.6482C46.5806 16.3898 45.1053 17.9732 42.7079 17.9732C39.9943 17.9732 38.7297 16.2315 38.519 14.6218L39.9943 14.1468C40.0997 15.3871 40.9954 16.5482 42.6815 16.5482C44.2359 16.5482 44.9999 15.7301 44.9999 14.7537C44.9999 13.9356 44.4467 13.2495 43.3138 13.012L41.7067 12.669C40.0997 12.3259 38.9668 11.2703 38.9668 9.60779C38.9668 7.83971 40.6002 6.25635 42.6552 6.25635C45.1843 6.25635 46.1854 7.81332 46.4489 9.05362L45.0789 9.55501Z" fill="black"/>
<path d="M56.8287 9.55501C56.697 8.73694 56.012 7.62859 54.4576 7.62859C53.193 7.62859 52.2973 8.44666 52.2973 9.50223C52.2973 10.3203 52.7979 10.9273 53.7463 11.1384L55.4324 11.5078C57.3029 11.9301 58.3304 13.0912 58.3304 14.6482C58.3304 16.3898 56.855 17.9732 54.4576 17.9732C51.744 17.9732 50.4795 16.2315 50.2687 14.6218L51.744 14.1468C51.8494 15.3871 52.7452 16.5482 54.4313 16.5482C55.9857 16.5482 56.7497 15.7301 56.7497 14.7537C56.7497 13.9356 56.1964 13.2495 55.0636 13.012L53.4565 12.669C51.8494 12.3259 50.7166 11.2703 50.7166 9.60779C50.7166 7.83971 52.35 6.25635 54.4049 6.25635C56.9341 6.25635 57.9352 7.81332 58.1987 9.05362L56.8287 9.55501Z" fill="black"/>
<path d="M62.8093 17.736V6.52051H69.6327V7.97192H64.3637V11.4289H69.1322V12.8803H64.3637V16.3109H69.6327V17.7624H62.8093V17.736Z" fill="black"/>
<path d="M81.9622 17.736L75.9027 8.57887V17.736H74.3484V6.52051H76.4296L82.0412 15.1234V6.52051H83.5956V17.736H81.9622Z" fill="black"/>
<path d="M92.8164 7.94555V17.736H91.2621V7.94555H87.521V6.49414H96.5575V7.94555H92.8164Z" fill="black"/>
<path d="M100.536 17.736V6.52051H102.116V17.736H100.536Z" fill="black"/>
<path d="M113.867 14.5956H108.914L107.728 17.736H106.069L110.521 6.52051H112.312L116.765 17.736H115.079L113.867 14.5956ZM109.467 13.1706H113.314L111.364 8.13026L109.467 13.1706Z" fill="black"/>
<path d="M120.717 17.736V6.52051H122.271V16.2846H127.567V17.736H120.717Z" fill="black"/>
<path d="M137.498 9.55501C137.367 8.73694 136.682 7.62859 135.127 7.62859C133.863 7.62859 132.967 8.44666 132.967 9.50223C132.967 10.3203 133.467 10.9273 134.416 11.1384L136.102 11.5078C137.973 11.9301 139 13.0912 139 14.6482C139 16.3898 137.525 17.9732 135.127 17.9732C132.414 17.9732 131.149 16.2315 130.938 14.6218L132.414 14.1468C132.519 15.3871 133.415 16.5482 135.101 16.5482C136.655 16.5482 137.419 15.7301 137.419 14.7537C137.419 13.9356 136.866 13.2495 135.733 13.012L134.126 12.669C132.519 12.3259 131.386 11.2703 131.386 9.60779C131.386 7.83971 133.02 6.25635 135.075 6.25635C137.604 6.25635 138.605 7.81332 138.868 9.05362L137.498 9.55501Z" fill="black"/>
</svg>
