<svg width="20" height="20" viewBox="0 0 20 20" fill="none" xmlns="http://www.w3.org/2000/svg">
<path d="M12.7324 15.0817C14.627 14.857 16.4539 14.4116 18.1867 13.7719C16.7499 12.177 15.8754 10.0656 15.8754 7.75V7.04919C15.8755 7.03281 15.8756 7.01641 15.8756 7C15.8756 3.68629 13.1893 1 9.87556 1C6.56185 1 3.87556 3.68629 3.87556 7L3.87536 7.75C3.87536 10.0656 3.00084 12.177 1.56404 13.7719C3.29697 14.4116 5.124 14.857 7.0187 15.0818M12.7324 15.0817C11.7955 15.1928 10.8421 15.25 9.87537 15.25C8.90873 15.25 7.95544 15.1929 7.0187 15.0818M12.7324 15.0817C12.8254 15.3711 12.8756 15.6797 12.8756 16C12.8756 17.6569 11.5324 19 9.87556 19C8.21871 19 6.87556 17.6569 6.87556 16C6.87556 15.6797 6.92575 15.3712 7.0187 15.0818M1 5.5C1.28728 3.78764 2.05809 2.23924 3.16724 1M16.5839 1C17.693 2.23924 18.4638 3.78764 18.7511 5.5" stroke="black" stroke-width="1.5" stroke-linecap="round" stroke-linejoin="round"/>
</svg>
