<svg width="20" height="19" viewBox="0 0 20 19" fill="none" xmlns="http://www.w3.org/2000/svg">
<path d="M7.34762 1.00098H2.40255C2.03086 1.00142 1.67453 1.14913 1.41171 1.41195C1.14889 1.67478 1.00102 2.0312 1.00058 2.40289V4.96145C1.00058 5.14591 1.07386 5.32279 1.2043 5.45322C1.33473 5.58366 1.51164 5.65707 1.6961 5.65707C1.88057 5.65707 2.05747 5.58366 2.18791 5.45322C2.31834 5.32279 2.39162 5.14591 2.39162 4.96145V2.40289L2.39219 2.39838L2.39447 2.39428L2.39811 2.39141L2.40255 2.39018H7.34762C7.53186 2.39018 7.70856 2.31702 7.83883 2.18674C7.96911 2.05646 8.0423 1.88002 8.0423 1.69578C8.0423 1.51154 7.96911 1.33469 7.83883 1.20441C7.70856 1.07414 7.53186 1.00098 7.34762 1.00098Z" fill="black" stroke="black" stroke-width="0.2"/>
<path d="M13.4395 18.669H18.3846C18.7563 18.6686 19.1126 18.5207 19.3755 18.2579C19.6383 17.9951 19.7861 17.6387 19.7866 17.2671V14.7084C19.7866 14.5239 19.7133 14.347 19.5829 14.2166C19.4524 14.0862 19.2755 14.0129 19.0911 14.0129C18.9066 14.0129 18.7297 14.0862 18.5992 14.2166C18.4688 14.347 18.3955 14.5239 18.3955 14.7084V17.2671C18.3955 17.27 18.3944 17.2729 18.3924 17.2751C18.3904 17.2773 18.3876 17.2786 18.3846 17.2788H13.4395C13.3462 17.2756 13.2532 17.2911 13.166 17.3246C13.0789 17.3581 12.9993 17.4088 12.9322 17.4736C12.865 17.5385 12.8116 17.6162 12.7751 17.7022C12.7386 17.7881 12.7198 17.8805 12.7198 17.9739C12.7198 18.0673 12.7386 18.1597 12.7751 18.2457C12.8116 18.3316 12.865 18.4093 12.9322 18.4742C12.9993 18.5391 13.0789 18.5897 13.166 18.6232C13.2532 18.6567 13.3462 18.6723 13.4395 18.669Z" fill="black" stroke="black" stroke-width="0.2"/>
<path fill-rule="evenodd" clip-rule="evenodd" d="M4.35977 10.2399C4.35977 9.77598 4.73585 9.3999 5.19977 9.3999H16.1198C16.5837 9.3999 16.9598 9.77598 16.9598 10.2399C16.9598 10.7038 16.5837 11.0799 16.1198 11.0799H5.19977C4.73585 11.0799 4.35977 10.7038 4.35977 10.2399Z" fill="black"/>
<path d="M18.3856 1H13.4389C13.2544 1 13.0775 1.07341 12.9471 1.20385C12.8166 1.33428 12.7434 1.51116 12.7434 1.69563C12.7434 1.88009 12.8166 2.05697 12.9471 2.1874C13.0775 2.31784 13.2544 2.39084 13.4389 2.39084H18.3856C18.3885 2.39104 18.3911 2.39252 18.3931 2.39453C18.3951 2.39654 18.3964 2.39908 18.3965 2.40191V4.96129C18.3965 5.05263 18.4146 5.1431 18.4495 5.22748C18.4845 5.31186 18.5357 5.38848 18.6002 5.45307C18.6648 5.51765 18.7415 5.56905 18.8259 5.604C18.9103 5.63896 19.0007 5.65691 19.0921 5.65691C19.1834 5.65691 19.2738 5.63896 19.3582 5.604C19.4426 5.56905 19.5193 5.51765 19.5839 5.45307C19.6485 5.38848 19.6997 5.31186 19.7346 5.22748C19.7696 5.1431 19.7876 5.05263 19.7876 4.96129V2.40191C19.7869 2.0303 19.639 1.67416 19.3762 1.41139C19.1134 1.14861 18.7572 1.00067 18.3856 1Z" fill="black" stroke="black" stroke-width="0.2"/>
<path d="M2.40197 18.671H7.34873C7.44205 18.6742 7.53506 18.6586 7.62223 18.6252C7.70939 18.5917 7.78893 18.541 7.85609 18.4761C7.92325 18.4113 7.97666 18.3336 8.01314 18.2476C8.04962 18.1617 8.06842 18.0692 8.06842 17.9759C8.06842 17.8825 8.04962 17.7901 8.01314 17.7041C7.97666 17.6182 7.92325 17.5405 7.85609 17.4756C7.78893 17.4107 7.70939 17.36 7.62223 17.3266C7.53506 17.2931 7.44205 17.2775 7.34873 17.2808H2.40197C2.39907 17.2804 2.39639 17.279 2.3944 17.2768C2.39241 17.2747 2.39122 17.2719 2.39105 17.269L2.39105 14.7087C2.39105 14.5242 2.31778 14.3473 2.18734 14.2169C2.0569 14.0864 1.88 14.0132 1.69553 14.0132C1.51107 14.0132 1.33416 14.0864 1.20373 14.2169C1.07329 14.3473 1.00001 14.5242 1.00001 14.7087L1.00001 17.269C1.00068 17.6406 1.1486 17.9968 1.41137 18.2596C1.67415 18.5224 2.03035 18.6703 2.40197 18.671Z" fill="black" stroke="black" stroke-width="0.2"/>
</svg>
