<svg xmlns="http://www.w3.org/2000/svg" width="22" height="22" viewBox="0 0 22 22">
    <path d="M7.5 10h-5A2.5 2.5 0 0 1 0 7.5v-5A2.5 2.5 0 0 1 2.5 0h5A2.5 2.5 0 0 1 10 2.5v5A2.5 2.5 0 0 1 7.5 10zM3.6 2.205a1.4 1.4 0 0 0-1.4 1.4V6.4a1.4 1.4 0 0 0 1.4 1.4h2.8a1.4 1.4 0 0 0 1.4-1.4V3.6a1.4 1.4 0 0 0-1.4-1.4z"/>
    <path d="M7.5 10h-5A2.5 2.5 0 0 1 0 7.5v-5A2.5 2.5 0 0 1 2.5 0h5A2.5 2.5 0 0 1 10 2.5v5A2.5 2.5 0 0 1 7.5 10zM3.6 2.205a1.4 1.4 0 0 0-1.4 1.4V6.4a1.4 1.4 0 0 0 1.4 1.4h2.8a1.4 1.4 0 0 0 1.4-1.4V3.6a1.4 1.4 0 0 0-1.4-1.4z" transform="translate(12)"/>
    <path d="M7.884 20H5.295A1.3 1.3 0 0 0 4 21.295v2.589a1.3 1.3 0 0 0 1.295 1.295h2.589a1.3 1.3 0 0 0 1.295-1.295v-2.589A1.3 1.3 0 0 0 7.884 20z" transform="translate(10.407 -5.366)"/>
    <path d="M7.5 10h-5A2.5 2.5 0 0 1 0 7.5v-5A2.5 2.5 0 0 1 2.5 0h5A2.5 2.5 0 0 1 10 2.5v5A2.5 2.5 0 0 1 7.5 10zM3.6 2.205a1.4 1.4 0 0 0-1.4 1.4V6.4a1.4 1.4 0 0 0 1.4 1.4h2.8a1.4 1.4 0 0 0 1.4-1.4V3.6a1.4 1.4 0 0 0-1.4-1.4z" transform="translate(0 12)"/>
</svg>
