<svg xmlns="http://www.w3.org/2000/svg" width="24.265" height="24.317" viewBox="0 0 24.265 24.317">
    <path d="M567.019 821.619a4.382 4.382 0 1 0 0 8.764 4.383 4.383 0 0 0 0-8.764zm8.691 6.874l-.775 1.891 1.549 3.093-1.979 1.976-3.184-1.461-1.893.773-.946 2.921-.086.43h-2.753l-1.2-3.351-1.893-.773-3.1 1.547-1.979-1.976 1.463-3.179-.774-1.89-3.356-1.117v-2.75l3.356-1.2.774-1.89-1.377-2.75-.172-.344 1.979-1.976 3.184 1.461 1.893-.773.946-2.921.086-.43h2.753l1.2 3.351 1.893.773 3.1-1.547 1.979 1.976-1.463 3.179.775 1.89 3.356 1.117v2.75l-3.356 1.2z" transform="translate(-554.8 -813.8)"/>
</svg>
