<svg width="100%" height="100%" viewBox="0 0 24 24" fill="none" xmlns="http://www.w3.org/2000/svg">
<path d="M3.2417 20.8926H7.45687" stroke="currentColor" stroke-width="1.5" stroke-linecap="round" stroke-linejoin="round"/>
<path d="M5.34912 22.9998V18.7847" stroke="currentColor" stroke-width="1.5" stroke-linecap="round" stroke-linejoin="round"/>
<path d="M4.99902 6.37305C4.99902 7.38199 7.05176 8.20748 9.58511 8.20748" stroke="currentColor" stroke-width="1.1" stroke-linecap="round" stroke-linejoin="round"/>
<path d="M9.58413 11.8769C7.0517 11.8769 4.99805 11.0514 4.99805 10.0425" stroke="currentColor" stroke-width="1.1" stroke-linecap="round" stroke-linejoin="round"/>
<path d="M14.1694 2.70459V5.45624" stroke="currentColor" stroke-width="1.1" stroke-linecap="round" stroke-linejoin="round"/>
<path d="M12.3364 12.7939C12.3364 13.8029 14.3892 14.6284 16.9225 14.6284C19.4559 14.6284 21.5086 13.8029 21.5086 12.7939" stroke="currentColor" stroke-width="1.1" stroke-linecap="round" stroke-linejoin="round"/>
<path d="M12.3364 9.125C12.3364 10.1339 14.3892 10.9594 16.9225 10.9594C19.4559 10.9594 21.5086 10.1339 21.5086 9.125" stroke="currentColor" stroke-width="1.1" stroke-linecap="round" stroke-linejoin="round"/>
<path d="M16.922 7.29053C14.3905 7.29053 12.3359 8.11602 12.3359 9.12496" stroke="currentColor" stroke-width="1.1" stroke-linecap="round" stroke-linejoin="round"/>
<path d="M12.3364 9.125V16.4627C12.3364 17.4717 14.3892 18.2972 16.9225 18.2972" stroke="currentColor" stroke-width="1.1" stroke-linecap="round" stroke-linejoin="round"/>
<path d="M16.9219 7.29053C19.4543 7.29053 21.508 8.11602 21.508 9.12496" stroke="currentColor" stroke-width="1.1" stroke-linecap="round" stroke-linejoin="round"/>
<path d="M21.508 9.125V16.4627C21.508 17.4717 19.4561 18.2972 16.9219 18.2972" stroke="currentColor" stroke-width="1.1" stroke-linecap="round" stroke-linejoin="round"/>
<path d="M9.58413 15.5459C7.0517 15.5459 4.99805 14.7204 4.99805 13.7114" stroke="currentColor" stroke-width="1.1" stroke-linecap="round" stroke-linejoin="round"/>
<path d="M9.58413 4.53899C12.117 4.53899 14.1702 3.71768 14.1702 2.70455C14.1702 1.69142 12.117 0.870117 9.58413 0.870117C7.05131 0.870117 4.99805 1.69142 4.99805 2.70455C4.99805 3.71768 7.05131 4.53899 9.58413 4.53899Z" stroke="currentColor" stroke-width="1.1" stroke-linecap="round" stroke-linejoin="round"/>
<path d="M4.99805 2.70459V13.7112" stroke="currentColor" stroke-width="1.1" stroke-linecap="round" stroke-linejoin="round"/>
</svg>
