<svg width="100%" height="100%" viewBox="0 0 24 24" fill="none" xmlns="http://www.w3.org/2000/svg">
<path d="M12.0001 2C13.4285 2 14.825 2.42359 16.0126 3.21718C17.2003 4.01076 18.1266 5.13873 18.6732 6.45841C19.2199 7.7781 19.3621 9.23021 19.0834 10.6312C18.8047 12.0322 18.1175 13.3191 17.1075 14.3291C16.0974 15.3391 14.8105 16.027 13.4096 16.3057C12.0086 16.5844 10.5561 16.4414 9.23638 15.8947C7.91669 15.3481 6.78887 14.4224 5.99528 13.2347C5.20169 12.047 4.77783 10.6506 4.77783 9.22222C4.77783 7.30677 5.53929 5.46977 6.89372 4.11534C8.24815 2.76091 10.0846 2 12.0001 2" stroke="currentColor" stroke-width="1.5" stroke-linecap="round" stroke-linejoin="round"/>
<path d="M6.44434 16.4443H17.5554" stroke="currentColor" stroke-width="1.5" stroke-linecap="round" stroke-linejoin="round"/>
<path d="M18.6676 12H19.7788C20.3681 12 20.9343 12.2342 21.351 12.6509C21.7678 13.0677 22.001 13.6329 22.001 14.2222V19.7778C22.001 20.3671 21.7678 20.9323 21.351 21.3491C20.9343 21.7658 20.3681 22 19.7788 22H4.2232C3.63383 22 3.06877 21.7658 2.65202 21.3491C2.23527 20.9323 2.00098 20.3671 2.00098 19.7778V14.2222C2.00098 13.6329 2.23527 13.0677 2.65202 12.6509C3.06877 12.2342 3.63383 12 4.2232 12H5.33431" stroke="currentColor" stroke-width="1.5" stroke-linecap="round" stroke-linejoin="round"/>
<path d="M9.77783 9.77783L11.9998 11.9998L14.2218 9.77783" stroke="currentColor" stroke-width="1.5" stroke-linecap="round" stroke-linejoin="round"/>
<path d="M12 6.44434V11.9993" stroke="currentColor" stroke-width="1.5" stroke-linecap="round" stroke-linejoin="round"/>
</svg>
