<svg width="100%" height="100%" viewBox="0 0 25 25" fill="none" xmlns="http://www.w3.org/2000/svg">
<path d="M8.77153 15.9614H7.50587C7.15637 15.9614 6.87305 16.2448 6.87305 16.5943V20.3912C6.87305 20.7407 7.15637 21.024 7.50587 21.024H8.77153C9.12103 21.024 9.40435 20.7407 9.40435 20.3912V16.5943C9.40435 16.2448 9.12103 15.9614 8.77153 15.9614Z" stroke="currentColor" stroke-width="1.5" stroke-linecap="round" stroke-linejoin="round"/>
<path d="M13.2574 18.0604H14.7182C14.9891 18.0604 15.2529 17.973 15.4696 17.8111L16.9824 16.6814C17.165 16.545 17.3912 16.4789 17.6189 16.4951C17.8466 16.5112 18.061 16.6086 18.2224 16.7693V16.7693C18.4002 16.9465 18.5 17.1865 18.5 17.4369C18.5 17.6874 18.4002 17.9274 18.2224 18.1045L16.9243 19.3971C16.5747 19.7453 16.1294 19.9823 15.6445 20.0784L13.8101 20.4446C13.4462 20.5166 13.0702 20.5076 12.7101 20.4185L11.0519 20.0051C10.8532 19.9558 10.6494 19.9308 10.4447 19.9308H9.5" stroke="currentColor" stroke-width="1.5" stroke-linecap="round" stroke-linejoin="round"/>
<path d="M13.4989 18.4927H14.4897C14.7577 18.4927 15.0148 18.3728 15.2043 18.1596C15.3938 17.9464 15.5 17.6573 15.5 17.3558V17.1308C15.5001 16.8773 15.425 16.6309 15.2863 16.431C15.1477 16.2311 14.9539 16.0892 14.7353 16.0276L13.2071 15.5978C12.9584 15.5279 12.7026 15.4925 12.4463 15.4927C11.8289 15.493 11.2257 15.699 10.7122 16.0848L9.5 16.9934" stroke="currentColor" stroke-width="1.5" stroke-linecap="round" stroke-linejoin="round"/>
<path d="M15.6622 11.4929C17.2296 11.4929 18.5002 10.2223 18.5002 8.65489C18.5002 7.08751 17.2296 5.81689 15.6622 5.81689C14.0948 5.81689 12.8242 7.08751 12.8242 8.65489C12.8242 10.2223 14.0948 11.4929 15.6622 11.4929Z" stroke="currentColor" stroke-width="1.5" stroke-linecap="round" stroke-linejoin="round"/>
<path d="M15.1322 5.86773C15.0395 5.31208 14.7829 4.79666 14.3959 4.38727C14.0089 3.97788 13.5089 3.6932 12.9594 3.56939C12.4098 3.44559 11.8361 3.48805 11.3109 3.69195C10.7858 3.89586 10.3331 4.25169 10.0111 4.71393C9.68913 5.17616 9.51162 5.72391 9.50234 6.28717C9.49305 6.85042 9.65181 7.40393 9.95839 7.87652C10.265 8.34912 10.7059 8.71938 11.224 8.94049C11.7421 9.16159 12.3142 9.22336 12.8676 9.11773" stroke="currentColor" stroke-width="1.5" stroke-linecap="round" stroke-linejoin="round"/>
</svg>
