<svg width="100%" height="100%" viewBox="0 0 25 24" xmlns="http://www.w3.org/2000/svg" fill="none">

 <g>
  <path d="m4.70165,3.86827c2.15666,-2.15667 5.08173,-3.36827 8.13175,-3.36827c2.2745,0 4.4979,0.67446 6.389,1.9381c1.8912,1.26364 3.3652,3.05969 4.2356,5.16104c0.8704,2.10135 1.0981,4.41366 0.6544,6.64436c-0.4437,2.2308 -1.539,4.2799 -3.1473,5.8882c-1.6083,1.6083 -3.6574,2.7036 -5.8882,3.1473c-2.2308,0.4438 -4.543,0.216 -6.64439,-0.6544c-2.10135,-0.8704 -3.8974,-2.3444 -5.16104,-4.2355c-1.26363,-1.8912 -1.9381,-4.1146 -1.9381,-6.3891c0,-3.04999 1.21161,-5.97506 3.36828,-8.13173z" fill="#AC0000"/>
  <path d="m17.16666,8l-9.02637,9.02637" stroke="#ffffff" stroke-linejoin="round" stroke-linecap="round" stroke-width="1.5"/>
  <path d="m17.16666,17l-9.02637,-9.02637l9.02637,9.02637" stroke="#ffffff" stroke-linejoin="round" stroke-linecap="round" stroke-width="1.5"/>
 </g>
</svg>