<svg width="100%" height="100%" viewBox="0 0 24 24" fill="none" xmlns="http://www.w3.org/2000/svg">
<path d="M18 13.1111V4.13333C18 2.95513 17.1572 2 16.1176 2H3.88235C2.84276 2 2 2.95513 2 4.13333V15.8667C2 17.0449 2.84276 18 3.88235 18H7.77778" stroke="currentColor" stroke-width="1.5" stroke-linecap="round" stroke-linejoin="round"/>
<path d="M12.5533 22.9531L22.0449 13.4615" stroke="currentColor" stroke-width="1.5" stroke-linecap="round" stroke-linejoin="round"/>
<path d="M19.2163 23L12.5528 22.9532L12.5051 16.2888" stroke="currentColor" stroke-width="1.5" stroke-linecap="round" stroke-linejoin="round"/>
<path d="M7.88665 5V10H7.08147L4.96863 6.96429V10H4V5H4.81123L6.91801 8.03571V5H7.88665Z" fill="black"/>
<path d="M9.87003 5.92857V7.25H11.8315V8.17857H9.87003V10H8.88929V5H12.0918V5.92857H9.87003Z" fill="black"/>
<path d="M13.6632 5.94286H12.3071V5H16V5.94286H14.6439V10H13.6632V5.94286Z" fill="black"/>
</svg>
