<svg width="100%" height="100%" viewBox="0 0 26 38" fill="none" xmlns="http://www.w3.org/2000/svg">
<path d="M0.416182 8.80156L23.0586 6.55422L22.6683 2.01389C15.3768 -1.32043 6.54673 -0.463927 0.000137329 4.20873L0.416182 8.80156Z" fill="url(#paint0_linear_3387_7971)"/>
<g style="mix-blend-mode:multiply" opacity="0.2">
<g style="mix-blend-mode:multiply" opacity="0.2">
<path d="M0.263391 7.13014L3.01336 35.2128C3.11216 36.2196 4.07199 36.9492 5.1578 36.8384L23.8579 34.9359C24.9433 34.8252 25.7426 33.9183 25.6441 32.9101L22.8994 4.88281L0.263391 7.13014Z" fill="white"/>
</g>
<g style="mix-blend-mode:multiply" opacity="0.2">
<path d="M0.268072 7.18375L3.0163 35.2513C3.11511 36.2581 4.07494 36.9866 5.16074 36.8758L23.8608 34.9733C24.9463 34.8626 25.7455 33.9561 25.6471 32.9482L22.9042 4.9375L0.268072 7.18375Z" fill="#F7F7F7"/>
</g>
<g style="mix-blend-mode:multiply" opacity="0.2">
<path d="M0.272928 7.23171L3.01973 35.2849C3.11853 36.2917 4.07836 37.0191 5.16417 36.9083L23.8642 35.0058C24.9497 34.8951 25.7489 33.989 25.6505 32.9818L22.909 4.98438L0.272928 7.23171Z" fill="#F0F0F0"/>
</g>
<g style="mix-blend-mode:multiply" opacity="0.2">
<path d="M0.277395 7.28213L3.02314 35.3205C3.12195 36.3273 4.08177 37.054 5.16722 36.9433L23.8673 35.0408C24.9527 34.93 25.7524 34.0246 25.6539 33.0178L22.9135 5.03516L0.277395 7.28213Z" fill="#E8E8E8"/>
</g>
<g style="mix-blend-mode:multiply" opacity="0.2">
<path d="M0.282934 7.33291L3.02656 35.3566C3.12537 36.3634 4.08519 37.089 5.17064 36.9782L23.8707 35.0757C24.9562 34.965 25.7558 34.0599 25.6573 33.0535L22.9186 5.08594L0.282934 7.33291Z" fill="#E0E0E0"/>
</g>
<g style="mix-blend-mode:multiply" opacity="0.2">
<path d="M0.286913 7.38369L3.02947 35.3926C3.12828 36.3994 4.08811 37.124 5.17357 37.0132L23.8736 35.1107C24.9591 35 25.7587 34.0953 25.6603 33.0896L22.923 5.13672L0.286913 7.38369Z" fill="#D8D8D8"/>
</g>
<g style="mix-blend-mode:multiply" opacity="0.2">
<path d="M0.291454 7.43272L3.03296 35.4269C3.13142 36.4337 4.0916 37.1575 5.1767 37.045L23.8768 35.1425C24.9622 35.0317 25.7618 34.1274 25.6637 33.1224L22.9279 5.18359L0.291454 7.43272Z" fill="#D1D1D1"/>
</g>
<g style="mix-blend-mode:multiply" opacity="0.2">
<path d="M0.296659 7.48597L3.03534 35.4654C3.1338 36.4701 4.09398 37.195 5.17908 37.0835L23.8795 35.181C24.9646 35.0702 25.7646 34.1666 25.6661 33.162L22.9317 5.23828L0.296659 7.48597Z" fill="#C9C9C9"/>
</g>
<g style="mix-blend-mode:multiply" opacity="0.2">
<path d="M0.30093 7.53675L3.03927 35.5007C3.13807 36.5047 4.0979 37.2292 5.183 37.1188L23.8834 35.2163C24.9685 35.1056 25.7685 34.2023 25.67 33.198L22.9373 5.28906L0.30093 7.53675Z" fill="#C1C1C1"/>
</g>
<g style="mix-blend-mode:multiply" opacity="0.2">
<path d="M0.306305 7.58435L3.04323 35.5347C3.14168 36.5382 4.10185 37.2606 5.1866 37.1527L23.887 35.247C24.9721 35.1363 25.7721 34.2334 25.674 33.2298L22.9424 5.33594L0.306305 7.58435Z" fill="#B9B9B9"/>
</g>
<g style="mix-blend-mode:multiply" opacity="0.2">
<path d="M0.310286 7.63796L3.0458 35.5735C3.14425 36.5764 4.10442 37.2995 5.18917 37.1894L23.8899 35.2859C24.9754 35.1755 25.775 34.2726 25.6769 33.2697L22.9467 5.39062L0.310286 7.63796Z" fill="#B2B2B2"/>
</g>
<g style="mix-blend-mode:multiply" opacity="0.2">
<path d="M0.315165 7.68483L3.04926 35.6057C3.14772 36.6085 4.1079 37.3316 5.193 37.2209L23.8931 35.318C24.9785 35.2076 25.7781 34.3054 25.6804 33.3044L22.9512 5.4375L0.315165 7.68483Z" fill="#AAAAAA"/>
</g>
<g style="mix-blend-mode:multiply" opacity="0.2">
<path d="M0.320301 7.73736L3.05299 35.6434C3.15109 36.6456 4.11163 37.3694 5.19638 37.2576L23.8964 35.3551C24.9819 35.2447 25.7819 34.3429 25.6838 33.3415L22.9564 5.49219L0.320301 7.73736Z" fill="#A2A2A2"/>
</g>
<g style="mix-blend-mode:multiply" opacity="0.2">
<path d="M0.324621 7.78922L3.05589 35.6806C3.15435 36.682 4.11454 37.4044 5.19928 37.2936L23.8993 35.3911C24.9848 35.2807 25.7848 34.3793 25.6867 33.3775L22.9607 5.54297L0.324621 7.78922Z" fill="#9B9B9B"/>
</g>
<g style="mix-blend-mode:multiply" opacity="0.2">
<path d="M0.32966 7.84108L3.05988 35.7177C3.15798 36.7187 4.11852 37.4408 5.20291 37.33L23.903 35.4275C24.9884 35.3171 25.7884 34.416 25.6906 33.4139L22.9657 5.59375L0.32966 7.84108Z" fill="#939393"/>
</g>
<g style="mix-blend-mode:multiply" opacity="0.2">
<path d="M0.334349 7.89042L3.0628 35.7523C3.1609 36.7526 4.12143 37.4743 5.20582 37.3635L23.9059 35.461C24.9913 35.3506 25.7913 34.4503 25.6936 33.4496L22.9704 5.64453L0.334349 7.89042Z" fill="#8B8B8B"/>
</g>
<g style="mix-blend-mode:multiply" opacity="0.2">
<path d="M0.338686 7.94017L3.06574 35.7877C3.16384 36.7873 4.12437 37.5086 5.20877 37.3978L23.9088 35.4957C24.9943 35.3849 25.7943 34.4849 25.6965 33.4849L22.9748 5.69141L0.338686 7.94017Z" fill="#838383"/>
</g>
<g style="mix-blend-mode:multiply" opacity="0.2">
<path d="M0.344013 7.99306L3.06965 35.824C3.1674 36.8233 4.12827 37.5442 5.21232 37.4335L23.9124 35.5313C24.9978 35.4206 25.7982 34.5209 25.7004 33.5217L22.9801 5.74609L0.344013 7.99306Z" fill="#7C7C7C"/>
</g>
<g style="mix-blend-mode:multiply" opacity="0.2">
<path d="M0.348362 8.0403L3.07259 35.8561C3.17068 36.855 4.13121 37.5752 5.21525 37.4645L23.9157 35.5624C25.0008 35.4516 25.8011 34.5523 25.7033 33.5538L22.9844 5.79297L0.348362 8.0403Z" fill="#747474"/>
</g>
<g style="mix-blend-mode:multiply" opacity="0.2">
<path d="M0.353174 8.09108L3.07599 35.8922C3.17409 36.8903 4.13461 37.6102 5.21865 37.4995L23.9191 35.5973C25.0042 35.4866 25.8045 34.588 25.7068 33.5895L22.9896 5.84375L0.353174 8.09108Z" fill="#6C6C6C"/>
</g>
<g style="mix-blend-mode:multiply" opacity="0.2">
<path d="M0.358068 8.14577L3.07947 35.9318C3.17722 36.9296 4.1381 37.6491 5.22179 37.5383L23.9222 35.6362C25.0077 35.5254 25.8076 34.6272 25.7102 33.6294L22.9931 5.89844L0.358068 8.14577Z" fill="#646464"/>
</g>
<g style="mix-blend-mode:multiply" opacity="0.2">
<path d="M0.362482 8.19264L3.08247 35.9639C3.18022 36.961 4.1411 37.6801 5.22479 37.5694L23.9256 35.6672C25.011 35.5565 25.8113 34.6604 25.7136 33.6615L22.9989 5.94531L0.362482 8.19264Z" fill="#5D5D5D"/>
</g>
<g style="mix-blend-mode:multiply" opacity="0.2">
<path d="M0.367136 8.24378L3.0843 36.0003C3.18204 36.9967 4.14292 37.7155 5.22696 37.6047L23.927 35.7026C25.0125 35.5918 25.8128 34.6958 25.7151 33.6976L23.0018 5.99609L0.367136 8.24378Z" fill="#555555"/>
</g>
<g style="mix-blend-mode:multiply" opacity="0.2">
<path d="M0.372066 8.29492L3.08923 36.0363C3.18697 37.0323 4.14611 37.7504 5.23156 37.64L23.9316 35.7379C25.0171 35.6271 25.8174 34.7311 25.72 33.734L23.0081 6.04688L0.372066 8.29492Z" fill="#4D4D4D"/>
</g>
<g style="mix-blend-mode:multiply" opacity="0.2">
<path d="M0.376953 8.34499L3.09411 36.072C3.19186 37.0677 4.15098 37.785 5.23643 37.6746L23.9365 35.7725C25.0219 35.6617 25.8223 34.7657 25.7249 33.7697L23.0144 6.09766L0.376953 8.34499Z" fill="#464646"/>
</g>
<g style="mix-blend-mode:multiply" opacity="0.2">
<path d="M0.38143 8.39577L3.09576 36.1077C3.19351 37.103 4.15263 37.82 5.23808 37.7096L23.9382 35.8074C25.0236 35.6967 25.8239 34.8006 25.7269 33.8057L23.0175 6.14844L0.38143 8.39577Z" fill="#3E3E3E"/>
</g>
<g style="mix-blend-mode:multiply" opacity="0.2">
<path d="M0.386087 8.44655L3.09901 36.1437C3.1964 37.1383 4.15551 37.8549 5.24097 37.7445L23.941 35.8424C25.0265 35.7316 25.8272 34.8356 25.7298 33.8414L23.0221 6.19922L0.386087 8.44655Z" fill="#363636"/>
</g>
<g style="mix-blend-mode:multiply" opacity="0.2">
<path d="M0.390892 8.49733L3.1024 36.1798C3.1998 37.1736 4.15893 37.8899 5.24438 37.7795L23.9444 35.8774C25.0299 35.7666 25.8306 34.8706 25.7332 33.8774L23.027 6.25L0.390892 8.49733Z" fill="#2E2E2E"/>
</g>
<g style="mix-blend-mode:multiply" opacity="0.2">
<path d="M0.395435 8.55022L3.10553 36.2176C3.20328 37.2111 4.16206 37.927 5.24751 37.8166L23.9479 35.9144C25.033 35.8037 25.8337 34.9076 25.7367 33.9156L23.0315 6.30469L0.395435 8.55022Z" fill="#272727"/>
</g>
<g style="mix-blend-mode:multiply" opacity="0.2">
<path d="M0.400116 8.60069L3.1088 36.2518C3.2062 37.2446 4.16496 37.9602 5.25042 37.8498L23.9509 35.9476C25.036 35.8369 25.8366 34.9408 25.7396 33.9499L23.0362 6.35156L0.400116 8.60069Z" fill="#1F1F1F"/>
</g>
<g style="mix-blend-mode:multiply" opacity="0.2">
<path d="M0.404945 8.65003L3.11223 36.2879C3.20963 37.2803 4.16875 37.9951 5.25385 37.8847L23.9543 35.9826C25.0397 35.8718 25.84 34.9779 25.743 33.9855L23.041 6.40234L0.404945 8.65003Z" fill="#171717"/>
</g>
<g style="mix-blend-mode:multiply" opacity="0.2">
<path d="M0.409775 8.70045L3.11529 36.3236C3.21268 37.3156 4.1718 38.0301 5.2569 37.9197L23.9573 36.0176C25.0428 35.9068 25.8435 35.0136 25.7464 34.0216L23.0458 6.45312L0.409775 8.70045Z" fill="#0F0F0F"/>
</g>
<g style="mix-blend-mode:multiply" opacity="0.2">
<path d="M0.414248 8.75124L3.11871 36.3596C3.2161 37.3509 4.17486 38.0651 5.25996 37.9543L23.9607 36.0525C25.0462 35.9418 25.8469 35.049 25.7498 34.0576L23.0507 6.50391L0.414248 8.75124Z" fill="#080808"/>
</g>
<g style="mix-blend-mode:multiply" opacity="0.2">
<path d="M0.418955 8.80166L3.122 36.3953C3.2194 37.3859 4.17817 38.0997 5.26362 37.9889L23.9637 36.0871C25.0491 35.9764 25.8498 35.0839 25.7528 34.0929L23.055 6.55469L0.418955 8.80166Z" fill="black"/>
</g>
</g>
<path d="M0.418955 8.80166L3.122 36.3953C3.2194 37.3859 4.17817 38.0996 5.26362 37.9889L23.9637 36.0871C25.0491 35.9764 25.8498 35.0839 25.7528 34.0929L23.055 6.55469L0.418955 8.80166Z" fill="url(#paint1_linear_3387_7971)"/>
<path d="M1.94408 8.65023L4.58326 35.5876C4.63972 36.1651 5.20078 36.5822 5.83349 36.5179L23.1203 34.7595C23.753 34.6948 24.2223 34.1731 24.1655 33.596L21.5313 6.70566L22.1456 6.64453L24.7795 33.5334C24.8663 34.4194 24.1468 35.2205 23.175 35.319L5.88854 37.0777C4.91707 37.1762 4.05606 36.5362 3.96925 35.6502L1.33008 8.71208L1.94408 8.65023Z" fill="url(#paint2_linear_3387_7971)"/>
<defs>
<linearGradient id="paint0_linear_3387_7971" x1="11.1206" y1="0.111826" x2="11.7556" y2="7.88709" gradientUnits="userSpaceOnUse">
<stop offset="0.18" stop-color="#FF4148"/>
<stop offset="1" stop-color="#980B0E"/>
</linearGradient>
<linearGradient id="paint1_linear_3387_7971" x1="13.0898" y1="6.55469" x2="16.56" y2="50.882" gradientUnits="userSpaceOnUse">
<stop stop-color="#FF4149"/>
<stop offset="1" stop-color="#990C0E"/>
</linearGradient>
<linearGradient id="paint2_linear_3387_7971" x1="8.02876" y1="8.75487" x2="24.4758" y2="48.0445" gradientUnits="userSpaceOnUse">
<stop offset="0.01" stop-color="#F7BB2E"/>
<stop offset="0.03" stop-color="#F6B626"/>
<stop offset="0.57" stop-color="#FFEF7F"/>
<stop offset="1" stop-color="#F6B626"/>
</linearGradient>
</defs>
</svg>
