<svg width="100%" height="100%" viewBox="0 0 24 24" fill="none" xmlns="http://www.w3.org/2000/svg">
<path d="M2.50098 20.873H7.00048" stroke="currentColor" stroke-width="1.5" stroke-linecap="round" stroke-linejoin="round"/>
<path d="M9.27141 11.2492C6.56815 11.2492 4.37598 10.368 4.37598 9.29102" stroke="currentColor" stroke-width="1.1" stroke-linecap="round" stroke-linejoin="round"/>
<path d="M12.2095 11.957C12.2095 13.034 14.4007 13.9152 17.1049 13.9152C19.8091 13.9152 22.0003 13.034 22.0003 11.957" stroke="currentColor" stroke-width="1.1" stroke-linecap="round" stroke-linejoin="round"/>
<path d="M17.1039 9.99951C14.4016 9.99951 12.2085 10.8807 12.2085 11.9577" stroke="currentColor" stroke-width="1.1" stroke-linecap="round" stroke-linejoin="round"/>
<path d="M12.2095 12.249V16.1448C12.2095 17.2218 14.4007 18.103 17.1049 18.103" stroke="currentColor" stroke-width="1.1" stroke-linecap="round" stroke-linejoin="round"/>
<path d="M17.104 9.99951C19.8073 9.99951 21.9994 10.8807 21.9994 11.9577" stroke="currentColor" stroke-width="1.1" stroke-linecap="round" stroke-linejoin="round"/>
<path d="M21.9994 12.249V16.1448C21.9994 17.2218 19.8092 18.103 17.104 18.103" stroke="currentColor" stroke-width="1.1" stroke-linecap="round" stroke-linejoin="round"/>
<path d="M9.27141 15.1657C6.56815 15.1657 4.37598 14.2845 4.37598 13.2075" stroke="currentColor" stroke-width="1.1" stroke-linecap="round" stroke-linejoin="round"/>
<path d="M9.27141 7.91634C11.9751 7.91634 14.1668 7.03964 14.1668 5.95817C14.1668 4.8767 11.9751 4 9.27141 4C6.56774 4 4.37598 4.8767 4.37598 5.95817C4.37598 7.03964 6.56774 7.91634 9.27141 7.91634Z" stroke="currentColor" stroke-width="1.1" stroke-linecap="round" stroke-linejoin="round"/>
<path d="M4.37598 6.99951L4.37598 12.9988" stroke="currentColor" stroke-width="1.1" stroke-linecap="round" stroke-linejoin="round"/>
</svg>
