<svg width="100%" height="100%" viewBox="0 0 24 24" fill="none" xmlns="http://www.w3.org/2000/svg">
<path d="M7.55534 3.11133L5.88867 4.77799" stroke="currentColor" stroke-width="1.5" stroke-linecap="round" stroke-linejoin="round"/>
<path d="M5.88867 1.44434L7.55534 3.111" stroke="currentColor" stroke-width="1.5" stroke-linecap="round" stroke-linejoin="round"/>
<path d="M7.55556 3.11084H5.33333C4.44928 3.11084 3.60168 3.46228 2.97656 4.0874C2.35144 4.71252 2 5.56012 2 6.44417" stroke="currentColor" stroke-width="1.5" stroke-linecap="round" stroke-linejoin="round"/>
<path d="M16.4443 20.8888L18.111 19.2222" stroke="currentColor" stroke-width="1.5" stroke-linecap="round" stroke-linejoin="round"/>
<path d="M18.111 22.5553L16.4443 20.8887" stroke="currentColor" stroke-width="1.5" stroke-linecap="round" stroke-linejoin="round"/>
<path d="M16.4443 20.889H18.6666C19.5506 20.889 20.3993 20.5376 21.0244 19.9124C21.6495 19.2873 21.9999 18.4397 21.9999 17.5557" stroke="currentColor" stroke-width="1.5" stroke-linecap="round" stroke-linejoin="round"/>
<path d="M19.0998 4.90088C20.2412 6.04937 20.8815 7.60297 20.8815 9.22217C20.8815 10.8414 20.2412 12.395 19.0998 13.5435C18.9106 13.7267 18.7075 13.8946 18.4922 14.0464" stroke="currentColor" stroke-width="1.5" stroke-linecap="round" stroke-linejoin="round"/>
<path d="M19.0998 4.90082C17.9513 3.75943 16.3972 3.11914 14.778 3.11914C13.1588 3.11914 11.6057 3.75943 10.4572 4.90082C10.2733 5.08932 10.1029 5.29055 9.94727 5.50304" stroke="currentColor" stroke-width="1.5" stroke-linecap="round" stroke-linejoin="round"/>
<path d="M15.3328 14.7776C15.3328 15.9863 14.9746 17.1678 14.3031 18.1728C13.6316 19.1778 12.6778 19.9612 11.5611 20.4238C10.4445 20.8863 9.21576 21.0073 8.03033 20.7715C6.84489 20.5357 5.75564 19.9536 4.90098 19.0989C4.04633 18.2443 3.46469 17.155 3.22889 15.9696C2.99309 14.7841 3.11358 13.5554 3.57611 12.4387C4.03865 11.3221 4.82158 10.3677 5.82655 9.69623C6.83152 9.02474 8.01307 8.6665 9.22173 8.6665C10.8425 8.6665 12.3975 9.31027 13.5436 10.4563C14.6896 11.6024 15.3328 13.1568 15.3328 14.7776Z" stroke="currentColor" stroke-width="1.5" stroke-linecap="round" stroke-linejoin="round"/>
<path d="M9.61508 11.0568C9.57061 11.0049 9.51177 10.9625 9.44349 10.9332C9.3752 10.9039 9.29946 10.8887 9.2226 10.8887C9.14574 10.8887 9.07 10.9039 9.00172 10.9332C8.93343 10.9625 8.87459 11.0049 8.83013 11.0568L6.51518 14.1283C6.47319 14.1841 6.44915 14.248 6.44536 14.3137C6.44156 14.3794 6.45814 14.4448 6.49352 14.5037L8.80846 18.343C8.8469 18.4068 8.90601 18.4605 8.97916 18.498C9.05231 18.5355 9.13661 18.5553 9.2226 18.5553C9.3086 18.5553 9.39289 18.5355 9.46604 18.498C9.53919 18.4605 9.5983 18.4068 9.63675 18.343L11.9517 14.5037C11.9871 14.4448 12.0036 14.3794 11.9998 14.3137C11.9961 14.248 11.972 14.1841 11.93 14.1283L9.61508 11.0568ZM9.2226 11.9847L10.8513 14.1459L9.2226 14.6862L7.59395 14.1459L9.2226 11.9847Z" fill="currentColor"/>
</svg>
