<svg xmlns="http://www.w3.org/2000/svg" id="prefix__earth" width="20.346" height="20.346" viewBox="0 0 20.346 20.346">
    <path id="prefix__earth-2" d="M10.173 0a10.173 10.173 0 1 0 10.173 10.173A10.173 10.173 0 0 0 10.173 0zm0 19.075a8.875 8.875 0 0 1-3.521-.724l4.633-5.212a.634.634 0 0 0 .161-.422v-1.908a.636.636 0 0 0-.636-.636c-2.245 0-4.613-2.334-4.637-2.357a.635.635 0 0 0-.45-.186H3.18a.636.636 0 0 0-.636.636v3.815a.635.635 0 0 0 .352.568l2.192 1.1v3.733A8.907 8.907 0 0 1 2.129 6.358h2.322a.634.634 0 0 0 .45-.186l2.543-2.543a.635.635 0 0 0 .186-.45V1.641a8.928 8.928 0 0 1 6.443.528c-.083.069-.163.142-.239.219A3.816 3.816 0 0 0 16.53 8.9h.189a14.926 14.926 0 0 1-.167 7.4.6.6 0 0 0-.017.1 8.873 8.873 0 0 1-6.361 2.676z" data-name="earth" style="fill:#ffffff"/>
</svg>
