<svg width="24" height="24" viewBox="0 0 24 24" fill="none" xmlns="http://www.w3.org/2000/svg">
<path d="M12 24C18.6274 24 24 18.6274 24 12C24 5.37258 18.6274 0 12 0C5.37258 0 0 5.37258 0 12C0 18.6274 5.37258 24 12 24Z" fill="#D80027"/>
<path d="M6.56719 7.30298L7.60312 10.4905H10.9547L8.24531 12.4639L9.28125 15.6514L6.56719 13.6827L3.85313 15.6514L4.89375 12.4639L2.17969 10.4905H5.53125L6.56719 7.30298Z" fill="#FFDA44"/>
<path d="M14.2267 18.5859L13.4345 17.6109L12.2626 18.0656L12.9423 17.0109L12.1501 16.0312L13.3642 16.3546L14.0486 15.2999L14.1142 16.5562L15.333 16.8796L14.1564 17.3296L14.2267 18.5859Z" fill="#FFDA44"/>
<path d="M15.8017 15.7265L16.1767 14.5265L15.1501 13.7999L16.4064 13.7812L16.7767 12.5812L17.1845 13.7718L18.4408 13.7577L17.433 14.5077L17.8361 15.6984L16.8095 14.9718L15.8017 15.7265Z" fill="#FFDA44"/>
<path d="M17.9249 8.80778L17.3717 9.93746L18.2717 10.814L17.0295 10.6359L16.4764 11.7609L16.2608 10.5234L15.0139 10.3453L16.1295 9.75934L15.9139 8.51715L16.8139 9.39371L17.9249 8.80778Z" fill="#FFDA44"/>
<path d="M14.2597 5.38586L14.1659 6.63743L15.3331 7.11087L14.1097 7.41086L14.0206 8.66711L13.3597 7.59836L12.1362 7.89836L12.9472 6.93743L12.2815 5.87336L13.4487 6.3468L14.2597 5.38586Z" fill="#FFDA44"/>
</svg>
