<svg width="25" height="24" viewBox="0 0 25 24" fill="none" xmlns="http://www.w3.org/2000/svg">
<g clip-path="url(#clip0)">
<path d="M12.5 24C19.4036 24 25 18.6274 25 12C25 5.37258 19.4036 0 12.5 0C5.59644 0 0 5.37258 0 12C0 18.6274 5.59644 24 12.5 24Z" fill="white"/>
<path d="M11.413 12C11.413 12 3.66846 20.487 3.66113 20.4853C5.92314 22.6568 9.04819 24 12.5 24C19.4035 24 25 18.6274 25 12H11.413Z" fill="#D80027"/>
<path d="M3.66116 3.51459C-1.22039 8.20087 -1.22039 15.7989 3.66116 20.4852C5.67839 18.5487 7.61848 16.6862 12.5 11.9999L3.66116 3.51459Z" fill="#0052B4"/>
</g>
<defs>
<clipPath id="clip0">
<rect width="25" height="24" fill="white"/>
</clipPath>
</defs>
</svg>
