<svg width="24" height="24" viewBox="0 0 24 24" fill="none" xmlns="http://www.w3.org/2000/svg">
<path d="M12 24C18.6274 24 24 18.6274 24 12C24 5.37258 18.6274 0 12 0C5.37258 0 0 5.37258 0 12C0 18.6274 5.37258 24 12 24Z" fill="#3861FB"/>
<path d="M14.4964 10.2148H9.93795C10.3675 8.65779 11.4057 7.90494 12.7422 7.90494C13.7864 7.90494 14.5919 8.37262 15.1647 8.80608L16 7.10646C15.1169 6.39924 14.0191 6 12.7422 6C10.2064 6 8.29117 7.55133 7.70644 10.2148H6.47136L6 11.4297H7.53938C7.52745 11.6179 7.52148 11.8118 7.52148 12.0114C7.52148 12.1996 7.52745 12.3878 7.53938 12.5703H6.47136L6 13.8023H7.70644C8.29117 16.4601 10.2064 18 12.7422 18C13.9714 18 15.111 17.6407 15.9642 16.9335L15.1169 15.2338C14.5979 15.6331 13.7924 16.0951 12.7422 16.0951C11.3998 16.0951 10.3675 15.3593 9.93795 13.8023H12.778L13.3926 12.5703H9.74105C9.72912 12.3935 9.72315 12.2053 9.72315 12.0114C9.72315 11.8118 9.72912 11.6179 9.74105 11.4297H13.9177L14.4964 10.2148Z" fill="white"/>
</svg>
