<svg width="22" height="22" viewBox="0 0 14 14" fill="none" xmlns="http://www.w3.org/2000/svg">
<path fill-rule="evenodd" clip-rule="evenodd" d="M5.91096 1.1159C6.1231 1.29268 6.15176 1.60797 5.97498 1.8201L5.06729 2.90933C6.36626 2.90986 7.40567 2.91625 8.22326 2.98552C9.11959 3.06146 9.84238 3.21787 10.3758 3.59891C10.9384 4.00083 11.2102 4.59091 11.3474 5.3317C11.4815 6.05582 11.4999 6.99748 11.4999 8.18202C11.4999 8.45816 11.2761 8.68202 10.9999 8.68202C10.7238 8.68202 10.4999 8.45816 10.4999 8.18202C10.4999 6.98019 10.4786 6.13203 10.3641 5.51378C10.2527 4.9122 10.0671 4.60733 9.79453 4.41262C9.49272 4.19703 9.00244 4.05512 8.13883 3.98195C7.36777 3.91662 6.37291 3.90997 5.06761 3.90935L5.97498 4.99831C6.15175 5.21046 6.12307 5.52574 5.91093 5.70251C5.69878 5.87928 5.3835 5.8506 5.20673 5.63845L3.34912 3.40909L5.20676 1.17992C5.38354 0.967782 5.69882 0.93912 5.91096 1.1159Z" fill="white"/>
<path fill-rule="evenodd" clip-rule="evenodd" d="M3.15253 8.85032C3.01844 8.12619 3 7.18453 3 6C3 5.72386 3.22386 5.5 3.5 5.5C3.77614 5.5 4 5.72386 4 6C4 7.20183 4.02133 8.04998 4.13582 8.66824C4.24722 9.26982 4.43283 9.57469 4.7054 9.7694C5.00721 9.98499 5.4975 10.1269 6.3611 10.2001C7.21495 10.2724 8.34323 10.2728 9.86361 10.2727C10.1398 10.2727 10.3636 10.4966 10.3636 10.7727C10.3636 11.0488 10.1398 11.2727 9.86366 11.2727L9.84002 11.2727C8.34894 11.2728 7.17802 11.2729 6.27668 11.1965C5.38034 11.1206 4.65756 10.9641 4.12414 10.5831C3.56149 10.1812 3.28971 9.59111 3.15253 8.85032Z" fill="white"/>
<path fill-rule="evenodd" clip-rule="evenodd" d="M8.58897 13.0659C8.37684 12.8891 8.34817 12.5739 8.52496 12.3617L10.1159 10.4526C10.2926 10.2405 10.6079 10.2118 10.8201 10.3886C11.0322 10.5654 11.0609 10.8807 10.8841 11.0928L9.29318 13.0019C9.11639 13.214 8.80111 13.2427 8.58897 13.0659Z" fill="white"/>
<path fill-rule="evenodd" clip-rule="evenodd" d="M10.8201 11.1568C11.0322 10.9801 11.0609 10.6648 10.8841 10.4526L9.29319 8.54355C9.11641 8.33141 8.80113 8.30275 8.58899 8.47953C8.37685 8.65631 8.34819 8.97159 8.52497 9.18373L10.1159 11.0928C10.2927 11.305 10.6079 11.3336 10.8201 11.1568Z" fill="white"/>
</svg>
