<svg width="14" height="18" viewBox="0 0 14 18" fill="none" xmlns="http://www.w3.org/2000/svg">
<path d="M1 4.5L4 1.5" stroke="white" stroke-width="1.5" stroke-linecap="round" stroke-linejoin="round"/>
<path d="M1 4.5L4 7.5" stroke="white" stroke-width="1.5" stroke-linecap="round" stroke-linejoin="round"/>
<path d="M1 4.5H7C8.18669 4.5 9.3468 4.85194 10.3335 5.51123C11.3202 6.17052 12.0888 7.1075 12.543 8.20386C12.9971 9.30021 13.1163 10.5066 12.8848 11.6705C12.6533 12.8344 12.0818 13.9036 11.2427 14.7427C10.4036 15.5818 9.3343 16.1531 8.17041 16.3846C7.00652 16.6162 5.79997 16.4973 4.70361 16.0432C3.60726 15.5891 2.67052 14.8201 2.01123 13.8334C1.35194 12.8467 1 11.6867 1 10.5" stroke="white" stroke-width="1.5" stroke-linecap="round" stroke-linejoin="round"/>
</svg>
