<svg xmlns="http://www.w3.org/2000/svg" id="Component_977_2" width="22" height="22" data-name="Component 977 – 2" viewBox="0 0 22 22">
    <defs>
        <style>
            .cls-1{fill:#fff}
        </style>
    </defs>
    <path id="Subtraction_1" d="M7.5 10h-5A2.5 2.5 0 0 1 0 7.5v-5A2.5 2.5 0 0 1 2.5 0h5A2.5 2.5 0 0 1 10 2.5v5A2.5 2.5 0 0 1 7.5 10zM3.6 2.205a1.4 1.4 0 0 0-1.4 1.4V6.4a1.4 1.4 0 0 0 1.4 1.4h2.8a1.4 1.4 0 0 0 1.4-1.4V3.6a1.4 1.4 0 0 0-1.4-1.4z" class="cls-1" data-name="Subtraction 1"/>
    <path id="Subtraction_2" d="M7.5 10h-5A2.5 2.5 0 0 1 0 7.5v-5A2.5 2.5 0 0 1 2.5 0h5A2.5 2.5 0 0 1 10 2.5v5A2.5 2.5 0 0 1 7.5 10zM3.6 2.205a1.4 1.4 0 0 0-1.4 1.4V6.4a1.4 1.4 0 0 0 1.4 1.4h2.8a1.4 1.4 0 0 0 1.4-1.4V3.6a1.4 1.4 0 0 0-1.4-1.4z" class="cls-1" data-name="Subtraction 2" transform="translate(12)"/>
    <path id="Path_2370" d="M7.884 20H5.295A1.3 1.3 0 0 0 4 21.295v2.589a1.3 1.3 0 0 0 1.295 1.295h2.589a1.3 1.3 0 0 0 1.295-1.295v-2.589A1.3 1.3 0 0 0 7.884 20z" class="cls-1" data-name="Path 2370" transform="translate(10.407 -5.366)"/>
    <path id="Subtraction_4" d="M7.5 10h-5A2.5 2.5 0 0 1 0 7.5v-5A2.5 2.5 0 0 1 2.5 0h5A2.5 2.5 0 0 1 10 2.5v5A2.5 2.5 0 0 1 7.5 10zM3.6 2.205a1.4 1.4 0 0 0-1.4 1.4V6.4a1.4 1.4 0 0 0 1.4 1.4h2.8a1.4 1.4 0 0 0 1.4-1.4V3.6a1.4 1.4 0 0 0-1.4-1.4z" class="cls-1" data-name="Subtraction 4" transform="translate(0 12)"/>
</svg>
