<svg xmlns="http://www.w3.org/2000/svg" width="44" height="44" viewBox="0 0 44 44">
    <defs>
        <linearGradient id="yxwvk76spa" x1="100%" x2="0%" y1=".628%" y2="99.372%">
            <stop offset="0%" stop-color="#5F6BFB"/>
            <stop offset="100%" stop-color="#724DE4"/>
        </linearGradient>
    </defs>
    <g fill="none" fill-rule="evenodd">
        <path fill="url(#yxwvk76spa)" d="M29.364 0H13.909C6.182 0 0 6.143 0 13.821V29.18C0 36.857 6.182 43 13.91 43h15.454c7.727 0 13.909-6.143 13.909-13.821V13.82C43.273 6.143 37.09 0 29.363 0z"/>
        <path fill="#FFF" d="M10.002 19.286c-1.41 1.4-1.98 3.421-1.496 5.302.484 1.881 1.948 3.336 3.84 3.816 1.893.481 3.927-.086 5.336-1.486l9.407-9.347c1.329-1.32 3.453-1.348 4.746-.063 1.293 1.285 1.266 3.397-.063 4.717l-3.031 3.012-1.716-1.705-1.161 6.053 6.092-1.153-1.716-1.706 3.031-3.012c1.409-1.4 1.98-3.421 1.495-5.302-.483-1.881-1.947-3.336-3.84-3.816-1.893-.481-3.927.086-5.336 1.486l-9.406 9.347c-1.329 1.32-3.454 1.348-4.747.063-1.293-1.285-1.265-3.397.063-4.717l2.78-2.762 1.716 1.705 1.159-6.051-6.09 1.152 1.716 1.705-2.78 2.762z"/>
    </g>
</svg>
