<svg width="101" height="121" viewBox="0 0 101 121" fill="none" xmlns="http://www.w3.org/2000/svg">
<path d="M86.7155 33.8549L65.3105 12.2503C64.1046 11.0345 62.458 10.333 60.7419 10.333H25.353C19.1842 10.333 14.1982 15.3601 14.1982 21.5796V98.9962C14.1982 105.216 19.1842 110.243 25.353 110.243H30.8491V99.6977C30.8491 92.7066 36.4613 87.0248 43.4185 87.0248H43.9983V96.3307H43.4185C41.5632 96.3307 40.1022 97.8271 40.1022 99.6743V110.219H62.7131V99.6743C62.7131 97.8038 61.2057 96.3307 59.3505 96.3307H58.7939V87.0248H59.3505C66.2845 87.0248 71.943 92.6832 71.943 99.6977V110.243H77.4392C83.6079 110.243 88.5939 105.216 88.5939 98.9962V38.4611C88.5939 36.7309 87.9214 35.0708 86.7155 33.8549V33.8549ZM56.011 97.3829C56.011 99.9549 53.9471 102.036 51.3961 102.036C48.8451 102.036 46.7811 99.9549 46.7811 97.3829V71.6163C46.7811 69.0443 48.8451 66.9634 51.3961 66.9634C53.9471 66.9634 56.011 69.0443 56.011 71.6163V97.3829ZM71.943 70.2602C71.943 77.2513 66.2845 82.9564 59.3505 82.9564H58.7939V73.6505H59.3505C61.2057 73.6505 62.7131 72.1307 62.7131 70.2602V63.8536C62.7131 61.2816 64.7771 59.2007 67.3281 59.2007C69.8791 59.2007 71.943 61.2816 71.943 63.8536V70.2602V70.2602ZM71.943 44.5637C71.943 47.1591 69.8791 49.2167 67.3281 49.2167C64.7771 49.2167 62.7131 47.1591 62.7131 44.5637V38.1572C62.7131 36.2866 61.2057 34.8136 59.3505 34.8136H43.4185C41.5632 34.8136 40.1022 36.31 40.1022 38.1572V70.2602C40.1022 72.1307 41.5864 73.6505 43.4185 73.6505H43.9983V82.9564H43.4185C36.4845 82.9564 30.8491 77.2513 30.8491 70.2602V38.1806C30.8491 31.1894 36.4613 25.5077 43.4185 25.5077H59.3505C66.2845 25.5077 71.943 31.1661 71.943 38.1806V44.5871V44.5637Z" fill="url(#paint0_linear_1077_11221)"/>
<defs>
<linearGradient id="paint0_linear_1077_11221" x1="51.3961" y1="10.333" x2="51.3961" y2="110.243" gradientUnits="userSpaceOnUse">
<stop stop-color="#2F80ED"/>
<stop offset="1" stop-color="#2F80ED"/>
</linearGradient>
</defs>
</svg>
