<svg width="1425" height="1000" viewBox="0 0 1425 1000" fill="none" xmlns="http://www.w3.org/2000/svg">
<path d="M1380.63 480.117L1219.3 385.09L1150.8 345.312C1124.28 329.842 1093.34 329.842 1066.82 345.312L753.012 526.525C726.493 541.994 695.554 541.994 669.035 526.525L357.436 345.312C330.917 329.842 299.979 329.842 273.46 345.312L204.952 385.09L43.6283 480.117C-11.6196 513.266 -11.6196 592.823 43.6283 623.762L317.658 782.876L673.455 988.398C699.974 1003.87 730.913 1003.87 757.432 988.398L1113.23 782.876L1387.26 623.762C1438.09 592.823 1438.09 513.266 1380.63 480.117Z" fill="url(#paint0_linear_47_295)"/>
<path d="M1380.65 146.407L1148.6 11.6021C1122.09 -3.86736 1091.15 -3.86736 1064.63 11.6021L750.819 192.816C724.3 208.285 693.361 208.285 666.842 192.816L353.034 11.6021C326.515 -3.86736 295.576 -3.86736 269.057 11.6021L41.4359 146.407C-13.812 179.556 -13.812 259.113 41.4359 290.052L204.97 385.078L315.466 449.166L671.262 654.688C697.781 670.158 728.72 670.158 755.239 654.688L1111.04 449.166L1221.53 385.078L1385.07 290.052C1438.1 259.113 1438.1 179.556 1380.65 146.407Z" fill="url(#paint1_linear_47_295)"/>
<g opacity="0.3">
<path d="M669.077 656.91C695.596 672.38 726.535 672.38 753.054 656.91L1108.85 451.388L1219.35 387.3L1150.84 347.522C1124.32 332.052 1093.38 332.052 1066.86 347.522L753.054 528.735C726.535 544.205 695.596 544.205 669.077 528.735L357.479 345.312C330.96 329.842 300.021 329.842 273.502 345.312L204.995 385.09L315.491 449.178L669.077 656.91Z" fill="#F6921A"/>
</g>
<defs>
<linearGradient id="paint0_linear_47_295" x1="711.825" y1="1002.09" x2="711.825" y2="335.027" gradientUnits="userSpaceOnUse">
<stop stop-color="#F6921A"/>
<stop offset="1" stop-color="#B04200"/>
</linearGradient>
<linearGradient id="paint1_linear_47_295" x1="711.803" y1="253.698" x2="711.803" y2="668.607" gradientUnits="userSpaceOnUse">
<stop stop-color="#FFEEDC"/>
<stop offset="1" stop-color="#FFC382"/>
</linearGradient>
</defs>
</svg>
