<svg width="690" height="485" viewBox="0 0 690 485" fill="none" xmlns="http://www.w3.org/2000/svg">
<path d="M667.697 232.185L589.677 186.228L556.546 166.99C543.721 159.509 528.758 159.509 515.933 166.99L364.169 254.629C351.344 262.11 336.381 262.11 323.556 254.629L172.861 166.99C160.036 159.509 145.073 159.509 132.248 166.99L99.1168 186.228L21.0973 232.185C-5.62164 248.216 -5.62164 286.692 21.0973 301.655L153.624 378.605L325.694 478C338.519 485.482 353.482 485.482 366.307 478L538.377 378.605L670.903 301.655C695.485 286.692 695.485 248.216 667.697 232.185Z" fill="url(#paint0_linear_169_3285)"/>
<path d="M667.707 70.8056L555.488 5.611C542.662 -1.87033 527.7 -1.87033 514.875 5.611L363.111 93.2496C350.286 100.731 335.323 100.731 322.498 93.2496L170.734 5.611C157.909 -1.87033 142.947 -1.87033 130.121 5.611L20.0392 70.8056C-6.67975 86.837 -6.67975 125.312 20.0392 140.275L99.1274 186.232L152.565 217.226L324.636 316.621C337.461 324.102 352.423 324.102 365.248 316.621L537.319 217.226L590.757 186.232L669.845 140.275C695.495 125.312 695.495 86.837 667.707 70.8056Z" fill="url(#paint1_linear_169_3285)"/>
<g opacity="0.3">
<path d="M323.549 317.708C336.374 325.19 351.336 325.19 364.162 317.708L536.232 218.314L589.67 187.319L556.538 168.082C543.713 160.6 528.751 160.6 515.925 168.082L364.162 255.72C351.336 263.202 336.374 263.202 323.549 255.72L172.854 167.013C160.029 159.532 145.066 159.532 132.241 167.013L99.1094 186.251L152.547 217.245L323.549 317.708Z" fill="#2CE0B6"/>
</g>
<defs>
<linearGradient id="paint0_linear_169_3285" x1="344.251" y1="484.623" x2="344.251" y2="162.016" gradientUnits="userSpaceOnUse">
<stop stop-color="#2CE0B6"/>
<stop offset="0.870192" stop-color="#13A482"/>
</linearGradient>
<linearGradient id="paint1_linear_169_3285" x1="344.242" y1="122.693" x2="344.242" y2="323.352" gradientUnits="userSpaceOnUse">
<stop stop-color="#E1FBF5"/>
<stop offset="1" stop-color="#96F0DB"/>
</linearGradient>
</defs>
</svg>
