<?xml version="1.0" encoding="UTF-8" standalone="no"?>
<svg
   xmlns:dc="http://purl.org/dc/elements/1.1/"
   xmlns:cc="http://creativecommons.org/ns#"
   xmlns:rdf="http://www.w3.org/1999/02/22-rdf-syntax-ns#"
   xmlns:svg="http://www.w3.org/2000/svg"
   xmlns="http://www.w3.org/2000/svg"
   xmlns:xlink="http://www.w3.org/1999/xlink"
   xmlns:sodipodi="http://sodipodi.sourceforge.net/DTD/sodipodi-0.dtd"
   xmlns:inkscape="http://www.inkscape.org/namespaces/inkscape"
   width="222.05289"
   height="222.05289"
   viewBox="0 0 222.05288 222.05288"
   version="1.1"
   id="svg1654"
   sodipodi:docname="logo.svg"
   inkscape:export-filename="/home/ryan/Documents/glide/glide.png"
   inkscape:export-xdpi="200"
   inkscape:export-ydpi="200"
   inkscape:version="0.92.3 (2405546, 2018-03-11)">
  <metadata
     id="metadata1658">
    <rdf:RDF>
      <cc:Work
         rdf:about="">
        <dc:format>image/svg+xml</dc:format>
        <dc:type
           rdf:resource="http://purl.org/dc/dcmitype/StillImage" />
        <dc:title></dc:title>
      </cc:Work>
    </rdf:RDF>
  </metadata>
  <sodipodi:namedview
     pagecolor="#ffffff"
     bordercolor="#666666"
     borderopacity="1"
     objecttolerance="10"
     gridtolerance="10"
     guidetolerance="10"
     inkscape:pageopacity="0"
     inkscape:pageshadow="2"
     inkscape:window-width="1853"
     inkscape:window-height="1025"
     id="namedview1656"
     showgrid="false"
     fit-margin-top="0"
     fit-margin-left="0"
     fit-margin-right="0"
     fit-margin-bottom="0"
     inkscape:zoom="0.97502008"
     inkscape:cx="190.86845"
     inkscape:cy="70.800205"
     inkscape:window-x="67"
     inkscape:window-y="27"
     inkscape:window-maximized="1"
     inkscape:current-layer="svg1654" />
  <defs
     id="defs1602">
    <style
       id="style1576">.a{fill:url(#a);}.b{fill:url(#b);}.c{fill:url(#c);}.d{fill:url(#d);}.e{fill:url(#e);}.f{fill:url(#f);}.g{fill:url(#g);}.h{fill:url(#h);}.i{fill:url(#i);}.j{fill:url(#j);}.k{fill:url(#k);}.l{fill:url(#l);}.m{fill:url(#m);}.n{fill:url(#n);}.o{fill:url(#o);}.p{fill:url(#p);}.q{fill:url(#q);}.r{fill:url(#r);}.s{fill:url(#s);}.t{fill:url(#t);}</style>
    <linearGradient
       id="a"
       x1="0.013"
       y1="0.5"
       x2="0.99699998"
       y2="0.5"
       gradientUnits="objectBoundingBox">
      <stop
         offset="0"
         stop-color="#ffab5f"
         id="stop1578" />
      <stop
         offset="1"
         stop-color="#fff"
         id="stop1580" />
    </linearGradient>
    <linearGradient
       id="b"
       x1="8972.8691"
       y1="-825.58667"
       x2="8988.4619"
       y2="-825.58667"
       xlink:href="#a"
       gradientTransform="scale(0.80269973,1.2457959)"
       gradientUnits="userSpaceOnUse" />
    <linearGradient
       id="c"
       x1="8983.0518"
       y1="-834.79144"
       x2="8998.6816"
       y2="-834.79144"
       xlink:href="#a"
       gradientTransform="scale(0.80196252,1.2469411)"
       gradientUnits="userSpaceOnUse" />
    <linearGradient
       id="d"
       x1="10740.51"
       y1="-700.78796"
       x2="10725.974"
       y2="-700.78796"
       xlink:href="#a"
       gradientTransform="scale(0.67840147,1.4740534)"
       gradientUnits="userSpaceOnUse" />
    <linearGradient
       id="e"
       x1="10728.437"
       y1="-693.44336"
       x2="10713.924"
       y2="-693.44336"
       xlink:href="#a"
       gradientTransform="scale(0.67944897,1.4717809)"
       gradientUnits="userSpaceOnUse" />
    <linearGradient
       id="f"
       x1="7316.8223"
       y1="-1047.3062"
       x2="7422.6631"
       y2="-1047.3062"
       xlink:href="#a"
       gradientTransform="scale(0.97548888,1.025127)"
       gradientUnits="userSpaceOnUse" />
    <linearGradient
       id="g"
       x1="7914.0933"
       y1="-610.96613"
       x2="8473.7881"
       y2="-610.96613"
       xlink:href="#a"
       gradientTransform="scale(0.86273755,1.159101)"
       gradientUnits="userSpaceOnUse" />
    <linearGradient
       id="h"
       x1="10603.376"
       y1="-458.823"
       x2="11351.575"
       y2="-458.823"
       xlink:href="#a"
       gradientTransform="scale(0.64534335,1.5495627)"
       gradientUnits="userSpaceOnUse" />
    <linearGradient
       id="i"
       x1="7399.6816"
       y1="-649.17743"
       x2="7921.1035"
       y2="-649.17743"
       xlink:href="#a"
       gradientTransform="scale(0.925932,1.0799929)"
       gradientUnits="userSpaceOnUse" />
    <linearGradient
       id="j"
       x1="6798.4644"
       y1="-707.30914"
       x2="7276.542"
       y2="-707.30914"
       xlink:href="#a"
       gradientTransform="scale(1.009815,0.99028042)"
       gradientUnits="userSpaceOnUse" />
    <linearGradient
       id="k"
       x1="7430.9189"
       y1="-649.17743"
       x2="7952.3408"
       y2="-649.17743"
       xlink:href="#a"
       gradientTransform="scale(0.925932,1.0799929)"
       gradientUnits="userSpaceOnUse" />
    <linearGradient
       id="l"
       x1="9759.6094"
       y1="-500.12845"
       x2="10442.923"
       y2="-500.12845"
       xlink:href="#a"
       gradientTransform="scale(0.70652684,1.4153744)"
       gradientUnits="userSpaceOnUse" />
    <linearGradient
       id="m"
       x1="7187.1401"
       y1="-673.62469"
       x2="7689.6582"
       y2="-673.62469"
       xlink:href="#a"
       gradientTransform="scale(0.96077894,1.0408221)"
       gradientUnits="userSpaceOnUse" />
    <linearGradient
       id="n"
       x1="8372.5986"
       y1="-586.1037"
       x2="8956.1748"
       y2="-586.1037"
       xlink:href="#a"
       gradientTransform="scale(0.82730546,1.2087434)"
       gradientUnits="userSpaceOnUse" />
    <linearGradient
       id="o"
       x1="11196.866"
       y1="-441.66928"
       x2="11975.818"
       y2="-441.66928"
       xlink:href="#a"
       gradientTransform="scale(0.61980998,1.6133977)"
       gradientUnits="userSpaceOnUse" />
    <linearGradient
       id="p"
       x1="7029.0166"
       y1="-693.56305"
       x2="7517.4019"
       y2="-693.56305"
       xlink:href="#a"
       gradientTransform="scale(0.9885941,1.0115375)"
       gradientUnits="userSpaceOnUse" />
    <linearGradient
       id="q"
       x1="7521.7349"
       y1="-649.19855"
       x2="8043.1406"
       y2="-649.19855"
       xlink:href="#a"
       gradientTransform="scale(0.92596213,1.0799578)"
       gradientUnits="userSpaceOnUse" />
    <linearGradient
       id="r"
       x1="7060.251"
       y1="-693.55286"
       x2="7548.6289"
       y2="-693.55286"
       xlink:href="#a"
       gradientTransform="scale(0.98857961,1.0115523)"
       gradientUnits="userSpaceOnUse" />
    <linearGradient
       id="s"
       x1="7824.1348"
       y1="-626.89319"
       x2="8364.1182"
       y2="-626.89319"
       xlink:href="#a"
       gradientTransform="scale(0.89410363,1.1184386)"
       gradientUnits="userSpaceOnUse" />
    <linearGradient
       id="t"
       x1="7294.5"
       y1="-673.64496"
       x2="7797.0332"
       y2="-673.64496"
       xlink:href="#a"
       gradientTransform="scale(0.96080788,1.0407908)"
       gradientUnits="userSpaceOnUse" />
    <linearGradient
       inkscape:collect="always"
       xlink:href="#a"
       id="linearGradient1660"
       gradientUnits="userSpaceOnUse"
       x1="5995.7222"
       y1="-1108.67"
       x2="6139.1616"
       y2="-1108.67"
       gradientTransform="scale(1.1751782,0.85093474)" />
    <clipPath
       clipPathUnits="userSpaceOnUse"
       id="clipPath2408">
      <rect
         style="fill:#000000;stroke-width:3.85794544;stroke-linecap:round;stroke-linejoin:round;paint-order:stroke fill markers"
         id="rect2410"
         width="397.75195"
         height="397.75195"
         x="403.14215"
         y="193.65887" />
    </clipPath>
  </defs>
  <g
     id="g1620"
     transform="matrix(0.85440652,0,0,0.85440652,37.812939,20.74291)">
    <path
       inkscape:connector-curvature="0"
       style="fill:url(#linearGradient1660)"
       id="path1604"
       transform="translate(-7043.798,1092.719)"
       d="m 7215.057,-975.828 c -0.34,-0.663 -0.908,-0.5 -1.479,-0.387 -0.4,0.078 -0.844,0.383 -1.213,-0.029 -0.4,-0.436 0.118,-0.725 0.244,-1.067 0.147,-0.4 0.266,-0.78 -0.091,-1.112 a 0.865,0.865 0 0 0 -1.06,-0.036 c -0.288,0.143 -0.559,0.319 -0.837,0.488 0,0 0,0 -0.01,0.006 -0.021,0.017 -0.082,0.068 -0.177,0.15 -0.062,0.013 -0.124,0.026 -0.189,0.036 a 1.408,1.408 0 0 1 -0.17,0 1,1 0 0 1 -0.223,0 c -2.553,-0.3 -5.108,-0.588 -7.665,-0.894 -0.229,-0.026 -0.458,-0.045 -0.693,-0.059 -0.692,-0.039 -1.379,-0.127 -2.063,-0.23 -8.415,2.682 -41.072,10.652 -64.9,-17.5 a 5.246,5.246 0 0 1 -1.853,-0.477 c -3.619,-1.164 -6.688,-3.42 -10.095,-5.012 a 1.543,1.543 0 0 1 -0.215,-0.081 1.637,1.637 0 0 1 -0.337,-0.234 0.837,0.837 0 0 1 -0.094,-0.091 l 0.01,0.13 v 0 l -0.039,-0.555 a 15.2,15.2 0 0 0 -0.3,-1.574 0.853,0.853 0 0 0 -0.8,-0.686 0.867,0.867 0 0 0 -0.867,0.6 c -0.127,0.3 -0.208,0.608 -0.312,0.913 -0.072,0.2 -0.134,0.423 -0.4,0.462 a 0.534,0.534 0 0 1 -0.572,-0.358 c -0.231,-0.451 -0.436,-0.919 -0.677,-1.372 a 1.047,1.047 0 0 0 -0.961,-0.63 1.109,1.109 0 0 0 -0.994,0.712 1.86,1.86 0 0 0 -0.066,1.485 c 0.123,0.339 0.269,0.667 0.427,1.063 -0.831,-0.191 -1.561,-1.1 -2.321,-0.094 a 1.034,1.034 0 0 0 -0.124,0.851 c 0.17,0.914 0.905,1.314 1.738,1.707 -0.311,0.143 -0.507,0.224 -0.69,0.328 a 0.756,0.756 0 0 0 -0.456,0.7 0.742,0.742 0 0 0 0.555,0.715 3.309,3.309 0 0 0 0.781,0.185 l 0.115,0.02 c 0.1,0.016 0.206,0.029 0.3,0.039 0.04,0.045 0.075,0.088 0.111,0.136 a 0.823,0.823 0 0 1 0.207,0.234 6.988,6.988 0 0 1 1.022,2.256 c 1.679,8.169 2.784,16.383 2.284,24.757 a 44.015,44.015 0 0 1 -1.834,10.756 21.712,21.712 0 0 1 -4.757,8.689 4.855,4.855 0 0 1 -1.907,1.093 l -0.187,0.068 a 0.651,0.651 0 0 1 -0.208,0.045 1.073,1.073 0 0 1 -0.323,0.02 7.847,7.847 0 0 0 -0.779,-0.536 v 0 a 1.783,1.783 0 0 1 -0.226,-0.091 0.833,0.833 0 0 0 -0.912,0.1 0.8,0.8 0 0 0 -0.15,0.9 3.479,3.479 0 0 0 0.229,0.517 0.555,0.555 0 0 1 -0.029,0.67 0.567,0.567 0 0 1 -0.66,0.152 c -0.21,-0.061 -0.42,-0.117 -0.626,-0.176 -0.524,-0.149 -1.121,-0.347 -1.405,0.31 a 1.3,1.3 0 0 0 0.531,1.618 6.441,6.441 0 0 0 1.385,0.6 c -0.372,0.127 -0.6,0.2 -0.824,0.286 -0.4,0.153 -0.724,0.394 -0.724,0.862 a 1,1 0 0 0 0.672,0.923 1.734,1.734 0 0 0 1.266,0.081 c 0.313,-0.088 0.482,0 0.542,0.371 0.146,0.93 0.464,1.079 1.292,0.608 0.074,-0.059 0.15,-0.121 0.222,-0.179 a 0.671,0.671 0 0 0 0.082,-0.01 1.83,1.83 0 0 1 0.2,0 1.151,1.151 0 0 1 0.55,0.071 9.9,9.9 0 0 0 4.471,0.468 c 4.829,-0.536 9.649,-1.111 14.47,-1.68 -11.236,3.286 -28.531,21.432 -38.838,30.618 a 22.2,22.2 0 0 1 -3.762,2.692 c 0,0 -11.837,6.186 -15.292,1.206 -0.125,-0.215 -0.245,-0.426 -0.365,-0.634 a 8.686,8.686 0 0 1 -0.7,-1.079 15.717,15.717 0 0 1 -1.739,-5.965 31.516,31.516 0 0 1 0.06,-3.778 c 0.918,-13.016 -14.945,-12.739 -20.788,-4.391 -4.382,6.273 -7.778,16.37 -1.868,27.11 a 29.105,29.105 0 0 0 6.523,7.984 34.278,34.278 0 0 0 5.75,4.193 41,41 0 0 0 13.4,4.22 c 0,0 10.385,0.826 16.38,-0.611 a 38.686,38.686 0 0 0 28.351,-23.931 c 10.5,-26.09 26.536,-32.133 31.291,-33.388 v 0 c 0.013,0.01 0.029,0.016 0.038,0.023 a 2.756,2.756 0 0 1 1.22,-0.117 19.877,19.877 0 0 1 8.055,2.97 21.416,21.416 0 0 1 5.554,5.881 14.523,14.523 0 0 0 5.8,5.338 2.69,2.69 0 0 1 0.72,0.426 c 0.066,0.052 0.135,0.108 0.2,0.166 0.065,0.058 0.1,0.1 0.15,0.15 v 0 c 0.021,0.094 0.04,0.188 0.063,0.283 0.28,0.7 0.863,0.679 1.266,0.042 0.082,-0.127 0.055,-0.328 0.329,-0.377 a 2.4,2.4 0 0 0 1.173,1.112 1.09,1.09 0 0 0 1.266,-0.247 c 0.312,-0.364 0.175,-0.748 -0.021,-1.125 -0.1,-0.192 -0.321,-0.351 -0.232,-0.653 a 2.487,2.487 0 0 0 1.983,0.179 1.094,1.094 0 0 0 0.708,-0.91 0.888,0.888 0 0 0 -0.67,-0.894 7.67,7.67 0 0 1 -0.891,-0.387 0.525,0.525 0 0 1 -0.02,-0.992 c 0.181,-0.117 0.389,-0.188 0.569,-0.309 a 0.8,0.8 0 0 0 0.461,-0.787 0.841,0.841 0 0 0 -0.707,-0.686 2.45,2.45 0 0 0 -0.635,-0.1 1.074,1.074 0 0 1 -0.408,-0.046 l -0.156,-0.01 a 0.672,0.672 0 0 1 -0.109,-0.078 0.636,0.636 0 0 1 -0.1,-0.1 l -0.06,-0.078 -0.05,-0.068 a 1.579,1.579 0 0 1 -0.22,-0.384 4.1,4.1 0 0 1 -0.393,-1.71 12.268,12.268 0 0 1 0.921,-4.307 39.853,39.853 0 0 1 5.433,-9.358 97.121,97.121 0 0 1 17.8,-18.48 c 2.5,-1.976 5.1,-3.8 8.365,-4.36 a 15.805,15.805 0 0 0 3.3,-1.044 2.176,2.176 0 0 1 0.889,-0.211 1.1,1.1 0 0 1 0.142,0 c 0.049,0 0.1,0.01 0.146,0.016 v 0 c 0.055,0.029 0.109,0.059 0.166,0.091 a 1.477,1.477 0 0 1 0.212,0.111 c 0.635,0.393 1.107,0.013 1.052,-0.732 -0.015,-0.163 -0.205,-0.329 -0.022,-0.5 1.345,0.419 2.217,0.3 2.466,-0.4 0.385,-1.079 -0.685,-1.124 -1.26,-1.544 a 11.085,11.085 0 0 0 1.168,-0.474 1.291,1.291 0 0 0 0.723,-1.597 z"
       class="a" />
    <g
       id="g1610"
       transform="translate(110.575,57.646)">
      <path
         inkscape:connector-curvature="0"
         style="fill:url(#b)"
         id="path1606"
         transform="translate(-7202.766,1042.863)"
         d="m 7204.227,-1025.923 c 0.911,0.073 1.753,-1.021 1.868,-2.46 0.115,-1.439 -0.54,-2.646 -1.451,-2.719 -0.911,-0.073 -1.749,1.025 -1.864,2.453 -0.115,1.428 0.528,2.649 1.447,2.726 z"
         class="b" />
      <path
         inkscape:connector-curvature="0"
         style="fill:url(#c)"
         id="path1608"
         transform="translate(-7204.324,1047.983)"
         d="m 7208.283,-1037.6 a 5.579,5.579 0 0 0 2.175,3.225 3,3 0 0 0 1.393,0.476 c 2.482,0.2 4.745,-2.791 5.062,-6.68 0.317,-3.889 -1.444,-7.2 -3.925,-7.394 -2.481,-0.194 -4.749,2.787 -5.062,6.68 a 10.124,10.124 0 0 0 0.355,3.693 z"
         class="c" />
    </g>
    <g
       id="g1616"
       transform="translate(162.015,63.19)">
      <path
         inkscape:connector-curvature="0"
         style="fill:url(#d)"
         id="path1612"
         transform="translate(-7276.717,1040.024)"
         d="m 7279.158,-1040.015 c -1.731,0.192 -2.778,3.49 -2.342,7.367 0.436,3.877 2.191,6.86 3.926,6.665 a 1.865,1.865 0 0 0 1.246,-0.795 7.5,7.5 0 0 0 1.167,-3.935 c 0,0 0,0 0,-0.01 0,-0.01 0,0 0,-0.01 a 14.949,14.949 0 0 0 -0.069,-2.622 c -0.437,-3.878 -2.193,-6.857 -3.928,-6.665 z"
         class="d" />
      <path
         inkscape:connector-curvature="0"
         style="fill:url(#e)"
         id="path1614"
         transform="translate(-7279.763,1034.915)"
         d="m 7288.208,-1018.015 c 0.643,-0.073 1.028,-1.283 0.865,-2.714 -0.163,-1.431 -0.807,-2.522 -1.447,-2.449 -0.64,0.073 -1.026,1.283 -0.866,2.707 0.16,1.424 0.811,2.525 1.448,2.456 z"
         class="e" />
    </g>
    <path
       inkscape:connector-curvature="0"
       style="fill:url(#f)"
       id="path1618"
       transform="translate(-7071.094,1130.729)"
       d="m 7134.163,-1111.244 c 0.7,6.7 1.725,13.344 3.02,19.956 a 113.361,113.361 0 0 0 6.278,22.267 45.022,45.022 0 0 0 10.86,16.214 2.875,2.875 0 0 1 0.987,1.843 23.2,23.2 0 0 0 4.954,11.462 c 0.605,0.767 1.24,1.508 1.949,2.373 27.569,32.572 66.952,16.79 66.952,16.79 a 18.151,18.151 0 0 0 5.949,-4.87 38.581,38.581 0 0 0 6.676,-13.126 c 0.147,-0.474 0.225,-0.975 0.35,-1.462 a 4.931,4.931 0 0 1 -1.745,0.536 c -4.973,0.553 -9.872,-6.709 -10.945,-16.221 -1.073,-9.512 2.086,-17.671 7.061,-18.229 a 5,5 0 0 1 1.57,0.082 c -0.138,-0.26 -0.281,-0.524 -0.423,-0.784 a 7.449,7.449 0 0 1 -1.169,-2.445 85.751,85.751 0 0 0 -7.7,-23.964 129.6,129.6 0 0 0 -11.242,-18.837 80.6,80.6 0 0 0 -9.078,-11.068 h -0.482 c -0.01,0.374 -0.037,0.751 -0.021,1.125 0.217,5.653 0.248,11.312 0.657,16.959 a 95.379,95.379 0 0 0 1.655,12.752 c 0.068,0.3 0.283,0.667 -0.012,0.9 -0.254,0.2 -0.565,-0.055 -0.832,-0.156 a 41.7,41.7 0 0 0 -14.038,-2.461 49.73,49.73 0 0 0 -17.639,3.267 c -2.12,0.78 -2.091,0.722 -3.735,-0.93 a 96.185,96.185 0 0 0 -11.815,-10.061 c -1.267,-0.91 -2.537,-1.807 -3.839,-2.659 a 85.549,85.549 0 0 0 -11.585,-6.5 77.778,77.778 0 0 0 -12.3,-4.473 c -1.014,-0.266 -1.046,-0.266 -1.017,0.817 0.099,3.634 0.319,7.278 0.699,10.903 z m 94.2,24.685 c -1.428,-3.689 -9.708,-9.937 -9.708,-9.937 l -3.143,-16.75 c 9.709,17.036 8.853,15.046 12.851,26.687 z m -16.942,49.794 a 2.413,2.413 0 0 1 2.079,-2.071 2.412,2.412 0 0 1 2.71,2.7 2.417,2.417 0 0 1 -2.083,2.067 2.409,2.409 0 0 1 -2.707,-2.696 z m -39.065,-26.766 c 0.764,-9.544 7.166,-16.816 14.287,-16.25 7.121,0.566 12.281,8.768 11.512,18.312 -0.769,9.544 -7.174,16.812 -14.292,16.243 -7.118,-0.569 -12.282,-8.765 -11.508,-18.305 z m -4.675,-29.756 c 0,0 -12.431,14.127 -12.209,28.917 -8.879,-13.685 -12.432,-27.592 -14.429,-46.355 -10e-4,0 10.211,0.443 26.637,17.438 z"
       class="f" />
  </g>
  <g
     aria-label="Glide"
     transform="matrix(2.7500553,0,0,2.7500553,1916.3112,-1624.8235)"
     style="font-style:normal;font-variant:normal;font-weight:bold;font-stretch:normal;font-size:56px;line-height:1.25;font-family:Cocon;-inkscape-font-specification:'Cocon Bold';letter-spacing:-2.94000006px;word-spacing:-10.09000015px;fill:#ffffff"
     id="flowRoot933">
    <path
       d="m -355.46433,605.25093 v -6.16 c 0,-1.68 -1.792,-3.528 -3.92,-3.528 h -3.92 c 0,0 0.56,2.576 0.56,5.6 v 3.08 c 0,2.24 -0.896,3.64 -4.592,3.64 -6.888,0 -12.152,-3.808 -12.152,-13.496 0,-7.112 5.096,-12.32 12.208,-12.32 4.032,0 8.344,1.064 10.92,3.248 h 0.28 v -2.632 c 0,-3.584 -3.136,-7.56 -10.304,-7.56 -13.104,0 -21,9.016 -21,20.328 0,11.984 8.96,19.376 19.152,19.376 9.576,0 12.768,-3.808 12.768,-9.576 z"
       style="fill:#ffffff"
       id="path969"
       inkscape:connector-curvature="0" />
    <path
       d="m -337.4997,609.89893 v -1.624 h -2.016 c -3.528,0 -5.096,-0.952 -5.096,-3.976 v -25.424 c 0,-2.856 -1.624,-5.04 -5.376,-5.04 h -2.128 v 31.192 c 0,6.104 3.36,9.408 9.576,9.408 3.304,0 5.04,-1.288 5.04,-4.536 z"
       style="fill:#ffffff"
       id="path971"
       inkscape:connector-curvature="0" />
    <path
       d="m -327.99808,577.36293 c 0,-2.408 -2.016,-4.368 -4.424,-4.368 -2.408,0 -4.368,1.96 -4.368,4.368 0,2.408 1.96,4.424 4.368,4.424 2.408,0 4.424,-2.016 4.424,-4.424 z m 5.376,32.536 v -1.624 h -1.4 c -3.304,0 -4.592,-0.952 -4.592,-3.976 v -14.112 c 0,-3.808 -2.016,-5.6 -5.376,-5.6 h -2.128 c 0,0 0,18.704 0,20.44 0,6.104 3.192,9.408 9.016,9.408 3.192,0 4.48,-1.288 4.48,-4.536 z"
       style="fill:#ffffff"
       id="path973"
       inkscape:connector-curvature="0" />
    <path
       d="m -294.14695,600.21093 v -21.28 c 0,-3.024 -1.568,-5.096 -5.152,-5.096 h -2.296 v 14.168 c -1.176,-2.632 -4.48,-4.76 -7.504,-4.76 -8.792,0 -13.608,6.44 -13.608,16.352 0,8.288 6.104,15.232 14.056,15.232 10.36,0 14.504,-5.824 14.504,-14.616 z m -7.56,-0.336 c 0,5.488 -1.848,8.624 -6.048,8.624 -4.312,0 -7.56,-4.088 -7.56,-10.36 0,-4.872 2.464,-8.568 6.272,-8.568 4.032,0 7.336,2.744 7.336,10.304 z"
       style="fill:#ffffff"
       id="path975"
       inkscape:connector-curvature="0" />
    <path
       d="m -264.31383,594.94693 c 0,-7.224 -5.824,-11.704 -12.096,-11.704 -8.624,0 -14.784,6.328 -14.784,16.408 0,9.24 7.336,15.176 14.84,15.176 8.288,0 10.92,-2.968 10.92,-6.832 v -2.352 h -0.28 c -2.408,2.24 -6.104,2.856 -9.24,2.856 -4.424,0 -7.896,-2.408 -8.456,-6.216 h 4.928 c 9.968,0 14.168,-1.792 14.168,-7.336 z m -7.056,-0.896 c 0,2.128 -1.624,2.912 -8.736,2.912 h -3.36 l 0.056,-1.008 c 0.168,-3.472 2.688,-6.44 6.328,-6.44 3.472,0 5.712,1.512 5.712,4.536 z"
       style="fill:#ffffff"
       id="path977"
       inkscape:connector-curvature="0" />
  </g>
</svg>
