<?xml version="1.0" encoding="UTF-8" standalone="no"?>
<svg
   xmlns:dc="http://purl.org/dc/elements/1.1/"
   xmlns:cc="http://creativecommons.org/ns#"
   xmlns:rdf="http://www.w3.org/1999/02/22-rdf-syntax-ns#"
   xmlns:svg="http://www.w3.org/2000/svg"
   xmlns="http://www.w3.org/2000/svg"
   xmlns:xlink="http://www.w3.org/1999/xlink"
   xmlns:sodipodi="http://sodipodi.sourceforge.net/DTD/sodipodi-0.dtd"
   xmlns:inkscape="http://www.inkscape.org/namespaces/inkscape"
   viewBox="0 0 95.999998 95.999998"
   version="1.1"
   id="svg1003"
   sodipodi:docname="glidetoken.svg"
   inkscape:version="0.92.3 (2405546, 2018-03-11)"
   width="96"
   height="96"
   inkscape:export-filename="/home/ryan/dev/glide/app/public/logo.png"
   inkscape:export-xdpi="200"
   inkscape:export-ydpi="200">
  <metadata
     id="metadata1007">
    <rdf:RDF>
      <cc:Work
         rdf:about="">
        <dc:format>image/svg+xml</dc:format>
        <dc:type
           rdf:resource="http://purl.org/dc/dcmitype/StillImage" />
        <dc:title></dc:title>
      </cc:Work>
    </rdf:RDF>
  </metadata>
  <sodipodi:namedview
     pagecolor="#ffffff"
     bordercolor="#666666"
     borderopacity="1"
     objecttolerance="10"
     gridtolerance="10"
     guidetolerance="10"
     inkscape:pageopacity="0"
     inkscape:pageshadow="2"
     inkscape:window-width="1853"
     inkscape:window-height="1025"
     id="namedview1005"
     showgrid="false"
     inkscape:zoom="3.4258112"
     inkscape:cx="34.259372"
     inkscape:cy="3.7189409"
     inkscape:window-x="67"
     inkscape:window-y="27"
     inkscape:window-maximized="1"
     inkscape:current-layer="svg1003"
     fit-margin-top="0"
     fit-margin-left="0"
     fit-margin-right="0"
     fit-margin-bottom="0" />
  <defs
     id="defs945">
    <style
       id="style931">.cls-1{fill:#0e1730;}.cls-2{fill:url(#linear-gradient);}.cls-3{opacity:0.3;}.cls-4{fill:url(#linear-gradient-2);}.cls-5{fill:url(#linear-gradient-3);}.cls-6{fill:url(#linear-gradient-4);}.cls-7{fill:url(#linear-gradient-5);}.cls-8{fill:#ff1d25;}.cls-9{fill:url(#linear-gradient-6);}.cls-10{fill:url(#linear-gradient-7);}.cls-11{fill:url(#linear-gradient-8);}</style>
    <linearGradient
       id="linear-gradient"
       x1="5126.21"
       y1="-7178.9702"
       x2="5126.7202"
       y2="-7178.9702"
       gradientTransform="matrix(83.96,0,0,-88.1,-430035.42,-632293.51)"
       gradientUnits="userSpaceOnUse">
      <stop
         offset="0"
         stop-color="#f2ad6c"
         id="stop933" />
      <stop
         offset="1"
         stop-color="#fff"
         id="stop935" />
    </linearGradient>
    <linearGradient
       id="linear-gradient-2"
       x1="403.04001"
       y1="194.28999"
       x2="408.79001"
       y2="194.28999"
       xlink:href="#linear-gradient"
       gradientTransform="matrix(0.18513037,0,0,0.18513037,2.3919362,2.3881525)" />
    <linearGradient
       id="linear-gradient-3"
       x1="290.44"
       y1="183.67"
       x2="298.25"
       y2="183.67"
       xlink:href="#linear-gradient"
       gradientTransform="matrix(0.18513037,0,0,0.18513037,2.3919362,2.3881525)" />
    <linearGradient
       id="linear-gradient-4"
       x1="389.13"
       y1="180.11"
       x2="403.53"
       y2="180.11"
       xlink:href="#linear-gradient"
       gradientTransform="matrix(0.18513037,0,0,0.18513037,2.3919362,2.3881525)" />
    <linearGradient
       id="linear-gradient-5"
       x1="198.14999"
       y1="158.10001"
       x2="406.01001"
       y2="158.10001"
       xlink:href="#linear-gradient"
       gradientTransform="matrix(0.18513037,0,0,0.18513037,2.3919362,2.3881525)" />
    <linearGradient
       id="linear-gradient-6"
       x1="297.51999"
       y1="169.36"
       x2="316.69"
       y2="169.36"
       xlink:href="#linear-gradient"
       gradientTransform="matrix(0.18513037,0,0,0.18513037,2.3919362,2.3881525)" />
    <linearGradient
       id="linear-gradient-7"
       x1="83.940002"
       y1="332.51999"
       x2="400.07001"
       y2="332.51999"
       xlink:href="#linear-gradient"
       gradientTransform="matrix(0.18513037,0,0,0.18513037,2.3919362,2.3881525)" />
    <linearGradient
       id="linear-gradient-8"
       x1="205.63"
       y1="332.73999"
       x2="205.74001"
       y2="332.73999"
       xlink:href="#linear-gradient"
       gradientTransform="matrix(0.18513037,0,0,0.18513037,2.3919362,2.3881525)" />
    <linearGradient
       inkscape:collect="always"
       xlink:href="#linear-gradient"
       id="linearGradient1009"
       gradientUnits="userSpaceOnUse"
       gradientTransform="matrix(83.96,0,0,-88.1,-430035.42,-632293.51)"
       x1="5126.21"
       y1="-7178.9702"
       x2="5126.7202"
       y2="-7178.9702" />
    <linearGradient
       inkscape:collect="always"
       xlink:href="#linear-gradient"
       id="linearGradient1011"
       x1="205.63"
       y1="332.73999"
       x2="205.74001"
       y2="332.73999"
       gradientTransform="matrix(0.18513037,0,0,0.18513037,2.3919362,2.3881525)" />
    <linearGradient
       inkscape:collect="always"
       xlink:href="#linear-gradient"
       id="linearGradient1013"
       x1="205.63"
       y1="332.73999"
       x2="205.74001"
       y2="332.73999"
       gradientTransform="matrix(0.18513037,0,0,0.18513037,2.3919362,2.3881525)" />
    <linearGradient
       inkscape:collect="always"
       xlink:href="#linear-gradient"
       id="linearGradient1015"
       x1="205.63"
       y1="332.73999"
       x2="205.74001"
       y2="332.73999"
       gradientTransform="matrix(0.18513037,0,0,0.18513037,2.3919362,2.3881525)" />
    <linearGradient
       inkscape:collect="always"
       xlink:href="#linear-gradient"
       id="linearGradient1017"
       x1="205.63"
       y1="332.73999"
       x2="205.74001"
       y2="332.73999"
       gradientTransform="matrix(0.18513037,0,0,0.18513037,2.3919362,2.3881525)" />
    <linearGradient
       inkscape:collect="always"
       xlink:href="#linear-gradient"
       id="linearGradient1019"
       x1="205.63"
       y1="332.73999"
       x2="205.74001"
       y2="332.73999"
       gradientTransform="matrix(0.18513037,0,0,0.18513037,2.3919362,2.3881525)" />
    <linearGradient
       id="linear-gradient-2-7"
       x1="403.04001"
       y1="194.28999"
       x2="408.79001"
       y2="194.28999"
       xlink:href="#linear-gradient" />
    <linearGradient
       id="linear-gradient-3-5"
       x1="290.44"
       y1="183.67"
       x2="298.25"
       y2="183.67"
       xlink:href="#linear-gradient" />
    <linearGradient
       id="linear-gradient-4-3"
       x1="389.13"
       y1="180.11"
       x2="403.53"
       y2="180.11"
       xlink:href="#linear-gradient" />
    <linearGradient
       id="linear-gradient-5-5"
       x1="198.14999"
       y1="158.10001"
       x2="406.01001"
       y2="158.10001"
       xlink:href="#linear-gradient" />
    <linearGradient
       id="linear-gradient-6-6"
       x1="297.51999"
       y1="169.36"
       x2="316.69"
       y2="169.36"
       xlink:href="#linear-gradient" />
    <linearGradient
       id="linear-gradient-7-2"
       x1="83.940002"
       y1="332.51999"
       x2="400.07001"
       y2="332.51999"
       xlink:href="#linear-gradient" />
    <linearGradient
       id="a"
       x1="0.013"
       y1="0.5"
       x2="0.99699998"
       y2="0.5"
       gradientUnits="objectBoundingBox">
      <stop
         offset="0"
         stop-color="#ffab5f"
         id="stop1578" />
      <stop
         offset="1"
         stop-color="#fff"
         id="stop1580" />
    </linearGradient>
    <linearGradient
       id="b"
       x1="8972.8691"
       y1="-825.58667"
       x2="8988.4619"
       y2="-825.58667"
       xlink:href="#a"
       gradientTransform="scale(0.80269973,1.2457959)"
       gradientUnits="userSpaceOnUse" />
    <linearGradient
       id="c"
       x1="8983.0518"
       y1="-834.79144"
       x2="8998.6816"
       y2="-834.79144"
       xlink:href="#a"
       gradientTransform="scale(0.80196252,1.2469411)"
       gradientUnits="userSpaceOnUse" />
    <linearGradient
       id="d"
       x1="10740.51"
       y1="-700.78796"
       x2="10725.974"
       y2="-700.78796"
       xlink:href="#a"
       gradientTransform="scale(0.67840147,1.4740534)"
       gradientUnits="userSpaceOnUse" />
    <linearGradient
       id="e"
       x1="10728.437"
       y1="-693.44336"
       x2="10713.924"
       y2="-693.44336"
       xlink:href="#a"
       gradientTransform="scale(0.67944897,1.4717809)"
       gradientUnits="userSpaceOnUse" />
    <linearGradient
       id="f"
       x1="7316.8223"
       y1="-1047.3062"
       x2="7422.6631"
       y2="-1047.3062"
       xlink:href="#a"
       gradientTransform="scale(0.97548888,1.025127)"
       gradientUnits="userSpaceOnUse" />
  </defs>
  <g
     id="g1100"
     inkscape:export-filename="/home/ryan/Documents/glide/official/logo.png"
     inkscape:export-xdpi="200"
     inkscape:export-ydpi="200">
    <circle
       style="fill:#000000;stroke-width:0.19483683"
       id="circle947"
       r="48"
       cy="48"
       cx="48"
       class="cls-1" />
    <g
       transform="matrix(0.94683308,0,0,0.94683308,2.5520032,2.552027)"
       id="g1069">
      <g
         id="Group_9"
         data-name="Group 9"
         transform="matrix(0.18513037,0,0,0.18513037,2.3919362,2.3881525)">
        <path
           id="Path_12"
           data-name="Path 12"
           class="cls-2"
           d="m 357.21,80.28 a 0.73,0.73 0 0 0 -0.14,-0.18 c 0.07,0.11 0.13,0.23 0.19,0.33 a 0.66,0.66 0 0 1 -0.05,-0.15 z m 27.1,120.43 v 0 c 0,0 0,0 0,0.05 a 0.44,0.44 0 0 0 0,-0.15 0.12,0.12 0 0 1 0,0.1 z m 0.77,2.7 a 3.81,3.81 0 0 0 0.13,0.45 c -0.05,-0.18 -0.1,-0.32 -0.13,-0.45 z M 402,230.29 c 0,0 0,0 0,0 a 4.72,4.72 0 0 0 0.24,-0.56 c -0.05,0.2 -0.13,0.38 -0.24,0.56 z m -27.44,28.55 a 58.85,58.85 0 0 0 6.23,-3.55 c -2.01,1.27 -4.08,2.45 -6.21,3.55 z"
           style="fill:url(#linearGradient1009)"
           inkscape:connector-curvature="0" />
      </g>
      <g
         class="cls-3"
         id="g953"
         style="opacity:0.3"
         transform="matrix(0.18513037,0,0,0.18513037,2.3919362,2.3881525)">
        <path
           d="m 384.31,200.71 v 0 c 0,0 0,0 0,0.05 a 0.44,0.44 0 0 0 0,-0.15 0.12,0.12 0 0 1 0,0.1 z"
           id="path951"
           inkscape:connector-curvature="0" />
      </g>
      <g
         class="cls-3"
         id="g957"
         style="opacity:0.3"
         transform="matrix(0.18513037,0,0,0.18513037,2.3919362,2.3881525)">
        <path
           d="m 290.88,187.13 a 0.1,0.1 0 0 0 0,0.07 z m 0,0 a 0.1,0.1 0 0 0 0,0.07 z m 0,0 a 0.1,0.1 0 0 0 0,0.07 z m 27.92,-27.71 c -0.06,-0.19 -0.13,-0.38 -0.2,-0.56 v 0 c 0.08,0.19 0.16,0.37 0.22,0.55 0.06,0.18 0.07,0.15 0.09,0.22 a 1.55,1.55 0 0 0 -0.11,-0.21 z m -27.92,27.71 a 0.1,0.1 0 0 0 0,0.07 z m 0,0 a 0.1,0.1 0 0 0 0,0.07 z m 0,0 a 0.1,0.1 0 0 0 0,0.07 z"
           id="path955"
           inkscape:connector-curvature="0" />
      </g>
      <path
         d="m 76.86433,44.920004 a 0.87381535,0.87381535 0 0 1 -0.04443,0.103673 c 0,0 0,0 0,0 0.01481,-0.03518 0.02962,-0.0685 0.04443,-0.103673 z"
         id="path959"
         inkscape:connector-curvature="0"
         style="stroke-width:0.18513037" />
      <path
         d="m 73.681939,40.045521 a 0.70534671,0.70534671 0 0 0 0.02407,0.08331 c -0.0093,-0.03332 -0.01851,-0.05924 -0.02407,-0.08331 z m -0.14255,-0.499852 v 0 c 0,0 0,0 0,0.0093 a 0.08145736,0.08145736 0 0 0 0,-0.02777 0.02221564,0.02221564 0 0 1 0,0.01851 z"
         id="path961"
         inkscape:connector-curvature="0"
         style="stroke-width:0.18513037" />
      <path
         d="m 48.035829,63.788491 h -0.0093 z"
         id="path963"
         inkscape:connector-curvature="0"
         style="stroke-width:0.18513037" />
      <path
         d="m 73.546794,39.529007 a 0.08145736,0.08145736 0 0 1 0,0.02777 c 0,0 0,0 0,-0.0093 v 0 a 0.02221564,0.02221564 0 0 0 0,-0.01851 z"
         id="path965"
         inkscape:connector-curvature="0"
         style="stroke-width:0.18513037" />
      <path
         d="m 68.531612,17.278188 c -0.01111,-0.01851 -0.02221,-0.04073 -0.03517,-0.06109 a 0.13514517,0.13514517 0 0 1 0.02592,0.03332 0.12218604,0.12218604 0 0 0 0.0093,0.02777 z"
         id="path967"
         inkscape:connector-curvature="0"
         style="stroke-width:0.18513037" />
      <path
         d="m 56.242658,37.031599 a 0.01851304,0.01851304 0 0 0 0,0.01296 z"
         id="path969"
         inkscape:connector-curvature="0"
         style="stroke-width:0.18513037" />
      <path
         d="m 73.681939,40.045521 a 0.70534671,0.70534671 0 0 0 0.02407,0.08331 c -0.0093,-0.03332 -0.01851,-0.05924 -0.02407,-0.08331 z"
         id="path971"
         inkscape:connector-curvature="0"
         style="stroke-width:0.18513037" />
      <path
         d="m 77.123513,37.585138 a 0.3980303,0.3980303 0 0 1 0.02036,-0.06665 c -0.0074,0.02777 -0.01296,0.04443 -0.02036,0.06665 z"
         id="path973"
         inkscape:connector-curvature="0"
         style="stroke-width:0.18513037" />
      <path
         class="cls-4"
         d="m 78.07138,38.355281 a 2.3752226,2.3752226 0 0 1 -0.01851,0.305465 c 0,0.03888 -0.0093,0.07775 -0.01666,0.114781 a 1.0052579,1.0052579 0 0 1 -0.19994,0.555391 0.42950246,0.42950246 0 0 1 -0.272142,0.122186 0.42394855,0.42394855 0 0 1 -0.323978,-0.122186 0.80346581,0.80346581 0 0 1 -0.172171,-0.4258 2.9491268,2.9491268 0 0 1 -0.06109,-0.555391 c 0,-0.09627 0,-0.18513 0.01481,-0.285101 0,-0.04073 0.01111,-0.07775 0.01851,-0.118483 a 1.4088421,1.4088421 0 0 1 0.140699,-0.499852 0.42209724,0.42209724 0 0 1 0.555391,-0.151807 0.42765115,0.42765115 0 0 1 0.175874,0.168468 1.4588273,1.4588273 0 0 1 0.124037,0.422098 2.4529774,2.4529774 0 0 1 0.03518,0.470231 z"
         id="path975"
         style="fill:url(#linear-gradient-2);stroke-width:0.18513037"
         inkscape:connector-curvature="0" />
      <path
         class="cls-5"
         d="m 57.607069,36.389196 a 2.5196243,2.5196243 0 0 1 -0.03518,0.423949 1.5476899,1.5476899 0 0 1 -0.109227,0.405435 0.59241718,0.59241718 0 0 1 -0.124037,0.17032 0.48874418,0.48874418 0 0 1 -0.0759,0.06294 0.63684847,0.63684847 0 0 1 -0.185131,0.09627 0.6479563,0.6479563 0 0 1 -0.56835,-0.09812 0.74052148,0.74052148 0 0 1 -0.262885,-0.423948 2.6436617,2.6436617 0 0 1 -0.07961,-0.636849 c 0,-0.37026 0.02777,-0.82383 0.349896,-1.058945 a 0.62759195,0.62759195 0 0 1 0.370261,-0.124038 0.64425369,0.64425369 0 0 1 0.381368,0.125889 0.68868498,0.68868498 0 0 1 0.261034,0.414692 2.310427,2.310427 0 0 1 0.05369,0.273993 c 0.01111,0.06665 0.01666,0.131442 0.02222,0.196238 0.0056,0.0648 0.0019,0.114781 0.0019,0.172171 z"
         id="path977"
         style="fill:url(#linear-gradient-3);stroke-width:0.18513037"
         inkscape:connector-curvature="0" />
      <path
         class="cls-6"
         d="m 77.097594,35.737537 a 4.083976,4.083976 0 0 1 -0.65351,2.204903 c -0.151807,0.235116 -0.359153,0.470231 -0.634997,0.503555 a 0.70349541,0.70349541 0 0 1 -0.555391,-0.201792 1.3181282,1.3181282 0 0 1 -0.331383,-0.488745 c -0.06109,-0.162914 -0.142551,-0.31287 -0.205495,-0.473933 a 4.1895003,4.1895003 0 0 1 -0.164766,-0.516514 4.3672254,4.3672254 0 0 1 -0.125889,-1.073756 4.1950542,4.1950542 0 0 1 0.555391,-2.067906 1.481043,1.481043 0 0 1 0.394328,-0.473934 0.65351021,0.65351021 0 0 1 0.586863,-0.107376 0.89417969,0.89417969 0 0 1 0.394328,0.361004 4.1228533,4.1228533 0 0 1 0.731265,2.258591 c 0.0093,0.02592 0.0093,0.04998 0.0093,0.0759 z"
         id="path979"
         style="fill:url(#linear-gradient-4);stroke-width:0.18513037"
         inkscape:connector-curvature="0" />
      <path
         class="cls-7"
         d="m 77.532651,42.99835 a 3.9506821,3.9506821 0 0 1 -2.608487,-0.975637 3.8618195,3.8618195 0 0 1 -0.670172,-0.749778 1.1107822,1.1107822 0 0 1 -0.07405,-0.107375 6.5573177,6.5573177 0 0 1 -0.770143,-2.206754 10.552431,10.552431 0 0 1 0.257332,-5.046654 c 0.01481,-0.04998 0.03147,-0.09812 0.04628,-0.148104 v -0.02037 a 4.0080725,4.0080725 0 0 1 2.776956,-2.673282 c 0.02962,0 0.05924,-0.01666 0.08886,-0.02222 l 0.107376,-0.02592 -0.04443,-0.09812 c -0.185131,-0.388774 -0.370261,-0.768291 -0.588715,-1.140403 a 1.0256222,1.0256222 0 0 0 -0.05554,-0.09812 2.5510965,2.5510965 0 0 1 -0.27029,-0.492447 c -0.05924,-0.185131 -0.09071,-0.394328 -0.153659,-0.583161 a 0.12959126,0.12959126 0 0 0 0,-0.02222 C 75.535089,28.434127 75.492509,28.271213 75.468445,28.112 75.394395,27.612148 75.30553,27.114148 75.20556,26.630957 A 27.723273,27.723273 0 0 0 66.950599,11.950136 c -0.275844,-0.25548 -0.555391,-0.507257 -0.840492,-0.749778 l -0.09071,-0.08146 c -0.0093,0.04073 -0.01481,0.08146 -0.02036,0.124037 -0.09812,0.651659 -0.185131,1.295913 -0.249926,1.960531 -0.0648,0.664618 -0.09442,1.329236 -0.105525,1.995705 0,0.166617 0,0.331383 0,0.498001 a 27.843608,27.843608 0 0 0 0.683131,6.127815 17.170842,17.170842 0 0 0 -11.555837,0.390625 c -0.07961,-0.08886 -0.15922,-0.174019 -0.24438,-0.261031 a 0.61093022,0.61093022 0 0 0 -0.0759,-0.08146 26.388483,26.388483 0 0 0 -4.1895,-3.64892 27.734381,27.734381 0 0 0 -4.81339,-2.730673 27.362269,27.362269 0 0 0 -4.593084,-1.566203 h -0.0093 Q 40.325149,13.799589 39.799379,13.692213 L 39.695706,13.6737 c 0,0.03332 -0.01481,0.06665 -0.02036,0.101822 -0.18513,0.836789 -0.318424,1.688389 -0.416543,2.558501 a 27.665882,27.665882 0 0 0 4.426467,18.48897 28.624858,28.624858 0 0 0 3.534139,4.315389 17.007927,17.007927 0 0 0 1.906843,4.661583 17.256002,17.256002 0 0 0 8.497484,7.236746 16.832053,16.832053 0 0 0 5.963049,1.179281 17.455943,17.455943 0 0 0 6.085235,-0.999704 c 1.686538,-0.607228 3.332347,-1.449571 4.650475,-2.675134 a 11.522514,11.522514 0 0 0 2.913952,-4.552356 c 0.08331,-0.229562 0.166618,-0.462826 0.235116,-0.697942 0.01666,-0.05739 0.03517,-0.116632 0.05184,-0.175873 0.01666,-0.05924 0.02222,-0.0685 0.03147,-0.105525 z M 49.41505,26.055219 v 0 a 10.737561,10.737561 0 0 0 -1.666173,3.206458 0.05739041,0.05739041 0 0 1 0,0.01481 c -0.09997,0.272142 -0.185131,0.555392 -0.273993,0.833087 -0.111078,0.370261 -0.211049,0.740522 -0.296209,1.110782 a 16.872782,16.872782 0 0 0 -0.37026,2.462234 c -0.06294,-0.09257 -0.122186,-0.18513 -0.185131,-0.283249 v 0 c -0.02962,-0.04258 -0.05554,-0.08701 -0.08146,-0.131443 Q 45.96792,32.342246 45.469919,31.372163 c -0.02222,-0.04073 -0.04258,-0.08146 -0.06294,-0.122186 a 27.788069,27.788069 0 0 1 -1.401437,-3.269402 c -0.01481,-0.03888 -0.02592,-0.0759 -0.03888,-0.114781 a 27.460388,27.460388 0 0 1 -1.532879,-9.071388 c 0,-0.133294 0,-0.266588 0,-0.399882 a 27.584425,27.584425 0 0 1 7.906918,4.71342 v 0 c 0,0 0,0 0.0093,0 0.224007,0.18513 0.446164,0.383219 0.664618,0.58316 0.02407,0.02222 0.05184,0.04443 0.07775,0.0722 0.09071,0.07961 0.185131,0.162915 0.270291,0.248075 l 0.02777,0.02407 -0.146253,0.11478 c -0.211087,0.168467 -0.416582,0.344341 -0.61282,0.529471 l -0.09071,0.08146 c -0.04073,0.04073 -0.08146,0.07775 -0.120335,0.118483 a 10.528364,10.528364 0 0 0 -1.005258,1.175578 z m 12.431505,11.124484 a 9.9766756,9.9766756 0 0 1 -0.349897,1.408842 c -0.01666,0.05739 -0.03517,0.11293 -0.05739,0.17032 a 3.9673438,3.9673438 0 0 1 -1.432909,1.880925 c -0.03147,0.02407 -0.0648,0.04628 -0.09812,0.0685 a 3.9469795,3.9469795 0 0 1 -1.369964,0.58501 l -0.153658,0.02962 A 3.8692247,3.8692247 0 0 1 57.692229,41.38401 4.0062212,4.0062212 0 0 1 56.592555,41.2285 L 56.48703,41.19888 a 4.0099238,4.0099238 0 0 1 -1.780954,-1.162618 c -0.622038,-0.707198 -0.912693,-1.603229 -1.101526,-2.510368 -0.351747,-1.7032 -0.357301,-3.639663 0.227711,-5.29658 a 4.4431289,4.4431289 0 0 1 1.425504,-2.071609 l 0.08701,-0.06665 a 4.0191803,4.0191803 0 0 1 2.338197,-0.759034 c 1.923504,0 3.343454,1.342195 3.887737,3.108338 0.0759,0.246224 0.138848,0.498001 0.185131,0.75163 a 10.519108,10.519108 0 0 1 0.248074,2.169728 10.367301,10.367301 0 0 1 -0.164766,1.81798 z m 6.775771,7.168248 c 0,0 0,0 0,0 a 0.90528751,0.90528751 0 0 1 -0.536878,0.655361 0.87196404,0.87196404 0 0 1 -0.35545,0.0722 0.90713881,0.90713881 0 0 1 -0.725711,-0.359153 0.89417969,0.89417969 0 0 1 -0.185131,-0.555391 0.91269272,0.91269272 0 1 1 1.823534,0 0.92565185,0.92565185 0 0 1 -0.02777,0.186982 z m 3.958087,-18.931432 a 16.745042,16.745042 0 0 0 -1.81798,-1.431058 Q 70.242217,23.62816 69.69238,23.311587 c 0,-0.07775 -0.01296,-0.153658 -0.01851,-0.22771 -0.07405,-0.859005 -0.185131,-1.710605 -0.338789,-2.547394 l -0.02222,-0.122186 q -0.151807,-0.83679 -0.361004,-1.651363 c 0,-0.04073 -0.01851,-0.08146 -0.02962,-0.120335 -0.114781,-0.457272 -0.242521,-0.90899 -0.381368,-1.358857 -0.01111,-0.01851 -0.02222,-0.04073 -0.03517,-0.06109 a 0.13514517,0.13514517 0 0 1 0.02592,0.03332 q 0.603525,0.799763 1.144106,1.643957 l 0.09071,0.142551 q 0.647956,1.016365 1.201496,2.090121 c 0.02777,0.05184 0.05369,0.105525 0.07961,0.157361 a 27.125302,27.125302 0 0 1 1.769846,4.348713 c -0.0759,-0.07961 -0.162914,-0.151807 -0.244372,-0.222157 z"
         id="path981"
         style="fill:url(#linear-gradient-5);stroke-width:0.18513037"
         inkscape:connector-curvature="0" />
      <path
         class="cls-8"
         d="m 77.123513,37.585138 a 0.3980303,0.3980303 0 0 1 0.02036,-0.06665 c -0.0074,0.02777 -0.01296,0.04443 -0.02036,0.06665 z m 0,0 a 0.3980303,0.3980303 0 0 1 0.02036,-0.06665 c -0.0074,0.02777 -0.01296,0.04443 -0.02036,0.06665 z m 0,0 a 0.3980303,0.3980303 0 0 1 0.02036,-0.06665 c -0.0074,0.02777 -0.01296,0.04443 -0.02036,0.06665 z m 0,0 a 0.3980303,0.3980303 0 0 1 0.02036,-0.06665 c -0.0074,0.02777 -0.01296,0.04443 -0.02036,0.06665 z m 0,0 a 0.3980303,0.3980303 0 0 1 0.02036,-0.06665 c -0.0074,0.02777 -0.01296,0.04443 -0.02036,0.06665 z m 0,0 a 0.3980303,0.3980303 0 0 1 0.02036,-0.06665 c -0.0074,0.02777 -0.01296,0.04443 -0.02036,0.06665 z m 0,0 a 0.3980303,0.3980303 0 0 1 0.02036,-0.06665 c -0.0074,0.02777 -0.01296,0.04443 -0.02036,0.06665 z m 0,0 a 0.3980303,0.3980303 0 0 1 0.02036,-0.06665 c -0.0074,0.02777 -0.01296,0.04443 -0.02036,0.06665 z m 0,0 a 0.3980303,0.3980303 0 0 1 0.02036,-0.06665 c -0.0074,0.02777 -0.01296,0.04443 -0.02036,0.06665 z m 0,0 a 0.3980303,0.3980303 0 0 1 0.02036,-0.06665 c -0.0074,0.02777 -0.01296,0.04443 -0.02036,0.06665 z m 0,0 a 0.3980303,0.3980303 0 0 1 0.02036,-0.06665 c -0.0074,0.02777 -0.01296,0.04443 -0.02036,0.06665 z m 0,0 a 0.3980303,0.3980303 0 0 1 0.02036,-0.06665 c -0.0074,0.02777 -0.01296,0.04443 -0.02036,0.06665 z m 0,0 a 0.3980303,0.3980303 0 0 1 0.02036,-0.06665 c -0.0074,0.02777 -0.01296,0.04443 -0.02036,0.06665 z m 0,0 a 0.3980303,0.3980303 0 0 1 0.02036,-0.06665 c -0.0074,0.02777 -0.01296,0.04443 -0.02036,0.06665 z m 0,0 a 0.3980303,0.3980303 0 0 1 0.02036,-0.06665 c -0.0074,0.02777 -0.01296,0.04443 -0.02036,0.06665 z m 0,0 a 0.3980303,0.3980303 0 0 1 0.02036,-0.06665 c -0.0074,0.02777 -0.01296,0.04443 -0.02036,0.06665 z m 0,0 a 0.3980303,0.3980303 0 0 1 0.02036,-0.06665 c -0.0074,0.02777 -0.01296,0.04443 -0.02036,0.06665 z m 0,0 a 0.3980303,0.3980303 0 0 1 0.02036,-0.06665 c -0.0074,0.02777 -0.01296,0.04443 -0.02036,0.06665 z m 0,0 a 0.3980303,0.3980303 0 0 1 0.02036,-0.06665 c -0.0074,0.02777 -0.01296,0.04443 -0.02036,0.06665 z m 0,0 a 0.3980303,0.3980303 0 0 1 0.02036,-0.06665 c -0.0074,0.02777 -0.01296,0.04443 -0.02036,0.06665 z m 0,0 a 0.3980303,0.3980303 0 0 1 0.02036,-0.06665 c -0.0074,0.02777 -0.01296,0.04443 -0.02036,0.06665 z M 71.73807,50.307297 a 10.894922,10.894922 0 0 0 1.153362,-0.657212 c -0.375814,0.235115 -0.759034,0.453569 -1.153362,0.657212 z m 5.076275,-5.285472 c 0,0 0,0 0,0 a 0.87381535,0.87381535 0 0 0 0.04443,-0.103673 c -0.0093,0.03703 -0.02407,0.07035 -0.04443,0.103673 z m 0.305465,-7.436687 a 0.3980303,0.3980303 0 0 1 0.02036,-0.06665 c -0.0037,0.02777 -0.0093,0.04443 -0.01666,0.06665 z m 0,0 a 0.3980303,0.3980303 0 0 1 0.02036,-0.06665 c -0.0037,0.02777 -0.0093,0.04443 -0.01666,0.06665 z m 0,0 a 0.3980303,0.3980303 0 0 1 0.02036,-0.06665 c -0.0037,0.02777 -0.0093,0.04443 -0.01666,0.06665 z m 0,0 a 0.3980303,0.3980303 0 0 1 0.02036,-0.06665 c -0.0037,0.02777 -0.0093,0.04443 -0.01666,0.06665 z m 0,0 a 0.3980303,0.3980303 0 0 1 0.02036,-0.06665 c -0.0037,0.02777 -0.0093,0.04443 -0.01666,0.06665 z m 0,0 a 0.3980303,0.3980303 0 0 1 0.02036,-0.06665 c -0.0037,0.02777 -0.0093,0.04443 -0.01666,0.06665 z m 0,0 a 0.3980303,0.3980303 0 0 1 0.02036,-0.06665 c -0.0037,0.02777 -0.0093,0.04443 -0.01666,0.06665 z m 0,0 a 0.3980303,0.3980303 0 0 1 0.02036,-0.06665 c -0.0037,0.02777 -0.0093,0.04443 -0.01666,0.06665 z m 0,0 a 0.3980303,0.3980303 0 0 1 0.02036,-0.06665 c -0.0037,0.02777 -0.0093,0.04443 -0.01666,0.06665 z m 0,0 a 0.3980303,0.3980303 0 0 1 0.02036,-0.06665 c -0.0037,0.02777 -0.0093,0.04443 -0.01666,0.06665 z m 0,0 a 0.3980303,0.3980303 0 0 1 0.02036,-0.06665 c -0.0037,0.02777 -0.0093,0.04443 -0.01666,0.06665 z M 61.374472,31.797963 v 0 c 0.01481,0.03518 0.02962,0.0685 0.04073,0.101822 -0.01481,-0.03332 -0.02777,-0.0759 -0.04073,-0.101822 z m 15.749041,5.787175 a 0.3980303,0.3980303 0 0 1 0.02036,-0.06665 c -0.0074,0.02777 -0.01296,0.04443 -0.02036,0.06665 z m 0,0 a 0.3980303,0.3980303 0 0 1 0.02036,-0.06665 c -0.0074,0.02777 -0.01296,0.04443 -0.02036,0.06665 z m 0,0 a 0.3980303,0.3980303 0 0 1 0.02036,-0.06665 c -0.0074,0.02777 -0.01296,0.04443 -0.02036,0.06665 z m 0,0 a 0.3980303,0.3980303 0 0 1 0.02036,-0.06665 c -0.0074,0.02777 -0.01296,0.04443 -0.02036,0.06665 z m 0,0 a 0.3980303,0.3980303 0 0 1 0.02036,-0.06665 c -0.0074,0.02777 -0.01296,0.04443 -0.02036,0.06665 z m 0,0 a 0.3980303,0.3980303 0 0 1 0.02036,-0.06665 c -0.0074,0.02777 -0.01296,0.04443 -0.02036,0.06665 z m 0,0 a 0.3980303,0.3980303 0 0 1 0.02036,-0.06665 c -0.0074,0.02777 -0.01296,0.04443 -0.02036,0.06665 z m 0,0 a 0.3980303,0.3980303 0 0 1 0.02036,-0.06665 c -0.0074,0.02777 -0.01296,0.04443 -0.02036,0.06665 z m 0,0 a 0.3980303,0.3980303 0 0 1 0.02036,-0.06665 c -0.0074,0.02777 -0.01296,0.04443 -0.02036,0.06665 z m 0,0 a 0.3980303,0.3980303 0 0 1 0.02036,-0.06665 c -0.0074,0.02777 -0.01296,0.04443 -0.02036,0.06665 z"
         id="path983"
         inkscape:connector-curvature="0"
         style="fill:#ff1d25;stroke-width:0.18513037" />
      <path
         class="cls-9"
         d="M 61.020873,33.743683 A 3.9932621,3.9932621 0 0 1 60.7043,35.298778 c -0.18513,0.451718 -0.444313,0.973786 -0.846046,1.271846 a 0.98859618,0.98859618 0 0 1 -0.286952,0.149956 0.97193444,0.97193444 0 0 1 -0.651659,0 c -0.435056,-0.164766 -0.705346,-0.572053 -0.925651,-0.966381 a 4.2431881,4.2431881 0 0 1 -0.498001,-1.506961 1.0867153,1.0867153 0 0 1 -0.01296,-0.114781 3.8247934,3.8247934 0 0 1 -0.01851,-0.388774 3.0305842,3.0305842 0 0 1 0.01481,-0.318424 c 0,-0.03703 0,-0.07035 0,-0.103673 a 4.0728681,4.0728681 0 0 1 0.579458,-1.723564 c 0.249926,-0.427651 0.690536,-0.899733 1.227415,-0.890477 0.585011,0.01111 0.977488,0.588715 1.216306,1.053392 a 4.4098054,4.4098054 0 0 1 0.498001,1.764292 v 0.01296 c 0.01666,0.0685 0.02036,0.136996 0.02036,0.205494 z"
         id="path985"
         style="fill:url(#linear-gradient-6);stroke-width:0.18513037"
         inkscape:connector-curvature="0" />
      <path
         class="cls-10"
         d="m 76.444084,54.30056 a 0.41839464,0.41839464 0 0 1 -0.607227,0.31287 0.28510077,0.28510077 0 0 1 -0.08331,-0.05554 0.26843904,0.26843904 0 0 1 -0.04073,-0.03888 c -0.01296,-0.01296 -0.02036,-0.02777 -0.03332,-0.03888 a 0.18513037,0.18513037 0 0 0 -0.148105,-0.04813 0.18513037,0.18513037 0 0 0 -0.0685,0.02592 0.18513037,0.18513037 0 0 0 -0.07775,0.107376 c 0,0 0,0.0093 0,0.01481 v 0 a 0.16661733,0.16661733 0 0 0 0,0.07961 0.26473643,0.26473643 0 0 1 0.02222,0.03888 0.30546511,0.30546511 0 0 1 0.01481,0.146253 0.26843904,0.26843904 0 0 1 -0.0759,0.159212 0.28880338,0.28880338 0 0 1 -0.320275,0.05554 0.2999112,0.2999112 0 0 1 -0.149956,-0.18513 v -0.02037 a 0.18513037,0.18513037 0 0 0 -0.129591,-0.116632 0.34434249,0.34434249 0 0 0 -0.136997,0.01666 l -0.155509,0.04073 c -0.205495,0.05554 -0.405436,0.112929 -0.607228,0.174022 l -0.140699,0.04258 a 16.761704,16.761704 0 0 0 -2.762145,1.147808 17.135667,17.135667 0 0 0 -7.431133,7.590346 c -0.0685,0.136996 -0.133294,0.273993 -0.19809,0.410989 -0.357301,0.775696 -0.692387,1.558798 -0.692387,2.427059 a 3.9192099,3.9192099 0 0 0 0.2129,1.282954 c 0.01111,0.03517 0.02592,0.07405 0.03888,0.109227 0.01296,0.03517 0.01481,0.03147 0.02036,0.04813 a 0.30916772,0.30916772 0 0 0 0.04073,0.09071 0.16291473,0.16291473 0 0 0 0.06665,0.05554 0.1481043,0.1481043 0 0 0 0.05739,0.01666 h 0.01481 a 0.17217124,0.17217124 0 0 0 0.107375,-0.03703 0.18513037,0.18513037 0 0 1 0.03517,-0.02962 l 0.03888,-0.02407 a 0.33508597,0.33508597 0 0 1 0.09071,-0.03332 0.35359901,0.35359901 0 0 1 0.109226,-0.01481 0.42209724,0.42209724 0 0 1 0.422098,0.420246 0.42765115,0.42765115 0 0 1 -0.185131,0.351748 0.34619379,0.34619379 0 0 1 -0.161063,0.06294 0.16846864,0.16846864 0 0 0 -0.125889,0.07035 0.18513037,0.18513037 0 0 0 -0.03518,0.0722 0.18513037,0.18513037 0 0 0 0.06665,0.172171 0.11848344,0.11848344 0 0 0 0.04999,0.02592 0.17402255,0.17402255 0 0 0 0.05369,0.01111 0.47023114,0.47023114 0 0 0 0.05369,0 h 0.05369 a 0.52577025,0.52577025 0 0 1 0.105524,0.01851 0.49059548,0.49059548 0 0 1 0.144402,0.0759 0.42579985,0.42579985 0 0 1 0.103673,0.12774 0.4017329,0.4017329 0 0 1 0.04998,0.159212 0.44061028,0.44061028 0 0 1 0,0.120334 0.43320507,0.43320507 0 0 1 -0.04813,0.131443 0.15921212,0.15921212 0 0 1 -0.02777,0.04073 0.42024594,0.42024594 0 0 1 -0.336937,0.17032 0.32397815,0.32397815 0 0 1 -0.08516,0 0.22400775,0.22400775 0 0 1 -0.05739,-0.01666 0.47578505,0.47578505 0 0 1 -0.09812,-0.04628 0.31472163,0.31472163 0 0 1 -0.05739,-0.05369 0.18513037,0.18513037 0 0 0 -0.157361,-0.04443 0.1999408,0.1999408 0 0 0 -0.07961,0.03888 0.15365821,0.15365821 0 0 0 -0.04258,0.04998 0.27029034,0.27029034 0 0 0 -0.01296,0.03517 0.18513037,0.18513037 0 0 0 0.03332,0.159212 l 0.03147,0.02962 0.03147,0.04073 a 0.50725721,0.50725721 0 0 1 0.04999,0.09442 0.43320507,0.43320507 0 0 1 0.02407,0.146253 0.42209724,0.42209724 0 0 1 -0.420246,0.423948 0.42579985,0.42579985 0 0 1 -0.166618,-0.03517 0.38692247,0.38692247 0 0 1 -0.135145,-0.09442 0.41839464,0.41839464 0 0 1 -0.09071,-0.138848 0.41469203,0.41469203 0 0 1 -0.03147,-0.155509 0.18513037,0.18513037 0 0 1 0,-0.03332 0.27584425,0.27584425 0 0 0 0,-0.03888 0.18513037,0.18513037 0 0 0 -0.209197,-0.172171 0.18513037,0.18513037 0 0 0 -0.04998,0.02036 0.18513037,0.18513037 0 0 0 -0.06295,0.05554 0.22030514,0.22030514 0 0 0 -0.02036,0.04813 0.41098942,0.41098942 0 0 1 -0.02592,0.116632 0.18513037,0.18513037 0 0 1 -0.04628,0.0759 0.28139816,0.28139816 0 0 1 -0.0648,0.05924 0.249926,0.249926 0 0 1 -0.08701,0.03332 0.26658773,0.26658773 0 0 1 -0.14255,0 0.28139816,0.28139816 0 0 1 -0.199941,-0.268439 c 0,-0.03518 0.01111,-0.06665 0.0093,-0.103673 a 0.18513037,0.18513037 0 0 0 -0.02962,-0.0759 0.18513037,0.18513037 0 0 0 -0.111079,-0.07405 c -0.06665,-0.01666 -0.133293,-0.03332 -0.198089,-0.05554 -0.09257,-0.02777 -0.18513,-0.05739 -0.273993,-0.09257 a 4.1191507,4.1191507 0 0 1 -2.036434,-1.697646 c -0.03888,-0.06294 -0.0759,-0.129591 -0.109227,-0.194387 -0.03332,-0.0648 -0.07035,-0.133293 -0.103673,-0.201792 -0.01481,-0.03518 -0.03332,-0.0685 -0.04813,-0.105524 l -0.03888,-0.103673 a 0.29620859,0.29620859 0 0 1 -0.01851,-0.04258 0.19438689,0.19438689 0 0 1 -0.01481,-0.03332 3.9914108,3.9914108 0 0 0 -3.656325,-2.406694 c -0.846045,0 -1.612485,0.311019 -2.37152,0.65351 a 16.972752,16.972752 0 0 0 -5.216973,3.66373 17.180098,17.180098 0 0 0 -3.289767,4.765256 19.136926,19.136926 0 0 0 -0.862708,2.330791 c -0.631294,2.036434 -1.679132,3.854414 -3.300874,5.265108 a 10.552431,10.552431 0 0 1 -1.268143,0.947867 c -0.06295,0.04073 -0.12774,0.07775 -0.185131,0.118484 l -0.18513,0.111078 a 10.998595,10.998595 0 0 1 -1.666173,0.78125 c -0.172171,0.0648 -0.346194,0.124037 -0.523919,0.18513 l -0.220305,0.07035 a 18.142776,18.142776 0 0 1 -4.30243,0.740521 15.325092,15.325092 0 0 1 -2.941722,-0.122186 16.452536,16.452536 0 0 1 -3.909953,-0.981191 10.789398,10.789398 0 0 1 -2.036434,-1.081161 C 22.45828,82.606964 22.369419,82.54032 22.267598,82.469971 A 11.759481,11.759481 0 0 1 21.001241,81.385133 11.002298,11.002298 0 0 1 19.773827,79.90409 c -0.03518,-0.04813 -0.0685,-0.09627 -0.09997,-0.146253 a 10.552431,10.552431 0 0 1 -1.630998,-4.130259 c -0.01111,-0.0722 -0.02407,-0.144402 -0.03517,-0.216602 -0.02036,-0.124038 -0.03888,-0.251778 -0.04813,-0.379518 a 6.1685439,6.1685439 0 0 1 -0.03147,-0.642402 6.7572585,6.7572585 0 0 1 0.09071,-1.097823 6.5943438,6.5943438 0 0 1 2.491855,-4.126556 l 0.09627,-0.0722 a 5.9593466,5.9593466 0 0 1 0.503555,-0.336937 c 0.03703,-0.02407 0.0759,-0.04813 0.112929,-0.0685 a 6.5110351,6.5110351 0 0 1 1.4903,-0.631295 c 0.138848,-0.03888 0.273993,-0.07405 0.412841,-0.103673 a 3.0694615,3.0694615 0 0 1 0.427651,-0.0685 c 0.135145,-0.01296 0.268439,-0.02036 0.403584,-0.02036 a 3.9099534,3.9099534 0 0 1 0.529473,0.03332 l 0.09627,0.01296 a 4.6578801,4.6578801 0 0 1 0.457272,0.09627 l 0.222156,0.0685 0.214751,0.07961 0.159212,0.0685 a 4.1191507,4.1191507 0 0 1 1.851304,1.679133 c 0.02036,0.03332 0.04073,0.0685 0.05924,0.105524 0.04998,0.09442 0.09997,0.185131 0.144402,0.288804 0.04443,0.103673 0.08331,0.201792 0.120334,0.305465 0.03703,0.103673 0.0685,0.209197 0.09627,0.316573 0.02777,0.107375 0.05369,0.216602 0.0722,0.325829 0.0093,0.04813 0.01666,0.09627 0.02407,0.148104 0.0074,0.05184 0,0.09071 0.01481,0.136997 a 4.0210316,4.0210316 0 0 1 0.02222,0.4258 c 0,0.06665 0,0.136996 0,0.205494 -0.05554,1.808724 1.325533,3.461938 3.054651,3.874779 a 4.0617603,4.0617603 0 0 0 3.808132,-1.125593 c 0.379517,-0.379517 0.631294,-0.853451 0.936759,-1.295912 a 28.587832,28.587832 0 0 1 4.419062,-4.948535 27.514076,27.514076 0 0 1 2.699201,-2.114189 31.148185,31.148185 0 0 1 3.276808,-1.938315 c 0.18513,-0.08886 0.361004,-0.18513 0.542432,-0.262885 0.09442,-0.04813 0.18513,-0.09256 0.2851,-0.133294 0.09997,-0.04073 0.135146,-0.0648 0.203644,-0.09442 l 0.08146,-0.03703 0.09812,-0.04258 0.286952,-0.12774 c 0.09627,-0.03703 0.185131,-0.07776 0.288804,-0.122186 a 4.1321099,4.1321099 0 0 0 -0.675726,-0.185131 3.9951134,3.9951134 0 0 0 -2.591825,0.405436 4.3801846,4.3801846 0 0 1 -2.130851,0.59612 4.1080429,4.1080429 0 0 1 -1.16447,-0.168469 l -0.155509,-0.04999 a 0.30916772,0.30916772 0 0 0 -0.135145,-0.02592 0.16291473,0.16291473 0 0 0 -0.09442,0.04999 0.3017625,0.3017625 0 0 0 -0.04443,0.07035 0.26103382,0.26103382 0 0 1 -0.05369,0.07405 0.20734601,0.20734601 0 0 1 -0.05369,0.03888 0.29065468,0.29065468 0 0 1 -0.231413,0.02592 0.26288513,0.26288513 0 0 1 -0.111078,-0.06665 0.26103382,0.26103382 0 0 1 -0.08146,-0.162915 0.27769556,0.27769556 0 0 1 0.02592,-0.155509 c 0,0 0.01111,-0.02036 0.01851,-0.03888 a 0.16846864,0.16846864 0 0 0 -0.01481,-0.148104 0.18513037,0.18513037 0 0 0 -0.06109,-0.05924 v 0 a 0.19623819,0.19623819 0 0 0 -0.140699,-0.02222 0.1481043,0.1481043 0 0 0 -0.06479,0.03518 c -0.02407,0.01296 -0.03147,0.03703 -0.04628,0.05924 a 0.37026074,0.37026074 0 0 1 -0.03703,0.03888 0.35545031,0.35545031 0 0 1 -0.08701,0.0648 0.41839464,0.41839464 0 0 1 -0.509109,-0.0648 0.42394855,0.42394855 0 0 1 0,-0.597971 0.44431289,0.44431289 0 0 1 0.144402,-0.09442 0.43505637,0.43505637 0 0 1 0.12774,-0.02592 0.18513037,0.18513037 0 0 0 0.124037,-0.04998 0.18513037,0.18513037 0 0 0 0.04073,-0.185131 0.16661733,0.16661733 0 0 0 -0.06294,-0.08701 0.13514517,0.13514517 0 0 0 -0.08516,-0.03332 c -0.03518,0 -0.07035,0 -0.105525,0 a 0.43135376,0.43135376 0 0 1 -0.103673,-0.02777 0.41654333,0.41654333 0 0 1 -0.251777,-0.322127 0.48319027,0.48319027 0 0 1 0.04073,-0.259182 0.41654333,0.41654333 0 0 1 0.196238,-0.185131 0.44061028,0.44061028 0 0 1 0.390625,0.01851 l 0.06109,0.03888 c 0.03147,0.02592 0.04998,0.06109 0.08146,0.08516 a 0.16291473,0.16291473 0 0 0 0.103673,0.03517 0.18513037,0.18513037 0 0 0 0.174023,-0.153658 0.16846864,0.16846864 0 0 0 -0.03147,-0.125888 l -0.01666,-0.02036 a 0.34619379,0.34619379 0 0 1 -0.08701,-0.153658 0.42024594,0.42024594 0 0 1 0.699793,-0.423949 0.25362861,0.25362861 0 0 1 0.03517,0.04258 0.38507117,0.38507117 0 0 1 0.05924,0.103673 0.54428329,0.54428329 0 0 0 0.05184,0.12774 0.16661733,0.16661733 0 0 0 0.107375,0.06665 0.18513037,0.18513037 0 0 0 0.125889,-0.02777 l 0.18513,-0.11293 c 0.08331,-0.05739 0.166617,-0.118483 0.246224,-0.18513 a 3.4934101,3.4934101 0 0 0 0.470231,-0.435057 6.7442994,6.7442994 0 0 0 1.086715,-1.966084 17.448537,17.448537 0 0 0 1.131147,-4.754148 c 0.01111,-0.105524 0.01851,-0.2129 0.02592,-0.320275 0.02222,-0.398031 0.04443,-0.796061 0.04443,-1.195943 v -0.01851 A 16.970901,16.970901 0 0 0 43.490909,46.81945 c -0.129591,-0.346193 -0.273993,-0.686833 -0.429502,-1.025622 -0.02407,-0.05739 -0.05369,-0.112929 -0.07961,-0.172171 a 0.22771036,0.22771036 0 0 0 -0.0648,-0.09257 0.17402255,0.17402255 0 0 0 -0.103673,-0.03332 0.16106342,0.16106342 0 0 0 -0.05924,0.01111 0.67572585,0.67572585 0 0 1 -0.06479,0.02592 0.26288513,0.26288513 0 0 1 -0.07776,0.01111 h -0.04628 a 0.25362861,0.25362861 0 0 1 -0.125888,-0.05739 0.27584425,0.27584425 0 0 1 -0.04813,-0.392477 0.28139816,0.28139816 0 0 1 0.07405,-0.06665 l 0.04813,-0.02407 a 0.21104862,0.21104862 0 0 0 0.04813,-0.01666 0.15736081,0.15736081 0 0 0 0.0722,-0.06294 0.18513037,0.18513037 0 0 0 0,-0.18513 0.16291473,0.16291473 0 0 0 -0.09627,-0.0759 0.12959126,0.12959126 0 0 0 -0.04628,-0.0093 c -0.02592,0 -0.04998,0 -0.0759,0 h -0.07035 a 0.48689287,0.48689287 0 0 1 -0.133294,-0.05184 0.24066948,0.24066948 0 0 1 -0.03703,-0.02777 0.3980303,0.3980303 0 0 1 -0.140699,-0.18513 0.44431289,0.44431289 0 0 1 -0.02407,-0.148105 0.43690767,0.43690767 0 0 1 0.08331,-0.253628 0.43320507,0.43320507 0 0 1 0.0759,-0.07776 0.41839464,0.41839464 0 0 1 0.261034,-0.09071 0.42765115,0.42765115 0 0 1 0.270291,0.09627 0.92565185,0.92565185 0 0 0 0.0759,0.0722 0.17217124,0.17217124 0 0 0 0.09812,0.03147 0.16661733,0.16661733 0 0 0 0.07405,-0.01666 l 0.02222,-0.01296 a 0.19623819,0.19623819 0 0 0 0.03703,-0.03147 0.17402255,0.17402255 0 0 0 0.02962,-0.185131 0.23511557,0.23511557 0 0 0 -0.03703,-0.05739 0.22400775,0.22400775 0 0 1 -0.03703,-0.04813 0.23696687,0.23696687 0 0 1 -0.03147,-0.05554 0.28324947,0.28324947 0 0 1 -0.02036,-0.04998 0.45912332,0.45912332 0 0 1 -0.01851,-0.125889 0.41839464,0.41839464 0 0 1 0.422097,-0.420246 0.42024594,0.42024594 0 0 1 0.409139,0.318424 0.41654333,0.41654333 0 0 1 0,0.185131 0.20549471,0.20549471 0 0 0 0,0.03518 0.17587385,0.17587385 0 1 0 0.349896,0 v -0.02036 a 0.42579985,0.42579985 0 0 1 0.03147,-0.168468 0.43505637,0.43505637 0 0 1 0.164766,-0.185131 0.37951726,0.37951726 0 0 1 0.103673,-0.04813 0.42024594,0.42024594 0 0 1 0.120335,-0.01666 0.37026074,0.37026074 0 0 1 0.17032,0.03888 0.37026074,0.37026074 0 0 1 0.144402,0.105524 0.46467723,0.46467723 0 0 1 0.101821,0.201792 0.44061028,0.44061028 0 0 1 -0.01111,0.185131 c -0.01481,0.05924 -0.05924,0.112929 -0.05554,0.174022 a 0.21475123,0.21475123 0 0 0 0.02407,0.0759 c 0.04258,0.07775 0.118484,0.08701 0.196238,0.109227 l 0.116633,0.03517 c 0.09812,0.02962 0.194387,0.06109 0.292506,0.09442 0.138847,0.04628 0.275844,0.09442 0.420246,0.149956 a 10.524662,10.524662 0 0 1 1.83279,0.925651 c 0.12774,0.07775 0.249926,0.159213 0.370261,0.244372 0.209197,0.144402 0.412841,0.294358 0.61093,0.45357 0.253629,0.201792 0.499852,0.416543 0.740522,0.642402 0.640551,0.612782 1.170024,1.327385 1.792062,1.956828 a 16.894998,16.894998 0 0 0 2.004962,1.738374 c 0.144401,0.105525 0.286952,0.207346 0.433205,0.309168 a 1.2181578,1.2181578 0 0 0 0.09997,0.07035 16.948685,16.948685 0 0 0 4.915211,2.308575 15.3362,15.3362 0 0 0 3.358265,0.603525 q 0.659064,0.04999 1.31998,0.04999 a 16.982009,16.982009 0 0 0 2.369669,-0.164766 17.237489,17.237489 0 0 0 2.695498,-0.603525 l 0.353599,-0.116633 c 0.32768,-0.09997 0.662766,-0.18513 1.003406,-0.257331 q 0.414692,-0.08516 0.838641,-0.138848 l 0.218454,-0.02407 a 10.724602,10.724602 0 0 1 1.095972,-0.05739 10.467271,10.467271 0 0 1 2.249334,0.242521 l 0.209197,0.04628 a 0.18513037,0.18513037 0 0 0 0.164766,-0.04628 0.18513037,0.18513037 0 0 0 0.04998,-0.125889 0.35915292,0.35915292 0 0 1 0.04628,-0.168468 0.38136856,0.38136856 0 0 1 0.0759,-0.105525 0.42209724,0.42209724 0 0 1 0.59612,0 0.40728681,0.40728681 0 0 1 0.118483,0.227711 0.24437209,0.24437209 0 0 1 0,0.06294 0.65906412,0.65906412 0 0 1 -0.0093,0.08701 0.20734601,0.20734601 0 0 1 -0.02407,0.0722 c -0.01666,0.04258 -0.04258,0.08146 -0.06294,0.122186 a 0.14625299,0.14625299 0 0 0 -0.01481,0.04813 0.15365821,0.15365821 0 0 0 0.01851,0.103673 0.11478083,0.11478083 0 0 0 0.03147,0.04813 0.16846864,0.16846864 0 0 0 0.196238,0.03332 0.18513037,0.18513037 0 0 0 0.04073,-0.02592 c 0.01296,-0.01111 0.02222,-0.02407 0.03332,-0.03517 a 0.39247638,0.39247638 0 0 1 0.03703,-0.04443 0.3498964,0.3498964 0 0 1 0.09442,-0.07035 0.42024594,0.42024594 0 0 1 0.599823,0.514662 0.61648413,0.61648413 0 0 1 -0.04628,0.09257 0.4980007,0.4980007 0 0 1 -0.04998,0.05924 0.46467723,0.46467723 0 0 1 -0.144402,0.09442 0.3517477,0.3517477 0 0 1 -0.0722,0.02036 0.11848344,0.11848344 0 0 1 -0.03703,0 h -0.05369 a 0.15736081,0.15736081 0 0 0 -0.105524,0.04998 0.18513037,0.18513037 0 0 0 -0.05184,0.112929 0.18513037,0.18513037 0 0 0 0.11478,0.174023 0.15365821,0.15365821 0 0 0 0.03888,0.01111 h 0.08331 0.04813 a 0.32953206,0.32953206 0 0 1 0.09442,0.02962 0.37026074,0.37026074 0 0 1 0.125888,0.08516 0.42024594,0.42024594 0 0 1 0.101822,0.359153 z"
         id="path987"
         style="fill:url(#linear-gradient-7);stroke-width:0.18513037"
         inkscape:connector-curvature="0" />
      <path
         class="cls-11"
         d="m 40.480659,63.995837 h -0.0093 -0.01111 v 0 c 0,0 0.01296,-0.0019 0.02037,0 z"
         id="path989"
         style="fill:url(#linearGradient1011);stroke-width:0.18513037"
         inkscape:connector-curvature="0" />
      <path
         class="cls-11"
         d="m 40.480659,63.995837 h -0.0093 -0.01111 v 0 c 0,0 0.01296,-0.0019 0.02037,0 z"
         id="path991"
         style="fill:url(#linearGradient1013);stroke-width:0.18513037"
         inkscape:connector-curvature="0" />
      <path
         class="cls-11"
         d="m 40.480659,63.995837 h -0.0093 -0.01111 v 0 c 0,0 0.01296,-0.0019 0.02037,0 z"
         id="path993"
         style="fill:url(#linearGradient1015);stroke-width:0.18513037"
         inkscape:connector-curvature="0" />
      <path
         class="cls-11"
         d="m 40.480659,63.995837 h -0.0093 -0.01111 v 0 c 0,0 0.01296,-0.0019 0.02037,0 z"
         id="path995"
         style="fill:url(#linearGradient1017);stroke-width:0.18513037"
         inkscape:connector-curvature="0" />
      <path
         class="cls-11"
         d="m 40.480659,63.995837 h -0.0093 -0.01111 v 0 c 0,0 0.01296,-0.0019 0.02037,0 z"
         id="path997"
         style="fill:url(#linearGradient1019);stroke-width:0.18513037"
         inkscape:connector-curvature="0" />
      <path
         class="cls-11"
         d="m 40.480659,63.995837 h -0.0093 -0.01111 v 0 c 0,0 0.01296,-0.0019 0.02037,0 z"
         id="path999"
         style="fill:url(#linear-gradient-8);stroke-width:0.18513037"
         inkscape:connector-curvature="0" />
    </g>
  </g>
</svg>
