<svg xmlns="http://www.w3.org/2000/svg" id="Component_1068_2" width="105.371" height="104.874" data-name="Component 1068 – 2" viewBox="0 0 105.371 104.874">
    <path id="Path_2154" fill="#fff" d="M6670.058-3096.417a15.168 15.168 0 0 0-14.007 9.375c-4.979 3.2-18.8 2.809-23.593 1.327a21.646 21.646 0 0 0-2.812-7.022c1.2-1.68 8.757-12.187 14.418-13.8a15.045 15.045 0 0 0 6.327 1.385 15.173 15.173 0 0 0 15.159-15.178 15.173 15.173 0 0 0-12.378-14.916 15.005 15.005 0 0 0-2.781-.259 15.167 15.167 0 0 0-15.159 15.175 15.094 15.094 0 0 0 1.306 6.151c-.876 4.635-10.2 12.91-13.2 14.85a21.692 21.692 0 0 0-7.359-3.2c-.958-4.552-1.544-19.12 1.5-23.148a15.176 15.176 0 0 0 9.108-13.912 15.174 15.174 0 0 0-15.163-15.18 15.168 15.168 0 0 0-15.151 15.18 15.175 15.175 0 0 0 9.293 13.994c2.5 3.491 2.113 20.863.879 23.018a21.843 21.843 0 0 0-17.148 21.338 21.845 21.845 0 0 0 17.43 21.4 32.723 32.723 0 0 1 2.319-11.228 32.723 32.723 0 0 0-2.319 11.228 21.9 21.9 0 0 0 4.385.443 21.83 21.83 0 0 0 21.326-17.234c3.964-1.489 17.348-1.423 23.341.448a15.163 15.163 0 0 0 14.289 10.121 15.165 15.165 0 0 0 15.157-15.175 15.169 15.169 0 0 0-15.167-15.181zm-59.105 20.926q.625-1.342 1.3-2.659-.678 1.315-1.301 2.659zm1.444-2.926c6.558-12.662 16.162-23.613 24.969-34.372-8.807 10.759-18.412 21.709-24.966 34.372z" data-name="Path 2154" transform="scale(-1) rotate(6.02 -25748.01 -65105.722)"/>
</svg>
