<svg width="25" height="24" viewBox="0 0 25 24" fill="none" xmlns="http://www.w3.org/2000/svg">
<path d="M4.36833 3.86827C6.525 1.7116 9.45007 0.5 12.5001 0.5C14.7745 0.5 16.998 1.17446 18.8891 2.4381C20.7803 3.70174 22.2543 5.49779 23.1247 7.59914C23.9951 9.70049 24.2228 12.0128 23.7791 14.2435C23.3354 16.4743 22.2401 18.5234 20.6318 20.1317C19.0235 21.74 16.9744 22.8353 14.7436 23.279C12.5128 23.7228 10.2006 23.495 8.0992 22.6246C5.99785 21.7542 4.2018 20.2802 2.93816 18.3891C1.67452 16.4979 1.00006 14.2745 1.00006 12C1.00006 8.95001 2.21166 6.02494 4.36833 3.86827Z" stroke="black"/>
<path d="M15.1151 15.0886L8.00006 7.97363" stroke="black" stroke-width="1.5" stroke-linecap="round" stroke-linejoin="round"/>
<path d="M11.2699 15.7114L16.0132 15.7114L16.0132 10.9681" stroke="black" stroke-width="1.5" stroke-linecap="round" stroke-linejoin="round"/>
</svg>
