<svg width="25" height="24" viewBox="0 0 25 24" fill="none" xmlns="http://www.w3.org/2000/svg">
<path d="M4.70165 3.86827C6.85831 1.7116 9.78338 0.5 12.8334 0.5C15.1079 0.5 17.3313 1.17446 19.2224 2.4381C21.1136 3.70174 22.5876 5.49779 23.458 7.59914C24.3284 9.70049 24.5561 12.0128 24.1124 14.2435C23.6687 16.4743 22.5734 18.5234 20.9651 20.1317C19.3568 21.74 17.3077 22.8353 15.0769 23.279C12.8461 23.7228 10.5339 23.495 8.43251 22.6246C6.33116 21.7542 4.53511 20.2802 3.27147 18.3891C2.00784 16.4979 1.33337 14.2745 1.33337 12C1.33337 8.95001 2.54498 6.02494 4.70165 3.86827Z" stroke="black"/>
<path d="M15.8302 9.04195L7.87213 17" stroke="black" stroke-width="1.5" stroke-linecap="round" stroke-linejoin="round"/>
<path d="M16.5267 13.3428L16.5267 8.03741L11.2213 8.03741" stroke="black" stroke-width="1.5" stroke-linecap="round" stroke-linejoin="round"/>
</svg>
