<svg width="25" height="25" viewBox="0 0 25 25" fill="none" xmlns="http://www.w3.org/2000/svg">
<path d="M9.17351 19.167C9.8987 19.167 10.6076 18.9517 11.2105 18.5488C11.8135 18.1459 12.2835 17.5733 12.561 16.9033C12.8386 16.2333 12.9112 15.4961 12.7697 14.7848C12.6282 14.0735 12.279 13.4203 11.7662 12.9075C11.2534 12.3947 10.6001 12.0454 9.88884 11.904C9.17757 11.7625 8.44026 11.8351 7.77027 12.1126C7.10027 12.3901 6.52766 12.8602 6.12476 13.4632C5.72186 14.0662 5.50684 14.7751 5.50684 15.5003C5.50581 16.2929 5.76587 17.0634 6.24683 17.6933C6.58627 18.1498 7.02763 18.5209 7.53573 18.7767C8.04383 19.0325 8.60465 19.1662 9.17351 19.167V19.167Z" stroke="#3C3C3C" stroke-linecap="round" stroke-linejoin="round"/>
<mask id="path-2-inside-1_4407_7112" fill="white">
<path d="M14.4067 17.7463L15.4933 16.6597L14.4067 17.7463Z"/>
</mask>
<path d="M15.1138 18.4534L16.2004 17.3668L14.7863 15.9525L13.6996 17.0391L15.1138 18.4534Z" fill="#3C3C3C" mask="url(#path-2-inside-1_4407_7112)"/>
<mask id="path-4-inside-2_4407_7112" fill="white">
<path d="M15.4933 18.8335L14.4067 17.7466L15.4933 18.8335Z"/>
</mask>
<path d="M16.2005 18.1265L15.1139 17.0396L13.6995 18.4536L14.7862 19.5405L16.2005 18.1265Z" fill="#3C3C3C" mask="url(#path-4-inside-2_4407_7112)"/>
<mask id="path-6-inside-3_4407_7112" fill="white">
<path d="M10.6066 7.25342L9.51996 8.34001L10.6066 7.25342Z"/>
</mask>
<path d="M9.89955 6.54628L8.81288 7.63287L10.227 9.04714L11.3137 7.96055L9.89955 6.54628Z" fill="#3C3C3C" mask="url(#path-6-inside-3_4407_7112)"/>
<mask id="path-8-inside-4_4407_7112" fill="white">
<path d="M9.51996 6.1665L10.6066 7.25309L9.51996 6.1665Z"/>
</mask>
<path d="M8.81288 6.87364L9.89955 7.96023L11.3137 6.54596L10.227 5.45937L8.81288 6.87364Z" fill="#3C3C3C" mask="url(#path-8-inside-4_4407_7112)"/>
<path d="M10.6066 7.25342H9.51994C8.80032 7.25342 8.11017 7.53917 7.60132 8.04801C7.09247 8.55686 6.80664 9.24701 6.80664 9.96663" stroke="#3C3C3C" stroke-width="1.5" stroke-linecap="round" stroke-linejoin="round"/>
<path d="M9.80664 6.43994L10.62 7.25342L9.80664 8.06657" stroke="#3C3C3C" stroke-width="1.5" stroke-linecap="round" stroke-linejoin="round"/>
<path d="M18.7222 8.97533C18.7222 9.50276 18.5658 10.0184 18.2728 10.4569C17.9798 10.8954 17.5633 11.2371 17.0761 11.4389C16.5888 11.6408 16.0526 11.6936 15.5354 11.5907C15.0181 11.4878 14.5429 11.2337 14.17 10.8608C13.797 10.4878 13.543 10.0128 13.4402 9.49546C13.3373 8.97817 13.3901 8.44199 13.5919 7.95471C13.7937 7.46742 14.1356 7.05097 14.5741 6.75794C15.0126 6.46492 15.5282 6.30859 16.0556 6.30859C16.7628 6.30859 17.4411 6.58952 17.9412 7.08963C18.4413 7.58974 18.7222 8.26807 18.7222 8.97533Z" fill="#3C3C3C"/>
<path d="M15.0886 18.0981L16.5736 17.7503C17.557 17.52 18.4147 16.9345 18.958 16.1223C19.5013 15.3102 19.6856 14.3381 19.4706 13.42" stroke="#3C3C3C" stroke-width="1.5" stroke-linecap="round" stroke-linejoin="round"/>
<path d="M16.1645 18.5604L15.1871 17.9538L15.7935 16.9766" stroke="#3C3C3C" stroke-width="1.5" stroke-linecap="round" stroke-linejoin="round"/>
</svg>
