<svg width="15" height="15" viewBox="0 0 15 15" fill="none" xmlns="http://www.w3.org/2000/svg">
<path d="M7.06058 1.75758C7.06058 0.786894 6.27368 0 5.303 0C4.33232 0 3.54542 0.786894 3.54542 1.75758C3.54542 2.72826 4.33232 3.51515 5.303 3.51515C6.27368 3.51515 7.06058 2.72826 7.06058 1.75758Z" fill="black"/>
<path d="M13.4318 2.41667C13.7958 2.41667 14.0909 2.12158 14.0909 1.75758C14.0909 1.39357 13.7958 1.09848 13.4318 1.09848L8.59846 1.09848C8.23445 1.09848 7.93936 1.39357 7.93936 1.75758C7.93936 2.12158 8.23445 2.41667 8.59846 2.41667L13.4318 2.41667Z" fill="black"/>
<path d="M2.66664 1.75758C2.66664 2.12158 2.37155 2.41667 2.00755 2.41667H0.689364C0.325358 2.41667 0.0302734 2.12158 0.0302734 1.75758C0.0302734 1.39357 0.325359 1.09848 0.689364 1.09848L2.00755 1.09848C2.37155 1.09848 2.66664 1.39357 2.66664 1.75758Z" fill="black"/>
<path d="M2.00755 13.4015C2.37155 13.4015 2.66664 13.1064 2.66664 12.7424C2.66664 12.3784 2.37155 12.0833 2.00755 12.0833H0.689364C0.325359 12.0833 0.0302734 12.3784 0.0302734 12.7424C0.0302734 13.1064 0.325358 13.4015 0.689364 13.4015H2.00755Z" fill="black"/>
<path d="M13.4318 13.4015C13.7958 13.4015 14.0909 13.1064 14.0909 12.7424C14.0909 12.3784 13.7958 12.0833 13.4318 12.0833H8.59846C8.23445 12.0833 7.93936 12.3784 7.93936 12.7424C7.93936 13.1064 8.23445 13.4015 8.59846 13.4015H13.4318Z" fill="black"/>
<path d="M6.18179 7.25C6.18179 7.61401 5.8867 7.90909 5.5227 7.90909H0.689364C0.325358 7.90909 0.0302734 7.61401 0.0302734 7.25C0.0302734 6.88599 0.325358 6.59091 0.689364 6.59091L5.5227 6.59091C5.8867 6.59091 6.18179 6.88599 6.18179 7.25Z" fill="black"/>
<path d="M13.4318 7.90909C13.7958 7.90909 14.0909 7.61401 14.0909 7.25C14.0909 6.88599 13.7958 6.59091 13.4318 6.59091H12.1136C11.7496 6.59091 11.4545 6.88599 11.4545 7.25C11.4545 7.61401 11.7496 7.90909 12.1136 7.90909H13.4318Z" fill="black"/>
<path d="M10.5757 7.25C10.5757 6.27932 9.78883 5.49242 8.81815 5.49242C7.84747 5.49242 7.06058 6.27932 7.06058 7.25C7.06058 8.22068 7.84747 9.00758 8.81815 9.00758C9.78883 9.00758 10.5757 8.22068 10.5757 7.25Z" fill="black"/>
<path d="M7.06058 12.7424C7.06058 11.7717 6.27368 10.9848 5.303 10.9848C4.33232 10.9848 3.54542 11.7717 3.54542 12.7424C3.54542 13.7131 4.33232 14.5 5.303 14.5C6.27368 14.5 7.06058 13.7131 7.06058 12.7424Z" fill="black"/>
</svg>
