<svg width="17" height="18" viewBox="0 0 17 18" fill="none" xmlns="http://www.w3.org/2000/svg">
<path d="M8.51064 0C3.82979 0 0 3.82979 0 8.51064C0 13.1915 3.82979 17.0213 8.51064 17.0213C10.8511 17.0213 13.0213 16.1064 14.5532 14.5532L13.0213 13.0213C11.8723 14.1702 10.2766 14.8936 8.48936 14.8936C4.95745 14.8936 2.10638 12.0426 2.10638 8.51064C2.10638 4.97872 4.95745 2.12766 8.48936 2.12766C10.2553 2.12766 11.7872 2.89362 12.9362 4.06383L10.617 6.38298H17V0L14.4681 2.53191C12.9362 1 10.8298 0 8.48936 0H8.51064Z" fill="#fff"/>
</svg>
