<svg width="14" height="12" viewBox="0 0 14 12" fill="none" xmlns="http://www.w3.org/2000/svg">
<path d="M8.53033 0.469671C8.23744 0.176777 7.76256 0.176777 7.46967 0.469671C7.17678 0.762563 7.17678 1.23744 7.46967 1.53033L8.53033 0.469671ZM13 6L13.5303 6.53033C13.671 6.38968 13.75 6.19891 13.75 6C13.75 5.80109 13.671 5.61032 13.5303 5.46967L13 6ZM7.46967 10.4697C7.17678 10.7626 7.17678 11.2374 7.46967 11.5303C7.76256 11.8232 8.23744 11.8232 8.53033 11.5303L7.46967 10.4697ZM0.999999 5.25C0.585785 5.25 0.249999 5.58579 0.249999 6C0.249998 6.41421 0.585785 6.75 0.999998 6.75L0.999999 5.25ZM7.46967 1.53033L12.4697 6.53033L13.5303 5.46967L8.53033 0.469671L7.46967 1.53033ZM12.4697 5.46967L7.46967 10.4697L8.53033 11.5303L13.5303 6.53033L12.4697 5.46967ZM0.999998 6.75L13 6.75L13 5.25L0.999999 5.25L0.999998 6.75Z" fill="white"/>
</svg>
