<svg width="12" height="15" viewBox="0 0 12 15" fill="none" xmlns="http://www.w3.org/2000/svg">
<path d="M7.66084 5.5L7.45105 11.5M4.54895 11.5L4.33916 5.5M10.3804 3.36038C10.5877 3.39481 10.7942 3.43165 11 3.47086M10.3804 3.36038L9.73321 12.615C9.67856 13.3965 9.08614 14 8.37359 14H3.62641C2.91386 14 2.32144 13.3965 2.26679 12.615L1.61961 3.36038M10.3804 3.36038C9.68559 3.24496 8.98273 3.15657 8.27273 3.09622M1 3.47086C1.2058 3.43165 1.41235 3.39481 1.61961 3.36038M1.61961 3.36038C2.31441 3.24496 3.01727 3.15657 3.72727 3.09622M8.27273 3.09622V2.48546C8.27273 1.69922 7.72082 1.04282 7.00642 1.01768C6.67226 1.00592 6.33676 1 6 1C5.66324 1 5.32774 1.00592 4.99359 1.01768C4.27918 1.04282 3.72727 1.69922 3.72727 2.48546V3.09622M8.27273 3.09622C7.52276 3.03247 6.76483 3 6 3C5.23517 3 4.47724 3.03247 3.72727 3.09622" stroke="#fff" stroke-width="1.2" stroke-linecap="round" stroke-linejoin="round"/>
</svg>
