<svg xmlns="http://www.w3.org/2000/svg" id="prefix__new-message" width="14.34" height="14.34" viewBox="0 0 14.34 14.34">
    <path id="prefix__new-message-2" d="M19.24 2.514a2.372 2.372 0 0 0-2.3-.857l-9.53 9.525-1.6 4.766 4.764-1.6L20.1 4.811a2.376 2.376 0 0 0-.86-2.297zM10.888 13.3l-.52.519-1.626.552a2.437 2.437 0 0 0-.55-.817 2.465 2.465 0 0 0-.817-.55l.552-1.626.52-.519a2.227 2.227 0 0 1 1.7.743 2.233 2.233 0 0 1 .743 1.7z" data-name="new-message" transform="translate(-5.807 -1.607)" style="fill:#fdfeff"/>
</svg>
