<svg width="160" height="63" viewBox="0 0 160 63" fill="none" xmlns="http://www.w3.org/2000/svg">
<path d="M6.53698 15.1092C5.30724 9.71745 3.09148 4.59606 0 0L144.99 0C148.971 0 152.789 1.57182 155.604 4.36968C158.419 7.16753 160 10.9622 160 14.919V43.7246C138.881 44.6466 111.754 47.8065 87.2106 56.7139C75.3284 61.0262 65.0141 63 56.0732 63C27.751 62.9993 13.2376 43.1831 6.53698 15.1092Z" fill="url(#paint0_linear_5229_19746)" style="mix-blend-mode:soft-light"/>
<path d="M157.958 37.9879C71.7354 37.8366 95.1321 24.7085 43 1H142.565C147.189 1 151.623 2.82159 154.893 6.06404C158.163 9.30649 160 13.7042 160 18.2897V38C159.325 37.9939 158.644 37.9888 157.958 37.9879Z" fill="url(#paint1_linear_5229_19746)" style="mix-blend-mode:soft-light"/>
<defs>
<linearGradient id="paint0_linear_5229_19746" x1="13" y1="94" x2="109" y2="-59" gradientUnits="userSpaceOnUse">
<stop stop-color="#62C6FE"/>
<stop offset="1" stop-color="white" stop-opacity="0"/>
</linearGradient>
<linearGradient id="paint1_linear_5229_19746" x1="24" y1="82" x2="127.098" y2="-57.9038" gradientUnits="userSpaceOnUse">
<stop stop-color="#BF7FC0"/>
<stop offset="1" stop-color="white" stop-opacity="0"/>
</linearGradient>
</defs>
</svg>
