<svg xmlns="http://www.w3.org/2000/svg" id="BirthIcon" width="17.57" height="17.569" viewBox="0 0 17.57 17.569">
    <defs>
        <style>
            .cls-1{fill:#565bdb}
        </style>
    </defs>
    <path id="Path_22272" d="M209.865 3.535a1.478 1.478 0 0 1-1.141-2.587l.776-.792a.515.515 0 0 1 .736 0l.795.813a1.477 1.477 0 0 1-1.166 2.566z" class="cls-1" transform="translate(-201.08 -.001)"/>
    <path id="Path_22273" d="M17.055 447H.515c-.284 0-.515.158-.515.352v1.526c0 .194.23.352.515.352h16.54c.284 0 .515-.158.515-.352v-1.526c0-.195-.23-.352-.515-.352z" class="cls-1" transform="translate(0 -431.661)"/>
    <path id="Path_22274" d="M25.6 211.9a1.512 1.512 0 0 0 .682.394 1.255 1.255 0 0 0 .787-.4 2.378 2.378 0 0 1 1.461-.7 2.379 2.379 0 0 1 1.462.7 1.4 1.4 0 0 0 .734.4 1.4 1.4 0 0 0 .736-.4 2.378 2.378 0 0 1 1.461-.7 2.379 2.379 0 0 1 1.462.7 1.4 1.4 0 0 0 .734.4 1.4 1.4 0 0 0 .736-.4 2.378 2.378 0 0 1 1.461-.7 2.379 2.379 0 0 1 1.462.7 1.388 1.388 0 0 0 .734.4 1.387 1.387 0 0 0 .736-.4 2.923 2.923 0 0 1 .6-.449v-.9A1.546 1.546 0 0 0 39.31 209H26.544A1.546 1.546 0 0 0 25 210.543v.9a2.926 2.926 0 0 1 .6.457z" class="cls-1" transform="translate(-24.142 -201.827)"/>
    <path id="Path_22275" d="M212.226 122.989v-1.476a.515.515 0 0 0-.515-.515h-2.2a.515.515 0 0 0-.515.515v1.476z" class="cls-1" transform="translate(-201.828 -116.847)"/>
    <path id="Path_22276" d="M40.852 306.911v-3.4a3.052 3.052 0 0 1-.284.216 1.679 1.679 0 0 1-2.063.029 2.948 2.948 0 0 1-.453-.359 1.4 1.4 0 0 0-.734-.4 1.4 1.4 0 0 0-.736.4 2.378 2.378 0 0 1-1.461.7 2.379 2.379 0 0 1-1.462-.7 1.4 1.4 0 0 0-.734-.4 1.4 1.4 0 0 0-.736.4 2.378 2.378 0 0 1-1.461.7 2.379 2.379 0 0 1-1.462-.7 1.4 1.4 0 0 0-.734-.4 1.4 1.4 0 0 0-.736.4 2.941 2.941 0 0 1-.458.362 1.679 1.679 0 0 1-2.06-.036 3.058 3.058 0 0 1-.281-.214v3.4h15.855z" class="cls-1" transform="translate(-24.14 -292.602)"/>
</svg>
