<svg xmlns="http://www.w3.org/2000/svg" width="15.147" height="17.24" viewBox="0 0 15.147 17.24">
    <path fill="#565bdb" d="M46.562 4.707a4.344 4.344 0 0 1-2.625-.877A4.345 4.345 0 0 1 42.2.39h-2.813V12.295a2.552 2.552 0 1 1-1.75-2.418V7.019a5.539 5.539 0 0 0-.812-.06 5.4 5.4 0 0 0-4.056 1.814A5.29 5.29 0 0 0 33 16.068a5.491 5.491 0 0 0 .509.444 5.4 5.4 0 0 0 3.309 1.119 5.539 5.539 0 0 0 .812-.06 5.38 5.38 0 0 0 3.006-1.5 5.27 5.27 0 0 0 1.581-3.751l-.014-6.292a7.133 7.133 0 0 0 4.367 1.481v-2.8h-.008z" transform="translate(-31.423 -.39)"/>
</svg>
