<svg xmlns="http://www.w3.org/2000/svg" id="WebIcon" width="15.98" height="16.033" viewBox="0 0 15.98 16.033">
    <defs>
        <style>
            .cls-1{fill:#565bdb}
        </style>
    </defs>
    <path id="Path_22179" d="M158.61 272h-6.184a.157.157 0 0 0-.157.16c.019.725.068 1.417.142 2.072a.156.156 0 0 0 .194.134 11.881 11.881 0 0 1 5.825 0 .156.156 0 0 0 .194-.134c.075-.655.124-1.347.143-2.072a.157.157 0 0 0-.157-.16z" class="cls-1" transform="translate(-147.528 -263.482)"/>
    <path id="Path_22180" d="M158.624 164.409a.156.156 0 0 0-.194-.134 11.881 11.881 0 0 1-5.825 0 .156.156 0 0 0-.194.134c-.075.655-.124 1.347-.143 2.072a.157.157 0 0 0 .157.16h6.184a.157.157 0 0 0 .157-.16c-.018-.725-.066-1.417-.142-2.072z" class="cls-1" transform="translate(-147.528 -159.127)"/>
    <path id="Path_22181" d="M168.75 3.962a12.515 12.515 0 0 0-1.207-3.725.156.156 0 0 0-.106-.077 8.114 8.114 0 0 0-3.2 0 .156.156 0 0 0-.106.077 12.515 12.515 0 0 0-1.207 3.726.156.156 0 0 0 .113.178 10.752 10.752 0 0 0 2.8.369 10.751 10.751 0 0 0 2.8-.369.156.156 0 0 0 .113-.179z" class="cls-1" transform="translate(-157.847)"/>
    <path id="Path_22182" d="M355.572 22.583a.157.157 0 0 0-.21.2v.007a15.621 15.621 0 0 1 .738 2.665.157.157 0 0 0 .214.115 10.754 10.754 0 0 0 1.757-.919.157.157 0 0 0 .03-.239q-.1-.1-.195-.2a8.015 8.015 0 0 0-2.334-1.629z" class="cls-1" transform="translate(-344.249 -21.863)"/>
    <path id="Path_22183" d="M386.276 117.086h3.424a.157.157 0 0 0 .156-.17 7.94 7.94 0 0 0-1.288-3.733.157.157 0 0 0-.218-.044 11.736 11.736 0 0 1-1.9 1.018q-.205.087-.413.165a.157.157 0 0 0-.1.166c.1.786.16 1.606.181 2.445a.157.157 0 0 0 .158.153z" class="cls-1" transform="translate(-373.878 -109.572)"/>
    <path id="Path_22184" d="M162.925 368.547a12.516 12.516 0 0 0 1.207 3.726.156.156 0 0 0 .106.077 8.114 8.114 0 0 0 3.2 0 .156.156 0 0 0 .106-.077 12.514 12.514 0 0 0 1.207-3.726.156.156 0 0 0-.112-.178 10.8 10.8 0 0 0-5.6 0 .156.156 0 0 0-.114.178z" class="cls-1" transform="translate(-157.847 -356.477)"/>
    <path id="Path_22185" d="M4.287 274.931q.205-.087.413-.165a.157.157 0 0 0 .1-.166c-.1-.786-.16-1.606-.181-2.445a.157.157 0 0 0-.156-.155H1.037a.157.157 0 0 0-.156.17 7.94 7.94 0 0 0 1.288 3.73.157.157 0 0 0 .218.044 11.728 11.728 0 0 1 1.9-1.013z" class="cls-1" transform="translate(-.881 -263.482)"/>
    <path id="Path_22186" d="M358.074 394.142a10.754 10.754 0 0 0-1.758-.919.157.157 0 0 0-.214.115 15.609 15.609 0 0 1-.738 2.665v.007a.157.157 0 0 0 .21.2 8.016 8.016 0 0 0 2.337-1.627q.1-.1.195-.2a.157.157 0 0 0-.032-.241z" class="cls-1" transform="translate(-344.25 -380.896)"/>
    <path id="Path_22187" d="M386.119 272.152c-.021.839-.082 1.659-.181 2.445a.157.157 0 0 0 .1.166q.208.079.413.165a11.744 11.744 0 0 1 1.9 1.018.157.157 0 0 0 .218-.044 7.94 7.94 0 0 0 1.288-3.733.157.157 0 0 0-.156-.17h-3.426a.157.157 0 0 0-.156.153z" class="cls-1" transform="translate(-373.878 -263.48)"/>
    <path id="Path_22188" d="M67.493 24.65a10.755 10.755 0 0 0 1.758.919.157.157 0 0 0 .214-.115 15.612 15.612 0 0 1 .738-2.665v-.007a.157.157 0 0 0-.21-.2 8.017 8.017 0 0 0-2.337 1.627q-.1.1-.195.2a.157.157 0 0 0 .03.239z" class="cls-1" transform="translate(-65.337 -21.861)"/>
    <path id="Path_22189" d="M4.616 117.086a24.721 24.721 0 0 1 .184-2.6.157.157 0 0 0-.1-.166q-.208-.079-.413-.165a11.741 11.741 0 0 1-1.9-1.018.157.157 0 0 0-.218.044 7.94 7.94 0 0 0-1.288 3.733.157.157 0 0 0 .156.17z" class="cls-1" transform="translate(-.881 -109.572)"/>
    <path id="Path_22190" d="M70 396.209a.157.157 0 0 0 .21-.2v-.007a15.617 15.617 0 0 1-.738-2.665.157.157 0 0 0-.214-.115 10.754 10.754 0 0 0-1.757.919.157.157 0 0 0-.03.239q.1.1.195.2A8.014 8.014 0 0 0 70 396.209z" class="cls-1" transform="translate(-65.337 -380.896)"/>
</svg>
