<svg width="24" height="19" viewBox="0 0 24 19" fill="none" xmlns="http://www.w3.org/2000/svg">
<path d="M15.8379 0.438477C16.0161 0.438477 16.1943 0.438477 16.3725 0.438477C16.5016 0.453486 16.6313 0.465232 16.7598 0.484156C17.8009 0.636857 18.6985 1.07669 19.4389 1.82518C19.4939 1.88065 19.545 1.89892 19.6243 1.88261C20.5907 1.67835 21.5027 1.3338 22.3604 0.844373C22.3899 0.827406 22.4266 0.788252 22.4528 0.808482C22.4882 0.835237 22.4449 0.875696 22.4403 0.910935C22.4397 0.916808 22.4357 0.922681 22.4338 0.928554C22.0787 1.88195 21.4831 2.64807 20.6385 3.22037C20.5894 3.25365 20.5396 3.28497 20.4898 3.31695C21.3868 3.22559 22.2418 2.9874 23.0693 2.6324C23.0785 2.68853 23.0477 2.71202 23.0293 2.73877C22.7221 3.18774 22.3741 3.60342 21.9928 3.99105C21.6449 4.34474 21.2708 4.66906 20.8692 4.96141C20.8174 4.99926 20.7833 5.03842 20.7879 5.10955C20.8266 5.67989 20.7951 6.24958 20.7414 6.81731C20.6477 7.81182 20.442 8.78415 20.1242 9.73102C19.3347 12.0861 18.0361 14.1097 16.1498 15.7477C15.0824 16.675 13.8893 17.3993 12.5717 17.9162C10.7752 18.6209 8.9085 18.9054 6.98156 18.8265C6.17829 18.7939 5.38484 18.6927 4.60057 18.5165C3.13423 18.1876 1.76487 17.6232 0.489849 16.8309C0.464951 16.8153 0.430226 16.8068 0.422363 16.7611C2.94422 17.0104 5.21383 16.3768 7.22988 14.8504C7.20629 14.8347 7.18533 14.8308 7.16371 14.8295C6.69655 14.8067 6.24053 14.7232 5.80155 14.5633C4.63922 14.1391 3.76977 13.3808 3.19779 12.2858C3.09754 12.0946 3.0163 11.8949 2.94357 11.692C2.92064 11.628 2.93178 11.6006 3.00385 11.615C3.02285 11.6189 3.04119 11.6209 3.06019 11.6241C3.65774 11.7174 4.252 11.6979 4.84168 11.5634C4.87641 11.5556 4.91572 11.5549 4.94455 11.5223C4.90917 11.4929 4.86985 11.4916 4.83316 11.4825C3.83595 11.2313 3.00254 10.717 2.34734 9.92679C1.65348 9.0902 1.30819 8.12179 1.27412 7.04049C1.27019 6.92564 1.28985 6.91324 1.38944 6.96479C1.91753 7.23887 2.47838 7.40527 3.07068 7.46531C3.15847 7.47445 3.24889 7.49533 3.3439 7.47836C3.32489 7.43268 3.28951 7.42028 3.262 7.40005C2.86298 7.11553 2.51572 6.77751 2.22809 6.38205C1.605 5.52458 1.30033 4.56726 1.32326 3.50619C1.33964 2.75965 1.53096 2.06141 1.88477 1.40493C1.94963 1.2842 1.95618 1.28355 2.04333 1.39057C2.30606 1.71294 2.58976 2.01769 2.88526 2.31004C3.58501 3.00502 4.3529 3.61321 5.18894 4.13592C6.52358 4.9699 7.96239 5.54611 9.50211 5.8724C10.1219 6.00356 10.749 6.08774 11.3819 6.1269C11.564 6.13799 11.5627 6.14517 11.5273 5.96114C11.4284 5.44953 11.414 4.93531 11.4933 4.42044C11.6721 3.26539 12.2061 2.30351 13.0972 1.54327C13.7144 1.01665 14.4266 0.682536 15.224 0.52592C15.4284 0.486114 15.6348 0.47241 15.8379 0.438477Z" fill="white"/>
</svg>
