<svg width="26" height="18" viewBox="0 0 26 18" fill="none" xmlns="http://www.w3.org/2000/svg">
<path d="M12 9.41699C12.4142 9.41699 12.75 9.08121 12.75 8.66699C12.75 8.25278 12.4142 7.91699 12 7.91699V9.41699ZM0.46967 8.13666C0.176777 8.42956 0.176777 8.90443 0.46967 9.19732L5.24264 13.9703C5.53553 14.2632 6.01041 14.2632 6.3033 13.9703C6.59619 13.6774 6.59619 13.2025 6.3033 12.9096L2.06066 8.66699L6.3033 4.42435C6.59619 4.13146 6.59619 3.65658 6.3033 3.36369C6.01041 3.0708 5.53553 3.0708 5.24264 3.36369L0.46967 8.13666ZM12 7.91699H1V9.41699H12V7.91699Z" fill="#C4C4C4"/>
<path fill-rule="evenodd" clip-rule="evenodd" d="M13.667 2H21.0003C22.6572 2 24.0003 3.34315 24.0003 5V12.3333C24.0003 13.9902 22.6572 15.3333 21.0003 15.3333H13.667C12.0101 15.3333 10.667 13.9902 10.667 12.3333V11.3333H8.66699V12.3333C8.66699 15.0948 10.9056 17.3333 13.667 17.3333H21.0003C23.7617 17.3333 26.0003 15.0948 26.0003 12.3333V5C26.0003 2.23858 23.7618 0 21.0003 0H13.667C10.9056 0 8.66699 2.23858 8.66699 5V6H10.667V5C10.667 3.34315 12.0101 2 13.667 2Z" fill="#C4C4C4"/>
</svg>
