<svg width="18" height="18" viewBox="0 0 18 18" fill="none" xmlns="http://www.w3.org/2000/svg">
<path d="M9.75 6C9.75 5.58579 9.41421 5.25 9 5.25C8.58579 5.25 8.25 5.58579 8.25 6L9.75 6ZM8.46967 17.5303C8.76256 17.8232 9.23744 17.8232 9.53033 17.5303L14.3033 12.7574C14.5962 12.4645 14.5962 11.9896 14.3033 11.6967C14.0104 11.4038 13.5355 11.4038 13.2426 11.6967L9 15.9393L4.75736 11.6967C4.46447 11.4038 3.98959 11.4038 3.6967 11.6967C3.40381 11.9896 3.40381 12.4645 3.6967 12.7574L8.46967 17.5303ZM8.25 6L8.25 17L9.75 17L9.75 6L8.25 6Z" fill="white"/>
<path d="M1 1L17 1" stroke="white" stroke-width="2" stroke-linecap="square"/>
</svg>
