<svg xmlns="http://www.w3.org/2000/svg" id="Component_1097_15" width="30.444" height="30.444" viewBox="0 0 30.444 30.444">
    <defs>
        <style>
            .cls-1{fill:#fff}
        </style>
    </defs>
    <path id="Path_21952" d="M11.509 0a7.237 7.237 0 0 0-5.151 2.134L.686 7.807A9.447 9.447 0 0 1 2 7.681a9.5 9.5 0 0 1 3.52.678l3.529-3.534a3.479 3.479 0 1 1 4.92 4.92l-6.36 6.361a3.564 3.564 0 0 1-4.92 0L0 18.8a7.284 7.284 0 0 0 10.3 0l6.36-6.361A7.284 7.284 0 0 0 11.509 0z" class="cls-1" transform="translate(11.65)"/>
    <path id="Path_21953" d="M13.245 12.535l-3.5 3.5a3.479 3.479 0 1 1-4.92-4.92l6.36-6.361a3.564 3.564 0 0 1 4.92 0l2.689-2.692a7.46 7.46 0 0 0-10.3 0l-6.36 6.362a7.284 7.284 0 1 0 10.3 10.3l5.6-5.6a9.219 9.219 0 0 1-1.235.121 9.169 9.169 0 0 1-3.554-.71z" class="cls-1" transform="translate(0 9.584)"/>
</svg>
