<svg xmlns="http://www.w3.org/2000/svg" id="prefix__trashcan" width="21.146" height="21.146" viewBox="0 0 21.146 21.146">
    <path id="prefix__trashcan-2" d="M13.877 18.5a.66.66 0 0 0 .661-.661V8.59a.661.661 0 0 0-1.322 0v9.251a.66.66 0 0 0 .661.659zm-6.608 0a.661.661 0 0 0 .661-.661V8.59a.661.661 0 0 0-1.322 0v9.251a.661.661 0 0 0 .661.659zM19.163 3.965H16.52V2.643A2.643 2.643 0 0 0 13.877 0H7.269a2.643 2.643 0 0 0-2.643 2.643v1.322H1.982L0 5.947a.661.661 0 0 0 .661.661h1.982v13.216a1.322 1.322 0 0 0 1.322 1.322h13.216a1.322 1.322 0 0 0 1.319-1.322V6.608h1.982a.66.66 0 0 0 .661-.661zM6.608 2.643A1.322 1.322 0 0 1 7.93 1.322h5.286a1.322 1.322 0 0 1 1.322 1.322v1.321h-7.93zm10.573 16.52a.66.66 0 0 1-.661.661H4.626a.661.661 0 0 1-.661-.661V6.608h13.216zm-6.608-.663a.66.66 0 0 0 .661-.661V8.59a.661.661 0 1 0-1.322 0v9.251a.66.66 0 0 0 .661.659z" data-name="trashcan" style="fill:#f55555"/>
</svg>
