<svg xmlns="http://www.w3.org/2000/svg" id="prefix__Component_762_2" width="57.403" height="57.172" data-name="Component 762 – 2" viewBox="0 0 57.403 57.172">
    <defs>
        <style>
            .prefix__cls-1{fill:#565bdb}
        </style>
    </defs>
    <path id="prefix__Path_2161" d="M6655.429-3790.588a28.7 28.7 0 0 0-22.827-25.821 28.915 28.915 0 0 0-5.822-.591 28.615 28.615 0 0 0-20.047 8.172 28.459 28.459 0 0 0-8.623 20.413v7.933a4.708 4.708 0 0 0 4.764 4.755 4.709 4.709 0 0 0 4.763-4.755v-7.933a19.162 19.162 0 0 1 19.175-19.108 19.163 19.163 0 0 1 19.176 19.108v7.933a4.707 4.707 0 0 0 4.761 4.755 4.709 4.709 0 0 0 4.764-4.755v-7.933q0-1.096-.084-2.173z" class="prefix__cls-1" data-name="Path 2161" transform="translate(-6598.11 3817)"/>
    <path id="prefix__Path_2162" d="M6651.343-3679.356a11.139 11.139 0 0 1-10.852-8.7 11.135 11.135 0 0 1-.274-2.448v-7.934a12.748 12.748 0 0 0-12.742-12.687 12.749 12.749 0 0 0-12.742 12.687v7.934a11.124 11.124 0 0 1-11.1 11.144 4.689 4.689 0 0 0-4.738 4.754 4.688 4.688 0 0 0 4.734 4.756 20.661 20.661 0 0 0 20.634-20.653v-7.934a3.181 3.181 0 0 1 3.216-3.209 3.181 3.181 0 0 1 3.217 3.209v7.934a20.514 20.514 0 0 0 4.426 12.74 20.659 20.659 0 0 0 16.251 7.913 4.721 4.721 0 0 0 4.773-4.756 4.709 4.709 0 0 0-4.803-4.75z" class="prefix__cls-1" data-name="Path 2162" transform="translate(-6598.776 3727.019)"/>
</svg>
