<svg width="100%" height="100%" viewBox="0 0 167 111" fill="none" xmlns="http://www.w3.org/2000/svg">
<path d="M109.892 87.9752C109.903 94.4537 111.219 100.549 113.882 105.389C110.272 104.336 106.813 102.774 103.611 100.735L101.363 99.3035L99.1758 100.828C95.0218 103.722 90.0791 105.272 85.0161 105.266L85.0058 105.266L29.1116 105.35L29.1056 105.35L29.0704 105.35C22.4422 105.344 16.0868 102.711 11.3959 98.0279C6.70564 93.3456 4.06173 86.9955 4.04303 80.3682C4.04303 80.3674 4.04303 80.3666 4.04302 80.3658L4 51.0751C4 51.0743 4 51.0735 4 51.0727C3.99828 44.4378 6.62819 38.0732 11.313 33.3746C15.998 28.6759 22.3554 26.0272 28.9906 26.0098C28.9912 26.0098 28.9917 26.0097 28.9923 26.0097L84.8833 25.9238H84.8864H84.9285C91.5565 25.9323 97.9112 28.5665 102.602 33.2499C107.292 37.9337 109.936 44.2854 109.954 50.9142L109.997 80.2096L109.997 80.217C109.999 80.9429 109.967 81.6951 109.899 82.4512L109.883 82.6321L109.883 82.8136L109.892 87.9744C109.892 87.9747 109.892 87.9749 109.892 87.9752Z" stroke="currentColor" stroke-width="8"/>
<path d="M151.708 65.8752C151.708 72.1918 152.947 78.1441 155.455 82.9419C152.005 81.883 148.699 80.3527 145.634 78.3808L143.377 76.9282L141.177 78.4664C137.027 81.3687 132.084 82.9232 127.02 82.9193H127.017H71.1197C64.5409 82.9109 58.234 80.2936 53.5823 75.6413C48.9311 70.9896 46.3146 64.6832 46.3064 58.1051V28.8138C46.3136 22.2355 48.9298 15.9286 53.5811 11.2768C58.2324 6.62501 64.5388 4.00807 71.117 4H127.014C133.591 4.00905 139.897 6.62637 144.547 11.278C149.198 15.9302 151.814 22.2374 151.821 28.8158V58.1075C151.821 58.8582 151.788 59.6069 151.723 60.3361L151.708 60.5124V60.6894V65.8752Z" stroke="currentColor" stroke-width="8"/>
<path d="M109.669 82.9175L71.1179 82.9175C71.1168 82.9175 71.1157 82.9175 71.1146 82.9175C64.5374 82.9094 58.2318 80.2933 53.581 75.6426C48.9299 70.9917 46.3132 64.6854 46.3052 58.1078V28.8158C46.3058 27.9426 46.3525 27.0707 46.4451 26.2039L71.4547 26.1652L71.455 26.1652L84.8881 26.1431C84.889 26.1431 84.8898 26.1431 84.8907 26.1431C91.4687 26.1414 97.7787 28.7487 102.437 33.3932C107.095 38.0382 109.721 44.3413 109.739 50.9198C109.739 50.9202 109.739 50.9205 109.739 50.9208L109.781 80.2064C109.781 80.2066 109.781 80.2068 109.781 80.207C109.781 80.9707 109.749 81.7128 109.684 82.4416L109.668 82.6214L109.668 82.802L109.669 82.9175Z" stroke="currentColor" stroke-width="8"/>
</svg>
