<svg xmlns="http://www.w3.org/2000/svg" width="338.853" height="333.189" data-name="MAIN LOGO" viewBox="0 0 338.853 333.189">
    <path d="M83.061 311.48a159.561 159.561 0 0 1-60.879-59.7Q-.007 213.796 0 166.595T22.182 81.41a159.656 159.656 0 0 1 60.879-59.7Q121.752.01 169.427 0t86.364 21.71a159.761 159.761 0 0 1 60.88 59.7q22.177 38 22.181 85.185t-22.18 85.18a159.665 159.665 0 0 1-60.88 59.7q-38.7 21.712-86.364 21.709T83.061 311.48zm167.774-7.788a150.883 150.883 0 0 0 57.577-56.632q20.993-36.1 21-80.466t-21-80.466a150.881 150.881 0 0 0-57.577-56.632q-36.579-20.53-81.409-20.53t-81.41 20.53A150.766 150.766 0 0 0 30.44 86.128q-21.005 36.1-21 80.466t21 80.466a150.769 150.769 0 0 0 57.576 56.632q36.567 20.529 81.41 20.529t81.41-20.528z" data-name="Path 638"/>
    <path d="M172.44 230.452l34.589-19.969 34.588-20.088-34.588-19.97-34.589 19.97-34.588-19.97-34.587 19.97 34.587 20.088z" data-name="Path 639"/>
    <path d="M172.44 176.247l34.589-19.97 34.588-20.089-34.588-19.969-34.589 19.969-34.589-19.969-34.587 19.969 34.587 20.089z" data-name="Path 640"/>
</svg>
