<svg xmlns="http://www.w3.org/2000/svg" width="23.664" height="20.919" viewBox="0 0 23.664 20.919"><defs><style>.a{fill:#fff;fill-rule:evenodd;}</style></defs><path class="a" d="M9.2,4.46A11.832,11.832,0,0,1,25.464,15.431a1.315,1.315,0,1,1-2.629,0A9.2,9.2,0,0,0,10.181,6.9,1.315,1.315,0,1,1,9.2,4.46ZM6.615,7.489A1.315,1.315,0,0,1,6.73,9.344a9.163,9.163,0,0,0-2.3,6.087,1.315,1.315,0,1,1-2.629,0A11.793,11.793,0,0,1,4.758,7.605,1.315,1.315,0,0,1,6.615,7.49Z" transform="translate(-1.8 -3.597)"/><path class="a" d="M8.57,17.373a6.573,6.573,0,0,1,13.147,0,1.315,1.315,0,0,1-2.629,0,3.944,3.944,0,1,0-7.888,0A15.743,15.743,0,0,1,9.927,23.59,1.315,1.315,0,1,1,7.51,22.553a13.1,13.1,0,0,0,1.059-5.18ZM20.3,20.019a1.315,1.315,0,0,1,1.093,1.505,26.109,26.109,0,0,1-.717,3.2,1.315,1.315,0,1,1-2.524-.733,23.618,23.618,0,0,0,.644-2.882,1.315,1.315,0,0,1,1.5-1.091Z" transform="translate(-3.311 -5.539)"/><path class="a" d="M16.928,18a1.315,1.315,0,0,1,1.315,1.315,20.987,20.987,0,0,1-1.7,8.288,1.315,1.315,0,1,1-2.416-1.037,18.343,18.343,0,0,0,1.483-7.251A1.315,1.315,0,0,1,16.928,18Z" transform="translate(-5.096 -7.48)"/></svg>