<svg width="20" height="20" viewBox="0 0 20 20" fill="none" xmlns="http://www.w3.org/2000/svg">
<g id="Iconly/Light/Add User">
<g id="Add User">
<path id="Stroke 1" fill-rule="evenodd" clip-rule="evenodd" d="M7.5 13.3333C4.80321 13.3333 2.5 13.7478 2.5 15.4091C2.5 17.0703 4.78918 17.4999 7.5 17.4999C10.1975 17.4999 12.5 17.0846 12.5 15.4241C12.5 13.7635 10.2115 13.3333 7.5 13.3333Z" stroke="#000000" stroke-width="1.5" stroke-linecap="round" stroke-linejoin="round"/>
<path id="Stroke 3" fill-rule="evenodd" clip-rule="evenodd" d="M7.49997 10.8332C9.34124 10.8332 10.8337 9.34097 10.8337 7.4999C10.8337 5.65883 9.34124 4.16656 7.49997 4.16656C5.65944 4.16656 4.16701 5.65883 4.16701 7.4999C4.16045 9.3344 5.64192 10.8267 7.47735 10.8332H7.49997Z" stroke="#000000" stroke-width="1.5" stroke-linecap="round" stroke-linejoin="round"/>
<path id="settings-solid" d="M19.9073 3.17957L19.0687 2.9297C19.0108 2.72753 18.9311 2.53223 18.831 2.3472L19.2415 1.58034C19.2569 1.55138 19.2625 1.51824 19.2576 1.48584C19.2526 1.45343 19.2373 1.42348 19.214 1.40044L18.6157 0.79877C18.5926 0.775452 18.5626 0.760186 18.5302 0.755235C18.4977 0.750285 18.4645 0.755916 18.4355 0.771291L17.6721 1.17965C17.4851 1.07486 17.287 0.991064 17.0815 0.929776L16.8313 0.102519C16.8207 0.0719826 16.8007 0.0455914 16.7741 0.0271555C16.7475 0.00871959 16.7158 -0.000807267 16.6835 -4.96228e-05H15.8375C15.805 6.50494e-05 15.7734 0.0105409 15.7472 0.029852C15.7211 0.049163 15.7018 0.0763006 15.6922 0.107312L15.442 0.932333C15.2348 0.99329 15.0349 1.0771 14.8463 1.1822L14.0953 0.777362C14.0663 0.761987 14.0331 0.756356 14.0007 0.761306C13.9682 0.766257 13.9382 0.781523 13.9152 0.804841L13.3079 1.39725C13.2845 1.42029 13.2693 1.45024 13.2643 1.48264C13.2593 1.51505 13.265 1.54819 13.2804 1.57714L13.6858 2.32707C13.5808 2.51471 13.497 2.71339 13.4359 2.91948L12.6075 3.16935C12.5765 3.17894 12.5493 3.19819 12.5299 3.22428C12.5106 3.25037 12.5001 3.28195 12.5 3.31441V4.15924C12.5001 4.19171 12.5106 4.22328 12.5299 4.24938C12.5493 4.27547 12.5765 4.29472 12.6075 4.30431L13.441 4.55418C13.5029 4.75688 13.5868 4.95221 13.6912 5.13668L13.2794 5.92176C13.2638 5.95095 13.2582 5.98442 13.2633 6.0171C13.2685 6.04979 13.2841 6.07991 13.3079 6.10293L13.9062 6.70045C13.9293 6.72377 13.9593 6.73903 13.9917 6.74398C14.0242 6.74893 14.0574 6.7433 14.0864 6.72793L14.8597 6.31542C15.0427 6.41399 15.2358 6.49272 15.4356 6.55027L15.6858 7.39255C15.6954 7.42356 15.7147 7.4507 15.7408 7.47001C15.767 7.48932 15.7986 7.49979 15.8311 7.49991H16.6771C16.7096 7.49979 16.7412 7.48932 16.7673 7.47001C16.7934 7.4507 16.8127 7.42356 16.8223 7.39255L17.0725 6.54772C17.2706 6.48985 17.4619 6.41113 17.6433 6.31286L18.4218 6.72825C18.4508 6.74362 18.484 6.74925 18.5164 6.7443C18.5489 6.73935 18.5788 6.72409 18.6019 6.70077L19.2002 6.10325C19.2238 6.08002 19.2392 6.04974 19.2441 6.017C19.2489 5.98425 19.243 5.95082 19.2271 5.92176L18.8112 5.14691C18.9106 4.96515 18.9903 4.7733 19.0489 4.57463L19.8923 4.32476C19.9234 4.31516 19.9505 4.29592 19.9699 4.26983C19.9892 4.24373 19.9997 4.21216 19.9998 4.17969V3.32687C20.0013 3.29578 19.9933 3.26497 19.9768 3.23858C19.9602 3.21219 19.936 3.19148 19.9073 3.17925V3.17957ZM16.2598 5.12422C15.9877 5.12422 15.7217 5.04364 15.4955 4.89266C15.2692 4.74169 15.0929 4.5271 14.9887 4.27604C14.8846 4.02498 14.8574 3.74872 14.9104 3.4822C14.9635 3.21568 15.0946 2.97086 15.287 2.77871C15.4794 2.58655 15.7245 2.45569 15.9914 2.40268C16.2583 2.34966 16.5349 2.37687 16.7863 2.48087C17.0377 2.58486 17.2526 2.76096 17.4038 2.98691C17.555 3.21286 17.6356 3.4785 17.6356 3.75025C17.6356 4.11465 17.4907 4.46412 17.2327 4.72179C16.9747 4.97946 16.6247 5.12422 16.2598 5.12422Z" fill="#000000"/>
</g>
</g>
</svg>
