<svg width="25" height="23" viewBox="0 0 25 23" fill="none" xmlns="http://www.w3.org/2000/svg">
<path d="M8.75034 1.21832H2.86334C2.42086 1.21885 1.99666 1.3947 1.68378 1.70758C1.37089 2.02046 1.19487 2.44478 1.19434 2.88727V5.93317C1.19434 6.15277 1.28158 6.36334 1.43686 6.51862C1.59214 6.6739 1.80274 6.76129 2.02234 6.76129C2.24194 6.76129 2.45254 6.6739 2.60782 6.51862C2.7631 6.36334 2.85034 6.15277 2.85034 5.93317V2.88727L2.85101 2.8819L2.85373 2.87701L2.85806 2.8736L2.86334 2.87213H8.75034C8.96967 2.87213 9.18002 2.78504 9.33511 2.62994C9.49021 2.47485 9.57733 2.26481 9.57733 2.04547C9.57733 1.82614 9.49021 1.6156 9.33511 1.46051C9.18002 1.30542 8.96967 1.21832 8.75034 1.21832Z" fill="black" stroke="black"/>
<path d="M16.0026 22.2523H21.8896C22.3321 22.2518 22.7563 22.0758 23.0692 21.7629C23.3821 21.45 23.5581 21.0258 23.5586 20.5833V17.5373C23.5586 17.3177 23.4714 17.1071 23.3161 16.9518C23.1608 16.7965 22.9502 16.7093 22.7306 16.7093C22.511 16.7093 22.3004 16.7965 22.1451 16.9518C21.9898 17.1071 21.9026 17.3177 21.9026 17.5373V20.5833C21.9026 20.5869 21.9013 20.5903 21.8989 20.5929C21.8964 20.5955 21.8931 20.5971 21.8896 20.5973H16.0026C15.8915 20.5934 15.7808 20.612 15.677 20.6518C15.5732 20.6917 15.4786 20.752 15.3986 20.8292C15.3186 20.9065 15.2551 20.999 15.2116 21.1013C15.1682 21.2036 15.1458 21.3137 15.1458 21.4248C15.1458 21.536 15.1682 21.646 15.2116 21.7483C15.2551 21.8506 15.3186 21.9432 15.3986 22.0204C15.4786 22.0976 15.5732 22.1579 15.677 22.1978C15.7808 22.2376 15.8915 22.2562 16.0026 22.2523Z" fill="black" stroke="black"/>
<path fill-rule="evenodd" clip-rule="evenodd" d="M5.19336 12.2173C5.19336 11.665 5.64107 11.2173 6.19336 11.2173H19.1934C19.7456 11.2173 20.1934 11.665 20.1934 12.2173C20.1934 12.7696 19.7456 13.2173 19.1934 13.2173H6.19336C5.64107 13.2173 5.19336 12.7696 5.19336 12.2173Z" fill="black"/>
<path d="M21.8903 1.21732H16.0013C15.7817 1.21732 15.5711 1.30471 15.4158 1.45999C15.2606 1.61527 15.1733 1.82584 15.1733 2.04544C15.1733 2.26504 15.2606 2.47561 15.4158 2.63089C15.5711 2.78617 15.7817 2.87308 16.0013 2.87308H21.8903C21.8937 2.87331 21.8968 2.87508 21.8992 2.87747C21.9016 2.87986 21.9031 2.88289 21.9033 2.88626V5.93314C21.9033 6.04187 21.9248 6.14957 21.9664 6.25003C22.008 6.35049 22.0689 6.4417 22.1458 6.51859C22.2227 6.59547 22.314 6.65666 22.4144 6.69827C22.5149 6.73988 22.6226 6.76126 22.7313 6.76126C22.8401 6.76126 22.9477 6.73988 23.0482 6.69827C23.1486 6.65666 23.2399 6.59547 23.3168 6.51859C23.3937 6.4417 23.4547 6.35049 23.4963 6.25003C23.5379 6.14957 23.5593 6.04187 23.5593 5.93314V2.88626C23.5585 2.44386 23.3824 2.01989 23.0696 1.70706C22.7568 1.39424 22.3327 1.21811 21.8903 1.21732Z" fill="black" stroke="black"/>
<path d="M2.86214 22.2543H8.75114C8.86223 22.2582 8.97296 22.2396 9.07673 22.1998C9.1805 22.1599 9.27518 22.0996 9.35513 22.0224C9.43509 21.9452 9.49867 21.8526 9.5421 21.7503C9.58553 21.648 9.60791 21.538 9.60791 21.4268C9.60791 21.3157 9.58553 21.2056 9.5421 21.1033C9.49867 21.001 9.43509 20.9085 9.35513 20.8313C9.27518 20.754 9.1805 20.6937 9.07673 20.6539C8.97296 20.614 8.86223 20.5955 8.75114 20.5993H2.86214C2.85868 20.5989 2.85549 20.5972 2.85312 20.5947C2.85075 20.5921 2.84934 20.5888 2.84914 20.5853L2.84914 17.5373C2.84914 17.3177 2.7619 17.1071 2.60662 16.9518C2.45134 16.7966 2.24074 16.7093 2.02114 16.7093C1.80154 16.7093 1.59094 16.7966 1.43566 16.9518C1.28038 17.1071 1.19314 17.3177 1.19314 17.5373V20.5853C1.19393 21.0277 1.37003 21.4518 1.68285 21.7646C1.99568 22.0774 2.41974 22.2535 2.86214 22.2543Z" fill="black" stroke="black"/>
</svg>
