<svg width="24" height="24" viewBox="0 0 24 24" fill="none" xmlns="http://www.w3.org/2000/svg">
<path d="M23.7106 9.95113L21.0896 9.16913C20.9084 8.53642 20.6593 7.92519 20.3466 7.34613L21.6296 4.94613C21.6777 4.85552 21.6953 4.75181 21.6798 4.65039C21.6643 4.54897 21.6165 4.45525 21.5436 4.38313L19.6736 2.50013C19.6015 2.42716 19.5077 2.37938 19.4063 2.36388C19.3049 2.34839 19.2012 2.36601 19.1106 2.41413L16.7246 3.69213C16.14 3.3642 15.5209 3.10194 14.8786 2.91013L14.0966 0.321131C14.0635 0.225564 14.001 0.14297 13.9179 0.0852729C13.8349 0.0275755 13.7357 -0.00223991 13.6346 0.000131225H10.9906C10.889 0.000490105 10.7902 0.0332754 10.7085 0.0937117C10.6268 0.154148 10.5666 0.239078 10.5366 0.336131L9.75457 2.91813C9.10681 3.10891 8.4823 3.37119 7.89257 3.70013L5.54557 2.43313C5.45496 2.38501 5.35125 2.36739 5.24983 2.38288C5.14841 2.39838 5.05469 2.44616 4.98257 2.51913L3.08457 4.37313C3.0116 4.44525 2.96382 4.53897 2.94832 4.64039C2.93283 4.74181 2.95045 4.84552 2.99857 4.93613L4.26557 7.28313C3.93752 7.87037 3.67558 8.49217 3.48457 9.13713L0.895571 9.91913C0.798518 9.94916 0.713587 10.0094 0.653151 10.0911C0.592715 10.1727 0.559929 10.2715 0.55957 10.3731V13.0171C0.559929 13.1187 0.592715 13.2175 0.653151 13.2992C0.713587 13.3809 0.798518 13.4411 0.895571 13.4711L3.50057 14.2531C3.69395 14.8875 3.95618 15.4988 4.28257 16.0761L2.99557 18.5331C2.94686 18.6245 2.9292 18.7292 2.94525 18.8315C2.96131 18.9338 3.01021 19.0281 3.08457 19.1001L4.95457 20.9701C5.02669 21.0431 5.12041 21.0909 5.22183 21.1064C5.32325 21.1219 5.42696 21.1042 5.51757 21.0561L7.93457 19.7651C8.50665 20.0736 9.11008 20.32 9.73457 20.5001L10.5166 23.1361C10.5466 23.2332 10.6068 23.3181 10.6885 23.3786C10.7702 23.439 10.869 23.4718 10.9706 23.4721H13.6146C13.7162 23.4718 13.815 23.439 13.8966 23.3786C13.9783 23.3181 14.0385 23.2332 14.0686 23.1361L14.8506 20.4921C15.4696 20.311 16.0676 20.0647 16.6346 19.7571L19.0676 21.0571C19.1582 21.1052 19.2619 21.1229 19.3633 21.1074C19.4647 21.0919 19.5585 21.0441 19.6306 20.9711L21.5006 19.1011C21.5743 19.0284 21.6224 18.9337 21.6376 18.8312C21.6528 18.7287 21.6341 18.6241 21.5846 18.5331L20.2846 16.1081C20.5953 15.5393 20.8444 14.9389 21.0276 14.3171L23.6636 13.5351C23.7606 13.5051 23.8456 13.4449 23.906 13.3632C23.9664 13.2815 23.9992 13.1827 23.9996 13.0811V10.4121C24.0043 10.3148 23.9792 10.2184 23.9275 10.1358C23.8759 10.0532 23.8002 9.98841 23.7106 9.95013V9.95113ZM12.3106 16.0371C11.4601 16.0371 10.6287 15.7849 9.92162 15.3125C9.21449 14.84 8.66335 14.1684 8.33789 13.3827C8.01243 12.5969 7.92728 11.7324 8.09319 10.8982C8.25911 10.0641 8.66865 9.29794 9.27001 8.69657C9.87138 8.09521 10.6376 7.68567 11.4717 7.51975C12.3058 7.35384 13.1704 7.43899 13.9561 7.76445C14.7418 8.08991 15.4134 8.64105 15.8859 9.34818C16.3584 10.0553 16.6106 10.8867 16.6106 11.7371C16.6106 12.8776 16.1575 13.9713 15.3511 14.7777C14.5447 15.5841 13.451 16.0371 12.3106 16.0371Z" fill="black"/>
</svg>
