<svg xmlns="http://www.w3.org/2000/svg" width="25.999" height="20" viewBox="0 0 25.999 20">
    <g id="prefix__upload" transform="translate(.4 .4)">
        <path id="prefix__upload-2" d="M20.374 7.793C20.118 3.826 17.359 0 12.3 0a8.234 8.234 0 0 0-8.386 8.03A5.987 5.987 0 0 0 0 13.5a5.7 5.7 0 0 0 5.4 5.7h3.9a.3.3 0 0 0 0-.6H5.4a5.087 5.087 0 0 1-4.8-5.1c0-1.831 1.6-5.1 4.8-5.1h.9a.3.3 0 1 0 0-.6h-.9a5.037 5.037 0 0 0-.875.083A7.64 7.64 0 0 1 12.3.6c5.153 0 7.5 4.043 7.5 7.8v.9a.3.3 0 0 0 .6 0v-.906a5.165 5.165 0 0 1 4.2 5.106c0 2.3-2.215 5.1-4.8 5.1h-4.5c-1.943 0-2.7-.757-2.7-2.7V7.67l2.447 2.442a.3.3 0 1 0 .425-.424l-2.677-2.671a.592.592 0 0 0-.989 0L9.129 9.688a.3.3 0 0 0 .424.424L12 7.67v8.23c0 2.282 1.018 3.3 3.3 3.3h4.5c2.908 0 5.4-3.134 5.4-5.7a5.783 5.783 0 0 0-4.826-5.707z" data-name="upload" style="fill:#ffffff;stroke:#ffffff;stroke-width:.8px"/>
    </g>
</svg>
