<svg xmlns="http://www.w3.org/2000/svg" width="306.333" height="287.231" viewBox="0 0 306.333 287.231">
    <g>
        <path fill="#fff" stroke="rgba(0,0,0,0)" stroke-miterlimit="10" d="M-4528 11197.9c0-34.423 26.264-62.329 58.667-62.329a56.092 56.092 0 0 1 33.822 11.4l27.19-27.189a50.006 50.006 0 0 1-7.012-25.7c0-26.556 20.3-48.081 45.331-48.081s45.334 21.525 45.334 48.081-20.3 48.081-45.334 48.081a43.233 43.233 0 0 1-23.831-7.173l-27.33 27.33a64.755 64.755 0 0 1 10.5 35.584c0 34.423-26.267 62.329-58.667 62.329s-58.67-27.908-58.67-62.333zm-102-57.751c0-26.556 20.3-48.083 45.334-48.083a43.223 43.223 0 0 1 23.831 7.173l27.329-27.329a64.753 64.753 0 0 1-10.494-35.583c0-34.423 26.267-62.329 58.667-62.329s58.667 27.906 58.667 62.329-26.267 62.329-58.667 62.329a56.085 56.085 0 0 1-33.822-11.4l-27.19 27.189a50.006 50.006 0 0 1 7.011 25.7c0 26.553-20.3 48.081-45.331 48.081s-45.335-21.526-45.335-48.075z" transform="translate(.5 .5) translate(4630 -10974)"/>
    </g>
</svg>
