<svg xmlns="http://www.w3.org/2000/svg" width="25.229" height="18.481" viewBox="0 0 25.229 18.481">
    <g>
        <path fill="#000000" d="M16.572 15.16s-6.782 0-9.324 5.365a30.639 30.639 0 0 0 9.324 1.532 30.639 30.639 0 0 0 9.328-1.532c-2.547-5.365-9.328-5.365-9.328-5.365zm0-.765c2.543 0 4.238-2.3 4.238-6.132s-4.238-3.832-4.238-3.832-4.238 0-4.238 3.832 1.695 6.137 4.238 6.137zm-8.227-2.614a2.937 2.937 0 0 0 2.123-.878 10.015 10.015 0 0 1-.327-2.639 3.4 3.4 0 0 1 1.4-2.933C10.7 3.58 8.346 3.576 8.346 3.576s-3.491 0-3.491 3.156 1.4 5.049 3.491 5.049zm3.291 2.473l-.118-1.247a10.865 10.865 0 0 0-3.172-.6s-5.585 0-7.678 4.418a25.3 25.3 0 0 0 6.193 1.21 24.906 24.906 0 0 1 4.777-3.785z" transform="translate(-.667 -3.576)"/>
    </g>
</svg>
