<svg width="25" height="25" viewBox="0 0 25 25" fill="none" xmlns="http://www.w3.org/2000/svg">
<path d="M19.1998 2.50002H10.0898V14.79H22.3898V5.68002C22.3898 5.26157 22.3073 4.84724 22.1468 4.46077C21.9864 4.0743 21.7513 3.72329 21.4549 3.42787C21.1586 3.13245 20.8068 2.89842 20.4198 2.7392C20.0329 2.57998 19.6183 2.4987 19.1998 2.50002Z" fill="#7C7C7C"/>
<path d="M7.25 2.5H5.68C4.83661 2.5 4.02777 2.83503 3.4314 3.4314C2.83503 4.02777 2.5 4.83661 2.5 5.68L2.5 7.25H7.25V2.5Z" fill="#7C7C7C"/>
<path d="M2.5 10.0898H7.25V14.8398H2.5V10.0898Z" fill="#7C7C7C"/>
<path d="M17.6797 22.3902H19.2497C19.6681 22.3902 20.0825 22.3076 20.4689 22.1472C20.8554 21.9867 21.2064 21.7516 21.5018 21.4552C21.7973 21.1589 22.0313 20.8071 22.1905 20.4202C22.3497 20.0332 22.431 19.6186 22.4297 19.2002V17.6802H17.6797V22.3902Z" fill="#7C7C7C"/>
<path d="M10.0898 17.6802H14.8398V22.4302H10.0898V17.6802Z" fill="#7C7C7C"/>
<path d="M2.5 17.6802V19.2502C2.5 20.0936 2.83503 20.9024 3.4314 21.4988C4.02777 22.0951 4.83661 22.4302 5.68 22.4302H7.25V17.6802H2.5Z" fill="#7C7C7C"/>
</svg>
