<svg width="12" height="12" viewBox="0 0 12 12" fill="none" xmlns="http://www.w3.org/2000/svg">
<path d="M7.00962 10.8985C6.84979 10.69 6.76317 10.4347 6.76317 10.172C6.76317 9.9093 6.84979 9.65394 7.00962 9.44548L9.10262 6.87948H1.47062C1.2505 6.87948 1.03938 6.79204 0.883726 6.63638C0.728071 6.48073 0.640625 6.26961 0.640625 6.04948V5.96248C0.640625 5.74235 0.728071 5.53124 0.883726 5.37558C1.03938 5.21993 1.2505 5.13248 1.47062 5.13248H9.27063L7.10463 2.48248C6.95144 2.28223 6.86844 2.03711 6.86844 1.78498C6.86844 1.53285 6.95144 1.28774 7.10463 1.08748C7.17026 0.998574 7.25584 0.926315 7.3545 0.876519C7.45315 0.826723 7.56212 0.800781 7.67263 0.800781C7.78313 0.800781 7.8921 0.826723 7.99075 0.876519C8.08941 0.926315 8.17499 0.998574 8.24062 1.08748L11.2636 4.78748C11.4583 4.82004 11.6335 4.92464 11.7546 5.08048C11.9135 5.28935 11.9995 5.54455 11.9995 5.80698C11.9995 6.06941 11.9135 6.32461 11.7546 6.53348L11.7406 6.55048C11.7165 6.59107 11.6894 6.62984 11.6596 6.66648C11.629 6.70243 11.5956 6.73587 11.5596 6.76648L8.19663 10.8985C8.12826 10.9917 8.03891 11.0675 7.9358 11.1197C7.83269 11.172 7.71872 11.1992 7.60313 11.1992C7.48753 11.1992 7.37356 11.172 7.27045 11.1197C7.16734 11.0675 7.07799 10.9917 7.00962 10.8985Z" fill="#9D9D9D"/>
</svg>
