<svg xmlns="http://www.w3.org/2000/svg" width="22" height="22" data-name="Component 977 – 1" viewBox="0 0 22 22">
    <path d="M7.5 10h-5A2.5 2.5 0 0 1 0 7.5v-5A2.5 2.5 0 0 1 2.5 0h5A2.5 2.5 0 0 1 10 2.5v5A2.5 2.5 0 0 1 7.5 10zM3.6 2.205a1.4 1.4 0 0 0-1.4 1.4V6.4a1.4 1.4 0 0 0 1.4 1.4h2.8a1.4 1.4 0 0 0 1.4-1.4V3.6a1.4 1.4 0 0 0-1.4-1.4z" data-name="Subtraction 1"/>
    <path d="M19.5 10h-5A2.5 2.5 0 0 1 12 7.5v-5A2.5 2.5 0 0 1 14.5 0h5A2.5 2.5 0 0 1 22 2.5v5a2.5 2.5 0 0 1-2.5 2.5zm-3.9-7.795a1.4 1.4 0 0 0-1.4 1.4V6.4a1.4 1.4 0 0 0 1.4 1.4h2.8a1.4 1.4 0 0 0 1.4-1.4V3.6a1.4 1.4 0 0 0-1.4-1.4z" data-name="Subtraction 2"/>
    <path d="M18.291 14.634h-2.589a1.3 1.3 0 0 0-1.295 1.295v2.589a1.3 1.3 0 0 0 1.295 1.295h2.589a1.3 1.3 0 0 0 1.295-1.295v-2.589a1.3 1.3 0 0 0-1.295-1.295z" data-name="Path 2370"/>
    <path d="M7.5 22h-5A2.5 2.5 0 0 1 0 19.5v-5A2.5 2.5 0 0 1 2.5 12h5a2.5 2.5 0 0 1 2.5 2.5v5A2.5 2.5 0 0 1 7.5 22zm-3.9-7.795a1.4 1.4 0 0 0-1.4 1.4V18.4a1.4 1.4 0 0 0 1.4 1.4h2.8a1.4 1.4 0 0 0 1.4-1.4v-2.8a1.4 1.4 0 0 0-1.4-1.4z" data-name="Subtraction 4"/>
</svg>
