<svg width="21" height="19" viewBox="0 0 21 19" fill="none" xmlns="http://www.w3.org/2000/svg">
<path d="M15 10.6406H16.5V12.1606H15V10.6406Z" fill="white"/>
<path d="M19.5 3.8H1.5V1.52H18V0H1.5C1.10218 0 0.720644 0.160143 0.43934 0.445198C0.158035 0.730253 0 1.11687 0 1.52V17.48C0 17.8831 0.158035 18.2697 0.43934 18.5548C0.720644 18.8399 1.10218 19 1.5 19H19.5C19.8978 19 20.2794 18.8399 20.5607 18.5548C20.842 18.2697 21 17.8831 21 17.48V5.32C21 4.91687 20.842 4.53025 20.5607 4.2452C20.2794 3.96014 19.8978 3.8 19.5 3.8ZM1.5 17.48V5.32H19.5V7.6H13.5C13.1022 7.6 12.7206 7.76014 12.4393 8.0452C12.158 8.33025 12 8.71687 12 9.12V13.68C12 14.0831 12.158 14.4697 12.4393 14.7548C12.7206 15.0399 13.1022 15.2 13.5 15.2H19.5V17.48H1.5ZM19.5 9.12V13.68H13.5V9.12H19.5Z" fill="white"/>
</svg>
