<svg width="68" height="68" viewBox="0 0 68 68" fill="none" xmlns="http://www.w3.org/2000/svg">
<g filter="url(#filter0_d)">
<rect x="14" y="20" width="40" height="40" rx="10" fill="#313131"/>
</g>
<g clip-path="url(#clip0)">
<path d="M31.2918 51.963C31.1886 51.9363 31.0922 51.8885 31.0084 51.8226C30.9247 51.7567 30.8555 51.6743 30.8051 51.5804L30.7938 51.5608L30.7309 51.3891C30.6806 51.2968 30.6513 51.1947 30.6449 51.0898C30.6386 50.985 30.6553 50.8801 30.694 50.7824C30.7677 50.5901 30.9148 50.435 31.1028 50.351L32.1694 49.8062C30.8572 49.5709 29.6076 49.0677 28.4985 48.3279C27.1229 47.4181 25.9921 46.184 25.2056 44.7343C24.4898 43.4209 24.0811 41.9623 24.0101 40.4682C23.9392 38.9741 24.208 37.4833 24.7962 36.108C25.7957 33.7039 27.7064 31.7932 30.1105 30.7937C31.8263 30.0552 33.7179 29.8243 35.5609 30.1282C37.8693 30.4727 39.9775 31.6337 41.5027 33.4004C43.1336 35.2044 44.0246 37.5568 43.9982 39.9886C44.0036 41.5382 43.6464 43.0676 42.9551 44.4545C42.2639 45.8415 41.2578 47.0475 40.0172 47.9761H40.0137C39.8494 48.0993 39.6498 48.166 39.4445 48.1663C39.3937 48.166 39.3431 48.162 39.2929 48.1544C39.046 48.1212 38.8217 47.9934 38.6673 47.7979L38.6572 47.7848C38.56 47.6487 38.4987 47.4903 38.4789 47.3243C38.4588 47.1603 38.4792 46.9938 38.5383 46.8395C38.599 46.6758 38.7075 46.5342 38.8497 46.433C40.4247 45.248 41.512 43.5279 41.9067 41.5968C42.3015 39.6657 41.9765 37.6569 40.9929 35.9488C40.2836 34.7207 39.2621 33.702 38.032 32.9962C36.8018 32.2903 35.4069 31.9224 33.9887 31.9298L33.9858 31.6327V31.9298C31.8536 31.9357 29.8099 32.7825 28.2983 34.2863C27.5676 35.0318 26.9832 35.9077 26.5752 36.8686C26.1486 37.8533 25.9293 38.9154 25.9311 39.9886C25.9257 41.3451 26.2693 42.6802 26.9287 43.8656C27.5803 45.0506 28.5204 46.052 29.6619 46.7771C30.6326 47.4013 31.7274 47.8068 32.8705 47.9654L32.0541 46.6737C31.9925 46.59 31.9483 46.4948 31.9239 46.3938C31.8995 46.2928 31.8955 46.188 31.9121 46.0854C31.9255 45.981 31.9616 45.8808 32.0179 45.7918C32.0741 45.7028 32.1491 45.6272 32.2377 45.5703L32.391 45.461L32.4052 45.4526C32.4985 45.3991 32.6019 45.3657 32.7088 45.3544C32.8157 45.3432 32.9238 45.3544 33.0262 45.3873C33.2185 45.4449 33.3832 45.5706 33.4896 45.7408L35.4783 48.8395L35.609 49.0575C35.7122 49.2336 35.7453 49.4422 35.7017 49.6416L35.6988 49.6576L35.6934 49.6731C35.6734 49.7327 35.6471 49.7901 35.615 49.8442C35.5819 49.8997 35.5419 49.9507 35.4962 49.9963C35.4502 50.0407 35.4001 50.0805 35.3464 50.1151L35.331 50.1253L35.2484 50.1663V50.1746L31.8948 51.8846C31.7122 51.988 31.4964 52.0157 31.2935 51.9619L31.2918 51.963Z" fill="#909090"/>
</g>
<defs>
<filter id="filter0_d" x="0" y="0" width="68" height="68" filterUnits="userSpaceOnUse" color-interpolation-filters="sRGB">
<feFlood flood-opacity="0" result="BackgroundImageFix"/>
<feColorMatrix in="SourceAlpha" type="matrix" values="0 0 0 0 0 0 0 0 0 0 0 0 0 0 0 0 0 0 127 0" result="hardAlpha"/>
<feOffset dy="-6"/>
<feGaussianBlur stdDeviation="7"/>
<feColorMatrix type="matrix" values="0 0 0 0 0 0 0 0 0 0 0 0 0 0 0 0 0 0 0.08 0"/>
<feBlend mode="normal" in2="BackgroundImageFix" result="effect1_dropShadow"/>
<feBlend mode="normal" in="SourceGraphic" in2="effect1_dropShadow" result="shape"/>
</filter>
<clipPath id="clip0">
<rect width="20" height="21.9911" fill="white" transform="translate(24 30)"/>
</clipPath>
</defs>
</svg>
