<svg width="68" height="68" viewBox="0 0 68 68" fill="none" xmlns="http://www.w3.org/2000/svg">
<g filter="url(#filter0_d)">
<rect x="14" y="20" width="40" height="40" rx="10" fill="#313131"/>
</g>
<path d="M42.8889 38.8889C42.5942 38.8889 42.3116 39.006 42.1032 39.2143C41.8948 39.4227 41.7778 39.7053 41.7778 40V46.6667C41.7778 46.9614 41.6607 47.244 41.4523 47.4523C41.244 47.6607 40.9614 47.7778 40.6667 47.7778H27.3333C27.0386 47.7778 26.756 47.6607 26.5477 47.4523C26.3393 47.244 26.2222 46.9614 26.2222 46.6667V33.3333C26.2222 33.0386 26.3393 32.756 26.5477 32.5477C26.756 32.3393 27.0386 32.2222 27.3333 32.2222H34C34.2947 32.2222 34.5773 32.1052 34.7857 31.8968C34.994 31.6884 35.1111 31.4058 35.1111 31.1111C35.1111 30.8164 34.994 30.5338 34.7857 30.3254C34.5773 30.1171 34.2947 30 34 30H27.3333C26.4493 30 25.6014 30.3512 24.9763 30.9763C24.3512 31.6014 24 32.4493 24 33.3333V46.6667C24 47.5507 24.3512 48.3986 24.9763 49.0237C25.6014 49.6488 26.4493 50 27.3333 50H40.6667C41.5507 50 42.3986 49.6488 43.0237 49.0237C43.6488 48.3986 44 47.5507 44 46.6667V40C44 39.7053 43.8829 39.4227 43.6746 39.2143C43.4662 39.006 43.1836 38.8889 42.8889 38.8889Z" fill="#919191"/>
<path d="M38.4449 32.2222H40.2004L33.2115 39.2C33.1079 39.3036 33.0258 39.4266 32.9697 39.5619C32.9136 39.6973 32.8848 39.8424 32.8848 39.9889C32.8848 40.1354 32.9136 40.2805 32.9697 40.4158C33.0258 40.5512 33.1079 40.6742 33.2115 40.7778C33.3151 40.8814 33.4381 40.9636 33.5735 41.0196C33.7088 41.0757 33.8539 41.1045 34.0004 41.1045C34.1469 41.1045 34.292 41.0757 34.4274 41.0196C34.5627 40.9636 34.6857 40.8814 34.7893 40.7778L41.7782 33.8V35.5556C41.7782 35.8502 41.8953 36.1329 42.1036 36.3412C42.312 36.5496 42.5946 36.6667 42.8893 36.6667C43.184 36.6667 43.4666 36.5496 43.675 36.3412C43.8834 36.1329 44.0004 35.8502 44.0004 35.5556V31.1111C44.0004 30.8164 43.8834 30.5338 43.675 30.3254C43.4666 30.1171 43.184 30 42.8893 30H38.4449C38.1502 30 37.8676 30.1171 37.6592 30.3254C37.4508 30.5338 37.3338 30.8164 37.3338 31.1111C37.3338 31.4058 37.4508 31.6884 37.6592 31.8968C37.8676 32.1052 38.1502 32.2222 38.4449 32.2222Z" fill="#919191"/>
<defs>
<filter id="filter0_d" x="0" y="0" width="68" height="68" filterUnits="userSpaceOnUse" color-interpolation-filters="sRGB">
<feFlood flood-opacity="0" result="BackgroundImageFix"/>
<feColorMatrix in="SourceAlpha" type="matrix" values="0 0 0 0 0 0 0 0 0 0 0 0 0 0 0 0 0 0 127 0" result="hardAlpha"/>
<feOffset dy="-6"/>
<feGaussianBlur stdDeviation="7"/>
<feColorMatrix type="matrix" values="0 0 0 0 0 0 0 0 0 0 0 0 0 0 0 0 0 0 0.08 0"/>
<feBlend mode="normal" in2="BackgroundImageFix" result="effect1_dropShadow"/>
<feBlend mode="normal" in="SourceGraphic" in2="effect1_dropShadow" result="shape"/>
</filter>
</defs>
</svg>
