<svg width="68" height="68" viewBox="0 0 68 68" fill="none" xmlns="http://www.w3.org/2000/svg">
<g filter="url(#filter0_d)">
<rect x="14" y="20" width="40" height="40" rx="10" fill="#313131"/>
</g>
<path fill-rule="evenodd" clip-rule="evenodd" d="M33.7499 32.5C33.6589 32.5 33.4349 32.525 33.3159 32.763L31.4899 36.414C31.2009 36.991 30.6439 37.392 29.9999 37.484L25.9119 38.073C25.6419 38.112 25.5499 38.312 25.5219 38.396C25.4969 38.477 25.4569 38.683 25.6429 38.861L28.5989 41.701C29.0699 42.154 29.2839 42.807 29.1719 43.446L28.4759 47.456C28.4329 47.707 28.5899 47.853 28.6599 47.903C28.7339 47.959 28.9319 48.07 29.1769 47.942L32.8319 46.047C33.4079 45.75 34.0939 45.75 34.6679 46.047L38.3219 47.941C38.5679 48.068 38.7659 47.957 38.8409 47.903C38.9109 47.853 39.0679 47.707 39.0249 47.456L38.3269 43.446C38.2149 42.807 38.4289 42.154 38.8999 41.701L41.8559 38.861C42.0429 38.683 42.0029 38.476 41.9769 38.396C41.9499 38.312 41.8579 38.112 41.5879 38.073L37.4999 37.484C36.8569 37.392 36.2999 36.991 36.0109 36.413L34.1829 32.763C34.0649 32.525 33.8409 32.5 33.7499 32.5ZM28.9469 49.5C28.5339 49.5 28.1239 49.37 27.7729 49.114C27.1669 48.67 26.8699 47.937 26.9989 47.199L27.6949 43.189C27.7209 43.04 27.6699 42.889 27.5599 42.783L24.6039 39.943C24.0599 39.422 23.8649 38.652 24.0949 37.937C24.3269 37.214 24.9409 36.697 25.6979 36.589L29.7859 36C29.9439 35.978 30.0799 35.881 30.1479 35.743L31.9749 32.091C32.3119 31.418 32.9919 31 33.7499 31C34.5079 31 35.1879 31.418 35.5249 32.091L37.3529 35.742C37.4219 35.881 37.5569 35.978 37.7139 36L41.8019 36.589C42.5589 36.697 43.1729 37.214 43.4049 37.937C43.6349 38.652 43.4389 39.422 42.8949 39.943L39.9389 42.783C39.8289 42.889 39.7789 43.04 39.8049 43.188L40.5019 47.199C40.6299 47.938 40.3329 48.671 39.7259 49.114C39.1109 49.565 38.3099 49.626 37.6309 49.272L33.9779 47.379C33.8349 47.305 33.6639 47.305 33.5209 47.379L29.8679 49.273C29.5759 49.425 29.2609 49.5 28.9469 49.5Z" fill="#909090"/>
<defs>
<filter id="filter0_d" x="0" y="0" width="68" height="68" filterUnits="userSpaceOnUse" color-interpolation-filters="sRGB">
<feFlood flood-opacity="0" result="BackgroundImageFix"/>
<feColorMatrix in="SourceAlpha" type="matrix" values="0 0 0 0 0 0 0 0 0 0 0 0 0 0 0 0 0 0 127 0" result="hardAlpha"/>
<feOffset dy="-6"/>
<feGaussianBlur stdDeviation="7"/>
<feColorMatrix type="matrix" values="0 0 0 0 0 0 0 0 0 0 0 0 0 0 0 0 0 0 0.08 0"/>
<feBlend mode="normal" in2="BackgroundImageFix" result="effect1_dropShadow"/>
<feBlend mode="normal" in="SourceGraphic" in2="effect1_dropShadow" result="shape"/>
</filter>
</defs>
</svg>
