<svg width="68" height="68" viewBox="0 0 68 68" fill="none" xmlns="http://www.w3.org/2000/svg">
<g filter="url(#filter0_d)">
<rect x="14" y="20" width="40" height="40" rx="10" fill="#313131"/>
</g>
<g clip-path="url(#clip0)">
<path d="M43.648 32.3809C43.2212 31.9432 42.7142 31.5959 42.1559 31.359C41.5975 31.122 40.9989 31 40.3944 31C39.7898 31 39.1912 31.122 38.6329 31.359C38.0746 31.5959 37.5675 31.9432 37.1408 32.3809L38.2295 33.4937C38.5132 33.1963 38.8518 32.9594 39.2258 32.7968C39.5997 32.6342 40.0015 32.5491 40.4079 32.5465C40.8143 32.5438 41.2171 32.6237 41.5931 32.7814C41.969 32.9391 42.3106 33.1716 42.5979 33.4653C42.8853 33.759 43.1127 34.1081 43.2671 34.4924C43.4214 34.8766 43.4995 35.2884 43.4969 35.7037C43.4943 36.1191 43.4111 36.5298 43.252 36.912C43.0929 37.2942 42.8611 37.6403 42.5701 37.9303L36.446 44.1897C36.1616 44.481 35.8238 44.7122 35.4519 44.87C35.08 45.0279 34.6813 45.1094 34.2786 45.1097C33.8759 45.1101 33.4771 45.0295 33.105 44.8723C32.7328 44.7152 32.3945 44.4846 32.1095 44.1939C31.8245 43.9031 31.5983 43.5578 31.4439 43.1777C31.2894 42.7976 31.2097 42.3901 31.2094 41.9785C31.2086 41.1473 31.5309 40.3498 32.1054 39.7615L33.1846 38.6487L32.1054 37.5359L31.0167 38.6487C30.1664 39.5348 29.6935 40.7286 29.7013 41.9698C29.709 43.2109 30.1967 44.3985 31.0579 45.2734C31.9192 46.1484 33.084 46.6396 34.2983 46.64C35.5126 46.6404 36.6778 46.1498 37.5395 45.2753L43.6636 39.0159C44.5218 38.1337 45.0022 36.9393 44.9994 35.6953C44.9966 34.4512 44.5108 33.2592 43.6486 32.3809H43.648Z" fill="#909090"/>
<path d="M24.4644 46.5107C24.1786 46.2199 23.9517 45.8743 23.7969 45.4936C23.6421 45.1129 23.5625 44.7047 23.5625 44.2925C23.5625 43.8802 23.6421 43.472 23.7969 43.0914C23.9517 42.7107 24.1786 42.365 24.4644 42.0742L30.5885 35.8148C30.873 35.5226 31.2112 35.2907 31.5837 35.1325C31.9561 34.9743 32.3555 34.8929 32.7588 34.8929C33.1622 34.8929 33.5615 34.9743 33.934 35.1325C34.3064 35.2907 34.6446 35.5226 34.9291 35.8148C35.2132 36.108 35.4367 36.4565 35.5866 36.8396C35.7364 37.2227 35.8095 37.6327 35.8015 38.0452C35.8038 38.4589 35.7259 38.869 35.5722 39.2517C35.4185 39.6345 35.192 39.9823 34.906 40.275L33.2831 41.9574L34.3718 43.0702L35.9947 41.4114C36.8488 40.5263 37.3258 39.3319 37.3217 38.0888C37.3175 36.8456 36.8325 35.6546 35.9724 34.7756C35.1124 33.8965 33.9471 33.4008 32.7308 33.3965C31.5146 33.3922 30.346 33.8798 29.4801 34.7528L23.356 41.0122C22.7051 41.6643 22.2604 42.5007 22.0793 43.4136C21.8981 44.3266 21.9888 45.274 22.3396 46.1338C22.6905 46.9935 23.2854 47.726 24.0475 48.2368C24.8097 48.7475 25.7041 49.0131 26.6154 48.9992C27.8425 49.0004 29.0204 48.5053 29.8917 47.6221L28.803 46.5094C28.5185 46.8015 28.1803 47.0334 27.8078 47.1916C27.4354 47.3498 27.036 47.4313 26.6327 47.4313C26.2294 47.4313 25.83 47.3498 25.4576 47.1916C25.0851 47.0334 24.7469 46.8015 24.4624 46.5094L24.4644 46.5107Z" fill="#909090"/>
</g>
<defs>
<filter id="filter0_d" x="0" y="0" width="68" height="68" filterUnits="userSpaceOnUse" color-interpolation-filters="sRGB">
<feFlood flood-opacity="0" result="BackgroundImageFix"/>
<feColorMatrix in="SourceAlpha" type="matrix" values="0 0 0 0 0 0 0 0 0 0 0 0 0 0 0 0 0 0 127 0" result="hardAlpha"/>
<feOffset dy="-6"/>
<feGaussianBlur stdDeviation="7"/>
<feColorMatrix type="matrix" values="0 0 0 0 0 0 0 0 0 0 0 0 0 0 0 0 0 0 0.08 0"/>
<feBlend mode="normal" in2="BackgroundImageFix" result="effect1_dropShadow"/>
<feBlend mode="normal" in="SourceGraphic" in2="effect1_dropShadow" result="shape"/>
</filter>
<clipPath id="clip0">
<rect width="23" height="18" fill="white" transform="translate(22 31)"/>
</clipPath>
</defs>
</svg>
