<svg width="68" height="68" viewBox="0 0 68 68" fill="none" xmlns="http://www.w3.org/2000/svg">
<g filter="url(#filter0_d)">
<rect x="14" y="20" width="40" height="40" rx="10" fill="#313131"/>
</g>
<path d="M39.9189 42.32C39.6599 42.571 39.5409 42.934 39.5999 43.29L40.4889 48.21C40.5639 48.627 40.3879 49.049 40.0389 49.29C39.6969 49.54 39.2419 49.57 38.8689 49.37L34.4399 47.06C34.2859 46.978 34.1149 46.934 33.9399 46.929H33.6689C33.5749 46.943 33.4829 46.973 33.3989 47.019L28.9689 49.34C28.7499 49.45 28.5019 49.489 28.2589 49.45C27.6669 49.338 27.2719 48.774 27.3689 48.179L28.2589 43.259C28.3179 42.9 28.1989 42.535 27.9399 42.28L24.3289 38.78C24.0269 38.487 23.9219 38.047 24.0599 37.65C24.1939 37.254 24.5359 36.965 24.9489 36.9L29.9189 36.179C30.2969 36.14 30.6289 35.91 30.7989 35.57L32.9889 31.08C33.0409 30.98 33.1079 30.888 33.1889 30.81L33.2789 30.74C33.3259 30.688 33.3799 30.645 33.4399 30.61L33.5489 30.57L33.7189 30.5H34.1399C34.5159 30.539 34.8469 30.764 35.0199 31.1L37.2389 35.57C37.3989 35.897 37.7099 36.124 38.0689 36.179L43.0389 36.9C43.4589 36.96 43.8099 37.25 43.9489 37.65C44.0799 38.051 43.9669 38.491 43.6589 38.78L39.9189 42.32Z" fill="#909090"/>
<defs>
<filter id="filter0_d" x="0" y="0" width="68" height="68" filterUnits="userSpaceOnUse" color-interpolation-filters="sRGB">
<feFlood flood-opacity="0" result="BackgroundImageFix"/>
<feColorMatrix in="SourceAlpha" type="matrix" values="0 0 0 0 0 0 0 0 0 0 0 0 0 0 0 0 0 0 127 0" result="hardAlpha"/>
<feOffset dy="-6"/>
<feGaussianBlur stdDeviation="7"/>
<feColorMatrix type="matrix" values="0 0 0 0 0 0 0 0 0 0 0 0 0 0 0 0 0 0 0.08 0"/>
<feBlend mode="normal" in2="BackgroundImageFix" result="effect1_dropShadow"/>
<feBlend mode="normal" in="SourceGraphic" in2="effect1_dropShadow" result="shape"/>
</filter>
</defs>
</svg>
