<svg width="11" height="12" viewBox="0 0 11 12" fill="none" xmlns="http://www.w3.org/2000/svg">
<path d="M10.5781 5.25V12H0.578125V5.25H2.24479V3.05859C2.24479 2.63672 2.32943 2.24023 2.4987 1.86914C2.66797 1.49805 2.90234 1.17383 3.20182 0.896484C3.5013 0.619141 3.85286 0.400391 4.25651 0.240234C4.6645 0.0800781 5.10503 0 5.57812 0C6.05122 0 6.48958 0.0800781 6.89323 0.240234C7.30122 0.400391 7.65495 0.619141 7.95443 0.896484C8.25391 1.17383 8.48828 1.49805 8.65755 1.86914C8.82682 2.24023 8.91146 2.63672 8.91146 3.05859V5.25H10.5781ZM3.07812 5.25H8.07813V3.05859C8.07813 2.74219 8.01519 2.44531 7.88932 2.16797C7.76346 1.88672 7.58767 1.64062 7.36198 1.42969C7.14063 1.21875 6.87587 1.05273 6.56771 0.931641C6.26389 0.810547 5.93403 0.75 5.57812 0.75C5.22222 0.75 4.89019 0.810547 4.58203 0.931641C4.27821 1.05273 4.01345 1.21875 3.78776 1.42969C3.56641 1.64062 3.3928 1.88672 3.26693 2.16797C3.14106 2.44531 3.07812 2.74219 3.07812 3.05859V5.25Z" fill="#BBBBBB"/>
</svg>
