<svg width="24" height="24" viewBox="0 0 24 24" fill="none" xmlns="http://www.w3.org/2000/svg">
<path d="M12.9807 20.4985L14.3501 21.6357C14.6348 21.8712 14.9929 22 15.3624 22.0002H19.974C20.2311 21.9996 20.4805 21.9156 20.6856 21.7606C20.8906 21.6056 21.0405 21.3878 21.1112 21.1406L22.1207 17.606C22.1681 17.4406 22.1788 17.2662 22.1521 17.0962C22.1255 16.9262 22.0619 16.7645 21.9661 16.6215L21.6441 16.1385C21.5357 15.977 21.3893 15.8452 21.2176 15.7536C21.0459 15.6621 20.8542 15.6139 20.6596 15.6139H18.2909L18.2983 13.4571C18.2993 13.1112 18.1873 12.7737 17.9791 12.4975C17.7709 12.2214 17.4782 12.0209 17.1454 11.9266C16.8126 11.8324 16.458 11.8497 16.1359 11.9757C15.8138 12.1017 15.542 12.3293 15.3615 12.6243L12.9761 16.5299" stroke="white" stroke-width="1.5" stroke-linecap="round" stroke-linejoin="round"/>
<path d="M7.84775 1.39483C7.7517 1.27277 7.62461 1.17323 7.47711 1.10454C7.32962 1.03585 7.16602 1 7 1C6.83398 1 6.67038 1.03585 6.52289 1.10454C6.37539 1.17323 6.2483 1.27277 6.15225 1.39483L1.15198 8.60617C1.06127 8.73721 1.00934 8.88701 1.00115 9.04129C0.992953 9.19556 1.02877 9.34915 1.10517 9.4874L6.10545 18.5016C6.18849 18.6513 6.31617 18.7773 6.47417 18.8653C6.63217 18.9534 6.81425 19 7 19C7.18575 19 7.36783 18.9534 7.52583 18.8653C7.68383 18.7773 7.81151 18.6513 7.89455 18.5016L12.8948 9.4874C12.9712 9.34915 13.007 9.19556 12.9989 9.04129C12.9907 8.88701 12.9387 8.73721 12.848 8.60617L7.84775 1.39483ZM7 3.57329L10.5179 8.64737L7 9.91584L3.48211 8.64737L7 3.57329Z" fill="white"/>
</svg>
