<svg width="24" height="24" viewBox="0 0 24 24" fill="none" xmlns="http://www.w3.org/2000/svg">
<path d="M11.9993 15.0359L14.1129 16.1472C14.2055 16.1957 14.3089 16.2166 14.4131 16.2089C14.5173 16.2012 14.6176 16.1646 14.702 16.103C14.7864 16.0415 14.8519 15.9572 14.8911 15.8604C14.9304 15.7635 14.9419 15.658 14.924 15.5551L14.5211 13.204L16.2296 11.5427C16.3042 11.4696 16.3569 11.3769 16.3818 11.2754C16.4067 11.174 16.4027 11.0674 16.3705 10.9681C16.3382 10.8687 16.2785 10.7806 16.1988 10.7131C16.119 10.6457 16.0225 10.602 15.9192 10.5867L13.5588 10.2433L12.5061 8.10299C12.4597 8.00937 12.3883 7.93089 12.2995 7.8758C12.2107 7.82071 12.108 7.7915 12.0034 7.7915C11.8989 7.7915 11.7962 7.82071 11.7074 7.8758C11.6186 7.93089 11.5472 8.00937 11.5008 8.10299L10.4481 10.2433L8.08671 10.5867C7.98325 10.6018 7.88595 10.6457 7.80606 10.7131C7.72618 10.7806 7.66659 10.8686 7.63439 10.9681C7.60218 11.0675 7.59891 11.174 7.62411 11.2754C7.6493 11.3769 7.70229 11.4699 7.77728 11.5427L9.48584 13.204L9.08183 15.5551C9.06429 15.6581 9.07535 15.7636 9.11473 15.8604C9.15411 15.9572 9.22044 16.0415 9.30491 16.103C9.38939 16.1645 9.48855 16.2011 9.59275 16.2089C9.69696 16.2166 9.80133 16.1955 9.89396 16.1472L11.9993 15.0359Z" stroke="white" stroke-width="1.5" stroke-linecap="round" stroke-linejoin="round"/>
<path d="M22 12H20.8389" stroke="white" stroke-width="1.5" stroke-linecap="round" stroke-linejoin="round"/>
<path d="M3.16063 12H1.99951" stroke="white" stroke-width="1.5" stroke-linecap="round" stroke-linejoin="round"/>
<path d="M19.223 4.77734L18.1113 5.88898" stroke="white" stroke-width="1.5" stroke-linecap="round" stroke-linejoin="round"/>
<path d="M4.80273 19.2479L5.91437 18.1362" stroke="white" stroke-width="1.5" stroke-linecap="round" stroke-linejoin="round"/>
<path d="M4.77734 4.80273L5.88898 5.91437" stroke="white" stroke-width="1.5" stroke-linecap="round" stroke-linejoin="round"/>
<path d="M19.2479 19.223L18.1362 18.1113" stroke="white" stroke-width="1.5" stroke-linecap="round" stroke-linejoin="round"/>
<path d="M12 20.8892V22.0008" stroke="white" stroke-width="1.5" stroke-linecap="round" stroke-linejoin="round"/>
<path d="M12 1.99951V3.11115" stroke="white" stroke-width="1.5" stroke-linecap="round" stroke-linejoin="round"/>
</svg>
