<svg width="24" height="24" viewBox="0 0 24 24" fill="none" xmlns="http://www.w3.org/2000/svg">
<g clip-path="url(#clip0_4622_11061)">
<path d="M6.00528 13.9289C5.01826 13.3701 4.18892 12.5705 3.59451 11.6044C3.00011 10.6384 2.65969 9.53721 2.60573 8.40426C2.55176 7.27131 2.78595 6.14329 3.28585 5.12516C3.78575 4.10702 4.53483 3.23171 5.46427 2.5816C6.39371 1.93149 7.47284 1.52803 8.60067 1.40763C9.7285 1.28723 10.8684 1.45411 11.9141 1.89335C12.9599 2.3326 13.8776 3.03004 14.5811 3.9197C15.2847 4.80936 15.7514 5.86263 15.9378 6.98144" stroke="white" stroke-width="1.5" stroke-linecap="round" stroke-linejoin="round"/>
<path d="M22 16C22 12.134 18.866 9 15 9C11.134 9 8 12.134 8 16C8 19.866 11.134 23 15 23C18.866 23 22 19.866 22 16Z" stroke="white" stroke-width="1.5" stroke-linecap="round" stroke-linejoin="round"/>
<path d="M13.2695 18.4739L17.4697 14.2739" stroke="white" stroke-width="1.5" stroke-linecap="round" stroke-linejoin="round"/>
<path d="M13.4275 14.0739C13.4624 14.1089 13.4863 14.1534 13.4959 14.2019C13.5055 14.2504 13.5002 14.3006 13.4812 14.3463C13.4623 14.3919 13.4305 14.4309 13.3894 14.4584C13.3483 14.4858 13.2992 14.5004 13.2498 14.5004C13.2004 14.5004 13.1522 14.4858 13.1111 14.4584C13.07 14.4309 13.0383 14.3919 13.0193 14.3463C13.0004 14.3006 12.9951 14.2504 13.0047 14.2019C13.0143 14.1534 13.0381 14.1089 13.073 14.0739C13.0962 14.0505 13.1237 14.0319 13.1541 14.0192C13.1845 14.0065 13.2169 14 13.2498 14C13.2827 14 13.3161 14.0065 13.3465 14.0192C13.3769 14.0319 13.4044 14.0505 13.4275 14.0739" stroke="white" stroke-width="1.5" stroke-linecap="round" stroke-linejoin="round"/>
<path d="M17.637 18.0866C17.6719 18.1216 17.6958 18.1661 17.7054 18.2146C17.715 18.2631 17.7097 18.3133 17.6907 18.3589C17.6718 18.4046 17.64 18.4436 17.5989 18.4711C17.5578 18.4985 17.5087 18.5131 17.4593 18.5131C17.4098 18.5131 17.3617 18.4985 17.3206 18.4711C17.2795 18.4436 17.2477 18.4046 17.2288 18.3589C17.2099 18.3133 17.2046 18.2631 17.2142 18.2146C17.2237 18.1661 17.2476 18.1216 17.2825 18.0866C17.3057 18.0632 17.3332 18.0446 17.3636 18.0319C17.3939 18.0192 17.4263 18.0127 17.4593 18.0127C17.4922 18.0127 17.5256 18.0192 17.5559 18.0319C17.5863 18.0446 17.6138 18.0632 17.637 18.0866" stroke="white" stroke-width="1.5" stroke-linecap="round" stroke-linejoin="round"/>
<path d="M7.91869 5.00025L6 6.91895L7.91869 8.83764L9.83739 6.91894L7.91869 5.00025Z" stroke="white" stroke-width="1.5" stroke-linecap="round" stroke-linejoin="round"/>
</g>
<defs>
<clipPath id="clip0_4622_11061">
<rect width="24" height="24" fill="white"/>
</clipPath>
</defs>
</svg>
