<svg width="25" height="24" viewBox="0 0 25 24" fill="none" xmlns="http://www.w3.org/2000/svg">
<path opacity="0.7" d="M4.03496 3.86827C6.19163 1.7116 9.1167 0.5 12.1667 0.5C14.4412 0.5 16.6646 1.17446 18.5557 2.4381C20.4469 3.70174 21.9209 5.49779 22.7913 7.59914C23.6617 9.70049 23.8894 12.0128 23.4457 14.2435C23.002 16.4743 21.9067 18.5234 20.2984 20.1317C18.6901 21.74 16.641 22.8353 14.4102 23.279C12.1794 23.7228 9.86718 23.495 7.76583 22.6246C5.66448 21.7542 3.86842 20.2802 2.60479 18.3891C1.34115 16.4979 0.666687 14.2745 0.666687 12C0.666687 8.95001 1.87829 6.02494 4.03496 3.86827Z" stroke="#C9C9C9"/>
<path d="M7.00006 10H17.0001L14.1429 7" stroke="#C9C9C9" stroke-width="1.5" stroke-linecap="round" stroke-linejoin="round"/>
<path d="M17.0001 14H7.00006L9.8572 18" stroke="#C9C9C9" stroke-width="1.5" stroke-linecap="round" stroke-linejoin="round"/>
</svg>
