<svg width="24" height="24" viewBox="0 0 24 24" fill="none" xmlns="http://www.w3.org/2000/svg">
<path d="M11.9998 2.00098C13.4281 2.00098 14.8245 2.42452 16.012 3.21803C17.1996 4.01154 18.1258 5.1394 18.6724 6.45896C19.2189 7.77852 19.3611 9.23048 19.0825 10.6313C18.8038 12.0322 18.1167 13.3189 17.1068 14.3289C16.0968 15.3388 14.81 16.0266 13.4092 16.3053C12.0084 16.5839 10.556 16.4409 9.23644 15.8943C7.91688 15.3478 6.78916 14.4221 5.99565 13.2346C5.20214 12.047 4.77832 10.6508 4.77832 9.22249C4.77832 7.30723 5.5397 5.47041 6.894 4.11611C8.2483 2.76182 10.0846 2.00098 11.9998 2.00098" stroke="white" stroke-width="1.5" stroke-linecap="round" stroke-linejoin="round"/>
<path d="M6.44482 16.4438H17.5549" stroke="white" stroke-width="1.5" stroke-linecap="round" stroke-linejoin="round"/>
<path d="M18.667 12H19.778C20.3673 12 20.9334 12.2341 21.3501 12.6508C21.7668 13.0675 22 13.6327 22 14.222V19.777C22 20.3663 21.7668 20.9315 21.3501 21.3482C20.9334 21.7649 20.3673 21.999 19.778 21.999H4.22396C3.63465 21.999 3.06964 21.7649 2.65293 21.3482C2.23622 20.9315 2.00195 20.3663 2.00195 19.777V14.222C2.00195 13.6327 2.23622 13.0675 2.65293 12.6508C3.06964 12.2341 3.63465 12 4.22396 12H5.33496" stroke="white" stroke-width="1.5" stroke-linecap="round" stroke-linejoin="round"/>
<path d="M14.2217 8.66699L11.9997 6.44499L9.77767 8.66699" stroke="white" stroke-width="1.5" stroke-linecap="round" stroke-linejoin="round"/>
<path d="M12 12L12 6.44499" stroke="white" stroke-width="1.5" stroke-linecap="round" stroke-linejoin="round"/>
</svg>
