<svg xmlns="http://www.w3.org/2000/svg" id="Component_1221_1" width="23.762" height="21.275" viewBox="0 0 23.762 21.275">
    <defs>
        <style>
            .cls-1{fill:#fff}
        </style>
    </defs>
    <path id="Path_22212" d="M-6632.467-3900.985a1.844 1.844 0 0 1 2.372-1.031 1.845 1.845 0 0 1 .591 2.518l-5.778 11.708a1.843 1.843 0 0 1-2.371 1.032 1.845 1.845 0 0 1-.592-2.518z" class="cls-1" transform="translate(6646.999 3907.883)"/>
    <path id="Path_22213" d="M-6564.08-3918.122a1.844 1.844 0 0 1 2.372-1.032 1.843 1.843 0 0 1 .591 2.518l-5.778 11.709a1.844 1.844 0 0 1-2.372 1.031 1.844 1.844 0 0 1-.591-2.518z" class="cls-1" transform="translate(6584.632 3923.512)"/>
    <path id="Path_22214" d="M-6729.123-3948.815a1.844 1.844 0 0 1 2.371-1.032 1.844 1.844 0 0 1 .592 2.518l-5.778 11.709a1.844 1.844 0 0 1-2.371 1.032 1.844 1.844 0 0 1-.591-2.518z" class="cls-1" transform="translate(6735.147 3951.504)"/>
    <path id="Path_22215" d="M-6660.736-3965.952a1.843 1.843 0 0 1 2.372-1.031 1.844 1.844 0 0 1 .591 2.518l-5.777 11.708a1.844 1.844 0 0 1-2.372 1.032 1.845 1.845 0 0 1-.592-2.518z" class="cls-1" transform="translate(6672.78 3967.133)"/>
</svg>
