<svg xmlns="http://www.w3.org/2000/svg" id="Wallet_Icon" width="23.174" height="14.414" viewBox="0 0 23.174 14.414">
    <defs>
        <style>
            .cls-1{fill:#fff}
        </style>
    </defs>
    <path id="Path_2152" d="M6624.843-2474.012h4.7a1.444 1.444 0 0 1 .315.008v-2.367a1.713 1.713 0 0 0-1.735-1.674h-19.662a1.75 1.75 0 0 0-1.777 1.674v11.048a1.765 1.765 0 0 0 1.777 1.692h19.662a1.719 1.719 0 0 0 1.735-1.692v-2.462a1.467 1.467 0 0 1-.315.025h-4.7a1.415 1.415 0 0 1-1.467-1.366v-3.538a1.4 1.4 0 0 1 1.467-1.348z" class="cls-1" transform="translate(-6606.682 2478.045)"/>
    <path id="Path_2153" d="M6856.794-2382a2.1 2.1 0 0 0 2.095 2.1 2.094 2.094 0 0 0 1.92-1.263 2.1 2.1 0 0 0 .175-.839 2.1 2.1 0 0 0-.561-1.428 2.083 2.083 0 0 0-1.534-.674 2.1 2.1 0 0 0-2.095 2.104z" class="cls-1" transform="translate(-6838.439 2389.201)"/>
</svg>
