<svg xmlns="http://www.w3.org/2000/svg" id="prefix__Component_233_1" width="500" height="500" data-name="Component 233 – 1" viewBox="0 0 500 500">
    <defs>
        <style>
            .prefix__cls-2{fill:#fff}
        </style>
    </defs>
    <rect id="prefix__Rectangle_406" width="500" height="500" data-name="Rectangle 406" rx="117" style="fill:#565bdb"/>
    <g id="prefix__MAIN_LOGO" data-name="MAIN LOGO" transform="translate(80.622 83.138)">
        <path id="prefix__Path_638" d="M2957.51 1664.705a159.561 159.561 0 0 1-60.879-59.7q-22.189-37.984-22.182-85.185t22.182-85.185a159.656 159.656 0 0 1 60.879-59.7q38.691-21.7 86.366-21.71t86.364 21.71a159.761 159.761 0 0 1 60.88 59.7q22.177 38 22.181 85.185t-22.18 85.18a159.665 159.665 0 0 1-60.88 59.7q-38.7 21.712-86.364 21.709t-86.367-21.704zm167.774-7.788a150.883 150.883 0 0 0 57.577-56.632q20.993-36.1 21-80.466t-21-80.466a150.881 150.881 0 0 0-57.577-56.632q-36.579-20.53-81.409-20.53t-81.41 20.53a150.766 150.766 0 0 0-57.576 56.632q-21.005 36.1-21 80.466t21 80.466a150.769 150.769 0 0 0 57.576 56.632q36.567 20.529 81.41 20.529t81.41-20.528z" class="prefix__cls-2" data-name="Path 638" transform="translate(-2874.449 -1353.225)"/>
        <path id="prefix__Path_639" d="M3115.2 1732.236l34.589-19.969 34.588-20.088-34.588-19.97-34.589 19.97-34.588-19.97-34.587 19.97 34.587 20.088z" class="prefix__cls-2" data-name="Path 639" transform="translate(-2942.76 -1501.784)"/>
        <path id="prefix__Path_640" d="M3115.2 1613.028l34.589-19.97 34.588-20.089-34.588-19.969-34.589 19.969-34.589-19.969-34.587 19.969 34.587 20.089z" class="prefix__cls-2" data-name="Path 640" transform="translate(-2942.76 -1436.781)"/>
    </g>
</svg>
