<svg xmlns="http://www.w3.org/2000/svg" id="Credentials" width="21.478" height="21.478" viewBox="0 0 21.478 21.478">
    <defs>
        <style>
            .cls-1{fill:#121212}
        </style>
    </defs>
    <g id="Group_13582">
        <g id="Group_13581">
            <path id="Path_22145" d="M11.813 0H1.074A1.015 1.015 0 0 0 0 1.074V20.4a1.076 1.076 0 0 0 1.074 1.074h13.96a1.015 1.015 0 0 0 1.074-1.074V4.3zm-4.3 4.3h3.222a1.076 1.076 0 0 1 1.074 1.074 1.015 1.015 0 0 1-1.074 1.074H7.517a1.076 1.076 0 0 1-1.074-1.079A1.155 1.155 0 0 1 7.517 4.3zM3.222 19.33a1.076 1.076 0 0 1-1.074-1.074 1.155 1.155 0 0 1 1.074-1.074A1.076 1.076 0 0 1 4.3 18.256a1.015 1.015 0 0 1-1.078 1.074zm0-4.3a1.076 1.076 0 0 1-1.074-1.07 1.155 1.155 0 0 1 1.074-1.074A1.076 1.076 0 0 1 4.3 13.96a1.015 1.015 0 0 1-1.078 1.074zm0-4.3a1.076 1.076 0 0 1-1.074-1.065 1.155 1.155 0 0 1 1.074-1.074A1.076 1.076 0 0 1 4.3 9.665a1.015 1.015 0 0 1-1.078 1.074zm0-4.3a1.076 1.076 0 0 1-1.074-1.061A1.155 1.155 0 0 1 3.222 4.3 1.076 1.076 0 0 1 4.3 5.369a1.015 1.015 0 0 1-1.078 1.074zm9.665 12.9h-5.37a1.076 1.076 0 0 1-1.074-1.074 1.155 1.155 0 0 1 1.074-1.074h5.369a1.076 1.076 0 0 1 1.074 1.074 1.015 1.015 0 0 1-1.073 1.074zm0-4.3h-5.37a1.076 1.076 0 0 1-1.074-1.07 1.155 1.155 0 0 1 1.074-1.074h5.369a1.076 1.076 0 0 1 1.074 1.074 1.015 1.015 0 0 1-1.073 1.074zm0-4.3h-5.37a1.076 1.076 0 0 1-1.074-1.065 1.155 1.155 0 0 1 1.074-1.074h5.369a1.076 1.076 0 0 1 1.074 1.074 1.015 1.015 0 0 1-1.073 1.074z" class="cls-1"/>
        </g>
    </g>
    <g id="Group_13584" transform="translate(18.256)">
        <g id="Group_13583">
            <path id="Path_22146" d="M436.811 0a1.652 1.652 0 0 0-1.611 1.611v1.611h3.222V1.611A1.652 1.652 0 0 0 436.811 0z" class="cls-1" transform="translate(-435.2)"/>
        </g>
    </g>
    <g id="Group_13586" transform="translate(18.256 5.369)">
        <g id="Group_13585">
            <path id="Path_22147" d="M435.2 128v10.2c0 .859.752 5.906 1.611 5.906s1.611-5.047 1.611-5.906V128z" class="cls-1" transform="translate(-435.2 -128)"/>
        </g>
    </g>
</svg>
