<svg xmlns="http://www.w3.org/2000/svg" width="22.984" height="22.986" viewBox="0 0 22.984 22.986">
    <path fill="#bebeeb" d="M22.366 10L12.988.62A2.116 2.116 0 0 0 10 .62L.623 9.991.614 10a2.115 2.115 0 0 0 1.408 3.605h.439v6.9a2.479 2.479 0 0 0 2.477 2.476h3.668a.673.673 0 0 0 .673-.673V16.9a1.131 1.131 0 0 1 1.13-1.13h2.164A1.131 1.131 0 0 1 13.7 16.9v5.41a.673.673 0 0 0 .673.673h3.668a2.479 2.479 0 0 0 2.477-2.476v-6.9h.347A2.116 2.116 0 0 0 22.366 10zm0 0" transform="translate(.001)"/>
</svg>
