<svg xmlns="http://www.w3.org/2000/svg" width="33" height="33" viewBox="0 0 33 33">
    <path d="M10.822 13.021l-.018.018L0 2.235 2.235 0l8.587 8.587L19.409 0l2.235 2.235-10.8 10.8z" transform="translate(5.37 13.117)"/>
    <path d="M7.8 9.388l-.011.012L0 1.612 1.611 0 7.8 6.191 13.993 0 15.6 1.612 7.816 9.4z" transform="translate(8.39 9.959)"/>
    <path d="M5.736 6.9l-.01.01L0 1.185 1.185 0l4.551 4.551L10.288 0l1.185 1.185-5.727 5.726z" transform="translate(10.456 7.225)"/>
    <path d="M16.5 33A16.5 16.5 0 0 1 4.833 4.833a16.5 16.5 0 0 1 23.335 23.335A16.393 16.393 0 0 1 16.5 33zm0-30.891A14.391 14.391 0 0 0 6.324 26.676 14.391 14.391 0 1 0 26.676 6.324 14.3 14.3 0 0 0 16.5 2.11z"/>
</svg>
