<?xml version="1.0" standalone="no"?>
<!DOCTYPE svg PUBLIC "-//W3C//DTD SVG 20010904//EN"
 "http://www.w3.org/TR/2001/REC-SVG-20010904/DTD/svg10.dtd">
<svg version="1.0" xmlns="http://www.w3.org/2000/svg"
 width="480.000000pt" height="480.000000pt" viewBox="0 0 480.000000 480.000000"
 preserveAspectRatio="xMidYMid meet">

<g transform="translate(0.000000,480.000000) scale(0.100000,-0.100000)"
fill="#000000" stroke="none">
<path d="M2215 4774 c-483 -49 -888 -204 -1256 -480 -424 -320 -741 -803 -869
-1326 -52 -211 -64 -322 -64 -568 0 -246 12 -357 64 -568 107 -437 344 -845
671 -1156 356 -339 798 -553 1301 -632 158 -25 518 -25 676 0 503 79 945 293
1301 632 327 311 564 719 671 1156 52 211 64 322 64 568 0 246 -12 357 -64
568 -42 172 -92 308 -175 477 -345 707 -1001 1187 -1790 1310 -96 15 -446 28
-530 19z m-1095 -2204 c57 -96 103 -179 103 -185 0 -10 -198 -351 -213 -368
-7 -8 -110 158 -110 178 0 6 23 47 50 93 28 46 50 89 50 97 0 8 -22 51 -50 97
-27 46 -50 88 -50 95 0 20 103 184 110 176 4 -4 54 -87 110 -183z m309 1 c56
-95 101 -179 101 -187 0 -7 -22 -50 -49 -96 -27 -46 -75 -127 -106 -181 -32
-55 -61 -95 -65 -90 -15 16 -100 168 -100 178 0 5 24 51 54 100 48 79 53 92
42 110 -7 11 -32 53 -56 93 -49 83 -50 73 22 195 22 38 44 65 48 60 5 -4 54
-86 109 -182z m849 87 l3 -88 -208 -2 -208 -3 0 -50 0 -50 178 -3 177 -2 0
-85 0 -85 -177 -2 -178 -3 0 -55 0 -55 208 -3 207 -2 0 -90 0 -90 -330 0 -330
0 0 380 0 380 328 -2 327 -3 3 -87z m384 -190 l3 -283 193 -3 192 -2 0 -95 0
-95 -315 0 -315 0 0 380 0 380 120 0 120 0 2 -282z m983 265 c34 -87 265 -727
265 -734 0 -6 -51 -8 -127 -7 l-126 3 -15 53 -15 52 -131 0 -132 0 -18 -55
-17 -55 -124 0 -124 0 13 38 c24 65 244 666 255 695 l11 27 139 0 c123 0 140
-2 146 -17z"/>
<path d="M3465 2443 c-14 -48 -32 -107 -40 -130 l-14 -43 80 0 c43 0 79 4 79
8 0 13 -69 244 -74 249 -2 3 -16 -35 -31 -84z"/>
</g>
</svg>
