<svg xmlns="http://www.w3.org/2000/svg" width="16.219" height="13.179" viewBox="0 0 16.219 13.179">
    <path fill="#fff" d="M80.1 111.629a9.4 9.4 0 0 0 9.468-9.468c0-.144 0-.287-.01-.43a6.77 6.77 0 0 0 1.66-1.722 6.642 6.642 0 0 1-1.911.524 3.339 3.339 0 0 0 1.463-1.84 6.668 6.668 0 0 1-2.113.808 3.331 3.331 0 0 0-5.671 3.035 9.447 9.447 0 0 1-6.858-3.477 3.33 3.33 0 0 0 1.03 4.442 3.3 3.3 0 0 1-1.51-.416v.042a3.329 3.329 0 0 0 2.67 3.262 3.322 3.322 0 0 1-1.5.057 3.331 3.331 0 0 0 3.109 2.311 6.677 6.677 0 0 1-4.133 1.427 6.774 6.774 0 0 1-.792-.048 9.42 9.42 0 0 0 5.1 1.492" transform="translate(-75 -98.45)"/>
</svg>
