<svg xmlns="http://www.w3.org/2000/svg" id="WeChatIcon" width="19.065" height="16.681" viewBox="0 0 19.065 16.681">
    <defs>
        <style>
            .cls-1{fill:#fff}
        </style>
    </defs>
    <g id="Group_13721">
        <g id="Group_13720">
            <path id="Path_22259" d="M7.149 32C3.2 32 0 34.668 0 37.958a5.64 5.64 0 0 0 2.73 4.668l-.943 1.885 2.568-1.1a8.117 8.117 0 0 0 1.734.431 4.989 4.989 0 0 1-.131-1.119c0-3.285 3.206-5.958 7.149-5.958a8.647 8.647 0 0 1 1.062.073C13.54 34.084 10.638 32 7.149 32zm-2.383 4.468a.894.894 0 1 1 .894-.894.894.894 0 0 1-.894.894zm4.766 0a.894.894 0 1 1 .894-.894.894.894 0 0 1-.894.894z" class="cls-1" transform="translate(0 -32)"/>
        </g>
    </g>
    <g id="Group_13723" transform="translate(7.149 5.957)">
        <g id="Group_13722">
            <path id="Path_22260" d="M203.915 196.766c0-2.632-2.668-4.766-5.958-4.766S192 194.134 192 196.766s2.668 4.766 5.958 4.766a7.279 7.279 0 0 0 1.555-.185l3.211 1.376-1.111-2.22a4.49 4.49 0 0 0 2.302-3.737zm-7.745-.3a.894.894 0 1 1 .894-.894.894.894 0 0 1-.894.896zm3.575 0a.894.894 0 1 1 .894-.894.894.894 0 0 1-.894.896z" class="cls-1" transform="translate(-192 -192)"/>
        </g>
    </g>
</svg>
