<svg xmlns="http://www.w3.org/2000/svg" id="weibo-website-logo" width="20.357" height="16.485" viewBox="0 0 20.357 16.485">
    <defs>
        <style>
            .cls-1{fill:#fff}
        </style>
    </defs>
    <g id="Group_13752">
        <path id="Path_22293" d="M16.455 113.007a5 5 0 0 0-1.17-.534c-.091-.03-.155-.053-.193-.068a.584.584 0 0 1-.136-.085.119.119 0 0 1-.051-.142 1.288 1.288 0 0 0 .051-.227 2.091 2.091 0 0 0 0-2.021 2.038 2.038 0 0 0-1.738-.693 7.3 7.3 0 0 0-2.793.67l-.068.023a1.283 1.283 0 0 1-.153.04.485.485 0 0 1-.165.006.141.141 0 0 1-.113-.079.341.341 0 0 1 .011-.227q.511-1.647-.227-2.373-.84-.84-2.8-.079a11.467 11.467 0 0 0-3.878 2.68 12.609 12.609 0 0 0-2.243 2.93 5.931 5.931 0 0 0-.789 2.78 3.832 3.832 0 0 0 .738 2.266 5.833 5.833 0 0 0 1.948 1.715 11.092 11.092 0 0 0 2.731 1.056 12.836 12.836 0 0 0 3.123.38 13.152 13.152 0 0 0 3.072-.352 10.6 10.6 0 0 0 2.566-.943 9.56 9.56 0 0 0 1.914-1.334 5.618 5.618 0 0 0 1.238-1.556 3.435 3.435 0 0 0 .42-1.584 2.381 2.381 0 0 0-.386-1.323 2.983 2.983 0 0 0-.909-.926zm-3.707 5.207a7.777 7.777 0 0 1-4.2 1.607 8.638 8.638 0 0 1-3.117-.238 5.579 5.579 0 0 1-2.368-1.238 2.961 2.961 0 0 1-1.011-1.931 3.392 3.392 0 0 1 1.5-3 7.775 7.775 0 0 1 4.2-1.607 8.635 8.635 0 0 1 3.117.238 5.579 5.579 0 0 1 2.368 1.238 2.96 2.96 0 0 1 1.011 1.931 3.393 3.393 0 0 1-1.501 3.001z" class="cls-1" transform="translate(0 -104.54)"/>
        <path id="Path_22294" d="M117.106 271.389a3.585 3.585 0 0 0-2.39.216 3.367 3.367 0 0 0-1.72 1.578 2.411 2.411 0 0 0-.074 2.129 2.568 2.568 0 0 0 1.675 1.437 3.529 3.529 0 0 0 2.544-.137 3.256 3.256 0 0 0 1.794-1.7 2.357 2.357 0 0 0-.029-2.163 2.684 2.684 0 0 0-1.8-1.36zm-1.215 3.679a1.31 1.31 0 0 1-.71.539 1.1 1.1 0 0 1-.846-.028.849.849 0 0 1-.488-.574.945.945 0 0 1 .148-.778 1.246 1.246 0 0 1 .681-.522 1.155 1.155 0 0 1 .829.011.849.849 0 0 1 .511.568.944.944 0 0 1-.126.784zm1.067-1.374a.446.446 0 0 1-.25.21.471.471 0 0 1-.329.006q-.341-.159-.148-.511a.447.447 0 0 1 .244-.21.454.454 0 0 1 .324-.006.323.323 0 0 1 .2.21.343.343 0 0 1-.041.301z" class="cls-1" transform="translate(-108.225 -262.421)"/>
        <path id="Path_22295" d="M351.409 121.659a.664.664 0 0 0 .386.335.653.653 0 0 0 .505-.045.662.662 0 0 0 .335-.386 2.518 2.518 0 0 0 .074-1.334 2.594 2.594 0 0 0-.618-1.232 2.53 2.53 0 0 0-1.147-.744 2.6 2.6 0 0 0-1.351-.062.631.631 0 0 0-.42.29.659.659 0 0 0-.09.505.588.588 0 0 0 .284.42.677.677 0 0 0 .511.091 1.29 1.29 0 0 1 1.488 1.658.652.652 0 0 0 .043.504z" class="cls-1" transform="translate(-335.182 -115.366)"/>
        <path id="Path_22296" d="M339.161 52.975a5.4 5.4 0 0 0-3.64-4.054 5.423 5.423 0 0 0-2.771-.131.76.76 0 0 0-.494.335.74.74 0 0 0-.108.585.783.783 0 0 0 .931.6 3.894 3.894 0 0 1 1.965.1 3.819 3.819 0 0 1 2.476 4.832.792.792 0 0 0 .511.977.731.731 0 0 0 .59-.045.766.766 0 0 0 .386-.454 5.2 5.2 0 0 0 .154-2.745z" class="cls-1" transform="translate(-318.918 -48.67)"/>
    </g>
</svg>
