<svg width="93" height="103" viewBox="0 0 93 103" fill="none" xmlns="http://www.w3.org/2000/svg">
<path d="M0 26.8164H93V90.3851H0V26.8164Z" fill="url(#paint0_linear_3146_5835)"/>
<g filter="url(#filter0_b_3146_5835)">
<rect x="3.98926" width="85.0214" height="89.3834" rx="3" fill="url(#paint1_linear_3146_5835)" fill-opacity="0.2"/>
<rect x="4.48926" y="0.5" width="84.0214" height="88.3834" rx="2.5" stroke="url(#paint2_linear_3146_5835)"/>
</g>
<rect x="24.6812" y="35" width="43.6327" height="5.16294" rx="2" fill="black" fill-opacity="0.41"/>
<rect x="14" y="43.832" width="65" height="11" rx="3" fill="black" fill-opacity="0.41"/>
<path fill-rule="evenodd" clip-rule="evenodd" d="M0 80.0552C0 79.0105 0.980777 78.2434 1.99464 78.495C3.98928 78.9901 7.72922 79.9802 11.7185 83.9406C15.4584 88.1485 19.4477 90.375 23.1877 90.375C27.1769 90.375 30.9169 88.1485 34.9062 84.4356C38.6461 80.7228 42.6354 80.7228 46.6247 81.7129C50.3646 82.703 54.3539 84.4356 58.0938 85.4257C62.0831 86.4158 65.8231 86.4158 69.8123 85.4257C73.5523 84.4356 77.5416 82.703 81.2815 83.198C85.2708 83.6931 89.0107 86.4158 91.0054 87.6535C92.2604 88.588 93 90.0607 93 91.6254V101.005C93 102.107 92.107 103 91.0054 103C89.0107 103 85.2708 103 81.2815 103C77.5416 103 73.5523 103 69.8123 103C65.8231 103 62.0831 103 58.0938 103C54.3539 103 50.3646 103 46.6247 103C42.6354 103 38.6461 103 34.9062 103C30.9169 103 27.1769 103 23.1877 103C19.4477 103 15.4584 103 11.7185 103C7.72922 103 3.98928 103 1.99464 103C0.89303 103 0 102.107 0 101.005V80.0552Z" fill="#FAE990"/>
<defs>
<filter id="filter0_b_3146_5835" x="-16.0107" y="-20" width="125.021" height="129.383" filterUnits="userSpaceOnUse" color-interpolation-filters="sRGB">
<feFlood flood-opacity="0" result="BackgroundImageFix"/>
<feGaussianBlur in="BackgroundImage" stdDeviation="10"/>
<feComposite in2="SourceAlpha" operator="in" result="effect1_backgroundBlur_3146_5835"/>
<feBlend mode="normal" in="SourceGraphic" in2="effect1_backgroundBlur_3146_5835" result="shape"/>
</filter>
<linearGradient id="paint0_linear_3146_5835" x1="46.5" y1="26.8164" x2="46.5" y2="90.3851" gradientUnits="userSpaceOnUse">
<stop stop-color="#C4C4C4"/>
<stop offset="0.0001" stop-color="#0C6EC9"/>
<stop offset="1" stop-color="#134A7D"/>
</linearGradient>
<linearGradient id="paint1_linear_3146_5835" x1="75.2976" y1="6.9377" x2="-17.361" y2="78.7742" gradientUnits="userSpaceOnUse">
<stop stop-color="white"/>
<stop offset="1" stop-color="#DBDBDB"/>
</linearGradient>
<linearGradient id="paint2_linear_3146_5835" x1="89" y1="3.62199e-06" x2="46.5" y2="89.3834" gradientUnits="userSpaceOnUse">
<stop stop-color="white" stop-opacity="0.34"/>
<stop offset="1" stop-color="white" stop-opacity="0"/>
</linearGradient>
</defs>
</svg>
