<svg width="24" height="22" viewBox="0 0 24 22" fill="none" xmlns="http://www.w3.org/2000/svg">
<path d="M7.30849 1.27239C7.94517 0.97186 8.65501 0.870437 9.34825 0.98095C10.0415 1.09146 10.687 1.40895 11.2032 1.89327C11.7194 2.37758 12.0831 3.00698 12.2482 3.70188C12.4134 4.39679 12.3726 5.12599 12.1311 5.79729C11.8896 6.46859 11.4581 7.05185 10.8913 7.47331C10.3245 7.89478 9.64778 8.13553 8.94671 8.16512C8.24563 8.19471 7.55167 8.01182 6.95259 7.63957C6.35351 7.26732 5.87622 6.72242 5.58103 6.07378C5.38497 5.64295 5.27414 5.17699 5.25485 4.7025C5.23556 4.22801 5.30819 3.75431 5.4686 3.30843C5.62902 2.86256 5.87408 2.45326 6.18977 2.10391C6.50546 1.75456 6.8856 1.47201 7.30849 1.27239ZM8.30048 5.94069L10.1619 5.06184L9.29937 3.16487L7.43827 4.04428L8.30048 5.94069Z" fill="url(#paint0_linear_3145_5207)"/>
<path d="M16.0202 7.88356C16.9722 7.43419 18.0336 7.28254 19.0702 7.44778C20.1068 7.61303 21.072 8.08775 21.8438 8.81192C22.6156 9.5361 23.1594 10.4772 23.4064 11.5163C23.6533 12.5553 23.5924 13.6457 23.2312 14.6494C22.8701 15.6532 22.225 16.5253 21.3775 17.1555C20.5299 17.7857 19.5181 18.1457 18.4698 18.1899C17.4215 18.2342 16.3838 17.9607 15.4881 17.4041C14.5923 16.8475 13.8786 16.0327 13.4372 15.0628C13.1441 14.4187 12.9784 13.7219 12.9495 13.0124C12.9207 12.303 13.0293 11.5946 13.2691 10.928C13.509 10.2613 13.8754 9.64925 14.3475 9.12688C14.8195 8.60452 15.3879 8.18204 16.0202 7.88356ZM17.5035 14.8638L20.2867 13.5497L18.9971 10.7133L16.2143 12.0282L17.5035 14.8638Z" fill="url(#paint1_linear_3145_5207)"/>
<path d="M3.07515 10.7508C4.02715 10.3014 5.08854 10.1497 6.12512 10.315C7.1617 10.4802 8.12692 10.9549 8.89874 11.6791C9.67056 12.4033 10.2143 13.3444 10.4613 14.3835C10.7083 15.4225 10.6473 16.5128 10.2862 17.5166C9.92503 18.5204 9.27992 19.3925 8.4324 20.0227C7.58487 20.6529 6.573 21.0129 5.52471 21.0571C4.47642 21.1014 3.43877 20.8279 2.543 20.2713C1.64723 19.7147 0.933549 18.8999 0.492173 17.93C0.199016 17.2858 0.033287 16.5891 0.00444317 15.8796C-0.0243998 15.1701 0.084199 14.4618 0.324064 13.7951C0.56393 13.1284 0.930351 12.5164 1.40239 11.9941C1.87443 11.4717 2.44284 11.0492 3.07515 10.7508ZM4.55844 17.731L7.34166 16.4169L6.05203 13.5805L3.26922 14.8954L4.55844 17.731Z" fill="url(#paint2_linear_3145_5207)"/>
<defs>
<linearGradient id="paint0_linear_3145_5207" x1="6.26583" y1="6.9062" x2="13.2439" y2="0.702218" gradientUnits="userSpaceOnUse">
<stop stop-color="#FC9219"/>
<stop offset="0.2" stop-color="#FFB33C"/>
<stop offset="0.48" stop-color="#FFEF68"/>
<stop offset="1" stop-color="#FC9219"/>
</linearGradient>
<linearGradient id="paint1_linear_3145_5207" x1="14.4612" y1="16.3075" x2="24.8951" y2="7.031" gradientUnits="userSpaceOnUse">
<stop stop-color="#FC9219"/>
<stop offset="0.2" stop-color="#FFB33C"/>
<stop offset="0.48" stop-color="#FFEF68"/>
<stop offset="1" stop-color="#FC9219"/>
</linearGradient>
<linearGradient id="paint2_linear_3145_5207" x1="1.51612" y1="19.1747" x2="11.95" y2="9.89819" gradientUnits="userSpaceOnUse">
<stop stop-color="#FC9219"/>
<stop offset="0.2" stop-color="#FFB33C"/>
<stop offset="0.48" stop-color="#FFEF68"/>
<stop offset="1" stop-color="#FC9219"/>
</linearGradient>
</defs>
</svg>
