<svg width="25" height="24" viewBox="0 0 25 24" fill="none" xmlns="http://www.w3.org/2000/svg">
<path fill-rule="evenodd" clip-rule="evenodd" d="M12.4199 16.1551C12.0059 16.1551 11.6699 15.8191 11.6699 15.4051V8.07812C11.6699 7.66412 12.0059 7.32812 12.4199 7.32812C12.8339 7.32812 13.1699 7.66412 13.1699 8.07812V15.4051C13.1699 15.8191 12.8339 16.1551 12.4199 16.1551Z" fill="white"/>
<path fill-rule="evenodd" clip-rule="evenodd" d="M16.0869 12.4883H8.75391C8.33891 12.4883 8.00391 12.1523 8.00391 11.7383C8.00391 11.3243 8.33891 10.9883 8.75391 10.9883H16.0869C16.5009 10.9883 16.8369 11.3243 16.8369 11.7383C16.8369 12.1523 16.5009 12.4883 16.0869 12.4883Z" fill="white"/>
<path fill-rule="evenodd" clip-rule="evenodd" d="M7.73392 2.5C4.96192 2.5 3.16992 4.397 3.16992 7.335V16.165C3.16992 19.103 4.96192 21 7.73392 21H17.1059C19.8789 21 21.6699 19.103 21.6699 16.165V7.335C21.6699 4.397 19.8789 2.5 17.1059 2.5H7.73392ZM17.1059 22.5H7.73392C4.10692 22.5 1.66992 19.954 1.66992 16.165V7.335C1.66992 3.546 4.10692 1 7.73392 1H17.1059C20.7329 1 23.1699 3.546 23.1699 7.335V16.165C23.1699 19.954 20.7329 22.5 17.1059 22.5Z" fill="white"/>
</svg>
