<svg width="22" height="20" viewBox="0 0 22 20" fill="none" xmlns="http://www.w3.org/2000/svg">
<path fill-rule="evenodd" clip-rule="evenodd" d="M10.7767 11.4655C10.1077 11.4655 9.44073 11.2445 8.88273 10.8025L4.39773 7.18648C4.07473 6.92648 4.02473 6.45348 4.28373 6.13148C4.54473 5.81048 5.01673 5.75948 5.33873 6.01848L9.81973 9.63048C10.3827 10.0765 11.1757 10.0765 11.7427 9.62648L16.1787 6.02048C16.5007 5.75748 16.9727 5.80748 17.2347 6.12948C17.4957 6.45048 17.4467 6.92248 17.1257 7.18448L12.6817 10.7965C12.1197 11.2425 11.4477 11.4655 10.7767 11.4655Z" fill="#BBBBBB"/>
<mask id="mask0_3148_3715" style="mask-type:alpha" maskUnits="userSpaceOnUse" x="0" y="0" width="22" height="20">
<path fill-rule="evenodd" clip-rule="evenodd" d="M0 0H21.4999V19.5H0V0Z" fill="white"/>
</mask>
<g mask="url(#mask0_3148_3715)">
<path fill-rule="evenodd" clip-rule="evenodd" d="M5.839 18H15.659C15.661 17.998 15.669 18 15.675 18C16.816 18 17.828 17.592 18.604 16.817C19.505 15.92 20 14.631 20 13.188V6.32C20 3.527 18.174 1.5 15.659 1.5H5.841C3.326 1.5 1.5 3.527 1.5 6.32V13.188C1.5 14.631 1.996 15.92 2.896 16.817C3.672 17.592 4.685 18 5.825 18H5.839ZM5.822 19.5C4.279 19.5 2.901 18.94 1.837 17.88C0.652 16.698 0 15.032 0 13.188V6.32C0 2.717 2.511 0 5.841 0H15.659C18.989 0 21.5 2.717 21.5 6.32V13.188C21.5 15.032 20.848 16.698 19.663 17.88C18.6 18.939 17.221 19.5 15.675 19.5H15.659H5.841H5.822Z" fill="#BBBBBB"/>
</g>
</svg>
