<svg width="30" height="38" viewBox="0 0 30 38" fill="none" xmlns="http://www.w3.org/2000/svg">
  <path d="M23.862 1.47467L29.9671 31.7692C30.1721 32.7868 29.4126 33.7966 28.2696 34.0245L8.58119 37.9525C7.43822 38.1804 6.34536 37.5402 6.14043 36.5226L0.0353218 6.22847C-0.169613 5.21047 0.590608 4.20071 1.73357 3.97282L21.4216 0.0466236C22.5646 -0.183139 23.6571 0.458921 23.862 1.47467Z" fill="url(#paint0_linear_3107_5896)"/>
  <path d="M27.3419 33.3142L9.1577 36.9421C8.13566 37.1456 7.15544 36.5714 6.97273 35.6613L1.13773 6.70676C0.954266 5.79708 1.63651 4.89077 2.65855 4.68687L20.8435 1.06053C21.8648 0.857002 22.8454 1.43122 23.0285 2.34053L28.8635 31.2958C29.047 32.2044 28.3647 33.1103 27.3419 33.3142ZM2.77345 5.26184C2.10779 5.3949 1.66326 5.98524 1.78268 6.57782L7.61767 35.5327C7.73709 36.1253 8.37601 36.4998 9.04205 36.3671L27.2263 32.7392C27.8919 32.6066 28.3365 32.0159 28.217 31.4233L22.382 2.46796C22.2626 1.87538 21.6241 1.50131 20.9584 1.634L2.77345 5.26184Z" fill="url(#paint1_linear_3107_5896)"/>
  <g style="mix-blend-mode:multiply" opacity="0.2">
    <g style="mix-blend-mode:multiply" opacity="0.2">
      <path d="M24.3133 3.65534L25.147 7.79219C18.7029 13.3522 9.42013 15.2042 1.31879 12.546L0.485113 8.40914C0.352508 7.75171 0.622987 7.09728 1.13947 6.65537C1.31809 6.50269 1.51987 6.3791 1.73733 6.28918C1.88112 6.22935 2.03052 6.1839 2.18336 6.15349L21.8729 2.22542C22.0256 2.195 22.181 2.17968 22.3367 2.17969C22.5721 2.17922 22.8062 2.21565 23.0302 2.28764C23.6778 2.49754 24.1807 2.99792 24.3133 3.65534Z" fill="white"/>
    </g>
    <g style="mix-blend-mode:multiply" opacity="0.2">
      <path d="M24.2997 3.58931L25.1333 7.72616C18.6888 13.2862 9.40608 15.1378 1.30513 12.4796L0.471442 8.34274C0.338837 7.68568 0.609325 7.03088 1.12543 6.58934C1.30406 6.43657 1.50582 6.31286 1.72328 6.22277C1.86728 6.16316 2.0168 6.11772 2.16969 6.08709L21.8593 2.15939C22.012 2.12885 22.1673 2.1134 22.323 2.11329C22.5585 2.11278 22.7926 2.14934 23.0165 2.22161C23.6637 2.43151 24.167 2.93076 24.2997 3.58931Z" fill="#F7F7F7"/>
    </g>
    <g style="mix-blend-mode:multiply" opacity="0.2">
      <path d="M24.2862 3.52253L25.1191 7.65938C18.6772 13.2194 9.39262 15.0714 1.29128 12.4132L0.45761 8.27632C0.325382 7.61927 0.595861 6.96446 1.11197 6.52256C1.2907 6.37003 1.49246 6.24646 1.70982 6.15636C1.85363 6.09658 2.00303 6.05113 2.15585 6.02068L21.8458 2.09261C21.9984 2.06218 22.1536 2.04686 22.3092 2.04688C22.5446 2.04641 22.7787 2.08284 23.0027 2.15483C23.6499 2.36472 24.1536 2.8651 24.2862 3.52253Z" fill="#F0F0F0"/>
    </g>
    <g style="mix-blend-mode:multiply" opacity="0.2">
      <path d="M24.2722 3.45853L25.1058 7.59538C18.6617 13.1554 9.37895 15.007 1.27761 12.3488L0.443937 8.21345C0.311709 7.5564 0.582198 6.90159 1.0983 6.46006C1.27696 6.30734 1.47873 6.18363 1.69615 6.09349C1.84 6.03383 1.9894 5.98838 2.14219 5.95781L21.8318 2.03011C21.9844 1.9995 22.1398 1.98418 22.2955 1.98438C22.5309 1.98391 22.765 2.02034 22.9891 2.09233C23.6366 2.30222 24.1396 2.80223 24.2722 3.45853Z" fill="#E8E8E8"/>
    </g>
    <g style="mix-blend-mode:multiply" opacity="0.2">
      <path d="M24.2587 3.394L25.0923 7.53047C18.6478 13.0905 9.36507 14.9425 1.26411 12.2843L0.430427 8.14742C0.297822 7.49037 0.56831 6.83556 1.08441 6.39366C1.26315 6.24113 1.46491 6.11756 1.68227 6.02746C1.82621 5.96768 1.97574 5.92223 2.12868 5.89178L21.8183 1.9637C21.9709 1.93327 22.1263 1.91796 22.282 1.91797C22.5174 1.9175 22.7515 1.95393 22.9755 2.02592C23.6231 2.23582 24.126 2.7362 24.2587 3.394Z" fill="#E0E0E0"/>
    </g>
    <g style="mix-blend-mode:multiply" opacity="0.2">
      <path d="M24.245 3.32722L25.0787 7.46407C18.6341 13.0241 9.35139 14.8761 1.25005 12.2175L0.416756 8.08064C0.284151 7.42358 0.55463 6.76878 1.07073 6.32725C1.24947 6.17473 1.45123 6.05115 1.66859 5.96105C1.81247 5.90111 1.96202 5.85565 2.11501 5.82537L21.8038 1.89729C21.9565 1.86668 22.1119 1.85136 22.2676 1.85157C22.5029 1.85109 22.7368 1.88752 22.9607 1.95951C23.6091 2.16941 24.1124 2.67092 24.245 3.32722Z" fill="#D8D8D8"/>
    </g>
    <g style="mix-blend-mode:multiply" opacity="0.2">
      <path d="M24.2311 3.26119L25.0648 7.39766C18.6207 12.9577 9.33794 14.8096 1.2366 12.1515L0.402922 8.0146C0.270693 7.35755 0.541182 6.70275 1.05729 6.26084C1.23596 6.10824 1.43773 5.98465 1.65513 5.89465C1.79892 5.83482 1.94834 5.78936 2.10117 5.75896L21.7907 1.83089C21.9434 1.80046 22.0988 1.78514 22.2545 1.78516C22.4899 1.78469 22.724 1.82112 22.948 1.89311C23.5956 2.10338 24.0989 2.60338 24.2311 3.26119Z" fill="#D1D1D1"/>
    </g>
    <g style="mix-blend-mode:multiply" opacity="0.2">
      <path d="M24.2176 3.19441L25.0513 7.33125C18.6068 12.8913 9.32443 14.7432 1.22309 12.0847L0.389412 7.9482C0.256807 7.29077 0.527286 6.63634 1.04339 6.19444C1.2222 6.04183 1.4241 5.91824 1.64163 5.82824C1.78535 5.76824 1.93478 5.72279 2.08765 5.69256L21.7773 1.76448C21.9299 1.73387 22.0853 1.71855 22.241 1.71875C22.4764 1.71829 22.7105 1.75471 22.9345 1.8267C23.5821 2.03585 24.085 2.53585 24.2176 3.19441Z" fill="#C9C9C9"/>
    </g>
    <g style="mix-blend-mode:multiply" opacity="0.2">
      <path d="M24.204 3.12597L25.0376 7.26281C18.5931 12.8225 9.31039 14.6744 1.20942 12.0162L0.375739 7.87789C0.243134 7.22083 0.513622 6.56603 1.02973 6.12412C1.20846 5.9716 1.41021 5.84802 1.62758 5.75792C1.77151 5.69814 1.92105 5.6527 2.07399 5.62224L21.7636 1.69454C21.9162 1.66381 22.0716 1.64837 22.2273 1.64844C22.4628 1.64794 22.6969 1.68449 22.9209 1.75676C23.5681 1.96816 24.0714 2.46816 24.204 3.12597Z" fill="#C1C1C1"/>
    </g>
    <g style="mix-blend-mode:multiply" opacity="0.2">
      <path d="M24.1902 3.06159L25.0239 7.19844C18.5797 12.7585 9.29699 14.6104 1.19753 11.9522L0.36386 7.81539C0.231632 7.15796 0.502111 6.50353 1.01822 6.06162C1.19689 5.90902 1.39866 5.78544 1.61607 5.69543C1.75982 5.63548 1.90924 5.59003 2.0621 5.55974L21.7521 1.63167C21.9046 1.60125 22.0598 1.58593 22.2154 1.58594C22.4509 1.58547 22.6849 1.6219 22.909 1.69389C23.5547 1.90379 24.058 2.40379 24.1902 3.06159Z" fill="#B9B9B9"/>
    </g>
    <g style="mix-blend-mode:multiply" opacity="0.2">
      <path d="M24.1771 2.99556L25.0108 7.13241C18.5666 12.6924 9.2839 14.544 1.18257 11.8858L0.348882 7.74898C0.216277 7.09193 0.486765 6.43712 1.00325 5.99521C1.18186 5.84253 1.38364 5.71894 1.60109 5.62902C1.74488 5.56919 1.8943 5.52374 2.04713 5.49334L21.7367 1.56564C21.8894 1.53491 22.0447 1.51946 22.2004 1.51954C22.4359 1.51901 22.67 1.55556 22.894 1.62785C23.5408 1.83775 24.0437 2.33776 24.1771 2.99556Z" fill="#B2B2B2"/>
    </g>
    <g style="mix-blend-mode:multiply" opacity="0.2">
      <path d="M24.1629 2.92878L24.9966 7.06563C18.5521 12.6257 9.26936 14.4776 1.1684 11.8194L0.334724 7.68257C0.202119 7.02515 0.472598 6.37072 0.988703 5.92881C1.16744 5.77629 1.3692 5.65271 1.58656 5.56261C1.7305 5.50283 1.88003 5.45738 2.03297 5.42693L21.7225 1.49886C21.8752 1.46843 22.0306 1.45311 22.1863 1.45313C22.4217 1.45269 22.6558 1.48912 22.8798 1.56108C23.527 1.76985 24.0303 2.27098 24.1629 2.92878Z" fill="#AAAAAA"/>
    </g>
    <g style="mix-blend-mode:multiply" opacity="0.2">
      <path d="M24.1495 2.86313L24.9832 6.99997C18.5386 12.56 9.25591 14.4116 1.15457 11.7534L0.32089 7.61729C0.188662 6.96024 0.459151 6.30544 0.975255 5.8639C1.15388 5.71113 1.35565 5.58741 1.5731 5.49733C1.71697 5.43772 1.86637 5.39228 2.01914 5.36165L21.7091 1.43283C21.8616 1.40228 22.0168 1.38684 22.1724 1.38672C22.4079 1.38619 22.642 1.42275 22.866 1.49505C23.5136 1.70532 24.0169 2.20532 24.1495 2.86313Z" fill="#A2A2A2"/>
    </g>
    <g style="mix-blend-mode:multiply" opacity="0.2">
      <path d="M24.1354 2.79597L24.9683 6.93282C18.5265 12.4928 9.24223 14.3448 1.14089 11.6866L0.307219 7.54976C0.174991 6.89233 0.44547 6.23791 0.961575 5.796C1.14025 5.6434 1.34202 5.51981 1.55943 5.4298C1.70322 5.36997 1.85263 5.32452 2.00546 5.29412L21.695 1.36604C21.8477 1.33562 22.0031 1.3203 22.1588 1.32032C22.3942 1.31985 22.6283 1.35628 22.8523 1.42826C23.4991 1.63816 24.0028 2.13854 24.1354 2.79597Z" fill="#9B9B9B"/>
    </g>
    <g style="mix-blend-mode:multiply" opacity="0.2">
      <path d="M24.1218 2.72994L24.9555 6.86679C18.511 12.4268 9.22824 14.2784 1.12727 11.6202L0.29322 7.48336C0.160615 6.82631 0.431103 6.1715 0.947208 5.72997C1.12583 5.5772 1.3276 5.45348 1.54506 5.3634C1.68905 5.30379 1.83857 5.25835 1.99147 5.22772L21.6811 1.30001C21.8337 1.26947 21.9891 1.25402 22.1448 1.25391C22.3803 1.25338 22.6144 1.28994 22.8383 1.36223C23.4863 1.57213 23.9888 2.07214 24.1218 2.72994Z" fill="#939393"/>
    </g>
    <g style="mix-blend-mode:multiply" opacity="0.2">
      <path d="M24.1082 2.66316L24.9419 6.8C18.4974 12.36 9.21468 14.212 1.11334 11.5538L0.280036 7.41695C0.147431 6.7599 0.417919 6.1051 0.934024 5.66319C1.11276 5.51067 1.31451 5.38709 1.53187 5.29699C1.67581 5.23721 1.82535 5.19176 1.97829 5.16131L21.6679 1.23323C21.8206 1.2028 21.9759 1.18749 22.1316 1.1875C22.3669 1.18703 22.6008 1.22346 22.8248 1.29545C23.4723 1.50647 23.9756 2.00573 24.1082 2.66316Z" fill="#8B8B8B"/>
    </g>
    <g style="mix-blend-mode:multiply" opacity="0.2">
      <path d="M24.0944 2.59878L24.9281 6.73563C18.4839 12.2957 9.20121 14.1472 1.09988 11.4891L0.266204 7.3522C0.133975 6.69515 0.404455 6.04035 0.920559 5.59881C1.09922 5.44609 1.30099 5.32238 1.51842 5.23224C1.66222 5.17253 1.81163 5.12721 1.96445 5.09693L21.6533 1.17073C21.8059 1.14012 21.9613 1.1248 22.117 1.125C22.3525 1.12454 22.5865 1.16096 22.8106 1.23295C23.4589 1.44097 23.9622 1.94098 24.0944 2.59878Z" fill="#838383"/>
    </g>
    <g style="mix-blend-mode:multiply" opacity="0.2">
      <path d="M24.0809 2.53313L24.9146 6.6696C18.4701 12.2281 9.18771 14.0816 1.08638 11.4234L0.252692 7.28655C0.120087 6.6295 0.390575 5.97469 0.90668 5.53278C1.08549 5.38017 1.28738 5.25659 1.5049 5.16658C1.64872 5.10701 1.79814 5.06181 1.95094 5.03165L21.6405 1.10358C21.7936 1.07333 21.9493 1.05826 22.1054 1.0586C22.3408 1.05813 22.5749 1.09456 22.7989 1.16655C23.4454 1.37494 23.9483 1.87532 24.0809 2.53313Z" fill="#7C7C7C"/>
    </g>
    <g style="mix-blend-mode:multiply" opacity="0.2">
      <path d="M24.0672 2.46784L24.9009 6.60469C18.4564 12.1647 9.17366 14.0167 1.0727 11.3581L0.239021 7.22127C0.106416 6.56421 0.376895 5.90941 0.893 5.46787C1.07174 5.31535 1.27349 5.19177 1.49086 5.10168C1.63473 5.04173 1.78428 4.99628 1.93726 4.96599L21.6269 1.03792C21.7795 1.00731 21.9349 0.991989 22.0906 0.992191C22.326 0.991754 22.5601 1.02818 22.7841 1.10014C23.4313 1.31004 23.9346 1.80929 24.0672 2.46784Z" fill="#747474"/>
    </g>
    <g style="mix-blend-mode:multiply" opacity="0.2">
      <path d="M24.0534 2.40181L24.8871 6.53828C18.4429 12.0983 9.16021 13.9503 1.05887 11.2921L0.225187 7.15523C0.092959 6.49818 0.363448 5.84337 0.879552 5.40146C1.05823 5.24886 1.25999 5.12527 1.4774 5.03527C1.62121 4.97549 1.77062 4.93004 1.92344 4.89958L21.6134 0.971512C21.766 0.941086 21.9212 0.92577 22.0768 0.925786C22.3122 0.925317 22.5462 0.961746 22.7703 1.03373C23.4179 1.244 23.9212 1.74401 24.0534 2.40181Z" fill="#6C6C6C"/>
    </g>
    <g style="mix-blend-mode:multiply" opacity="0.2">
      <path d="M24.0398 2.33353L24.8735 6.47038C18.4294 12.0319 9.14627 13.8839 1.04681 11.2253L0.21314 7.08882C0.0805354 6.4314 0.351015 5.77697 0.867496 5.33506C1.04611 5.18237 1.2479 5.05878 1.46535 4.96887C1.60908 4.90887 1.75851 4.86341 1.91138 4.83318L21.601 0.905106C21.7536 0.874495 21.909 0.859177 22.0647 0.859379C22.3001 0.85891 22.5342 0.895339 22.7582 0.967327C23.4043 1.17722 23.9072 1.67723 24.0398 2.33353Z" fill="#646464"/>
    </g>
    <g style="mix-blend-mode:multiply" opacity="0.2">
      <path d="M24.0267 2.269L24.8604 6.40585C18.4159 11.9659 9.13313 13.8175 1.03218 11.1593L0.198493 7.02242C0.0658882 6.36537 0.336376 5.71056 0.852481 5.26866C1.03122 5.11613 1.23297 4.99256 1.45033 4.90246C1.59427 4.84268 1.7438 4.79723 1.89674 4.76678L21.5863 0.839076C21.739 0.808344 21.8943 0.7929 22.0501 0.792974C22.2855 0.792469 22.5196 0.829029 22.7436 0.901296C23.3904 1.11119 23.8937 1.6112 24.0267 2.269Z" fill="#5D5D5D"/>
    </g>
    <g style="mix-blend-mode:multiply" opacity="0.2">
      <path d="M24.0128 2.20222L24.8464 6.33907C18.4019 11.8991 9.11918 13.7511 1.01785 11.0925L0.184172 6.95601C0.0519441 6.29858 0.322423 5.64416 0.838528 5.20225C1.01726 5.04973 1.21902 4.92615 1.43638 4.83605C1.58013 4.77611 1.72955 4.73065 1.88241 4.70037L21.5724 0.772293C21.7249 0.741867 21.8801 0.726551 22.0357 0.726567C22.2712 0.726098 22.5052 0.762527 22.7293 0.834514C23.3769 1.04441 23.8801 1.54592 24.0128 2.20222Z" fill="#555555"/>
    </g>
    <g style="mix-blend-mode:multiply" opacity="0.2">
      <path d="M23.9987 2.13656L24.8324 6.27341C18.3882 11.8334 9.10552 13.685 1.00418 11.0268L0.1705 6.88998C0.0382715 6.23293 0.30876 5.57813 0.824865 5.13622C1.00375 4.98342 1.20577 4.8597 1.42347 4.76965C1.56726 4.70982 1.71667 4.66437 1.8695 4.63396L21.5591 0.706264C21.7117 0.675532 21.8671 0.660088 22.0228 0.660162C22.2583 0.659632 22.4924 0.696192 22.7164 0.768484C23.3632 0.978756 23.8661 1.47876 23.9987 2.13656Z" fill="#4D4D4D"/>
    </g>
    <g style="mix-blend-mode:multiply" opacity="0.2">
      <path d="M23.9853 2.07016L24.8179 6.20625C18.3734 11.7663 9.09064 13.6183 0.989687 10.9601L0.156013 6.8232C0.0234084 6.16578 0.293887 5.51135 0.809992 5.06944C0.988728 4.91692 1.19049 4.79334 1.40785 4.70324C1.55179 4.64346 1.70131 4.59801 1.85425 4.56756L21.5438 0.639481C21.6965 0.609055 21.8519 0.593739 22.0076 0.593754C22.243 0.593285 22.4771 0.629714 22.7011 0.701702C23.3487 0.911599 23.8527 1.4116 23.9853 2.07016Z" fill="#464646"/>
    </g>
    <g style="mix-blend-mode:multiply" opacity="0.2">
      <path d="M23.9718 2.00487L24.8055 6.14172C18.3609 11.7017 9.07822 13.5533 0.97688 10.8951L0.142829 6.75679C0.0102241 6.09974 0.280712 5.44494 0.796817 5.0034C0.975442 4.85063 1.17721 4.72691 1.39466 4.63683C1.53866 4.57722 1.68818 4.53178 1.84108 4.50115L21.5307 0.573451C21.6833 0.542904 21.8387 0.527462 21.9944 0.52735C22.2297 0.526815 22.4637 0.563371 22.6876 0.635667C23.3359 0.847064 23.8384 1.34707 23.9718 2.00487Z" fill="#3E3E3E"/>
    </g>
    <g style="mix-blend-mode:multiply" opacity="0.2">
      <path d="M23.9577 1.93659L24.7914 6.07344C18.3472 11.6335 9.06451 13.4854 0.963168 10.8272L0.129484 6.69039C-0.00274412 6.03296 0.267744 5.37853 0.783849 4.93662C0.962527 4.78402 1.16429 4.66044 1.3817 4.57043C1.52549 4.5106 1.6749 4.46515 1.82774 4.43475L21.5173 0.506673C21.67 0.476247 21.8253 0.460926 21.9811 0.460942C22.2165 0.460473 22.4505 0.496902 22.6746 0.568889C23.3222 0.778786 23.8255 1.27917 23.9577 1.93659Z" fill="#363636"/>
    </g>
    <g style="mix-blend-mode:multiply" opacity="0.2">
      <path d="M23.9442 1.87056L24.7779 6.00741C18.3333 11.5674 9.05098 13.419 0.949648 10.7608L0.115974 6.62398C-0.0166306 5.96693 0.253848 5.31212 0.769953 4.87059C0.948655 4.71773 1.15057 4.59401 1.36819 4.50402C1.51204 4.44436 1.66144 4.39891 1.81422 4.36834L21.5027 0.440639C21.6553 0.410091 21.8107 0.394649 21.9664 0.394537C22.2019 0.394007 22.436 0.430563 22.66 0.502855C23.3087 0.712752 23.8116 1.21276 23.9442 1.87056Z" fill="#2E2E2E"/>
    </g>
    <g style="mix-blend-mode:multiply" opacity="0.2">
      <path d="M23.9305 1.80378L24.7642 5.94063C18.3197 11.5007 9.03695 13.3526 0.935985 10.6944L0.102302 6.55757C-0.0303033 5.90052 0.240185 5.24572 0.75629 4.80381C0.935027 4.65129 1.13678 4.52771 1.35414 4.43761C1.49808 4.37783 1.64761 4.33238 1.80055 4.30193L21.4901 0.373855C21.6428 0.343429 21.7982 0.328113 21.9539 0.328129C22.1893 0.327691 22.4234 0.364119 22.6474 0.436076C23.2946 0.644849 23.7979 1.14635 23.9305 1.80378Z" fill="#272727"/>
    </g>
    <g style="mix-blend-mode:multiply" opacity="0.2">
      <path d="M23.9167 1.73775L24.7504 5.8746C18.3062 11.4346 9.02348 13.2862 0.922144 10.628L0.0884693 6.49192C-0.0437591 5.83487 0.22672 5.18006 0.742825 4.73853C0.921488 4.58581 1.12326 4.46209 1.34068 4.37196C1.4845 4.3123 1.63391 4.26698 1.78671 4.23665L21.4767 0.30745C21.6292 0.276839 21.7844 0.261521 21.94 0.261723C22.1755 0.261254 22.4095 0.297683 22.6336 0.36967C23.2812 0.579942 23.7845 1.07995 23.9167 1.73775Z" fill="#1F1F1F"/>
    </g>
    <g style="mix-blend-mode:multiply" opacity="0.2">
      <path d="M23.9032 1.67134L24.7369 5.80782C18.2927 11.3678 9.00997 13.2198 0.908639 10.5616L0.0749561 6.42476C-0.0576489 5.76771 0.21284 5.11291 0.729321 4.671C0.907938 4.51832 1.10971 4.39472 1.32717 4.3048C1.47096 4.24497 1.62037 4.19952 1.77321 4.16912L21.4628 0.241043C21.6155 0.210617 21.7708 0.195301 21.9265 0.195317C22.162 0.194848 22.396 0.231277 22.6201 0.303264C23.2677 0.513161 23.7706 1.01354 23.9032 1.67134Z" fill="#171717"/>
    </g>
    <g style="mix-blend-mode:multiply" opacity="0.2">
      <path d="M23.8893 1.60456L24.723 5.74141C18.2785 11.3014 8.99539 13.1534 0.895937 10.4948L0.0622634 6.35798C-0.0703416 5.70093 0.200137 5.04613 0.716242 4.60459C0.894979 4.45207 1.09674 4.32849 1.3141 4.2384C1.45798 4.17845 1.60752 4.133 1.7605 4.10271L21.4501 0.174637C21.6027 0.144026 21.7581 0.128708 21.9138 0.12891C22.1493 0.128472 22.3833 0.1649 22.6074 0.236857C23.2534 0.446755 23.7567 0.946759 23.8893 1.60456Z" fill="#0F0F0F"/>
    </g>
    <g style="mix-blend-mode:multiply" opacity="0.2">
      <path d="M23.876 1.53853L24.7097 5.675C18.2652 11.235 8.98248 13.087 0.881136 10.4288L0.0474529 6.29195C-0.0847754 5.6349 0.185713 4.9801 0.701818 4.53819C0.880555 4.38567 1.0823 4.26209 1.29967 4.17199C1.44358 4.11216 1.59313 4.06671 1.74608 4.03631L21.4357 0.108231C21.5882 0.0778219 21.7434 0.0625059 21.899 0.0625045C22.1345 0.0620354 22.3685 0.0984643 22.5926 0.170452C23.2402 0.381473 23.7434 0.880729 23.876 1.53853Z" fill="#080808"/>
    </g>
    <g style="mix-blend-mode:multiply" opacity="0.2">
      <path d="M23.862 1.47378L24.6957 5.61063C18.2515 11.1707 8.96879 13.0226 0.867456 10.364L0.0337817 6.22758C-0.0984465 5.57015 0.172033 4.91572 0.688137 4.47381C0.866815 4.32121 1.06859 4.19762 1.28599 4.10761C1.42972 4.04762 1.57915 4.00216 1.73202 3.97193L21.4216 0.045731C21.5743 0.0151202 21.7296 -0.000197709 21.8854 4.47201e-06C22.1208 -0.000464563 22.3548 0.0359643 22.5789 0.107952C23.2265 0.315975 23.7294 0.815977 23.862 1.47378Z" fill="black"/>
    </g>
  </g>
  <path d="M23.862 1.47378L24.6957 5.61063C18.2515 11.1707 8.96879 13.0226 0.867456 10.364L0.0337817 6.22758C-0.0984465 5.57015 0.172033 4.91572 0.688137 4.47381C0.866815 4.32121 1.06859 4.19762 1.28599 4.10761C1.42972 4.04762 1.57915 4.00216 1.73202 3.97193L21.4216 0.045731C21.5743 0.0151202 21.7296 -0.000197709 21.8854 4.47201e-06C22.1208 -0.000464563 22.3548 0.0359643 22.5789 0.107952C23.2265 0.315975 23.7294 0.815977 23.862 1.47378Z" fill="url(#paint2_linear_3107_5896)"/>
  <path d="M21.8852 4.47201e-06L22.9182 5.12487C20.1142 7.35465 16.7279 8.91051 13.1129 9.63353C9.49793 10.3566 5.7703 10.2164 2.31843 9.23435L1.28585 4.10949C1.06844 4.1995 0.866666 4.32308 0.687988 4.47569L1.73903 9.69275L1.91496 9.74448C5.52544 10.8045 9.43766 10.9649 13.2286 10.2085C17.0195 9.45212 20.5682 7.80368 23.4881 5.44084L23.6302 5.32577L22.5787 0.107952C22.3547 0.0359643 22.1206 -0.000464563 21.8852 4.47201e-06Z" fill="url(#paint3_linear_3107_5896)"/>
  <g style="mix-blend-mode:multiply" opacity="0.2">
    <path d="M14.3482 14.846C16.1792 14.826 17.6472 13.3329 17.627 11.5112C17.6069 9.68942 16.1063 8.22885 14.2753 8.24889C12.4443 8.26892 10.9763 9.76197 10.9964 11.5837C11.0165 13.4055 12.5172 14.866 14.3482 14.846Z" fill="white"/>
  </g>
  <g style="mix-blend-mode:multiply" opacity="0.2">
    <path d="M17.6117 11.6482C17.6902 9.83068 16.273 8.29402 14.4462 8.21593C12.6195 8.13785 11.0751 9.54792 10.9966 11.3654C10.9181 13.1829 12.3353 14.7195 14.162 14.7976C15.9888 14.8757 17.5332 13.4657 17.6117 11.6482Z" fill="#F7F7F7"/>
  </g>
  <g style="mix-blend-mode:multiply" opacity="0.2">
    <path d="M14.4404 14.7513C16.2643 14.6714 17.6778 13.1355 17.5975 11.3208C17.5173 9.50611 15.9736 8.09974 14.1497 8.17961C12.3258 8.25947 10.9122 9.79534 10.9925 11.6101C11.0728 13.4248 12.6164 14.8311 14.4404 14.7513Z" fill="#F0F0F0"/>
  </g>
  <g style="mix-blend-mode:multiply" opacity="0.2">
    <path d="M17.5756 11.5323C17.6208 9.71932 16.1802 8.21314 14.358 8.1682C12.5358 8.12326 11.022 9.55657 10.9768 11.3696C10.9316 13.1826 12.3722 14.6888 14.1944 14.7337C16.0167 14.7787 17.5305 13.3454 17.5756 11.5323Z" fill="#E8E8E8"/>
  </g>
  <g style="mix-blend-mode:multiply" opacity="0.2">
    <path d="M14.7169 14.4681C16.537 14.3775 17.9387 12.8361 17.8477 11.0252C17.7567 9.21434 16.2074 7.81973 14.3873 7.91027C12.5673 8.00082 11.1656 9.54223 11.2566 11.3531C11.3476 13.164 12.8968 14.5586 14.7169 14.4681Z" fill="#E0E0E0"/>
  </g>
  <g style="mix-blend-mode:multiply" opacity="0.2">
    <path d="M14.2521 14.6691C16.0694 14.6691 17.5427 13.2033 17.5427 11.3951C17.5427 9.58692 16.0694 8.12109 14.2521 8.12109C12.4347 8.12109 10.9614 9.58692 10.9614 11.3951C10.9614 13.2033 12.4347 14.6691 14.2521 14.6691Z" fill="#D8D8D8"/>
  </g>
  <g style="mix-blend-mode:multiply" opacity="0.2">
    <path d="M17.5363 11.4585C17.5851 9.65368 16.1541 8.15123 14.3401 8.10271C12.5261 8.05419 11.016 9.47797 10.9672 11.2828C10.9184 13.0877 12.3495 14.5901 14.1635 14.6386C15.9775 14.6872 17.4875 13.2634 17.5363 11.4585Z" fill="#D1D1D1"/>
  </g>
  <g style="mix-blend-mode:multiply" opacity="0.2">
    <path d="M17.475 11.8515C17.7562 10.0707 16.5333 8.40029 14.7435 8.12047C12.9537 7.84066 11.2748 9.05741 10.9936 10.8382C10.7124 12.6189 11.9353 14.2893 13.7251 14.5691C15.5149 14.849 17.1938 13.6322 17.475 11.8515Z" fill="#C9C9C9"/>
  </g>
  <g style="mix-blend-mode:multiply" opacity="0.2">
    <path d="M17.4961 11.3679C17.5258 9.56821 16.0835 8.08535 14.2747 8.05583C12.4659 8.0263 10.9755 9.46128 10.9458 11.2609C10.9161 13.0606 12.3584 14.5435 14.1672 14.573C15.976 14.6025 17.4664 13.1675 17.4961 11.3679Z" fill="#C1C1C1"/>
  </g>
  <g style="mix-blend-mode:multiply" opacity="0.2">
    <path d="M17.4664 11.6171C17.6483 9.82897 16.3389 8.23272 14.5417 8.05172C12.7446 7.87072 11.1402 9.17353 10.9583 10.9616C10.7764 12.7497 12.0858 14.3459 13.883 14.5269C15.6801 14.7079 17.2845 13.4051 17.4664 11.6171Z" fill="#B9B9B9"/>
  </g>
  <g style="mix-blend-mode:multiply" opacity="0.2">
    <path d="M17.4405 11.4211C17.5343 9.62897 16.1502 8.10056 14.349 8.00726C12.5478 7.91397 11.0116 9.29113 10.9178 11.0832C10.8241 12.8753 12.2082 14.4038 14.0094 14.497C15.8106 14.5903 17.3468 13.2132 17.4405 11.4211Z" fill="#B2B2B2"/>
  </g>
  <g style="mix-blend-mode:multiply" opacity="0.2">
    <path d="M17.4323 11.5004C17.5795 9.71481 16.244 8.14852 14.4493 8.00202C12.6546 7.85553 11.0803 9.18432 10.9331 10.97C10.7859 12.7556 12.1214 14.3219 13.9161 14.4684C15.7108 14.6149 17.285 13.2861 17.4323 11.5004Z" fill="#AAAAAA"/>
  </g>
  <g style="mix-blend-mode:multiply" opacity="0.2">
    <path d="M14.4926 14.4186C16.2815 14.2378 17.5843 12.6485 17.4026 10.8687C17.2209 9.0889 15.6235 7.79266 13.8346 7.97344C12.0458 8.15423 10.743 9.74358 10.9247 11.5234C11.1064 13.3031 12.7038 14.5994 14.4926 14.4186Z" fill="#A2A2A2"/>
  </g>
  <g style="mix-blend-mode:multiply" opacity="0.2">
    <path d="M14.3257 14.4114C16.1182 14.312 17.4904 12.7856 17.3905 11.0021C17.2906 9.21865 15.7565 7.85343 13.9639 7.95283C12.1714 8.05223 10.7992 9.57861 10.8992 11.3621C10.9991 13.1456 12.5332 14.5108 14.3257 14.4114Z" fill="#9B9B9B"/>
  </g>
  <g style="mix-blend-mode:multiply" opacity="0.2">
    <path d="M14.1882 14.3796C15.9804 14.3498 17.4088 12.8801 17.3788 11.097C17.3488 9.31385 15.8716 7.89258 14.0794 7.92246C12.2873 7.95234 10.8588 9.42205 10.8888 11.2052C10.9189 12.9883 12.396 14.4095 14.1882 14.3796Z" fill="#939393"/>
  </g>
  <g style="mix-blend-mode:multiply" opacity="0.2">
    <path d="M17.3652 11.2598C17.4423 9.48084 16.0554 7.97646 14.2673 7.89972C12.4793 7.82299 10.9673 9.20294 10.8901 10.982C10.813 12.761 12.2 14.2653 13.988 14.3421C15.776 14.4188 17.2881 13.0389 17.3652 11.2598Z" fill="#8B8B8B"/>
  </g>
  <g style="mix-blend-mode:multiply" opacity="0.2">
    <path d="M14.6316 14.2768C16.395 13.9886 17.5896 12.3326 17.2999 10.5782C17.0102 8.82375 15.3458 7.63515 13.5825 7.9234C11.8191 8.21164 10.6245 9.86757 10.9142 11.622C11.2039 13.3765 12.8683 14.5651 14.6316 14.2768Z" fill="#838383"/>
  </g>
  <g style="mix-blend-mode:multiply" opacity="0.2">
    <path d="M17.3041 11.4787C17.5345 9.71825 16.287 8.1053 14.5176 7.87604C12.7483 7.64677 11.1271 8.88802 10.8967 10.6484C10.6663 12.4088 11.9138 14.0218 13.6832 14.2511C15.4525 14.4803 17.0737 13.2391 17.3041 11.4787Z" fill="#7C7C7C"/>
  </g>
  <g style="mix-blend-mode:multiply" opacity="0.2">
    <path d="M17.3023 11.2335C17.4126 9.46448 16.0607 7.94148 14.2828 7.83174C12.5048 7.72199 10.9741 9.06706 10.8638 10.836C10.7535 12.605 12.1054 14.128 13.8833 14.2378C15.6613 14.3475 17.192 13.0024 17.3023 11.2335Z" fill="#747474"/>
  </g>
  <g style="mix-blend-mode:multiply" opacity="0.2">
    <path d="M17.2645 11.3296C17.447 9.56929 16.1607 7.99503 14.3914 7.81343C12.6221 7.63183 11.0399 8.91165 10.8573 10.672C10.6748 12.4323 11.9611 14.0066 13.7304 14.1882C15.4997 14.3698 17.082 13.09 17.2645 11.3296Z" fill="#6C6C6C"/>
  </g>
  <g style="mix-blend-mode:multiply" opacity="0.2">
    <path d="M14.091 14.1891C15.8668 14.1685 17.2896 12.7194 17.2688 10.9525C17.248 9.18564 15.7916 7.77005 14.0157 7.79071C12.2399 7.81137 10.8171 9.26046 10.8379 11.0273C10.8587 12.7942 12.3151 14.2098 14.091 14.1891Z" fill="#646464"/>
  </g>
  <g style="mix-blend-mode:multiply" opacity="0.2">
    <path d="M17.2594 10.9684C17.2677 9.20411 15.837 7.76713 14.0638 7.75882C12.2905 7.75051 10.8462 9.174 10.8379 10.9383C10.8295 12.7026 12.2603 14.1396 14.0335 14.1479C15.8067 14.1562 17.251 12.7327 17.2594 10.9684Z" fill="#5D5D5D"/>
  </g>
  <g style="mix-blend-mode:multiply" opacity="0.2">
    <path d="M14.2333 14.1006C16.0002 13.9906 17.343 12.4764 17.2324 10.7184C17.1219 8.96041 15.5999 7.62446 13.833 7.73445C12.0661 7.84443 10.7234 9.35871 10.8339 11.1167C10.9445 12.8747 12.4665 14.2106 14.2333 14.1006Z" fill="#555555"/>
  </g>
  <g style="mix-blend-mode:multiply" opacity="0.2">
    <path d="M14.0689 14.0792C15.8364 14.0513 17.2464 12.6031 17.2183 10.8446C17.1902 9.08611 15.7347 7.68321 13.9673 7.71114C12.1999 7.73908 10.7898 9.18726 10.8179 10.9458C10.846 12.7043 12.3015 14.1072 14.0689 14.0792Z" fill="#4D4D4D"/>
  </g>
  <g style="mix-blend-mode:multiply" opacity="0.2">
    <path d="M17.2031 10.9455C17.2441 9.1899 15.8469 7.7337 14.0825 7.69294C12.318 7.65218 10.8544 9.0423 10.8134 10.7979C10.7725 12.5534 12.1696 14.0096 13.9341 14.0504C15.6986 14.0911 17.1622 12.701 17.2031 10.9455Z" fill="#464646"/>
  </g>
  <g style="mix-blend-mode:multiply" opacity="0.2">
    <path d="M17.1761 10.8841C17.201 9.13098 15.7928 7.68966 14.0307 7.66487C12.2686 7.64009 10.82 9.04122 10.7951 10.7944C10.7702 12.5475 12.1784 13.9888 13.9405 14.0136C15.7025 14.0384 17.1512 12.6373 17.1761 10.8841Z" fill="#3E3E3E"/>
  </g>
  <g style="mix-blend-mode:multiply" opacity="0.2">
    <path d="M14.273 13.9696C16.0248 13.8085 17.3137 12.2649 17.1518 10.5219C16.9899 8.77888 15.4385 7.49648 13.6867 7.65756C11.9348 7.81864 10.6459 9.36221 10.8078 11.1052C10.9697 12.8482 12.5211 14.1306 14.273 13.9696Z" fill="#363636"/>
  </g>
  <g style="mix-blend-mode:multiply" opacity="0.2">
    <path d="M17.1334 10.9004C17.1996 9.15393 15.8302 7.68471 14.0749 7.61884C12.3195 7.55297 10.8428 8.91539 10.7766 10.6619C10.7104 12.4084 12.0797 13.8776 13.8351 13.9435C15.5905 14.0094 17.0672 12.6469 17.1334 10.9004Z" fill="#2E2E2E"/>
  </g>
  <g style="mix-blend-mode:multiply" opacity="0.2">
    <path d="M17.085 11.298C17.3835 9.57838 16.2244 7.94359 14.4961 7.64657C12.7678 7.34954 11.1247 8.50275 10.8262 10.2223C10.5277 11.9419 11.6867 13.5767 13.415 13.8737C15.1434 14.1708 16.7865 13.0176 17.085 11.298Z" fill="#272727"/>
  </g>
  <g style="mix-blend-mode:multiply" opacity="0.2">
    <path d="M17.0959 10.9429C17.2153 9.20462 15.8958 7.69913 14.1486 7.58032C12.4015 7.4615 10.8884 8.77436 10.769 10.5127C10.6495 12.251 11.9691 13.7565 13.7162 13.8753C15.4633 13.9941 16.9765 12.6812 17.0959 10.9429Z" fill="#1F1F1F"/>
  </g>
  <g style="mix-blend-mode:multiply" opacity="0.2">
    <path d="M17.0985 10.7893C17.1451 9.05042 15.7662 7.60316 14.0185 7.55671C12.2709 7.51027 10.8163 8.88223 10.7696 10.6211C10.7229 12.3599 12.1018 13.8072 13.8495 13.8536C15.5972 13.9001 17.0518 12.5281 17.0985 10.7893Z" fill="#171717"/>
  </g>
  <g style="mix-blend-mode:multiply" opacity="0.2">
    <path d="M17.0719 10.8605C17.1748 9.12672 15.8456 7.63823 14.1031 7.53583C12.3605 7.43343 10.8645 8.75591 10.7615 10.4897C10.6586 12.2234 11.9878 13.7119 13.7304 13.8143C15.4729 13.9167 16.969 12.5942 17.0719 10.8605Z" fill="#0F0F0F"/>
  </g>
  <g style="mix-blend-mode:multiply" opacity="0.2">
    <path d="M17.0649 10.7537C17.1205 9.0205 15.7535 7.57058 14.0115 7.5152C12.2695 7.45982 10.8122 8.81997 10.7565 10.5532C10.7009 12.2864 12.0679 13.7363 13.8099 13.7917C15.5519 13.8471 17.0092 12.4869 17.0649 10.7537Z" fill="#080808"/>
  </g>
  <g style="mix-blend-mode:multiply" opacity="0.2">
    <path d="M17.0273 10.6539C17.0489 8.92265 15.6558 7.50179 13.9157 7.48034C12.1757 7.45889 10.7476 8.84496 10.7261 10.5762C10.7045 12.3075 12.0976 13.7283 13.8376 13.7498C15.5777 13.7712 17.0058 12.3852 17.0273 10.6539Z" fill="black"/>
  </g>
  <path d="M12.6239 7.74811C12.0532 7.99709 11.5694 8.40889 11.2339 8.93142C10.8984 9.45395 10.7261 10.0637 10.7389 10.6837C10.7518 11.3036 10.9491 11.9058 11.3059 12.4142C11.6627 12.9226 12.163 13.3142 12.7436 13.5397C13.3242 13.7651 13.9589 13.8142 14.5675 13.6807C15.1761 13.5472 15.7312 13.2371 16.1627 12.7897C16.5942 12.3423 16.8826 11.7776 16.9915 11.1671C17.1004 10.5566 17.025 9.92764 16.7746 9.35982C16.4388 8.59858 15.813 8.00116 15.0346 7.69893C14.2563 7.3967 13.3892 7.41438 12.6239 7.74811ZM15.0888 11.084L13.4203 11.8115L12.6891 10.1511L14.3576 9.42354L15.0888 11.084Z" fill="url(#paint4_linear_3107_5896)"/>
  <path d="M12.9189 8.41682C12.4813 8.60756 12.1104 8.92312 11.853 9.3236C11.5957 9.72409 11.4635 10.1915 11.4731 10.6667C11.4828 11.142 11.6339 11.6037 11.9073 11.9935C12.1807 12.3833 12.5641 12.6837 13.0091 12.8567C13.4541 13.0297 13.9407 13.0675 14.4072 12.9653C14.8738 12.8632 15.2995 12.6257 15.6304 12.2828C15.9613 11.94 16.1826 11.5072 16.2663 11.0392C16.35 10.5713 16.2924 10.0891 16.1007 9.65371C15.8436 9.0699 15.3639 8.61161 14.7673 8.37964C14.1706 8.14768 13.5057 8.16105 12.9189 8.41682Z" fill="url(#paint5_linear_3107_5896)"/>
  <path style="mix-blend-mode:multiply" opacity="0.2" d="M12.9189 8.41682C12.4813 8.60756 12.1104 8.92312 11.853 9.3236C11.5957 9.72409 11.4635 10.1915 11.4731 10.6667C11.4828 11.142 11.6339 11.6037 11.9073 11.9935C12.1807 12.3833 12.5641 12.6837 13.0091 12.8567C13.4541 13.0297 13.9407 13.0675 14.4072 12.9653C14.8738 12.8632 15.2995 12.6257 15.6304 12.2828C15.9613 11.94 16.1826 11.5072 16.2663 11.0392C16.35 10.5713 16.2924 10.0891 16.1007 9.65371C15.8436 9.0699 15.3639 8.61161 14.7673 8.37964C14.1706 8.14768 13.5057 8.16105 12.9189 8.41682Z" fill="url(#paint6_radial_3107_5896)"/>
  <defs>
    <linearGradient id="paint0_linear_3107_5896" x1="12.5635" y1="3.53494" x2="17.9964" y2="29.8073" gradientUnits="userSpaceOnUse">
      <stop offset="0.18" stop-color="#FF4148"/>
      <stop offset="1" stop-color="#980B0E"/>
    </linearGradient>
    <linearGradient id="paint1_linear_3107_5896" x1="26.9667" y1="-9.97968" x2="10.1092" y2="31.2625" gradientUnits="userSpaceOnUse">
      <stop offset="0.01" stop-color="#F7BB2E"/>
      <stop offset="0.03" stop-color="#F6B626"/>
      <stop offset="0.57" stop-color="#FFEF7F"/>
      <stop offset="1" stop-color="#F6B626"/>
    </linearGradient>
    <linearGradient id="paint2_linear_3107_5896" x1="92956.6" y1="18494.3" x2="92981.8" y2="21613.2" gradientUnits="userSpaceOnUse">
      <stop offset="0.18" stop-color="#FF4148"/>
      <stop offset="1" stop-color="#980B0E"/>
    </linearGradient>
    <linearGradient id="paint3_linear_3107_5896" x1="93978.5" y1="9296.25" x2="91449.2" y2="22524.6" gradientUnits="userSpaceOnUse">
      <stop offset="0.01" stop-color="#F7BB2E"/>
      <stop offset="0.03" stop-color="#F6B626"/>
      <stop offset="0.57" stop-color="#FFEF7F"/>
      <stop offset="1" stop-color="#F6B626"/>
    </linearGradient>
    <linearGradient id="paint4_linear_3107_5896" x1="16.9142" y1="10.2743" x2="8.7437" y2="11.1905" gradientUnits="userSpaceOnUse">
      <stop stop-color="#FC9219"/>
      <stop offset="0.2" stop-color="#FFB33C"/>
      <stop offset="0.48" stop-color="#FFEF68"/>
      <stop offset="1" stop-color="#FC9219"/>
    </linearGradient>
    <linearGradient id="paint5_linear_3107_5896" x1="15.3947" y1="8.91988" x2="12.4709" y2="12.2313" gradientUnits="userSpaceOnUse">
      <stop stop-color="#FFB60F"/>
      <stop offset="0.2" stop-color="#FFB33C"/>
      <stop offset="0.48" stop-color="#FFEF68"/>
      <stop offset="1" stop-color="#FFB33C"/>
    </linearGradient>
    <radialGradient id="paint6_radial_3107_5896" cx="0" cy="0" r="1" gradientUnits="userSpaceOnUse" gradientTransform="translate(13.8887 10.6084) rotate(-23.5635) scale(2.41356 2.40528)">
      <stop offset="0.78" stop-color="#FFFFE8"/>
      <stop offset="1" stop-color="#4E1F09"/>
    </radialGradient>
  </defs>
</svg>
