<svg fill="none" height="24" viewBox="0 0 24 24" width="24" xmlns="http://www.w3.org/2000/svg"><path d="m23.7106 10.2168-2.621-.78204c-.1812-.63271-.4303-1.24395-.743-1.823l1.283-2.4c.0481-.09062.0657-.19433.0502-.29575s-.0633-.19514-.1362-.26725l-1.87-1.883c-.0721-.07298-.1659-.12076-.2673-.13625s-.2051.00213-.2957.05025l-2.386 1.278c-.5846-.32794-1.2037-.5902-1.846-.782l-.782-2.589004c-.0331-.095567-.0956-.178161-.1787-.235858-.083-.057698-.1822-.087513-.2833-.085142h-2.644c-.1016.000359-.2004.033144-.2821.093581-.0817.060436-.1419.145366-.1719.242419l-.78203 2.582004c-.64776.19077-1.27227.45305-1.862.782l-2.347-1.267c-.09061-.04812-.19432-.06574-.29574-.05025s-.19514.06327-.26726.13625l-1.898 1.854c-.07297.07211-.12075.16583-.13625.26725-.01549.10142.00213.20513.05025.29575l1.267 2.347c-.32805.58723-.58999 1.20903-.781 1.854l-2.588999.78204c-.097053.03-.181984.0902-.24242.1719-.060436.0816-.093222.1805-.093581.2821v2.644c.000359.1015.033145.2004.093581.282.060436.0817.145367.1419.24242.172l2.604999.782c.19338.6343.45561 1.2456.782 1.823l-1.287 2.457c-.04871.0913-.06637.1961-.05032.2983.01606.1023.06496.1966.13932.2687l1.87 1.87c.07212.0729.16584.1207.26726.1362s.20513-.0021.29574-.0502l2.417-1.291c.57208.3084 1.17551.5548 1.8.735l.78203 2.636c.03.097.0902.1819.1719.2424.0817.0604.1805.0932.2821.0936h2.644c.1016-.0004.2004-.0332.282-.0936.0817-.0605.1419-.1454.172-.2424l.782-2.644c.619-.1811 1.217-.4275 1.784-.735l2.433 1.3c.0906.0481.1943.0657.2957.0502s.1952-.0633.2673-.1362l1.87-1.87c.0737-.0728.1218-.1675.137-.27s-.0035-.2071-.053-.298l-1.3-2.425c.3107-.5689.5598-1.1693.743-1.791l2.636-.782c.097-.0301.182-.0903.2424-.172.0604-.0816.0932-.1805.0936-.282v-2.669c.0047-.0973-.0204-.1938-.0721-.2764-.0516-.0826-.1273-.1474-.2169-.1856zm-11.4 6.086c-.8505 0-1.6819-.2522-2.38898-.7247-.70713-.4725-1.25827-1.1441-1.58373-1.9298s-.41061-1.6503-.2447-2.4844c.16592-.8341.57546-1.60034 1.17682-2.2017.60137-.60137 1.36759-1.0109 2.20169-1.17682s1.6987-.08076 2.4844.24469c.7857.32546 1.4573.8766 1.9298 1.58373.4725.7071.7247 1.5385.7247 2.389 0 1.1404-.4531 2.2341-1.2595 3.0405s-1.9001 1.2595-3.0405 1.2595z" fill="#fff"/></svg>