<svg xmlns="http://www.w3.org/2000/svg" id="EducationIcon" width="20.765" height="17.32" viewBox="0 0 20.765 17.32">
    <defs>
        <style>
        </style>
    </defs>
    <path id="Path_22264" d="M20.359 45.951L10.585 42.5a.608.608 0 0 0-.4 0L.406 45.951A.608.608 0 0 0 .4 47.1l9.774 3.475a.608.608 0 0 0 .408 0L20.36 47.1a.608.608 0 0 0 0-1.147z" class="cls-1" transform="translate(0 -42.468)"/>
    <path id="Path_22265" d="M432.678 203.04v-5.306l-1.217.433v4.874a1.221 1.221 0 0 0 0 2.119v2.99a.608.608 0 0 0 1.217 0v-2.99a1.222 1.222 0 0 0 0-2.119z" class="cls-1" transform="translate(-413.375 -191.437)"/>
    <path id="Path_22266" d="M111.55 224.471a1.821 1.821 0 0 1-.611-.105l-5.495-1.953v2.677c0 .655.683 1.209 2.031 1.646a14.341 14.341 0 0 0 8.15 0c1.348-.437 2.031-.991 2.031-1.646v-2.677l-5.495 1.953a1.821 1.821 0 0 1-.611.105z" class="cls-1" transform="translate(-101.168 -215.113)"/>
</svg>
