<svg xmlns="http://www.w3.org/2000/svg" id="InterestsIcon" width="17.219" height="13.155" viewBox="0 0 17.219 13.155">
    <defs>
        <style>
        </style>
    </defs>
    <g id="Group_13729">
        <g id="Group_13728">
            <path id="Path_22279" d="M35.448 35.049a.607.607 0 0 0-.432.179.614.614 0 0 0-.181.437V44.9a.618.618 0 0 0 .617.616 7.622 7.622 0 0 1 5.495 2.037v-9.67a.59.59 0 0 0-.085-.312c-1.362-2.186-3.977-2.519-5.414-2.522z" class="cls-1" transform="translate(-32.813 -35.049)"/>
            <path id="Path_22280" d="M162.863 44.9v-9.24a.615.615 0 0 0-.613-.616c-1.437 0-4.052.336-5.413 2.527a.59.59 0 0 0-.085.312v9.67a7.622 7.622 0 0 1 5.495-2.037.618.618 0 0 0 .616-.616z" class="cls-1" transform="translate(-147.663 -35.048)"/>
            <path id="Path_22281" d="M178.143 71.8h-.443v7.725a1.576 1.576 0 0 1-1.571 1.573 6.834 6.834 0 0 0-4.643 1.585 14.834 14.834 0 0 1 6.523.126.616.616 0 0 0 .754-.6v-9.792a.617.617 0 0 0-.62-.617z" class="cls-1" transform="translate(-161.54 -69.67)"/>
            <path id="Path_22282" d="M1.063 79.526V71.8H.616a.617.617 0 0 0-.616.617v9.792a.616.616 0 0 0 .754.6 14.832 14.832 0 0 1 6.523-.126A6.834 6.834 0 0 0 2.634 81.1a1.576 1.576 0 0 1-1.571-1.574z" class="cls-1" transform="translate(0 -69.67)"/>
        </g>
    </g>
</svg>
