<svg xmlns="http://www.w3.org/2000/svg" width="16.242" height="15.228" viewBox="0 0 16.242 15.228">
    <g>
        <path d="M15.924 27.359a4.691 4.691 0 0 1-3.19-2.676.153.153 0 0 0-.009-.018.671.671 0 0 1-.076-.552c.119-.278.574-.422.874-.518.087-.027.17-.054.238-.08a1.838 1.838 0 0 0 .648-.387.615.615 0 0 0 .2-.443.7.7 0 0 0-.522-.6.943.943 0 0 0-.353-.067.787.787 0 0 0-.329.067 1.846 1.846 0 0 1-.677.193.622.622 0 0 1-.224-.049l.019-.314v-.047a8.04 8.04 0 0 0-.207-3.279 4.411 4.411 0 0 0-.994-1.422 4.156 4.156 0 0 0-1.189-.784 4.7 4.7 0 0 0-1.855-.392h-.32a4.715 4.715 0 0 0-1.857.392 4.133 4.133 0 0 0-1.185.783 4.425 4.425 0 0 0-.99 1.419 8.047 8.047 0 0 0-.208 3.277l.022.36a.651.651 0 0 1-.266.05 1.761 1.761 0 0 1-.724-.194.65.65 0 0 0-.275-.057.973.973 0 0 0-.486.136.673.673 0 0 0-.344.44.606.606 0 0 0 .231.57 2 2 0 0 0 .605.346c.069.027.151.053.238.08.3.1.756.24.875.518a.676.676 0 0 1-.077.552.144.144 0 0 0-.008.018 5.376 5.376 0 0 1-.818 1.265 4.591 4.591 0 0 1-.987.871 3.631 3.631 0 0 1-1.386.539.379.379 0 0 0-.318.4.481.481 0 0 0 .04.165 1.015 1.015 0 0 0 .55.47 6.283 6.283 0 0 0 1.589.413 1.927 1.927 0 0 1 .1.349c.026.122.054.248.093.381a.416.416 0 0 0 .436.317 2.12 2.12 0 0 0 .374-.052 4.248 4.248 0 0 1 .852-.1 3.7 3.7 0 0 1 .609.052 2.893 2.893 0 0 1 1.138.588 3.685 3.685 0 0 0 2.244.874h.199a3.69 3.69 0 0 0 2.244-.873 2.9 2.9 0 0 1 1.138-.587 3.7 3.7 0 0 1 .609-.052 4.268 4.268 0 0 1 .852.09 2.058 2.058 0 0 0 .374.046h.018a.411.411 0 0 0 .417-.312c.039-.131.066-.253.093-.378a1.994 1.994 0 0 1 .1-.347 6.327 6.327 0 0 0 1.589-.413 1.019 1.019 0 0 0 .549-.469.483.483 0 0 0 .041-.168.378.378 0 0 0-.324-.391z" transform="translate(0 -15.988)"/>
    </g>
</svg>
