<svg xmlns="http://www.w3.org/2000/svg" id="Component_883_3" width="37.762" height="37.762" data-name="Component 883 – 3" viewBox="0 0 37.762 37.762">
    <path id="Path_21720" fill="#ffad4a" d="M18.881 0A18.881 18.881 0 1 1 0 18.881 18.881 18.881 0 0 1 18.881 0z" data-name="Path 21720"/>
    <g id="Component_618_2" data-name="Component 618 – 2" transform="translate(9.98 8.334)">
        <path id="Path_2224" fill="#fff" d="M2105.2 1558.3c.345-2.153-1.407-3.31-3.8-4.082l.777-2.916-1.9-.442-.756 2.839q-.758-.174-1.519-.335l.762-2.858-1.9-.442-.777 2.915c-.413-.088-.818-.175-1.211-.266v-.009l-2.616-.611-.5 1.9s1.407.3 1.377.321c.768.179.908.655.885 1.032l-.885 3.322a1.727 1.727 0 0 1 .2.059l-.2-.047-1.241 4.654a.7.7 0 0 1-.87.421c.019.026-1.379-.322-1.379-.322l-.941 2.032 2.469.576c.459.107.91.22 1.353.326l-.786 2.949 1.9.442.777-2.918c.518.132 1.02.253 1.512.367l-.775 2.9 1.9.442.786-2.944c3.235.573 5.667.342 6.691-2.4.825-2.2-.041-3.476-1.743-4.305a2.907 2.907 0 0 0 2.422-2.606zm-4.335 5.686c-.586 2.2-4.552 1.013-5.839.714l1.042-3.907c1.286.299 5.41.894 4.797 3.192zm.586-5.718c-.534 2-3.836.986-4.907.736l.944-3.544c1.071.25 4.521.716 3.963 2.807z" data-name="Path 2224" transform="translate(-2088.702 -1550.063)"/>
    </g>
</svg>
