<svg width="256" height="256" viewBox="0 0 256 256" fill="none" xmlns="http://www.w3.org/2000/svg">
<circle cx="128" cy="128" r="128" fill="#666666"/>
<path d="M195.068 126.486L179.112 117.087L172.336 113.152C169.713 111.622 166.653 111.622 164.03 113.152L132.991 131.076C130.368 132.606 127.308 132.606 124.685 131.076L93.8654 113.152C91.2424 111.622 88.1823 111.622 85.5593 113.152L78.7833 117.087L62.8269 126.486C57.3624 129.764 57.3624 137.633 62.8269 140.693L89.9309 156.431L125.122 176.759C127.745 178.289 130.806 178.289 133.429 176.759L168.62 156.431L195.724 140.693C200.751 137.633 200.751 129.764 195.068 126.486Z" fill="url(#paint0_linear_638_3643)"/>
<path d="M195.072 93.481L172.121 80.1476C169.498 78.6175 166.438 78.6175 163.815 80.1476L132.776 98.0713C130.154 99.6013 127.093 99.6013 124.47 98.0713L93.4319 80.1476C90.809 78.6175 87.7488 78.6175 85.1259 80.1476L62.6121 93.481C57.1475 96.7598 57.1475 104.629 62.6121 107.689L78.787 117.088L89.7161 123.427L124.908 143.755C127.531 145.285 130.591 145.285 133.214 143.755L168.405 123.427L179.334 117.088L195.509 107.689C200.755 104.629 200.755 96.7598 195.072 93.481Z" fill="url(#paint1_linear_638_3643)"/>
<g opacity="0.3">
<path d="M124.687 143.976C127.31 145.506 130.37 145.506 132.993 143.976L168.185 123.648L179.114 117.309L172.338 113.375C169.715 111.845 166.655 111.845 164.032 113.375L132.993 131.298C130.37 132.828 127.31 132.828 124.687 131.298L93.8672 113.156C91.2442 111.626 88.1841 111.626 85.5612 113.156L78.7852 117.091L89.7142 123.429L124.687 143.976Z" fill="#F6921A"/>
</g>
<defs>
<linearGradient id="paint0_linear_638_3643" x1="128.918" y1="178.114" x2="128.918" y2="112.135" gradientUnits="userSpaceOnUse">
<stop stop-color="#F6921A"/>
<stop offset="1" stop-color="#B04200"/>
</linearGradient>
<linearGradient id="paint1_linear_638_3643" x1="128.917" y1="104.093" x2="128.917" y2="145.131" gradientUnits="userSpaceOnUse">
<stop stop-color="#FFEEDC"/>
<stop offset="1" stop-color="#FFC382"/>
</linearGradient>
</defs>
</svg>
